<?xml version="1.0" standalone="no"?>
<!DOCTYPE svg PUBLIC "-//W3C//DTD SVG 1.1//EN" "http://www.w3.org/Graphics/SVG/1.1/DTD/svg11.dtd" >
<svg xmlns="http://www.w3.org/2000/svg" xmlns:xlink="http://www.w3.org/1999/xlink" version="1.1">
<metadata>
Created by FontForge 20170731 at Fri Oct 27 11:26:39 2023
 By Aleksey,,,
Copyright 2017-2021 Indian Type Foundry. All rights reserved.
</metadata>
<defs>
<font id="ClashGrotesk-Light" horiz-adv-x="1228" >
  <font-face 
    font-family="Clash Grotesk Light"
    font-weight="300"
    font-stretch="normal"
    units-per-em="2048"
    panose-1="0 0 0 0 0 0 0 0 0 0"
    ascent="1638"
    descent="-410"
    x-height="1006"
    cap-height="1372"
    bbox="-465 -410 3336 1823"
    underline-thickness="69"
    underline-position="-355"
    unicode-range="U+000D-FB04"
  />
<missing-glyph 
d="M100 0v1331h1028v-1331h-1028zM279 1219l335 -463l336 463h-671zM213 1128v-925l336 463zM680 666l336 -463v925zM279 113h671l-336 462z" />
    <glyph glyph-name="f_f" unicode="ff" horiz-adv-x="1075" 
d="M260 0h-92v926h-150v80h150v73q0 143 75 218t222 75h94v-80h-108q-98 0 -145.5 -42t-47.5 -128v-116h424v73q0 143 75 218t222 75h94v-80h-108q-98 0 -145.5 -42t-47.5 -128v-116h301v-80h-299v-926h-92v926h-422v-926z" />
    <glyph glyph-name="fi" unicode="fi" horiz-adv-x="880" 
d="M260 0h-92v926h-150v80h150v73q0 143 75 218t222 75h94v-80h-108q-98 0 -145.5 -42t-47.5 -128v-116h301v-80h-299v-926zM764 1147h-92v225h92v-225zM764 0h-92v1024h92v-1024z" />
    <glyph glyph-name="fl" unicode="fl" horiz-adv-x="901" 
d="M260 0h-92v926h-150v80h150v73q0 143 75 218t222 75h94v-80h-108q-98 0 -145.5 -42t-47.5 -128v-116h301v-80h-299v-926zM780 0h-90v1372h90v-1372z" />
    <glyph glyph-name="f_f_i" unicode="ffi" horiz-adv-x="1394" 
d="M260 0h-92v926h-150v80h150v73q0 143 75 218t222 75h94v-80h-108q-98 0 -145.5 -42t-47.5 -128v-116h424v73q0 143 75 218t222 75h94v-80h-108q-98 0 -145.5 -42t-47.5 -128v-116h301v-80h-299v-926h-92v926h-422v-926zM1278 1147h-92v225h92v-225zM1278 0h-92v1024h92
v-1024z" />
    <glyph glyph-name="f_f_l" unicode="ffl" horiz-adv-x="1415" 
d="M260 0h-92v926h-150v80h150v73q0 143 75 218t222 75h94v-80h-108q-98 0 -145.5 -42t-47.5 -128v-116h424v73q0 143 75 218t222 75h94v-80h-108q-98 0 -145.5 -42t-47.5 -128v-116h301v-80h-299v-926h-92v926h-422v-926zM1294 0h-90v1372h90v-1372z" />
    <glyph glyph-name="f_t" unicode="ft" horiz-adv-x="1126" 
d="M260 0h-92v926h-150v80h150v73q0 143 75 218t222 75h94v-80h-108q-98 0 -145.5 -42t-47.5 -128v-116h422l27 264h63v-264h332v-80h-332v-682q0 -91 46.5 -125.5t146.5 -34.5h139v-70q-62 -16 -164 -16q-128 0 -193 59.5t-65 208.5v660h-420v-926z" />
    <glyph glyph-name="f_b" unicode="fb" horiz-adv-x="1662" 
d="M260 0h-92v926h-150v80h150v73q0 143 75 218t222 75h94v-80h-108q-98 0 -145.5 -42t-47.5 -128v-116h301v-80h-299v-926zM768 0h-78v1372h90v-588q37 105 135.5 173.5t235.5 68.5q203 0 317.5 -141t114.5 -381q0 -242 -114.5 -383t-321.5 -141q-142 0 -240 69t-131 180
h-8v-229zM780 420q0 -173 99.5 -266t259.5 -93q60 0 110 12t96.5 42.5t78 79.5t50.5 127.5t19 181.5t-19 181t-51 126.5t-79 79t-97 42t-110 11.5q-159 0 -258 -92.5t-99 -263.5v-168z" />
    <glyph glyph-name="f_f_b" unicode="ffb" horiz-adv-x="2177" 
d="M260 0h-92v926h-150v80h150v73q0 143 75 218t222 75h94v-80h-108q-98 0 -145.5 -42t-47.5 -128v-116h424v73q0 143 75 218t222 75h94v-80h-108q-98 0 -145.5 -42t-47.5 -128v-116h301v-80h-299v-926h-92v926h-422v-926zM1282 0h-78v1372h90v-588q37 105 135.5 173.5
t235.5 68.5q203 0 317.5 -141t114.5 -381q0 -242 -114.5 -383t-321.5 -141q-142 0 -240 69t-131 180h-8v-229zM1294 420q0 -173 99.5 -266t259.5 -93q60 0 110 12t96.5 42.5t78 79.5t50.5 127.5t19 181.5t-19 181t-51 126.5t-79 79t-97 42t-110 11.5q-159 0 -258 -92.5
t-99 -263.5v-168z" />
    <glyph glyph-name="f_f_h" unicode="ffh" horiz-adv-x="2164" 
d="M260 0h-92v926h-150v80h150v73q0 143 75 218t222 75h94v-80h-108q-98 0 -145.5 -42t-47.5 -128v-116h424v73q0 143 75 218t222 75h94v-80h-108q-98 0 -145.5 -42t-47.5 -128v-116h301v-80h-299v-926h-92v926h-422v-926zM1294 0h-90v1372h90v-577h6q16 43 42.5 80.5
t68.5 73t105.5 56.5t140.5 21q185 0 281 -117t96 -311v-598h-92v588q0 183 -74 269.5t-228 86.5q-164 0 -255 -93.5t-91 -285.5v-565z" />
    <glyph glyph-name="f_f_j" unicode="ffj" horiz-adv-x="1419" 
d="M260 0h-92v926h-150v80h150v73q0 143 75 218t222 75h94v-80h-108q-98 0 -145.5 -42t-47.5 -128v-116h424v73q0 143 75 218t222 75h94v-80h-108q-98 0 -145.5 -42t-47.5 -128v-116h301v-80h-299v-926h-92v926h-422v-926zM1298 1147h-90v225h90v-225zM1014 -348v88h67
q75 0 101 21.5t26 91.5v1153h90v-1129q0 -125 -58.5 -175t-172.5 -50h-53z" />
    <glyph glyph-name="f_f_k" unicode="ffk" horiz-adv-x="2064" 
d="M260 0h-92v926h-150v80h150v73q0 143 75 218t222 75h94v-80h-108q-98 0 -145.5 -42t-47.5 -128v-116h424v73q0 143 75 218t222 75h94v-80h-108q-98 0 -145.5 -42t-47.5 -128v-116h301v-80h-299v-926h-92v926h-422v-926zM1294 0h-90v1372h90v-805h295l332 439h107
l-367 -476l358 -530h-106l-328 485h-291v-485z" />
    <glyph glyph-name="f_h" unicode="fh" horiz-adv-x="1652" 
d="M260 0h-92v926h-150v80h150v73q0 143 75 218t222 75h94v-80h-108q-98 0 -145.5 -42t-47.5 -128v-116h301v-80h-299v-926zM780 0h-90v1372h90v-577h6q16 43 42.5 80.5t68.5 73t105.5 56.5t140.5 21q185 0 281 -117t96 -311v-598h-93v588q0 183 -73.5 269.5t-227.5 86.5
q-164 0 -255 -93.5t-91 -285.5v-565z" />
    <glyph glyph-name="f_j" unicode="fj" horiz-adv-x="905" 
d="M260 0h-92v926h-150v80h150v73q0 143 75 218t222 75h94v-80h-108q-98 0 -145.5 -42t-47.5 -128v-116h301v-80h-299v-926zM786 1147h-90v225h90v-225zM502 -348v88h67q75 0 101 21.5t26 91.5v1153h90v-1129q0 -125 -58.5 -175t-172.5 -50h-53z" />
    <glyph glyph-name="f_k" unicode="fk" horiz-adv-x="1550" 
d="M260 0h-92v926h-150v80h150v73q0 143 75 218t222 75h94v-80h-108q-98 0 -145.5 -42t-47.5 -128v-116h301v-80h-299v-926zM780 0h-90v1372h90v-805h295l332 439h106l-366 -476l358 -530h-106l-328 485h-291v-485z" />
    <glyph glyph-name=".notdef" 
d="M100 0v1331h1028v-1331h-1028zM279 1219l335 -463l336 463h-671zM213 1128v-925l336 463zM680 666l336 -463v925zM279 113h671l-336 462z" />
    <glyph glyph-name=".null" horiz-adv-x="0" 
 />
    <glyph glyph-name="nonmarkingreturn" horiz-adv-x="682" 
 />
    <glyph glyph-name="CR" unicode="&#xd;" horiz-adv-x="614" 
 />
    <glyph glyph-name="space" unicode=" " horiz-adv-x="399" 
 />
    <glyph glyph-name="exclam" unicode="!" horiz-adv-x="278" 
d="M178 451h-78q0 134 -8 422t-8 356v143h109v-143q0 -68 -7.5 -356.5t-7.5 -421.5zM190 0h-100v256h100v-256z" />
    <glyph glyph-name="quotedbl" unicode="&#x22;" horiz-adv-x="417" 
d="M328 956h-41l-25 220v196h92v-196zM131 956h-41l-27 220v196h93v-196z" />
    <glyph glyph-name="numbersign" unicode="#" horiz-adv-x="1683" 
d="M334 0h-86l133 354h-334v82h365l184 486h-367v84h400l141 366h86l-137 -366h489l142 366h88l-138 -366h336v-84h-368l-185 -486h369v-82h-405l-134 -354h-88l136 354h-494zM684 928l-188 -496h497l189 496h-498z" />
    <glyph glyph-name="dollar" unicode="$" horiz-adv-x="1181" 
d="M637 -205h-84v189q-115 9 -205 47.5t-145.5 98t-84 132.5t-28.5 156v20h92v-22q0 -168 111.5 -258t337.5 -90q186 0 282.5 66.5t96.5 199.5q0 128 -70 191t-229 100l-244 57q-83 19 -144 44.5t-113.5 66t-80 101.5t-27.5 142q0 68 29 130t84 111.5t142 80.5t196 35v184
h84v-186q109 -8 195 -47.5t139.5 -99.5t81.5 -134.5t28 -157.5v-18h-92v22q0 166 -104.5 257.5t-304.5 91.5q-186 0 -285.5 -65.5t-99.5 -192.5q0 -66 17.5 -112t57.5 -78.5t92.5 -53t135.5 -41.5l243 -60q82 -19 143 -45t112.5 -67t78.5 -103t27 -143q0 -73 -29.5 -137.5
t-85.5 -115.5t-146.5 -81t-203.5 -30v-185z" />
    <glyph glyph-name="percent" unicode="%" horiz-adv-x="1533" 
d="M360 715q-97 0 -167 49.5t-102 125t-32 165.5q0 65 19 124.5t55 108t95 77t132 28.5t131.5 -28.5t94.5 -77t54.5 -108t18.5 -124.5q0 -90 -31.5 -165.5t-101 -125t-166.5 -49.5zM244 0h-97l1145 1372h94zM360 791q220 0 220 264q0 262 -220 262q-219 0 -219 -262
q0 -129 52 -196.5t167 -67.5zM1176 -20q-97 0 -167.5 49.5t-102.5 124.5t-32 165q0 88 32 163t102.5 125t167.5 50q73 0 132 -28.5t95 -77t55 -108t19 -124.5q0 -67 -19 -127t-55 -107.5t-94.5 -76t-132.5 -28.5zM1176 55q219 0 219 264q0 263 -219 263q-220 0 -220 -263
q0 -264 220 -264z" />
    <glyph glyph-name="ampersand" unicode="&#x26;" horiz-adv-x="1323" 
d="M551 1290q-181 0 -260.5 -64t-79.5 -202q0 -264 358 -264h404v246h90v-246h240v-82h-240v-264q0 -205 -135 -319.5t-375 -114.5q-220 0 -345.5 101.5t-125.5 285.5q0 139 76.5 231t216.5 121v8q-124 26 -190 107.5t-66 197.5q0 164 117 253t325 89h230v-84h-240zM555 63
q221 0 319.5 84t98.5 267v264h-424q-375 0 -375 -307q0 -161 89.5 -234.5t291.5 -73.5z" />
    <glyph glyph-name="quotesingle" unicode="'" horiz-adv-x="221" 
d="M131 956h-41l-27 220v196h93v-196z" />
    <glyph glyph-name="parenleft" unicode="(" horiz-adv-x="546" 
d="M528 -102l-53 -45q-57 57 -103.5 113t-99 137.5t-88 165.5t-59 193t-23.5 224q0 457 373 834l53 -45q-43 -51 -67.5 -81t-64.5 -85t-63.5 -97.5t-53 -106t-45 -123.5t-26.5 -137t-11 -159t11 -159t26.5 -137t45 -123.5t52.5 -105.5t63.5 -97.5t64.5 -84.5t68 -81z" />
    <glyph glyph-name="parenright" unicode=")" horiz-adv-x="546" 
d="M14 1475l54 45q372 -376 372 -834q0 -115 -23.5 -224t-59 -193t-87.5 -165.5t-99 -137.5t-103 -113l-54 45q39 46 59.5 71t57 72.5t57 82.5t49.5 87t45.5 101t32.5 109t23.5 126.5t7.5 138.5q0 82 -11 159.5t-27 137t-45.5 123.5t-52.5 105.5t-63.5 97.5t-64.5 85t-68 81
z" />
    <glyph glyph-name="asterisk" unicode="*" horiz-adv-x="720" 
d="M350 1020l-135 -205l-65 47l155 193l-4 10l-238 65l25 78l229 -86l11 6l-11 246h80l-10 -246l10 -6l230 86l26 -78l-239 -65l-4 -10l155 -193l-65 -47l-135 205h-15z" />
    <glyph glyph-name="plus" unicode="+" horiz-adv-x="917" 
d="M502 307h-86v338h-336v82h336v338h86v-338h336v-82h-336v-338z" />
    <glyph glyph-name="comma" unicode="," horiz-adv-x="231" 
d="M74 -150h-19v60h21q19 0 27 6.5t8 28.5v55h-50v258h109v-315q0 -93 -96 -93z" />
    <glyph glyph-name="hyphen" unicode="-" horiz-adv-x="606" 
d="M547 557h-488v80h488v-80z" />
    <glyph glyph-name="period" unicode="." horiz-adv-x="231" 
d="M170 0h-109v258h109v-258z" />
    <glyph glyph-name="slash" unicode="/" horiz-adv-x="747" 
d="M51 -41h-92l737 1454h92z" />
    <glyph glyph-name="zero" unicode="0" horiz-adv-x="1257" 
d="M629 -20q-245 0 -393 188t-148 518t148 518.5t393 188.5t393.5 -188.5t148.5 -518.5t-148.5 -518t-393.5 -188zM629 66q218 0 333 155.5t115 464.5t-115 465t-333 156t-333.5 -156.5t-115.5 -464.5t115.5 -464t333.5 -156z" />
    <glyph glyph-name="one" unicode="1" horiz-adv-x="540" 
d="M403 0h-90v1126h-254v76h41q98 0 151.5 38t88.5 132h63v-1372z" />
    <glyph glyph-name="two" unicode="2" horiz-adv-x="1120" 
d="M1032 0h-917v59q0 93 24.5 169t72.5 135.5t103.5 103.5t133.5 90l219 127q94 56 145.5 99.5t81 101.5t29.5 133q0 287 -351 287q-214 0 -303.5 -90t-89.5 -277v-25h-92v33q0 94 29.5 174t87.5 141.5t153.5 96.5t219.5 35q109 0 194.5 -30t138 -82t79 -117.5t26.5 -141.5
q0 -73 -22.5 -134t-68 -110.5t-96 -87t-124.5 -80.5l-211 -121q-70 -41 -119 -79.5t-89 -87t-59.5 -107.5t-19.5 -131h825v-84z" />
    <glyph glyph-name="three" unicode="3" horiz-adv-x="1140" 
d="M584 -20q-130 0 -228.5 34.5t-157 96t-87.5 139t-29 170.5v33h92v-25q0 -185 93.5 -272.5t318.5 -87.5q202 0 290.5 71.5t88.5 231.5q0 307 -373 307h-225v82h194q367 0 367 272q0 143 -82 208t-273 65q-214 0 -306.5 -88.5t-92.5 -272.5v-22h-92v30q0 92 29.5 170.5
t88 139.5t154 96t219.5 35q210 0 328.5 -93.5t118.5 -261.5q0 -118 -65.5 -200.5t-188.5 -108.5v-8q141 -31 217 -123.5t76 -230.5q0 -184 -127.5 -285.5t-347.5 -101.5z" />
    <glyph glyph-name="four" unicode="4" horiz-adv-x="1208" 
d="M930 0h-90v319h-801v70l784 983h107v-969h237v-84h-237v-319zM158 403h682v852h-9l-673 -843v-9z" />
    <glyph glyph-name="five" unicode="5" horiz-adv-x="1179" 
d="M598 -20q-242 0 -376 109t-134 300v12h90v-12q0 -173 107 -247t315 -74q209 0 305 80.5t96 277.5q0 181 -98 262.5t-293 81.5q-129 0 -222.5 -26.5t-180.5 -77.5l-80 24l59 682h836v-84h-758l-51 -547h4q163 115 406 115q212 0 341.5 -113t129.5 -317
q0 -215 -128.5 -330.5t-367.5 -115.5z" />
    <glyph glyph-name="six" unicode="6" horiz-adv-x="1234" 
d="M645 -20q-290 0 -415.5 169t-125.5 539q0 122 17.5 224.5t58 193t103 153t157 98.5t215.5 36q196 0 323.5 -109t127.5 -301v-12h-96v12q0 145 -85 232.5t-276 87.5q-130 0 -219 -40t-139.5 -122t-72 -192t-21.5 -265v-121h10q34 124 155.5 205.5t307.5 81.5
q221 0 347 -119t126 -315q0 -200 -132.5 -318t-365.5 -118zM645 70q209 0 307.5 85.5t98.5 264.5q0 173 -98.5 259.5t-303.5 86.5q-201 0 -311.5 -92t-110.5 -258q0 -169 110 -257.5t308 -88.5z" />
    <glyph glyph-name="seven" unicode="7" horiz-adv-x="1017" 
d="M467 -2h-94q0 220 40 420t111.5 359.5t159.5 284.5t193 220v6h-854v84h972v-76q-269 -240 -398.5 -572.5t-129.5 -725.5z" />
    <glyph glyph-name="eight" unicode="8" horiz-adv-x="1212" 
d="M606 -20q-245 0 -385.5 104.5t-140.5 284.5q0 134 75.5 227t211.5 125v8q-121 26 -186.5 108.5t-65.5 200.5q0 157 131.5 256t359.5 99q227 0 359.5 -99t132.5 -256q0 -118 -65.5 -200.5t-186.5 -108.5v-8q136 -32 211.5 -125t75.5 -227q0 -180 -141 -284.5t-386 -104.5z
M606 754q203 0 301.5 69t98.5 209q0 275 -400 275q-399 0 -399 -275q0 -140 98 -209t301 -69zM606 66q228 0 331 77t103 232t-104.5 233t-329.5 78t-329.5 -78t-104.5 -233t103 -232t331 -77z" />
    <glyph glyph-name="nine" unicode="9" horiz-adv-x="1234" 
d="M629 -20q-210 0 -341.5 116.5t-131.5 311.5v12h94v-12q0 -55 11 -103t38.5 -92t70 -75t110 -49.5t153.5 -18.5q101 0 173.5 26.5t118 74.5t72 127.5t36 170.5t9.5 219v121h-10q-38 -125 -156.5 -206t-302.5 -81q-224 0 -350.5 118.5t-126.5 315.5q0 200 132.5 318.5
t365.5 118.5q291 0 416 -167.5t125 -539.5q0 -125 -14 -226.5t-49.5 -193t-92 -153t-145 -97.5t-205.5 -36zM596 606q197 0 306.5 92t109.5 258q0 169 -110 258t-308 89q-209 0 -307.5 -86t-98.5 -265q0 -174 99 -260t309 -86z" />
    <glyph glyph-name="colon" unicode=":" horiz-adv-x="231" 
d="M172 748h-109v258h109v-258zM172 0h-109v258h109v-258z" />
    <glyph glyph-name="semicolon" unicode=";" horiz-adv-x="231" 
d="M172 748h-109v258h109v-258zM76 -150h-19v60h21q19 0 27 6.5t8 28.5v55h-50v258h109v-315q0 -93 -96 -93z" />
    <glyph glyph-name="less" unicode="&#x3c;" horiz-adv-x="899" 
d="M90 735l727 314v-88l-629 -269v-12l629 -268v-88l-727 313v98z" />
    <glyph glyph-name="equal" unicode="=" horiz-adv-x="917" 
d="M838 852h-758v82h758v-82zM838 438h-758v82h758v-82z" />
    <glyph glyph-name="greater" unicode="&#x3e;" horiz-adv-x="899" 
d="M807 637l-727 -313v88l629 268v12l-629 269v88l727 -314v-98z" />
    <glyph glyph-name="question" unicode="?" horiz-adv-x="1026" 
d="M512 438h-92v66q0 71 26 117.5t101 85.5l145 73q103 53 151 107t48 143q0 133 -78 206t-262 73q-216 0 -307.5 -85.5t-91.5 -262.5v-25h-91v33q0 89 29.5 164.5t88 134.5t154.5 92t220 33q109 0 192.5 -28.5t134 -78t76 -113t25.5 -137.5q0 -61 -20 -112.5t-56.5 -90.5
t-77.5 -67.5t-94 -54.5l-137 -68q-49 -25 -66.5 -52.5t-17.5 -78.5v-74zM520 0h-102v256h102v-256z" />
    <glyph glyph-name="at" unicode="@" horiz-adv-x="1794" 
d="M842 84q-165 0 -261 114t-96 304q0 184 96.5 300t270.5 116q108 0 182 -50.5t103 -132.5h4v166h86v-557q0 -96 36 -139t119 -43q112 0 167 97.5t55 318.5q0 346 -164.5 518t-519.5 172q-167 0 -300 -45.5t-229.5 -136t-148.5 -234t-52 -332.5q0 -188 50 -331
t143.5 -233.5t224 -135.5t295.5 -45q95 0 160.5 10.5t165.5 38.5l22 -72q-162 -57 -354 -57q-365 0 -580 223t-215 602q0 249 101 437.5t286.5 290.5t430.5 102q361 0 566.5 -196t205.5 -568q0 -227 -84 -364.5t-230 -137.5q-99 0 -157 54t-76 149q-26 -87 -102.5 -145
t-200.5 -58zM573 502q0 -170 73 -255t206 -85q287 0 287 284v111q0 283 -279 283q-147 0 -217 -82t-70 -256z" />
    <glyph glyph-name="A" unicode="A" horiz-adv-x="1341" 
d="M133 0h-96l571 1372h125l572 -1372h-99l-184 436h-707zM594 1104l-244 -584h637l-246 584l-69 174h-8z" />
    <glyph glyph-name="B" unicode="B" horiz-adv-x="1224" 
d="M721 0h-584v1372h570q181 0 291 -90t110 -250q0 -116 -66.5 -196.5t-191.5 -104.5v-10q145 -30 221 -120.5t76 -225.5q0 -174 -118 -274.5t-308 -100.5zM229 1288v-528h457q330 0 330 264q0 137 -75 200.5t-236 63.5h-476zM229 678v-594h490q169 0 251.5 72.5t82.5 224.5
q0 297 -334 297h-490z" />
    <glyph glyph-name="C" unicode="C" horiz-adv-x="1316" 
d="M688 -20q-278 0 -443 192t-165 514t165 514.5t443 192.5q154 0 278.5 -60t197.5 -173.5t73 -260.5v-18h-96v18q0 193 -118.5 298.5t-338.5 105.5q-250 0 -379 -158.5t-129 -458.5t129 -458t379 -158q220 0 338.5 105t118.5 298v19h96v-19q0 -147 -73 -260.5t-197 -173
t-279 -59.5z" />
    <glyph glyph-name="D" unicode="D" horiz-adv-x="1323" 
d="M584 0h-447v1372h447q302 0 480.5 -186t178.5 -500t-178.5 -500t-480.5 -186zM584 1288h-355v-1204h355q281 0 422 154t141 448t-141 448t-422 154z" />
    <glyph glyph-name="E" unicode="E" horiz-adv-x="1099" 
d="M1018 0h-881v1372h881v-84h-789v-557h758v-82h-758v-565h789v-84z" />
    <glyph glyph-name="F" unicode="F" horiz-adv-x="1079" 
d="M229 0h-92v1372h881v-84h-789v-598h758v-82h-758v-608z" />
    <glyph glyph-name="G" unicode="G" horiz-adv-x="1357" 
d="M688 -20q-279 0 -443.5 191.5t-164.5 514.5q0 322 168 514.5t450 192.5q154 0 278 -60t196.5 -172.5t72.5 -257.5v-18h-96v18q0 191 -117.5 295.5t-337.5 104.5q-256 0 -388 -158.5t-132 -458.5t132.5 -458t391.5 -158q221 0 340 106t119 307v97h-508v82h596v-662h-78
v248h-6q-57 -135 -183 -201.5t-290 -66.5z" />
    <glyph glyph-name="H" unicode="H" horiz-adv-x="1292" 
d="M229 0h-92v1372h92v-639h834v639h92v-1372h-92v651h-834v-651z" />
    <glyph glyph-name="I" unicode="I" horiz-adv-x="366" 
d="M229 0h-92v1372h92v-1372z" />
    <glyph glyph-name="J" unicode="J" horiz-adv-x="1079" 
d="M496 -20q-119 0 -209 36t-143 99.5t-79 143.5t-26 175v105h94v-115q0 -177 86 -265.5t277 -88.5q190 0 276 88.5t86 265.5v948h94v-938q0 -95 -26 -175t-79 -143.5t-143 -99.5t-208 -36z" />
    <glyph glyph-name="K" unicode="K" horiz-adv-x="1230" 
d="M229 0h-92v1372h92v-645h422l414 645h106l-438 -680l443 -692h-107l-414 643h-426v-643z" />
    <glyph glyph-name="L" unicode="L" horiz-adv-x="1019" 
d="M997 0h-860v1372h92v-1288h768v-84z" />
    <glyph glyph-name="M" unicode="M" horiz-adv-x="1675" 
d="M229 0h-92v1372h129l443 -928l125 -274h8l127 274l440 928h129v-1372h-90v1233h-6l-82 -178l-467 -973h-111l-467 973l-79 178h-9l2 -178v-1055z" />
    <glyph glyph-name="N" unicode="N" horiz-adv-x="1308" 
d="M229 0h-92v1372h103l721 -1055l112 -165h8v1220h90v-1372h-100l-715 1044l-118 175h-9v-1219z" />
    <glyph glyph-name="O" unicode="O" horiz-adv-x="1392" 
d="M696 -20q-275 0 -445.5 193.5t-170.5 512.5t170.5 513t445.5 194t446 -194t171 -513t-171 -512.5t-446 -193.5zM696 70q253 0 387 159t134 457t-134 457.5t-387 159.5t-386.5 -159.5t-133.5 -457.5t133.5 -457t386.5 -159z" />
    <glyph glyph-name="P" unicode="P" horiz-adv-x="1196" 
d="M229 0h-92v1372h502q221 0 359.5 -118t138.5 -324q0 -205 -139 -323t-359 -118h-410v-489zM647 1288h-418v-717h418q400 0 400 359q0 358 -400 358z" />
    <glyph glyph-name="Q" unicode="Q" horiz-adv-x="1392" 
d="M696 -20q-275 0 -445.5 193.5t-170.5 512.5t170.5 513t445.5 194t446 -194t171 -513q0 -278 -132 -463.5t-354 -230.5l179 -281h-103l-164 271q-14 -2 -43 -2zM696 70q253 0 387 159t134 457t-134 457.5t-387 159.5t-386.5 -159.5t-133.5 -457.5t133.5 -457t386.5 -159z
" />
    <glyph glyph-name="R" unicode="R" horiz-adv-x="1200" 
d="M229 0h-92v1372h537q207 0 336 -105t129 -288q0 -174 -120.5 -277.5t-311.5 -103.5v-8q105 -31 180 -156l254 -434h-105l-241 408q-37 62 -77.5 98.5t-104 56t-156.5 19.5h-228v-582zM229 1288v-626h453q365 0 365 313t-365 313h-453z" />
    <glyph glyph-name="S" unicode="S" horiz-adv-x="1181" 
d="M629 -20q-134 0 -239 35.5t-169.5 96.5t-97.5 139t-33 167v20h92v-22q0 -168 111.5 -258t337.5 -90q186 0 282.5 66.5t96.5 199.5q0 128 -70 191t-229 100l-244 57q-83 19 -144 44.5t-113.5 66t-80 101.5t-27.5 142q0 70 31 133.5t89.5 114t151.5 80t208 29.5
q122 0 219 -36.5t157 -98.5t91.5 -140t31.5 -166v-18h-92v22q0 166 -104.5 257.5t-304.5 91.5q-186 0 -285.5 -65.5t-99.5 -192.5q0 -66 17.5 -112t57.5 -78.5t92.5 -53t135.5 -41.5l243 -60q82 -19 143 -45t112.5 -67t78.5 -103t27 -143q0 -73 -29.5 -137.5t-86.5 -115.5
t-149 -81t-208 -30z" />
    <glyph glyph-name="T" unicode="T" horiz-adv-x="1165" 
d="M629 0h-90v1288h-504v84h1095v-84h-501v-1288z" />
    <glyph glyph-name="U" unicode="U" horiz-adv-x="1388" 
d="M692 -20q-253 0 -404 147.5t-151 413.5v831h90v-831q0 -241 116 -356t349 -115q234 0 349.5 115t115.5 356v831h90v-831q0 -267 -150.5 -414t-404.5 -147z" />
    <glyph glyph-name="V" unicode="V" horiz-adv-x="1302" 
d="M711 0h-121l-551 1372h98l512 -1270h8l508 1270h99z" />
    <glyph glyph-name="W" unicode="W" horiz-adv-x="2054" 
d="M600 0h-129l-379 1372h103l270 -989l72 -283h8l88 283l328 989h118l328 -989l88 -283h8l72 283l270 989h103l-379 -1372h-131l-273 813l-141 430h-10l-140 -430z" />
    <glyph glyph-name="X" unicode="X" horiz-adv-x="1452" 
d="M221 0h-112l524 690v8l-524 674h116l477 -614h7l479 614h112l-524 -672v-10l524 -690h-116l-473 633h-9z" />
    <glyph glyph-name="Y" unicode="Y" horiz-adv-x="1185" 
d="M637 0h-90v532l-529 840h105l338 -530l131 -215h8l131 215l332 530h104l-530 -840v-532z" />
    <glyph glyph-name="Z" unicode="Z" horiz-adv-x="1173" 
d="M1133 0h-1074v82l922 1198v8h-881v84h1002v-82l-922 -1198v-8h953v-84z" />
    <glyph glyph-name="bracketleft" unicode="[" horiz-adv-x="454" 
d="M432 -123h-295v1618h295v-82h-205v-1454h205v-82z" />
    <glyph glyph-name="backslash" unicode="\" horiz-adv-x="751" 
d="M793 -41h-97l-737 1454h96z" />
    <glyph glyph-name="bracketright" unicode="]" horiz-adv-x="454" 
d="M-18 -41h204v1454h-204v82h294v-1618h-294v82z" />
    <glyph glyph-name="asciicircum" unicode="^" horiz-adv-x="829" 
d="M113 573h-86l333 799h111l334 -799h-86l-299 715h-8z" />
    <glyph glyph-name="underscore" unicode="_" horiz-adv-x="778" 
d="M758 -72h-738v72h738v-72z" />
    <glyph glyph-name="grave" unicode="`" 
d="M774 1147h-84l-235 256v10h108l211 -256v-10z" />
    <glyph glyph-name="a" unicode="a" horiz-adv-x="989" 
d="M393 -20q-144 0 -233.5 68.5t-89.5 191.5q0 129 93 193.5t271 86.5l357 47v74q0 156 -72 229.5t-223 73.5q-146 0 -224.5 -69.5t-78.5 -212.5v-17h-91v14q0 154 109 260.5t289 106.5q126 0 213 -52.5t125.5 -137t38.5 -193.5v-643h-80v219l-11 2q-48 -107 -150.5 -174
t-242.5 -67zM160 246q0 -187 252 -187q76 0 143 23t120.5 68.5t84.5 120t31 169.5v54l-363 -50q-143 -18 -205.5 -61t-62.5 -137z" />
    <glyph glyph-name="b" unicode="b" horiz-adv-x="1093" 
d="M199 0h-78v1372h90v-588q37 105 135.5 173.5t235.5 68.5q203 0 317.5 -141t114.5 -381q0 -242 -114.5 -383t-321.5 -141q-142 0 -240 69t-131 180h-8v-229zM211 420q0 -173 99 -266t259 -93q77 0 136.5 20t111 67.5t79.5 137.5t28 218q0 103 -19.5 181t-51.5 126.5
t-79 79t-97 42t-110 11.5q-158 0 -257 -92.5t-99 -263.5v-168z" />
    <glyph glyph-name="c" unicode="c" horiz-adv-x="1034" 
d="M539 -20q-208 0 -333.5 147.5t-125.5 376.5q0 149 55.5 267.5t160.5 186.5t243 68q180 0 298.5 -111.5t118.5 -285.5v-13h-90v11q0 148 -86.5 231.5t-242.5 83.5q-180 0 -273.5 -116.5t-93.5 -321.5q0 -206 93.5 -323.5t273.5 -117.5q156 0 242.5 84t86.5 232v10h90v-12
q0 -174 -118.5 -285.5t-298.5 -111.5z" />
    <glyph glyph-name="d" unicode="d" horiz-adv-x="1093" 
d="M518 -20q-208 0 -323 141t-115 383q0 241 114.5 381.5t321.5 140.5q135 0 233 -69.5t134 -172.5v588h90v-1372h-80v229h-6q-33 -111 -130.5 -180t-238.5 -69zM170 504q0 -103 19 -181.5t51 -127.5t79 -79.5t97 -42.5t110 -12q159 0 258 93t99 266v168q0 171 -98.5 263.5
t-254.5 92.5q-61 0 -111 -11.5t-97.5 -42t-80 -79t-52 -127t-19.5 -180.5z" />
    <glyph glyph-name="e" unicode="e" horiz-adv-x="1052" 
d="M539 -20q-143 0 -248 68.5t-158 186t-53 269.5q0 228 123 375t329 147q85 0 161 -27t137 -80t97 -142t36 -204q0 -58 -11 -104h-784q6 -193 97.5 -299.5t273.5 -106.5q155 0 240 74t85 187v12h90v-12q0 -142 -117.5 -243t-297.5 -101zM532 946q-176 0 -267 -107t-97 -296
h706q7 209 -86 306t-256 97z" />
    <glyph glyph-name="f" unicode="f" horiz-adv-x="563" 
d="M260 0h-92v926h-150v80h150v73q0 143 75 218t222 75h94v-80h-108q-98 0 -145.5 -42t-47.5 -128v-116h301v-80h-299v-926z" />
    <glyph glyph-name="g" unicode="g" horiz-adv-x="1093" 
d="M518 84q-205 0 -321.5 127t-116.5 344t114 344t318 127q139 0 240.5 -69.5t134.5 -178.5h6v228h80v-988q0 -184 -116 -285.5t-304 -101.5q-180 0 -300 98.5t-120 262.5h92q0 -139 84.5 -208t245.5 -69q164 0 246 73t82 230v314q-35 -107 -133.5 -177.5t-231.5 -70.5z
M170 555q0 -389 360 -389q154 0 253.5 93t99.5 265v64q0 170 -102.5 263t-260.5 93q-59 0 -108 -10t-95 -37t-77.5 -69.5t-50.5 -112t-19 -160.5z" />
    <glyph glyph-name="h" unicode="h" horiz-adv-x="1081" 
d="M211 0h-90v1372h90v-577h6q16 43 42.5 80.5t68 73t105 56.5t140.5 21q185 0 281 -117t96 -311v-598h-92v588q0 183 -73.5 269.5t-227.5 86.5q-164 0 -255 -93.5t-91 -285.5v-565z" />
    <glyph glyph-name="i" unicode="i" horiz-adv-x="325" 
d="M209 1147h-92v225h92v-225zM209 0h-92v1024h92v-1024z" />
    <glyph glyph-name="j" unicode="j" horiz-adv-x="335" 
d="M215 1147h-90v225h90v-225zM-70 -348v88h68q75 0 101 21.5t26 91.5v1153h90v-1129q0 -125 -58.5 -175t-172.5 -50h-54z" />
    <glyph glyph-name="k" unicode="k" horiz-adv-x="980" 
d="M211 0h-90v1372h90v-805h295l332 439h106l-366 -476l358 -530h-107l-327 485h-291v-485z" />
    <glyph glyph-name="l" unicode="l" horiz-adv-x="331" 
d="M211 0h-90v1372h90v-1372z" />
    <glyph glyph-name="m" unicode="m" horiz-adv-x="1761" 
d="M211 0h-90v1006h78v-232h8q15 46 40 87t66 80t106 62t146 23q137 0 223 -68.5t121 -191.5h4q82 260 357 260q186 0 282.5 -114.5t96.5 -307.5v-604h-93v588q0 183 -74.5 269.5t-232.5 86.5q-319 0 -319 -377v-567h-92v588q0 183 -71.5 269.5t-223.5 86.5
q-332 0 -332 -377v-567z" />
    <glyph glyph-name="n" unicode="n" horiz-adv-x="1064" 
d="M211 0h-90v1006h78v-232h8q14 45 42 87t71.5 80.5t109 61.5t143.5 23q186 0 281.5 -116.5t95.5 -311.5v-598h-92v588q0 183 -73 269.5t-228 86.5q-161 0 -253.5 -93.5t-92.5 -283.5v-567z" />
    <glyph glyph-name="o" unicode="o" horiz-adv-x="1107" 
d="M557 -20q-212 0 -344.5 148t-132.5 376q0 149 59 267.5t168.5 186.5t249.5 68q210 0 340.5 -147.5t130.5 -374.5q0 -228 -130.5 -376t-340.5 -148zM557 63q188 0 285.5 117t97.5 324q0 206 -97.5 323t-285.5 117q-189 0 -288 -117t-99 -323q0 -207 98.5 -324t288.5 -117z
" />
    <glyph glyph-name="p" unicode="p" horiz-adv-x="1093" 
d="M211 -350h-90v1356h78v-228h8q34 110 131.5 179t239.5 69q207 0 321.5 -140.5t114.5 -381.5q0 -242 -114 -383t-318 -141q-138 0 -237.5 69t-133.5 172v-571zM211 420q0 -173 99 -266t257 -93q50 0 92.5 8.5t84 27.5t73.5 53t56.5 81.5t37.5 117t13 155.5q0 103 -19 181
t-51 126.5t-78.5 79t-96.5 42t-110 11.5q-160 0 -259 -92.5t-99 -263.5v-168z" />
    <glyph glyph-name="q" unicode="q" horiz-adv-x="1093" 
d="M516 -20q-207 0 -321.5 141t-114.5 383q0 241 115 381.5t323 140.5q140 0 237.5 -69t131.5 -179h6v228h80v-1356h-90v571q-39 -105 -136 -173t-231 -68zM170 504q0 -443 360 -443q156 0 254.5 93.5t98.5 265.5v168q0 171 -99 263.5t-258 92.5q-60 0 -110 -11.5t-97 -42
t-79 -79t-51 -126.5t-19 -181z" />
    <glyph glyph-name="r" unicode="r" horiz-adv-x="829" 
d="M211 0h-90v1024h78v-186h10q25 81 98 134.5t178 53.5q146 0 215.5 -87.5t69.5 -227.5v-39h-90v30q0 130 -51.5 186t-163.5 56q-127 0 -190.5 -71t-63.5 -222v-651z" />
    <glyph glyph-name="s" unicode="s" horiz-adv-x="972" 
d="M516 -20q-195 0 -302.5 87t-107.5 250v5h91v-15q0 -84 28 -136.5t100 -82t193 -29.5q143 0 205.5 48.5t62.5 144.5q0 86 -54.5 128.5t-178.5 65.5l-174 33q-275 49 -275 266q0 125 101 203t266 78q174 0 280.5 -88t106.5 -246v-8h-90v14q0 248 -297 248q-276 0 -276 -196
q0 -87 50 -129t169 -66l172 -33q137 -27 212.5 -88.5t75.5 -175.5q0 -128 -97 -203t-261 -75z" />
    <glyph glyph-name="t" unicode="t" horiz-adv-x="653" 
d="M465 -2q-128 0 -193 59.5t-65 208.5v660h-170v80h170l26 264h64v-264h332v-80h-332v-682q0 -91 46.5 -125.5t145.5 -34.5h140v-70q-62 -16 -164 -16z" />
    <glyph glyph-name="u" unicode="u" horiz-adv-x="1081" 
d="M500 -20q-191 0 -288 118t-97 314v594h90v-586q0 -183 78 -271t237 -88q160 0 255 96t95 289v560h93v-1006h-80v238h-9q-14 -46 -42.5 -89t-73 -82.5t-111.5 -63t-147 -23.5z" />
    <glyph glyph-name="v" unicode="v" horiz-adv-x="985" 
d="M549 0h-113l-418 1006h99l372 -914h9l372 914h97z" />
    <glyph glyph-name="w" unicode="w" horiz-adv-x="1531" 
d="M414 0h-115l-270 1006h96l188 -727l45 -187h9l61 187l281 727h116l281 -730l61 -182h9l45 182l188 730h94l-270 -1006h-115l-266 692l-82 228h-6l-84 -228z" />
    <glyph glyph-name="x" unicode="x" horiz-adv-x="1009" 
d="M141 0h-106l401 508v8l-401 490h106l363 -441h6l360 441h105l-400 -490v-8l400 -508h-107l-360 459h-8z" />
    <glyph glyph-name="y" unicode="y" horiz-adv-x="985" 
d="M236 -348q-65 0 -115 12v72h98q71 0 103 21t59 83l74 168l-432 998h96l262 -611l117 -272h8l110 272l250 611h99l-506 -1199q-64 -155 -223 -155z" />
    <glyph glyph-name="z" unicode="z" horiz-adv-x="1007" 
d="M946 0h-885v80l631 717l105 118v9h-705v82h823v-82l-643 -731l-90 -103v-8h764v-82z" />
    <glyph glyph-name="braceleft" unicode="{" horiz-adv-x="505" 
d="M481 -123h-20q-236 0 -236 246v414q0 59 -22 79.5t-84 20.5h-78v98h78q62 0 84 20.5t22 80.5v413q0 246 236 246h20v-86h-26q-81 0 -111.5 -31.5t-30.5 -122.5v-405q0 -158 -131 -158v-12q131 0 131 -158v-405q0 -91 30.5 -122.5t111.5 -31.5h26v-86z" />
    <glyph glyph-name="bar" unicode="|" horiz-adv-x="354" 
d="M221 -205h-88v1782h88v-1782z" />
    <glyph glyph-name="braceright" unicode="}" horiz-adv-x="505" 
d="M25 1495h20q236 0 236 -246v-413q0 -60 22 -80.5t84 -20.5h78v-98h-78q-62 0 -84 -20.5t-22 -79.5v-414q0 -246 -236 -246h-20v86h26q81 0 111.5 31.5t30.5 122.5v405q0 158 131 158v12q-131 0 -131 158v405q0 91 -30.5 122.5t-111.5 31.5h-26v86z" />
    <glyph glyph-name="asciitilde" unicode="~" horiz-adv-x="1107" 
d="M231 520h-79v160q0 33 7.5 62.5t24.5 57t51.5 44t81.5 16.5q37 0 77 -16t67 -34.5t71 -51.5q9 -7 13 -10l73 -54q4 -3 19 -14t21 -15t19.5 -13.5t20.5 -13.5t19.5 -11.5t21.5 -10.5t20.5 -7t22 -5.5t21.5 -1.5q86 0 86 100v156h82v-162q0 -75 -38 -126.5t-120 -51.5
q-42 0 -86.5 17.5t-66 31.5t-70.5 49l-92 68q-42 32 -62.5 46.5t-55 30t-63.5 15.5q-86 0 -86 -100v-156z" />
    <glyph glyph-name="nbspace" unicode="&#xa0;" horiz-adv-x="399" 
 />
    <glyph glyph-name="exclamdown" unicode="&#xa1;" horiz-adv-x="278" 
d="M88 1024h100v-256h-100v256zM100 573h78q0 -134 8.5 -422t8.5 -356v-143h-109v143q0 68 7 356.5t7 421.5z" />
    <glyph glyph-name="cent" unicode="&#xa2;" horiz-adv-x="1034" 
d="M578 -205h-84v187q-189 17 -301.5 161.5t-112.5 360.5q0 215 112.5 359t301.5 161v205h84v-205q165 -12 271.5 -121.5t106.5 -273.5v-13h-90v11q0 148 -86.5 231.5t-242.5 83.5q-180 0 -273.5 -116.5t-93.5 -321.5q0 -206 93.5 -323.5t273.5 -117.5q156 0 242.5 84
t86.5 232v10h90v-12q0 -164 -106.5 -273.5t-271.5 -121.5v-187z" />
    <glyph glyph-name="sterling" unicode="&#xa3;" horiz-adv-x="1146" 
d="M811 637h-418l17 -25q64 -98 92 -161.5t28 -128.5q0 -79 -48.5 -139.5t-116.5 -92.5v-6h720v-84h-1003v84h55q131 0 223.5 61.5t92.5 165.5q0 61 -25.5 117.5t-85.5 138.5l-49 70h-211v82h151q-54 77 -81 145.5t-27 149.5q0 75 31 143t88.5 121t148 84t201.5 31
q125 0 220 -33t152.5 -92t86 -134.5t28.5 -166.5v-33h-90v24q0 179 -91 265t-308 86q-191 0 -283 -81t-92 -216q0 -52 15.5 -101.5t32 -77.5t52.5 -83l21 -31h473v-82z" />
    <glyph glyph-name="currency" unicode="&#xa4;" horiz-adv-x="1107" 
d="M557 201q-167 0 -293 102l-160 -170l-49 47l160 170q-115 128 -115 297t115 297l-160 170l49 45l160 -168q128 103 293 103q170 0 291 -105l160 170l51 -45l-162 -172q111 -127 111 -295t-111 -295l162 -172l-51 -47l-160 172q-120 -104 -291 -104zM557 283
q172 0 267.5 101t95.5 263q0 161 -95.5 262t-267.5 101q-173 0 -270 -101t-97 -262q0 -162 96.5 -263t270.5 -101z" />
    <glyph glyph-name="yen" unicode="&#xa5;" horiz-adv-x="1206" 
d="M651 0h-90v498h-530v80h501l-124 198h-377v80h325l-325 516h104l367 -577l104 -168h8l103 168l362 577h103l-326 -516h326v-80h-377l-125 -198h502v-80h-531v-498z" />
    <glyph glyph-name="brokenbar" unicode="&#xa6;" horiz-adv-x="292" 
d="M190 768h-88v809h88v-809zM190 -205h-88v809h88v-809z" />
    <glyph glyph-name="section" unicode="&#xa7;" horiz-adv-x="972" 
d="M508 -20q-189 0 -299.5 90t-110.5 260v8h90v-16q0 -263 318 -263q145 0 210.5 45t65.5 146q0 77 -51 117.5t-170 66.5l-231 47q-226 46 -226 228q0 73 51.5 123.5t139.5 64.5v8q-97 22 -144 81t-47 140q0 123 99 195t262 72q179 0 285 -91t106 -260v-6h-88v15
q0 126 -70.5 194t-234.5 68q-270 0 -270 -185q0 -81 52 -123.5t171 -66.5l231 -49q47 -10 83.5 -25t70 -39.5t51.5 -62.5t18 -88q0 -81 -50.5 -134t-137.5 -67v-6q95 -24 141.5 -80.5t46.5 -132.5q0 -131 -97.5 -202.5t-264.5 -71.5zM375 553l135 -29q141 -29 207.5 13
t66.5 125q0 71 -42 104t-142 55l-135 27q-138 27 -205 -13.5t-67 -121.5q0 -72 42 -106t140 -54z" />
    <glyph glyph-name="dieresis" unicode="&#xa8;" 
d="M811 1147h-90v231h90v-231zM508 1147h-90v231h90v-231z" />
    <glyph glyph-name="copyright" unicode="&#xa9;" horiz-adv-x="1538" 
d="M768 8q-205 0 -354.5 87.5t-225 239.5t-75.5 351t75.5 351t225 239.5t354.5 87.5t355 -87.5t226 -240t76 -350.5t-76 -350.5t-226 -240t-355 -87.5zM768 84q295 0 434 157.5t139 444.5t-139 444.5t-434 157.5q-294 0 -433.5 -157.5t-139.5 -444.5t139.5 -444.5
t433.5 -157.5zM780 315q-156 0 -248 105.5t-92 265.5t92 265.5t248 105.5q133 0 222.5 -80.5t89.5 -194.5v-16h-82v12q0 105 -62 155t-168 50q-258 0 -258 -297t258 -297q106 0 168 50t62 155v12h82v-16q0 -114 -89.5 -194.5t-222.5 -80.5z" />
    <glyph glyph-name="ordfeminine" unicode="&#xaa;" horiz-adv-x="432" 
d="M186 1073q-48 0 -76 21.5t-28 60.5q0 68 94 80l117 14v19q0 34 -15 50.5t-59 16.5t-58 -14.5t-14 -46.5v-4h-63v6q0 52 37.5 84.5t101.5 32.5q63 0 96 -34.5t33 -92.5v-187h-53v51h-4q-12 -26 -41 -41.5t-68 -15.5zM141 1159q0 -35 58 -35q39 0 68.5 18t29.5 62l-109 -14
q-47 -5 -47 -31z" />
    <glyph glyph-name="guillemotleft" unicode="&#xab;" horiz-adv-x="989" 
d="M518 666l410 301v-97l-338 -241v-8l338 -242v-96l-410 301v82zM27 666l409 301v-97l-338 -241v-8l338 -242v-96l-409 301v82z" />
    <glyph glyph-name="logicalnot" unicode="&#xac;" horiz-adv-x="917" 
d="M858 379h-86v344h-692v80h778v-424z" />
    <glyph glyph-name="softhyphen" unicode="&#xad;" horiz-adv-x="606" 
d="M547 557h-488v80h488v-80z" />
    <glyph glyph-name="registered" unicode="&#xae;" horiz-adv-x="780" 
d="M389 719q-149 0 -231 91t-82 228q0 138 82 229t231 91q150 0 231.5 -91t81.5 -229t-81.5 -228.5t-231.5 -90.5zM389 784q248 0 248 254q0 256 -248 256q-246 0 -246 -256q0 -254 246 -254zM330 899h-56v287h123q61 0 90 -21.5t29 -68.5q0 -37 -22.5 -58.5t-57.5 -21.5v-4
q19 -6 29 -16t24 -35l37 -62h-65l-31 53q-16 32 -30 43t-44 11h-26v-107zM330 1137v-86h78q30 0 41.5 8.5t11.5 30.5q0 29 -11 38t-42 9h-78z" />
    <glyph glyph-name="macron" unicode="&#xaf;" 
d="M850 1247h-471v68h471v-68z" />
    <glyph glyph-name="degree" unicode="&#xb0;" horiz-adv-x="475" 
d="M238 1073q-70 0 -114 46t-44 114t44 114t114 46t113.5 -46t43.5 -114t-43.5 -114t-113.5 -46zM238 1133q98 0 98 100t-98 100q-99 0 -99 -100t99 -100z" />
    <glyph glyph-name="plusminus" unicode="&#xb1;" horiz-adv-x="919" 
d="M838 223h-758v80h338v342h-336v82h336v338h86v-338h338v-82h-338v-342h334v-80z" />
    <glyph glyph-name="twosuperior" unicode="&#xb2;" horiz-adv-x="710" 
d="M637 696h-531v25q0 108 43 165.5t140 96.5l117 49q82 34 116.5 66t34.5 88q0 68 -38 101.5t-138 33.5q-106 0 -156.5 -41.5t-50.5 -130.5v-14h-78v14q0 102 74 173t213 71q120 0 186 -58t66 -147q0 -80 -48 -126t-149 -89l-127 -51q-65 -27 -94 -61.5t-29 -92.5h449v-72z
" />
    <glyph glyph-name="threesuperior" unicode="&#xb3;" horiz-adv-x="731" 
d="M387 686q-144 0 -217.5 60t-73.5 157v23h76v-23q0 -76 48 -110.5t167 -34.5q95 0 140.5 29t45.5 106q0 75 -43.5 99t-150.5 24h-123v69h106q105 0 144 21t39 94q0 60 -36.5 90.5t-131.5 30.5q-113 0 -159 -34t-46 -111v-21h-76v21q0 96 73.5 156.5t209.5 60.5
q108 0 177 -46t69 -137q0 -129 -138 -149v-10q78 -8 122 -50t44 -118q0 -95 -77 -146t-189 -51z" />
    <glyph glyph-name="acute" unicode="&#xb4;" 
d="M539 1147h-84v10l211 256h108v-10z" />
    <glyph glyph-name="paragraph" unicode="&#xb6;" horiz-adv-x="1159" 
d="M606 0h-90v553h-12q-92 0 -171 25.5t-141 75.5t-97.5 131t-35.5 184q0 100 35.5 178t97.5 126.5t141 73.5t171 25h102v-1372zM1022 0h-92v1372h92v-1372z" />
    <glyph glyph-name="periodcentered" unicode="&#xb7;" horiz-adv-x="266" 
d="M190 512h-108v258h108v-258z" />
    <glyph glyph-name="cedilla" unicode="&#xb8;" 
d="M592 -401h-115v69h111q88 0 88 68q0 42 -22.5 55.5t-65.5 13.5h-80v201h70v-133h14q73 0 115.5 -36.5t42.5 -98.5q0 -65 -42.5 -102t-115.5 -37z" />
    <glyph glyph-name="onesuperior" unicode="&#xb9;" horiz-adv-x="460" 
d="M295 686h-80v531h-166v71h92q43 0 60.5 18t25.5 66h68v-686z" />
    <glyph glyph-name="ordmasculine" unicode="&#xba;" horiz-adv-x="475" 
d="M238 1073q-70 0 -114 46t-44 114t44 114t114 46t113.5 -46t43.5 -114t-43.5 -114t-113.5 -46zM238 1133q98 0 98 100t-98 100q-99 0 -99 -100t99 -100z" />
    <glyph glyph-name="guillemotright" unicode="&#xbb;" horiz-adv-x="989" 
d="M471 584l-410 -301v96l338 242v8l-338 241v97l410 -301v-82zM963 584l-410 -301v96l338 242v8l-338 241v97l410 -301v-82z" />
    <glyph glyph-name="onequarter" unicode="&#xbc;" horiz-adv-x="1368" 
d="M326 686h-80v531h-166v71h92q43 0 60.5 18t25.5 66h68v-686zM133 0h-96l1145 1372h94zM1188 0h-80v141h-426v58l420 487h86v-471h119v-74h-119v-141zM795 215h313v363h-6l-307 -357v-6z" />
    <glyph glyph-name="onehalf" unicode="&#xbd;" horiz-adv-x="1486" 
d="M326 686h-80v531h-166v71h92q43 0 60.5 18t25.5 66h68v-686zM133 0h-96l1145 1372h94zM1425 0h-530v25q0 108 42.5 166t139.5 96l117 49q83 34 117.5 65.5t34.5 87.5q0 68 -38.5 102t-138.5 34q-106 0 -156 -41.5t-50 -130.5v-15h-78v15q0 102 73.5 172.5t212.5 70.5
q120 0 186 -57.5t66 -146.5q0 -80 -47.5 -126.5t-148.5 -89.5l-127 -51q-66 -27 -94.5 -61t-28.5 -92h448v-72z" />
    <glyph glyph-name="threequarters" unicode="&#xbe;" horiz-adv-x="1509" 
d="M373 686q-144 0 -217.5 60t-73.5 157v23h76v-23q0 -76 48 -110.5t167 -34.5q95 0 140.5 29t45.5 106q0 75 -43.5 99t-150.5 24h-123v69h106q105 0 143.5 21t38.5 94q0 60 -36.5 90.5t-131.5 30.5q-113 0 -158.5 -34t-45.5 -111v-21h-76v21q0 96 73.5 156.5t209.5 60.5
q108 0 176.5 -46t68.5 -137q0 -129 -137 -149v-10q78 -8 122 -50t44 -118q0 -95 -77 -146t-189 -51zM291 0h-96l1144 1372h95zM1294 0h-80v141h-426v58l420 487h86v-471h119v-74h-119v-141zM901 215h313v363h-6l-307 -357v-6z" />
    <glyph glyph-name="questiondown" unicode="&#xbf;" horiz-adv-x="1026" 
d="M506 1024h102v-256h-102v256zM514 586h92v-66q0 -71 -26 -117.5t-101 -85.5l-145 -73q-103 -53 -151 -107t-48 -143q0 -133 78 -206t262 -73q216 0 307.5 85.5t91.5 262.5v25h91v-33q0 -89 -29.5 -164.5t-88 -134.5t-154.5 -92t-220 -33q-109 0 -192.5 28.5t-134 78
t-76 113t-25.5 137.5q0 61 20 112.5t56.5 90.5t77.5 67.5t94 54.5l137 68q49 25 66.5 52.5t17.5 78.5v74z" />
    <glyph glyph-name="Agrave" unicode="&#xc0;" horiz-adv-x="1341" 
d="M709 1495h-84l-219 238v10h106l197 -238v-10zM133 0h-96l571 1372h125l572 -1372h-99l-184 436h-707zM594 1104l-244 -584h637l-246 584l-69 174h-8z" />
    <glyph glyph-name="Aacute" unicode="&#xc1;" horiz-adv-x="1341" 
d="M715 1495h-86v10l198 238h107v-10zM133 0h-96l571 1372h125l572 -1372h-99l-184 436h-707zM594 1104l-244 -584h637l-246 584l-69 174h-8z" />
    <glyph glyph-name="Acircumflex" unicode="&#xc2;" horiz-adv-x="1341" 
d="M492 1495h-84v10l219 256h90l219 -256v-10h-86l-174 203h-10zM133 0h-96l571 1372h125l572 -1372h-99l-184 436h-707zM594 1104l-244 -584h637l-246 584l-69 174h-8z" />
    <glyph glyph-name="Atilde" unicode="&#xc3;" horiz-adv-x="1341" 
d="M489 1548h-65v80q0 60 27.5 96.5t85.5 36.5q26 0 51.5 -10.5t41 -22t40.5 -32.5l41 -35q16 -15 27 -23.5t27.5 -15t33.5 -6.5q26 0 39.5 13.5t13.5 49.5v78h68v-82q0 -59 -28.5 -94t-84.5 -35q-27 0 -51.5 10t-39 21t-42.5 35l-43 35q-20 17 -29 24t-25.5 14t-33.5 7
q-54 0 -54 -64v-80zM133 0h-96l571 1372h125l572 -1372h-99l-184 436h-707zM594 1104l-244 -584h637l-246 584l-69 174h-8z" />
    <glyph glyph-name="Adieresis" unicode="&#xc4;" horiz-adv-x="1341" 
d="M868 1495h-90v231h90v-231zM565 1495h-90v231h90v-231zM133 0h-96l571 1372h125l572 -1372h-99l-184 436h-707zM594 1104l-244 -584h637l-246 584l-69 174h-8z" />
    <glyph glyph-name="Aring" unicode="&#xc5;" horiz-adv-x="1341" 
d="M133 0h-96l555 1331q-105 43 -105 168q0 83 50.5 132.5t134.5 49.5q82 0 133 -49.5t51 -132.5q0 -61 -28 -104t-78 -64l555 -1331h-99l-184 436h-707zM672 1374q121 0 121 125t-121 125q-123 0 -123 -125t123 -125zM594 1104l-244 -584h637l-246 584l-69 174h-8z" />
    <glyph glyph-name="AE" unicode="&#xc6;" horiz-adv-x="1961" 
d="M111 0h-111l973 1372h905v-84h-788v-557h757v-82h-757v-565h788v-84h-881v436h-577zM991 1245l-512 -725h518v725h-6z" />
    <glyph glyph-name="Ccedilla" unicode="&#xc7;" horiz-adv-x="1316" 
d="M752 -401h-115v69h111q88 0 88 68q0 42 -22.5 55.5t-65.5 13.5h-80v175q-269 8 -428.5 199.5t-159.5 506.5q0 322 165 514.5t443 192.5q154 0 278.5 -60t197.5 -173.5t73 -260.5v-18h-96v18q0 193 -118.5 298.5t-338.5 105.5q-250 0 -379 -158.5t-129 -458.5t129 -458
t379 -158q220 0 338.5 105t118.5 298v19h96v-19q0 -210 -141 -343.5t-359 -147.5v-109h15q73 0 115 -36.5t42 -98.5q0 -65 -42 -102t-115 -37z" />
    <glyph glyph-name="Egrave" unicode="&#xc8;" horiz-adv-x="1099" 
d="M616 1495h-84l-219 238v10h107l196 -238v-10zM1018 0h-881v1372h881v-84h-789v-557h758v-82h-758v-565h789v-84z" />
    <glyph glyph-name="Eacute" unicode="&#xc9;" horiz-adv-x="1099" 
d="M623 1495h-86v10l198 238h107v-10zM1018 0h-881v1372h881v-84h-789v-557h758v-82h-758v-565h789v-84z" />
    <glyph glyph-name="Ecircumflex" unicode="&#xca;" horiz-adv-x="1099" 
d="M397 1495h-84v10l219 256h91l219 -256v-10h-86l-174 203h-11zM1018 0h-881v1372h881v-84h-789v-557h758v-82h-758v-565h789v-84z" />
    <glyph glyph-name="Edieresis" unicode="&#xcb;" horiz-adv-x="1099" 
d="M774 1495h-90v231h90v-231zM471 1495h-90v231h90v-231zM1018 0h-881v1372h881v-84h-789v-557h758v-82h-758v-565h789v-84z" />
    <glyph glyph-name="Igrave" unicode="&#xcc;" horiz-adv-x="366" 
d="M221 1495h-84l-219 238v10h107l196 -238v-10zM229 0h-92v1372h92v-1372z" />
    <glyph glyph-name="Iacute" unicode="&#xcd;" horiz-adv-x="366" 
d="M227 1495h-86v10l199 238h106v-10zM229 0h-92v1372h92v-1372z" />
    <glyph glyph-name="Icircumflex" unicode="&#xce;" horiz-adv-x="366" 
d="M4 1495h-84v10l219 256h90l220 -256v-10h-87l-174 203h-10zM229 0h-92v1372h92v-1372z" />
    <glyph glyph-name="Idieresis" unicode="&#xcf;" horiz-adv-x="366" 
d="M381 1495h-90v231h90v-231zM78 1495h-90v231h90v-231zM229 0h-92v1372h92v-1372z" />
    <glyph glyph-name="Eth" unicode="&#xd0;" horiz-adv-x="1411" 
d="M674 0h-447v645h-207v82h207v645h447q302 0 480.5 -186t178.5 -500t-178.5 -500t-480.5 -186zM815 645h-496v-561h355q281 0 422 154t141 448t-141 448t-422 154h-355v-561h496v-82z" />
    <glyph glyph-name="Ntilde" unicode="&#xd1;" horiz-adv-x="1308" 
d="M473 1548h-65v80q0 60 27 96.5t85 36.5q26 0 51.5 -10.5t41 -22t40.5 -32.5l41 -35q16 -15 27 -23.5t27.5 -15t33.5 -6.5q26 0 40 13.5t14 49.5v78h67v-82q0 -60 -28 -94.5t-84 -34.5q-27 0 -52 10t-40 21t-42 35l-43 35q-20 17 -29 24t-25.5 14t-33.5 7q-53 0 -53 -64
v-80zM229 0h-92v1372h103l721 -1055l112 -165h8v1220h90v-1372h-100l-715 1044l-118 175h-9v-1219z" />
    <glyph glyph-name="Ograve" unicode="&#xd2;" horiz-adv-x="1392" 
d="M735 1495h-84l-219 238v10h107l196 -238v-10zM696 -20q-275 0 -445.5 193.5t-170.5 512.5t170.5 513t445.5 194t446 -194t171 -513t-171 -512.5t-446 -193.5zM696 70q253 0 387 159t134 457t-134 457.5t-387 159.5t-386.5 -159.5t-133.5 -457.5t133.5 -457t386.5 -159z
" />
    <glyph glyph-name="Oacute" unicode="&#xd3;" horiz-adv-x="1392" 
d="M741 1495h-86v10l199 238h107v-10zM696 -20q-275 0 -445.5 193.5t-170.5 512.5t170.5 513t445.5 194t446 -194t171 -513t-171 -512.5t-446 -193.5zM696 70q253 0 387 159t134 457t-134 457.5t-387 159.5t-386.5 -159.5t-133.5 -457.5t133.5 -457t386.5 -159z" />
    <glyph glyph-name="Ocircumflex" unicode="&#xd4;" horiz-adv-x="1392" 
d="M516 1495h-84v10l219 256h90l220 -256v-10h-87l-174 203h-10zM696 -20q-275 0 -445.5 193.5t-170.5 512.5t170.5 513t445.5 194t446 -194t171 -513t-171 -512.5t-446 -193.5zM696 70q253 0 387 159t134 457t-134 457.5t-387 159.5t-386.5 -159.5t-133.5 -457.5
t133.5 -457t386.5 -159z" />
    <glyph glyph-name="Otilde" unicode="&#xd5;" horiz-adv-x="1392" 
d="M514 1548h-65v80q0 60 27 96.5t85 36.5q26 0 51.5 -10.5t41 -22t40.5 -32.5l41 -35q16 -15 27 -23.5t27.5 -15t33.5 -6.5q26 0 40 13.5t14 49.5v78h67v-82q0 -59 -28.5 -94t-84.5 -35q-27 0 -51.5 10t-39 21t-42.5 35l-43 35q-20 17 -29 24t-25.5 14t-33.5 7
q-53 0 -53 -64v-80zM696 -20q-275 0 -445.5 193.5t-170.5 512.5t170.5 513t445.5 194t446 -194t171 -513t-171 -512.5t-446 -193.5zM696 70q253 0 387 159t134 457t-134 457.5t-387 159.5t-386.5 -159.5t-133.5 -457.5t133.5 -457t386.5 -159z" />
    <glyph glyph-name="Odieresis" unicode="&#xd6;" horiz-adv-x="1392" 
d="M893 1495h-90v231h90v-231zM590 1495h-90v231h90v-231zM696 -20q-275 0 -445.5 193.5t-170.5 512.5t170.5 513t445.5 194t446 -194t171 -513t-171 -512.5t-446 -193.5zM696 70q253 0 387 159t134 457t-134 457.5t-387 159.5t-386.5 -159.5t-133.5 -457.5t133.5 -457
t386.5 -159z" />
    <glyph glyph-name="multiply" unicode="&#xd7;" horiz-adv-x="890" 
d="M760 434l-62 -61l-254 254l-251 -252l-58 57l252 252l-254 254l60 61l253 -254l252 252l60 -57l-252 -252z" />
    <glyph glyph-name="Oslash" unicode="&#xd8;" horiz-adv-x="1392" 
d="M696 -20q-255 0 -422 167l-168 -190l-59 51l176 199q-143 188 -143 479q0 319 170.5 513t445.5 194q259 0 422 -168l168 190l57 -51l-174 -199q144 -194 144 -479q0 -319 -171 -512.5t-446 -193.5zM176 686q0 -262 103 -416l786 893q-134 140 -369 140
q-253 0 -386.5 -159.5t-133.5 -457.5zM696 70q253 0 387 159t134 457q0 262 -103 416l-786 -893q133 -139 368 -139z" />
    <glyph glyph-name="Ugrave" unicode="&#xd9;" horiz-adv-x="1388" 
d="M733 1495h-84l-219 238v10h107l196 -238v-10zM692 -20q-253 0 -404 147.5t-151 413.5v831h90v-831q0 -241 116 -356t349 -115q234 0 349.5 115t115.5 356v831h90v-831q0 -267 -150.5 -414t-404.5 -147z" />
    <glyph glyph-name="Uacute" unicode="&#xda;" horiz-adv-x="1388" 
d="M739 1495h-86v10l199 238h106v-10zM692 -20q-253 0 -404 147.5t-151 413.5v831h90v-831q0 -241 116 -356t349 -115q234 0 349.5 115t115.5 356v831h90v-831q0 -267 -150.5 -414t-404.5 -147z" />
    <glyph glyph-name="Ucircumflex" unicode="&#xdb;" horiz-adv-x="1388" 
d="M514 1495h-84v10l219 256h90l219 -256v-10h-86l-174 203h-10zM692 -20q-253 0 -404 147.5t-151 413.5v831h90v-831q0 -241 116 -356t349 -115q234 0 349.5 115t115.5 356v831h90v-831q0 -267 -150.5 -414t-404.5 -147z" />
    <glyph glyph-name="Udieresis" unicode="&#xdc;" horiz-adv-x="1388" 
d="M891 1495h-90v231h90v-231zM588 1495h-90v231h90v-231zM692 -20q-253 0 -404 147.5t-151 413.5v831h90v-831q0 -241 116 -356t349 -115q234 0 349.5 115t115.5 356v831h90v-831q0 -267 -150.5 -414t-404.5 -147z" />
    <glyph glyph-name="Yacute" unicode="&#xdd;" horiz-adv-x="1185" 
d="M637 1495h-86v10l199 238h106v-10zM637 0h-90v532l-529 840h105l338 -530l131 -215h8l131 215l332 530h104l-530 -840v-532z" />
    <glyph glyph-name="Thorn" unicode="&#xde;" horiz-adv-x="1196" 
d="M229 0h-92v1372h92v-246h410q221 0 359.5 -117.5t138.5 -322.5t-138.5 -322.5t-359.5 -117.5h-410v-246zM643 1042h-414v-712h414q202 0 303 87.5t101 268.5t-101 268.5t-303 87.5z" />
    <glyph glyph-name="germandbls" unicode="&#xdf;" horiz-adv-x="1087" 
d="M209 0h-92v907q0 235 116.5 351t337.5 116q203 0 311.5 -89t108.5 -253q0 -117 -66 -197t-192 -104v-10q145 -31 221 -120.5t76 -225.5q0 -175 -120.5 -275t-309.5 -100h-211v84h207q174 0 258 72t84 225q0 297 -336 297h-213v82h178q163 0 248.5 65.5t85.5 198.5
q0 141 -72.5 203.5t-259.5 62.5q-201 0 -280.5 -85t-79.5 -296v-909z" />
    <glyph glyph-name="agrave" unicode="&#xe0;" horiz-adv-x="989" 
d="M553 1147h-84l-236 256v10h109l211 -256v-10zM393 -20q-144 0 -233.5 68.5t-89.5 191.5q0 129 93 193.5t271 86.5l357 47v74q0 156 -72 229.5t-223 73.5q-146 0 -224.5 -69.5t-78.5 -212.5v-17h-91v14q0 154 109 260.5t289 106.5q126 0 213 -52.5t125.5 -137t38.5 -193.5
v-643h-80v219l-11 2q-48 -107 -150.5 -174t-242.5 -67zM160 246q0 -187 252 -187q76 0 143 23t120.5 68.5t84.5 120t31 169.5v54l-363 -50q-143 -18 -205.5 -61t-62.5 -137z" />
    <glyph glyph-name="aacute" unicode="&#xe1;" horiz-adv-x="989" 
d="M543 1147h-84v10l211 256h108v-10zM393 -20q-144 0 -233.5 68.5t-89.5 191.5q0 129 93 193.5t271 86.5l357 47v74q0 156 -72 229.5t-223 73.5q-146 0 -224.5 -69.5t-78.5 -212.5v-17h-91v14q0 154 109 260.5t289 106.5q126 0 213 -52.5t125.5 -137t38.5 -193.5v-643h-80
v219l-11 2q-48 -107 -150.5 -174t-242.5 -67zM160 246q0 -187 252 -187q76 0 143 23t120.5 68.5t84.5 120t31 169.5v54l-363 -50q-143 -18 -205.5 -61t-62.5 -137z" />
    <glyph glyph-name="acircumflex" unicode="&#xe2;" horiz-adv-x="989" 
d="M319 1147h-83v10l219 256h90l219 -256v-10h-86l-174 203h-10zM393 -20q-144 0 -233.5 68.5t-89.5 191.5q0 129 93 193.5t271 86.5l357 47v74q0 156 -72 229.5t-223 73.5q-146 0 -224.5 -69.5t-78.5 -212.5v-17h-91v14q0 154 109 260.5t289 106.5q126 0 213 -52.5
t125.5 -137t38.5 -193.5v-643h-80v219l-11 2q-48 -107 -150.5 -174t-242.5 -67zM160 246q0 -187 252 -187q76 0 143 23t120.5 68.5t84.5 120t31 169.5v54l-363 -50q-143 -18 -205.5 -61t-62.5 -137z" />
    <glyph glyph-name="atilde" unicode="&#xe3;" horiz-adv-x="989" 
d="M317 1200h-65v80q0 60 27.5 96.5t85.5 36.5q26 0 51.5 -10.5t41 -22t40.5 -32.5l41 -35q16 -15 27 -23.5t27.5 -15t33.5 -6.5q26 0 39.5 13.5t13.5 49.5v78h68v-82q0 -59 -28.5 -94t-84.5 -35q-27 0 -51.5 10t-39 21t-42.5 35l-43 34q-20 17 -29 24t-25.5 14t-33.5 7
q-54 0 -54 -63v-80zM393 -20q-144 0 -233.5 68.5t-89.5 191.5q0 129 93 193.5t271 86.5l357 47v74q0 156 -72 229.5t-223 73.5q-146 0 -224.5 -69.5t-78.5 -212.5v-17h-91v14q0 154 109 260.5t289 106.5q126 0 213 -52.5t125.5 -137t38.5 -193.5v-643h-80v219l-11 2
q-48 -107 -150.5 -174t-242.5 -67zM160 246q0 -187 252 -187q76 0 143 23t120.5 68.5t84.5 120t31 169.5v54l-363 -50q-143 -18 -205.5 -61t-62.5 -137z" />
    <glyph glyph-name="adieresis" unicode="&#xe4;" horiz-adv-x="989" 
d="M696 1147h-90v231h90v-231zM393 1147h-90v231h90v-231zM393 -20q-144 0 -233.5 68.5t-89.5 191.5q0 129 93 193.5t271 86.5l357 47v74q0 156 -72 229.5t-223 73.5q-146 0 -224.5 -69.5t-78.5 -212.5v-17h-91v14q0 154 109 260.5t289 106.5q126 0 213 -52.5t125.5 -137
t38.5 -193.5v-643h-80v219l-11 2q-48 -107 -150.5 -174t-242.5 -67zM160 246q0 -187 252 -187q76 0 143 23t120.5 68.5t84.5 120t31 169.5v54l-363 -50q-143 -18 -205.5 -61t-62.5 -137z" />
    <glyph glyph-name="aring" unicode="&#xe5;" horiz-adv-x="989" 
d="M500 1114q-82 0 -132.5 49.5t-50.5 130.5q0 82 50.5 131.5t132.5 49.5t132 -49.5t50 -131.5t-50 -131t-132 -49zM500 1171q121 0 121 123t-121 123t-121 -123t121 -123zM393 -20q-144 0 -233.5 68.5t-89.5 191.5q0 129 93 193.5t271 86.5l357 47v74q0 156 -72 229.5
t-223 73.5q-146 0 -224.5 -69.5t-78.5 -212.5v-17h-91v14q0 154 109 260.5t289 106.5q126 0 213 -52.5t125.5 -137t38.5 -193.5v-643h-80v219l-11 2q-48 -107 -150.5 -174t-242.5 -67zM160 246q0 -187 252 -187q76 0 143 23t120.5 68.5t84.5 120t31 169.5v54l-363 -50
q-143 -18 -205.5 -61t-62.5 -137z" />
    <glyph glyph-name="ae" unicode="&#xe6;" horiz-adv-x="1763" 
d="M399 -20q-147 0 -238 69t-91 193q0 248 364 278l359 29v14l-2 74q0 160 -73 233.5t-222 73.5q-143 0 -223 -70.5t-80 -216.5v-12h-91v14q0 154 108 260.5t288 106.5q143 0 232.5 -63.5t123.5 -171.5q59 110 159 172.5t230 62.5q85 0 160.5 -27t137 -80t97 -142t35.5 -204
q0 -62 -10 -104h-784q6 -193 97 -299.5t273 -106.5q156 0 241 74t85 187v12h90v-12q0 -142 -118 -243t-298 -101q-160 0 -270.5 84.5t-157.5 230.5q-38 -157 -155.5 -236t-266.5 -79zM1243 946q-175 0 -266.5 -107t-97.5 -296h708q3 107 -21.5 186t-72 126t-109.5 69
t-141 22zM160 250q0 -191 252 -191q167 0 270 100.5t109 315.5l-363 -29q-140 -11 -204 -56.5t-64 -139.5z" />
    <glyph glyph-name="ccedilla" unicode="&#xe7;" horiz-adv-x="1034" 
d="M588 -401h-115v69h111q88 0 88 68q0 42 -22.5 55.5t-65.5 13.5h-80v177q-193 12 -308.5 157.5t-115.5 364.5q0 149 55.5 267.5t160.5 186.5t243 68q180 0 298.5 -111.5t118.5 -285.5v-13h-90v11q0 148 -86.5 231.5t-242.5 83.5q-180 0 -273.5 -116.5t-93.5 -321.5
q0 -206 93.5 -323.5t273.5 -117.5q156 0 242.5 84t86.5 232v10h90v-12q0 -164 -108.5 -274t-274.5 -121v-109h15q73 0 115 -36.5t42 -98.5q0 -65 -42 -102t-115 -37z" />
    <glyph glyph-name="egrave" unicode="&#xe8;" horiz-adv-x="1052" 
d="M584 1147h-84l-236 256v10h109l211 -256v-10zM539 -20q-143 0 -248 68.5t-158 186t-53 269.5q0 228 123 375t329 147q85 0 161 -27t137 -80t97 -142t36 -204q0 -58 -11 -104h-784q6 -193 97.5 -299.5t273.5 -106.5q155 0 240 74t85 187v12h90v-12q0 -142 -117.5 -243
t-297.5 -101zM532 946q-176 0 -267 -107t-97 -296h706q7 209 -86 306t-256 97z" />
    <glyph glyph-name="eacute" unicode="&#xe9;" horiz-adv-x="1052" 
d="M573 1147h-84v10l211 256h109v-10zM539 -20q-143 0 -248 68.5t-158 186t-53 269.5q0 228 123 375t329 147q85 0 161 -27t137 -80t97 -142t36 -204q0 -58 -11 -104h-784q6 -193 97.5 -299.5t273.5 -106.5q155 0 240 74t85 187v12h90v-12q0 -142 -117.5 -243t-297.5 -101z
M532 946q-176 0 -267 -107t-97 -296h706q7 209 -86 306t-256 97z" />
    <glyph glyph-name="ecircumflex" unicode="&#xea;" horiz-adv-x="1052" 
d="M350 1147h-84v10l219 256h90l220 -256v-10h-86l-174 203h-11zM539 -20q-143 0 -248 68.5t-158 186t-53 269.5q0 228 123 375t329 147q85 0 161 -27t137 -80t97 -142t36 -204q0 -58 -11 -104h-784q6 -193 97.5 -299.5t273.5 -106.5q155 0 240 74t85 187v12h90v-12
q0 -142 -117.5 -243t-297.5 -101zM532 946q-176 0 -267 -107t-97 -296h706q7 209 -86 306t-256 97z" />
    <glyph glyph-name="edieresis" unicode="&#xeb;" horiz-adv-x="1052" 
d="M727 1147h-90v231h90v-231zM424 1147h-90v231h90v-231zM539 -20q-143 0 -248 68.5t-158 186t-53 269.5q0 228 123 375t329 147q85 0 161 -27t137 -80t97 -142t36 -204q0 -58 -11 -104h-784q6 -193 97.5 -299.5t273.5 -106.5q155 0 240 74t85 187v12h90v-12
q0 -142 -117.5 -243t-297.5 -101zM532 946q-176 0 -267 -107t-97 -296h706q7 209 -86 306t-256 97z" />
    <glyph glyph-name="igrave" unicode="&#xec;" horiz-adv-x="325" 
d="M215 1147h-84l-235 256v10h108l211 -256v-10zM209 0h-92v1024h92v-1024z" />
    <glyph glyph-name="iacute" unicode="&#xed;" horiz-adv-x="325" 
d="M205 1147h-84v10l211 256h108v-10zM209 0h-92v1024h92v-1024z" />
    <glyph glyph-name="icircumflex" unicode="&#xee;" horiz-adv-x="325" 
d="M-16 1147h-84v10l219 256h90l219 -256v-10h-86l-174 203h-10zM209 0h-92v1024h92v-1024z" />
    <glyph glyph-name="idieresis" unicode="&#xef;" horiz-adv-x="325" 
d="M360 1147h-90v231h90v-231zM57 1147h-90v231h90v-231zM209 0h-92v1024h92v-1024z" />
    <glyph glyph-name="eth" unicode="&#xf0;" horiz-adv-x="1202" 
d="M590 -20q-233 0 -365.5 116.5t-132.5 315.5q0 189 134.5 304t353.5 115q182 0 299.5 -73.5t146.5 -184.5l10 2q-5 280 -268 537l-416 -113l-18 64l377 102q-127 113 -291 207h123q137 -72 258 -182l375 102l18 -63l-338 -92q274 -278 274 -594q0 -101 -18.5 -185
t-59.5 -154.5t-103.5 -119.5t-153.5 -76.5t-205 -27.5zM594 66q416 0 416 352q0 156 -107.5 244t-302.5 88q-203 0 -308.5 -86.5t-105.5 -251.5q0 -174 100 -260t308 -86z" />
    <glyph glyph-name="ntilde" unicode="&#xf1;" horiz-adv-x="1064" 
d="M354 1200h-65v80q0 60 27 96.5t85 36.5q37 0 66.5 -16.5t67.5 -48.5l40 -35q49 -45 89 -45q26 0 39.5 13.5t13.5 49.5v78h67v-82q0 -60 -28 -94.5t-84 -34.5q-27 0 -51.5 10t-39 21t-42.5 35l-43 34q-20 17 -29 24t-25.5 14t-33.5 7q-54 0 -54 -63v-80zM211 0h-90v1006
h78v-232h8q14 45 42 87t71.5 80.5t109 61.5t143.5 23q186 0 281.5 -116.5t95.5 -311.5v-598h-92v588q0 183 -73 269.5t-228 86.5q-161 0 -253.5 -93.5t-92.5 -283.5v-567z" />
    <glyph glyph-name="ograve" unicode="&#xf2;" horiz-adv-x="1107" 
d="M606 1147h-84l-235 256v10h108l211 -256v-10zM557 -20q-212 0 -344.5 148t-132.5 376q0 149 59 267.5t168.5 186.5t249.5 68q210 0 340.5 -147.5t130.5 -374.5q0 -228 -130.5 -376t-340.5 -148zM557 63q188 0 285.5 117t97.5 324q0 206 -97.5 323t-285.5 117
q-189 0 -288 -117t-99 -323q0 -207 98.5 -324t288.5 -117z" />
    <glyph glyph-name="oacute" unicode="&#xf3;" horiz-adv-x="1107" 
d="M596 1147h-84v10l211 256h108v-10zM557 -20q-212 0 -344.5 148t-132.5 376q0 149 59 267.5t168.5 186.5t249.5 68q210 0 340.5 -147.5t130.5 -374.5q0 -228 -130.5 -376t-340.5 -148zM557 63q188 0 285.5 117t97.5 324q0 206 -97.5 323t-285.5 117q-189 0 -288 -117
t-99 -323q0 -207 98.5 -324t288.5 -117z" />
    <glyph glyph-name="ocircumflex" unicode="&#xf4;" horiz-adv-x="1107" 
d="M373 1147h-84v10l219 256h90l219 -256v-10h-86l-174 203h-10zM557 -20q-212 0 -344.5 148t-132.5 376q0 149 59 267.5t168.5 186.5t249.5 68q210 0 340.5 -147.5t130.5 -374.5q0 -228 -130.5 -376t-340.5 -148zM557 63q188 0 285.5 117t97.5 324q0 206 -97.5 323
t-285.5 117q-189 0 -288 -117t-99 -323q0 -207 98.5 -324t288.5 -117z" />
    <glyph glyph-name="otilde" unicode="&#xf5;" horiz-adv-x="1107" 
d="M371 1200h-66v80q0 60 27.5 96.5t85.5 36.5q26 0 51.5 -10.5t41 -22t40.5 -32.5l41 -35q16 -15 27 -23.5t27.5 -15t33.5 -6.5q26 0 39.5 13.5t13.5 49.5v78h68v-82q0 -59 -28.5 -94t-84.5 -35q-27 0 -51.5 10t-39 21t-42.5 35l-43 34q-20 17 -29 24t-25.5 14t-33.5 7
q-53 0 -53 -63v-80zM557 -20q-212 0 -344.5 148t-132.5 376q0 149 59 267.5t168.5 186.5t249.5 68q210 0 340.5 -147.5t130.5 -374.5q0 -228 -130.5 -376t-340.5 -148zM557 63q188 0 285.5 117t97.5 324q0 206 -97.5 323t-285.5 117q-189 0 -288 -117t-99 -323
q0 -207 98.5 -324t288.5 -117z" />
    <glyph glyph-name="odieresis" unicode="&#xf6;" horiz-adv-x="1107" 
d="M750 1147h-91v231h91v-231zM446 1147h-90v231h90v-231zM557 -20q-212 0 -344.5 148t-132.5 376q0 149 59 267.5t168.5 186.5t249.5 68q210 0 340.5 -147.5t130.5 -374.5q0 -228 -130.5 -376t-340.5 -148zM557 63q188 0 285.5 117t97.5 324q0 206 -97.5 323t-285.5 117
q-189 0 -288 -117t-99 -323q0 -207 98.5 -324t288.5 -117z" />
    <glyph glyph-name="divide" unicode="&#xf7;" horiz-adv-x="952" 
d="M528 897h-102v256h102v-256zM858 645h-758v82h758v-82zM528 219h-102v256h102v-256z" />
    <glyph glyph-name="oslash" unicode="&#xf8;" horiz-adv-x="1107" 
d="M557 -20q-197 0 -328 131l-129 -138l-49 50l131 141q-102 139 -102 340q0 149 59 267.5t168.5 186.5t249.5 68q188 0 317 -123l134 144l51 -48l-139 -149q108 -139 108 -346q0 -228 -130.5 -376t-340.5 -148zM170 504q0 -172 68 -281l585 625q-99 96 -266 96
q-189 0 -288 -117t-99 -323zM557 63q188 0 285.5 117t97.5 324q0 179 -74 291l-585 -629q103 -103 276 -103z" />
    <glyph glyph-name="ugrave" unicode="&#xf9;" horiz-adv-x="1081" 
d="M590 1147h-84l-236 256v10h109l211 -256v-10zM500 -20q-191 0 -288 118t-97 314v594h90v-586q0 -183 78 -271t237 -88q160 0 255 96t95 289v560h93v-1006h-80v238h-9q-14 -46 -42.5 -89t-73 -82.5t-111.5 -63t-147 -23.5z" />
    <glyph glyph-name="uacute" unicode="&#xfa;" horiz-adv-x="1081" 
d="M580 1147h-84v10l211 256h108v-10zM500 -20q-191 0 -288 118t-97 314v594h90v-586q0 -183 78 -271t237 -88q160 0 255 96t95 289v560h93v-1006h-80v238h-9q-14 -46 -42.5 -89t-73 -82.5t-111.5 -63t-147 -23.5z" />
    <glyph glyph-name="ucircumflex" unicode="&#xfb;" horiz-adv-x="1081" 
d="M358 1147h-84v10l220 256h90l219 -256v-10h-86l-174 203h-11zM500 -20q-191 0 -288 118t-97 314v594h90v-586q0 -183 78 -271t237 -88q160 0 255 96t95 289v560h93v-1006h-80v238h-9q-14 -46 -42.5 -89t-73 -82.5t-111.5 -63t-147 -23.5z" />
    <glyph glyph-name="udieresis" unicode="&#xfc;" horiz-adv-x="1081" 
d="M735 1147h-90v231h90v-231zM432 1147h-90v231h90v-231zM500 -20q-191 0 -288 118t-97 314v594h90v-586q0 -183 78 -271t237 -88q160 0 255 96t95 289v560h93v-1006h-80v238h-9q-14 -46 -42.5 -89t-73 -82.5t-111.5 -63t-147 -23.5z" />
    <glyph glyph-name="yacute" unicode="&#xfd;" horiz-adv-x="985" 
d="M535 1147h-84v10l211 256h108v-10zM236 -348q-65 0 -115 12v72h98q71 0 103 21t59 83l74 168l-432 998h96l262 -611l117 -272h8l110 272l250 611h99l-506 -1199q-64 -155 -223 -155z" />
    <glyph glyph-name="thorn" unicode="&#xfe;" horiz-adv-x="1093" 
d="M211 -350h-90v1722h90v-579h2q33 100 134.5 166.5t234.5 66.5q203 0 317.5 -141t114.5 -381q0 -242 -114 -383t-318 -141q-134 0 -235 66.5t-134 166.5h-2v-563zM211 420q0 -173 99 -266t257 -93q50 0 92.5 8.5t84 27.5t73.5 53t56.5 81.5t37.5 117t13 155.5
q0 103 -19.5 181t-51.5 126.5t-79 79t-97 42t-110 11.5q-159 0 -257.5 -92.5t-98.5 -265.5v-166z" />
    <glyph glyph-name="ydieresis" unicode="&#xff;" horiz-adv-x="985" 
d="M688 1147h-90v231h90v-231zM385 1147h-90v231h90v-231zM236 -348q-65 0 -115 12v72h98q71 0 103 21t59 83l74 168l-432 998h96l262 -611l117 -272h8l110 272l250 611h99l-506 -1199q-64 -155 -223 -155z" />
    <glyph glyph-name="Amacron" unicode="&#x100;" horiz-adv-x="1341" 
d="M907 1595h-471v68h471v-68zM133 0h-96l571 1372h125l572 -1372h-99l-184 436h-707zM594 1104l-244 -584h637l-246 584l-69 174h-8z" />
    <glyph glyph-name="amacron" unicode="&#x101;" horiz-adv-x="989" 
d="M735 1247h-471v68h471v-68zM393 -20q-144 0 -233.5 68.5t-89.5 191.5q0 129 93 193.5t271 86.5l357 47v74q0 156 -72 229.5t-223 73.5q-146 0 -224.5 -69.5t-78.5 -212.5v-17h-91v14q0 154 109 260.5t289 106.5q126 0 213 -52.5t125.5 -137t38.5 -193.5v-643h-80v219
l-11 2q-48 -107 -150.5 -174t-242.5 -67zM160 246q0 -187 252 -187q76 0 143 23t120.5 68.5t84.5 120t31 169.5v54l-363 -50q-143 -18 -205.5 -61t-62.5 -137z" />
    <glyph glyph-name="Abreve" unicode="&#x102;" horiz-adv-x="1341" 
d="M672 1475q-101 0 -163.5 57.5t-62.5 157.5v18h76v-20q0 -72 36 -108t114 -36q81 0 115 35.5t34 108.5v20h76v-18q0 -100 -62 -157.5t-163 -57.5zM133 0h-96l571 1372h125l572 -1372h-99l-184 436h-707zM594 1104l-244 -584h637l-246 584l-69 174h-8z" />
    <glyph glyph-name="abreve" unicode="&#x103;" horiz-adv-x="989" 
d="M500 1126q-101 0 -163.5 57.5t-62.5 157.5v54h76v-56q0 -72 36 -107.5t114 -35.5q81 0 115 35t34 108v56h76v-54q0 -100 -62 -157.5t-163 -57.5zM393 -20q-144 0 -233.5 68.5t-89.5 191.5q0 129 93 193.5t271 86.5l357 47v74q0 156 -72 229.5t-223 73.5
q-146 0 -224.5 -69.5t-78.5 -212.5v-17h-91v14q0 154 109 260.5t289 106.5q126 0 213 -52.5t125.5 -137t38.5 -193.5v-643h-80v219l-11 2q-48 -107 -150.5 -174t-242.5 -67zM160 246q0 -187 252 -187q76 0 143 23t120.5 68.5t84.5 120t31 169.5v54l-363 -50
q-143 -18 -205.5 -61t-62.5 -137z" />
    <glyph glyph-name="Aogonek" unicode="&#x104;" horiz-adv-x="1341" 
d="M133 0h-96l571 1372h125l572 -1372l-84 -111q-33 -40 -47.5 -65t-14.5 -51q0 -39 30.5 -62.5t94.5 -23.5h98v-70h-104q-93 0 -145 36t-52 103q0 25 7 48.5t24.5 48t26 34.5t30.5 35l68 78h-31l-184 436h-707zM594 1104l-244 -584h637l-246 584l-69 174h-8z" />
    <glyph glyph-name="aogonek" unicode="&#x105;" horiz-adv-x="989" 
d="M393 -20q-144 0 -233.5 68.5t-89.5 191.5q0 129 93 193.5t271 86.5l357 47v74q0 156 -72 229.5t-223 73.5q-146 0 -224.5 -69.5t-78.5 -212.5v-17h-91v14q0 154 109 260.5t289 106.5q126 0 213 -52.5t125.5 -137t38.5 -193.5v-643l-86 -111q-60 -72 -60 -118
q0 -84 123 -84h98v-70h-102q-93 0 -146 36t-53 101q0 15 2.5 29.5t9 29t11.5 24.5t16.5 24.5t16 20.5t18 21.5t16.5 18.5l66 78h-10v219l-11 2q-48 -107 -150.5 -174t-242.5 -67zM160 246q0 -187 252 -187q76 0 143 23t120.5 68.5t84.5 120t31 169.5v54l-363 -50
q-143 -18 -205.5 -61t-62.5 -137z" />
    <glyph glyph-name="Cacute" unicode="&#x106;" horiz-adv-x="1316" 
d="M709 1495h-86v10l198 238h107v-10zM688 -20q-278 0 -443 192t-165 514t165 514.5t443 192.5q154 0 278.5 -60t197.5 -173.5t73 -260.5v-18h-96v18q0 193 -118.5 298.5t-338.5 105.5q-250 0 -379 -158.5t-129 -458.5t129 -458t379 -158q220 0 338.5 105t118.5 298v19h96
v-19q0 -147 -73 -260.5t-197 -173t-279 -59.5z" />
    <glyph glyph-name="cacute" unicode="&#x107;" horiz-adv-x="1034" 
d="M594 1147h-84v10l211 256h108v-10zM539 -20q-208 0 -333.5 147.5t-125.5 376.5q0 149 55.5 267.5t160.5 186.5t243 68q180 0 298.5 -111.5t118.5 -285.5v-13h-90v11q0 148 -86.5 231.5t-242.5 83.5q-180 0 -273.5 -116.5t-93.5 -321.5q0 -206 93.5 -323.5t273.5 -117.5
q156 0 242.5 84t86.5 232v10h90v-12q0 -174 -118.5 -285.5t-298.5 -111.5z" />
    <glyph glyph-name="Ccircumflex" unicode="&#x108;" horiz-adv-x="1316" 
d="M483 1495h-84v10l219 256h91l219 -256v-10h-86l-174 203h-11zM688 -20q-278 0 -443 192t-165 514t165 514.5t443 192.5q154 0 278.5 -60t197.5 -173.5t73 -260.5v-18h-96v18q0 193 -118.5 298.5t-338.5 105.5q-250 0 -379 -158.5t-129 -458.5t129 -458t379 -158
q220 0 338.5 105t118.5 298v19h96v-19q0 -147 -73 -260.5t-197 -173t-279 -59.5z" />
    <glyph glyph-name="ccircumflex" unicode="&#x109;" horiz-adv-x="1034" 
d="M371 1147h-84v10l219 256h90l219 -256v-10h-86l-174 203h-10zM539 -20q-208 0 -333.5 147.5t-125.5 376.5q0 149 55.5 267.5t160.5 186.5t243 68q180 0 298.5 -111.5t118.5 -285.5v-13h-90v11q0 148 -86.5 231.5t-242.5 83.5q-180 0 -273.5 -116.5t-93.5 -321.5
q0 -206 93.5 -323.5t273.5 -117.5q156 0 242.5 84t86.5 232v10h90v-12q0 -174 -118.5 -285.5t-298.5 -111.5z" />
    <glyph glyph-name="Cdotaccent" unicode="&#x10a;" horiz-adv-x="1316" 
d="M709 1495h-91v231h91v-231zM688 -20q-278 0 -443 192t-165 514t165 514.5t443 192.5q154 0 278.5 -60t197.5 -173.5t73 -260.5v-18h-96v18q0 193 -118.5 298.5t-338.5 105.5q-250 0 -379 -158.5t-129 -458.5t129 -458t379 -158q220 0 338.5 105t118.5 298v19h96v-19
q0 -147 -73 -260.5t-197 -173t-279 -59.5z" />
    <glyph glyph-name="cdotaccent" unicode="&#x10b;" horiz-adv-x="1034" 
d="M596 1147h-90v231h90v-231zM539 -20q-208 0 -333.5 147.5t-125.5 376.5q0 149 55.5 267.5t160.5 186.5t243 68q180 0 298.5 -111.5t118.5 -285.5v-13h-90v11q0 148 -86.5 231.5t-242.5 83.5q-180 0 -273.5 -116.5t-93.5 -321.5q0 -206 93.5 -323.5t273.5 -117.5
q156 0 242.5 84t86.5 232v10h90v-12q0 -174 -118.5 -285.5t-298.5 -111.5z" />
    <glyph glyph-name="Ccaron" unicode="&#x10c;" horiz-adv-x="1316" 
d="M844 1761h84v-10l-219 -256h-91l-219 256v10h86l174 -202h11zM688 -20q-278 0 -443 192t-165 514t165 514.5t443 192.5q154 0 278.5 -60t197.5 -173.5t73 -260.5v-18h-96v18q0 193 -118.5 298.5t-338.5 105.5q-250 0 -379 -158.5t-129 -458.5t129 -458t379 -158
q220 0 338.5 105t118.5 298v19h96v-19q0 -147 -73 -260.5t-197 -173t-279 -59.5z" />
    <glyph glyph-name="ccaron" unicode="&#x10d;" horiz-adv-x="1034" 
d="M596 1147h-90l-219 256v10h84l174 -203h10l174 203h86v-10zM539 -20q-208 0 -333.5 147.5t-125.5 376.5q0 149 55.5 267.5t160.5 186.5t243 68q180 0 298.5 -111.5t118.5 -285.5v-13h-90v11q0 148 -86.5 231.5t-242.5 83.5q-180 0 -273.5 -116.5t-93.5 -321.5
q0 -206 93.5 -323.5t273.5 -117.5q156 0 242.5 84t86.5 232v10h90v-12q0 -174 -118.5 -285.5t-298.5 -111.5z" />
    <glyph glyph-name="Dcaron" unicode="&#x10e;" horiz-adv-x="1323" 
d="M780 1761h84v-10l-219 -256h-90l-219 256v10h86l174 -202h10zM584 0h-447v1372h447q302 0 480.5 -186t178.5 -500t-178.5 -500t-480.5 -186zM584 1288h-355v-1204h355q281 0 422 154t141 448t-141 448t-422 154z" />
    <glyph glyph-name="dcaron" unicode="&#x10f;" horiz-adv-x="1155" 
d="M518 -20q-208 0 -323 141t-115 383q0 241 114.5 381.5t321.5 140.5q135 0 233 -69.5t134 -172.5v588h90v-1372h-80v229h-6q-33 -111 -130.5 -180t-238.5 -69zM1083 975h-18v55h20q19 0 26 6.5t7 28.5v53h-45v254h103v-305q0 -92 -93 -92zM170 504q0 -103 19 -181.5
t51 -127.5t79 -79.5t97 -42.5t110 -12q159 0 258 93t99 266v168q0 171 -98.5 263.5t-254.5 92.5q-61 0 -111 -11.5t-97.5 -42t-80 -79t-52 -127t-19.5 -180.5z" />
    <glyph glyph-name="Dcroat" unicode="&#x110;" horiz-adv-x="1411" 
d="M674 0h-447v645h-207v82h207v645h447q302 0 480.5 -186t178.5 -500t-178.5 -500t-480.5 -186zM815 645h-496v-561h355q281 0 422 154t141 448t-141 448t-422 154h-355v-561h496v-82z" />
    <glyph glyph-name="dcroat" unicode="&#x111;" horiz-adv-x="1153" 
d="M518 -20q-208 0 -323 123.5t-115 338.5q0 212 116.5 336.5t321.5 124.5q133 0 231 -68.5t134 -170.5v462h-467v78h467v168h90v-168h157v-78h-157v-1126h-80v229h-6q-35 -110 -133.5 -179.5t-235.5 -69.5zM170 442q0 -110 28 -187.5t79.5 -118t112 -58t138.5 -17.5
q155 0 255 93.5t100 265.5v45q0 170 -99.5 263t-253.5 93q-61 0 -111 -10t-97.5 -36t-80 -67.5t-52 -109t-19.5 -156.5z" />
    <glyph glyph-name="Emacron" unicode="&#x112;" horiz-adv-x="1099" 
d="M813 1595h-471v68h471v-68zM1018 0h-881v1372h881v-84h-789v-557h758v-82h-758v-565h789v-84z" />
    <glyph glyph-name="emacron" unicode="&#x113;" horiz-adv-x="1052" 
d="M766 1247h-471v68h471v-68zM539 -20q-143 0 -248 68.5t-158 186t-53 269.5q0 228 123 375t329 147q85 0 161 -27t137 -80t97 -142t36 -204q0 -58 -11 -104h-784q6 -193 97.5 -299.5t273.5 -106.5q155 0 240 74t85 187v12h90v-12q0 -142 -117.5 -243t-297.5 -101zM532 946
q-176 0 -267 -107t-97 -296h706q7 209 -86 306t-256 97z" />
    <glyph glyph-name="Ebreve" unicode="&#x114;" horiz-adv-x="1099" 
d="M578 1475q-101 0 -163.5 57.5t-62.5 157.5v18h76v-20q0 -72 36 -108t114 -36q81 0 115 35.5t34 108.5v20h76v-18q0 -100 -62 -157.5t-163 -57.5zM1018 0h-881v1372h881v-84h-789v-557h758v-82h-758v-565h789v-84z" />
    <glyph glyph-name="ebreve" unicode="&#x115;" horiz-adv-x="1052" 
d="M530 1126q-101 0 -163 57.5t-62 157.5v54h76v-56q0 -72 35.5 -107.5t113.5 -35.5q81 0 115.5 35t34.5 108v56h76v-54q0 -100 -62.5 -157.5t-163.5 -57.5zM539 -20q-143 0 -248 68.5t-158 186t-53 269.5q0 228 123 375t329 147q85 0 161 -27t137 -80t97 -142t36 -204
q0 -58 -11 -104h-784q6 -193 97.5 -299.5t273.5 -106.5q155 0 240 74t85 187v12h90v-12q0 -142 -117.5 -243t-297.5 -101zM532 946q-176 0 -267 -107t-97 -296h706q7 209 -86 306t-256 97z" />
    <glyph glyph-name="Edotaccent" unicode="&#x116;" horiz-adv-x="1099" 
d="M623 1495h-91v231h91v-231zM1018 0h-881v1372h881v-84h-789v-557h758v-82h-758v-565h789v-84z" />
    <glyph glyph-name="edotaccent" unicode="&#x117;" horiz-adv-x="1052" 
d="M575 1147h-90v231h90v-231zM539 -20q-143 0 -248 68.5t-158 186t-53 269.5q0 228 123 375t329 147q85 0 161 -27t137 -80t97 -142t36 -204q0 -58 -11 -104h-784q6 -193 97.5 -299.5t273.5 -106.5q155 0 240 74t85 187v12h90v-12q0 -142 -117.5 -243t-297.5 -101zM532 946
q-176 0 -267 -107t-97 -296h706q7 209 -86 306t-256 97z" />
    <glyph glyph-name="Eogonek" unicode="&#x118;" horiz-adv-x="1099" 
d="M1096 -383h-105q-93 0 -144.5 36t-51.5 103q0 25 7 48.5t24.5 48t26 34.5t30.5 35l67 78h-813v1372h881v-84h-789v-557h758v-82h-758v-565h789v-84l-84 -111q-33 -40 -47.5 -65t-14.5 -51q0 -39 30.5 -62.5t94.5 -23.5h99v-70z" />
    <glyph glyph-name="eogonek" unicode="&#x119;" horiz-adv-x="1052" 
d="M700 -383h-104q-93 0 -145 36t-52 103q0 25 7 48.5t24.5 48t26 34.5t30.5 35l50 58q-213 0 -335 146t-122 378q0 228 123 375t329 147q85 0 161 -27t137 -80t97 -142t36 -204q0 -58 -11 -104h-784q6 -193 97.5 -299.5t273.5 -106.5q155 0 240 74t85 187v12h90v-12
q0 -127 -95.5 -222.5t-248.5 -117.5l-71 -95q-33 -40 -47.5 -65t-14.5 -51q0 -39 30.5 -62.5t94.5 -23.5h98v-70zM532 946q-176 0 -267 -107t-97 -296h706q7 209 -86 306t-256 97z" />
    <glyph glyph-name="Ecaron" unicode="&#x11a;" horiz-adv-x="1099" 
d="M758 1761h84v-10l-219 -256h-91l-219 256v10h86l174 -202h11zM1018 0h-881v1372h881v-84h-789v-557h758v-82h-758v-565h789v-84z" />
    <glyph glyph-name="ecaron" unicode="&#x11b;" horiz-adv-x="1052" 
d="M575 1147h-90l-219 256v10h84l174 -203h11l174 203h86v-10zM539 -20q-143 0 -248 68.5t-158 186t-53 269.5q0 228 123 375t329 147q85 0 161 -27t137 -80t97 -142t36 -204q0 -58 -11 -104h-784q6 -193 97.5 -299.5t273.5 -106.5q155 0 240 74t85 187v12h90v-12
q0 -142 -117.5 -243t-297.5 -101zM532 946q-176 0 -267 -107t-97 -296h706q7 209 -86 306t-256 97z" />
    <glyph glyph-name="Gcircumflex" unicode="&#x11c;" horiz-adv-x="1357" 
d="M514 1495h-84v10l219 256h90l219 -256v-10h-86l-174 203h-10zM688 -20q-279 0 -443.5 191.5t-164.5 514.5q0 322 168 514.5t450 192.5q154 0 278 -60t196.5 -172.5t72.5 -257.5v-18h-96v18q0 191 -117.5 295.5t-337.5 104.5q-256 0 -388 -158.5t-132 -458.5t132.5 -458
t391.5 -158q221 0 340 106t119 307v97h-508v82h596v-662h-78v248h-6q-57 -135 -183 -201.5t-290 -66.5z" />
    <glyph glyph-name="gcircumflex" unicode="&#x11d;" horiz-adv-x="1093" 
d="M340 1147h-84v10l219 256h90l219 -256v-10h-86l-174 203h-10zM518 84q-205 0 -321.5 127t-116.5 344t114 344t318 127q139 0 240.5 -69.5t134.5 -178.5h6v228h80v-988q0 -184 -116 -285.5t-304 -101.5q-180 0 -300 98.5t-120 262.5h92q0 -139 84.5 -208t245.5 -69
q164 0 246 73t82 230v314q-35 -107 -133.5 -177.5t-231.5 -70.5zM170 555q0 -389 360 -389q154 0 253.5 93t99.5 265v64q0 170 -102.5 263t-260.5 93q-59 0 -108 -10t-95 -37t-77.5 -69.5t-50.5 -112t-19 -160.5z" />
    <glyph glyph-name="Gbreve" unicode="&#x11e;" horiz-adv-x="1357" 
d="M694 1475q-101 0 -163 57.5t-62 157.5v18h76v-20q0 -72 35.5 -108t113.5 -36q81 0 115.5 35.5t34.5 108.5v20h76v-18q0 -100 -62.5 -157.5t-163.5 -57.5zM688 -20q-279 0 -443.5 191.5t-164.5 514.5q0 322 168 514.5t450 192.5q154 0 278 -60t196.5 -172.5t72.5 -257.5
v-18h-96v18q0 191 -117.5 295.5t-337.5 104.5q-256 0 -388 -158.5t-132 -458.5t132.5 -458t391.5 -158q221 0 340 106t119 307v97h-508v82h596v-662h-78v248h-6q-57 -135 -183 -201.5t-290 -66.5z" />
    <glyph glyph-name="gbreve" unicode="&#x11f;" horiz-adv-x="1093" 
d="M520 1126q-101 0 -163 57.5t-62 157.5v54h76v-56q0 -72 35.5 -107.5t113.5 -35.5q81 0 115.5 35t34.5 108v56h75v-54q0 -100 -62 -157.5t-163 -57.5zM518 84q-205 0 -321.5 127t-116.5 344t114 344t318 127q139 0 240.5 -69.5t134.5 -178.5h6v228h80v-988
q0 -184 -116 -285.5t-304 -101.5q-180 0 -300 98.5t-120 262.5h92q0 -139 84.5 -208t245.5 -69q164 0 246 73t82 230v314q-35 -107 -133.5 -177.5t-231.5 -70.5zM170 555q0 -389 360 -389q154 0 253.5 93t99.5 265v64q0 170 -102.5 263t-260.5 93q-59 0 -108 -10t-95 -37
t-77.5 -69.5t-50.5 -112t-19 -160.5z" />
    <glyph glyph-name="Gdotaccent" unicode="&#x120;" horiz-adv-x="1357" 
d="M739 1495h-90v231h90v-231zM688 -20q-279 0 -443.5 191.5t-164.5 514.5q0 322 168 514.5t450 192.5q154 0 278 -60t196.5 -172.5t72.5 -257.5v-18h-96v18q0 191 -117.5 295.5t-337.5 104.5q-256 0 -388 -158.5t-132 -458.5t132.5 -458t391.5 -158q221 0 340 106t119 307
v97h-508v82h596v-662h-78v248h-6q-57 -135 -183 -201.5t-290 -66.5z" />
    <glyph glyph-name="gdotaccent" unicode="&#x121;" horiz-adv-x="1093" 
d="M565 1147h-90v231h90v-231zM518 84q-205 0 -321.5 127t-116.5 344t114 344t318 127q139 0 240.5 -69.5t134.5 -178.5h6v228h80v-988q0 -184 -116 -285.5t-304 -101.5q-180 0 -300 98.5t-120 262.5h92q0 -139 84.5 -208t245.5 -69q164 0 246 73t82 230v314
q-35 -107 -133.5 -177.5t-231.5 -70.5zM170 555q0 -389 360 -389q154 0 253.5 93t99.5 265v64q0 170 -102.5 263t-260.5 93q-59 0 -108 -10t-95 -37t-77.5 -69.5t-50.5 -112t-19 -160.5z" />
    <glyph glyph-name="Gcommaaccent" unicode="&#x122;" horiz-adv-x="1357" 
d="M688 -20q-279 0 -443.5 191.5t-164.5 514.5q0 322 168 514.5t450 192.5q154 0 278 -60t196.5 -172.5t72.5 -257.5v-18h-96v18q0 191 -117.5 295.5t-337.5 104.5q-256 0 -388 -158.5t-132 -458.5t132.5 -458t391.5 -158q221 0 340 106t119 307v97h-508v82h596v-662h-78
v248h-6q-57 -135 -183 -201.5t-290 -66.5zM641 -410h-76v11l164 256h102v-11z" />
    <glyph glyph-name="gcommaaccent" unicode="&#x123;" horiz-adv-x="1093" 
d="M649 1413h76v-10l-164 -256h-102v10zM518 84q-205 0 -321.5 127t-116.5 344t114 344t318 127q139 0 240.5 -69.5t134.5 -178.5h6v228h80v-988q0 -184 -116 -285.5t-304 -101.5q-180 0 -300 98.5t-120 262.5h92q0 -139 84.5 -208t245.5 -69q164 0 246 73t82 230v314
q-35 -107 -133.5 -177.5t-231.5 -70.5zM170 555q0 -389 360 -389q154 0 253.5 93t99.5 265v64q0 170 -102.5 263t-260.5 93q-59 0 -108 -10t-95 -37t-77.5 -69.5t-50.5 -112t-19 -160.5z" />
    <glyph glyph-name="Hcircumflex" unicode="&#x124;" horiz-adv-x="1292" 
d="M467 1495h-84v10l219 256h90l219 -256v-10h-86l-174 203h-10zM229 0h-92v1372h92v-639h834v639h92v-1372h-92v651h-834v-651z" />
    <glyph glyph-name="hcircumflex" unicode="&#x125;" horiz-adv-x="1081" 
d="M-14 1495h-84v10l219 256h90l219 -256v-10h-86l-174 203h-10zM211 0h-90v1372h90v-577h6q16 43 42.5 80.5t68 73t105 56.5t140.5 21q185 0 281 -117t96 -311v-598h-92v588q0 183 -73.5 269.5t-227.5 86.5q-164 0 -255 -93.5t-91 -285.5v-565z" />
    <glyph glyph-name="Hbar" unicode="&#x126;" horiz-adv-x="1312" 
d="M240 0h-93v1061h-198v82h198v229h93v-229h833v229h92v-229h199v-82h-199v-1061h-92v651h-833v-651zM240 733h833v328h-833v-328z" />
    <glyph glyph-name="hbar" unicode="&#x127;" horiz-adv-x="1140" 
d="M270 0h-90v1126h-160v78h160v168h90v-168h465v-78h-465v-454h6q12 34 30 64.5t48.5 61.5t68.5 53.5t92.5 37t117.5 14.5q185 0 280 -117t95 -311v-475h-90v465q0 183 -74 269.5t-230 86.5q-163 0 -253.5 -93.5t-90.5 -285.5v-442z" />
    <glyph glyph-name="Itilde" unicode="&#x128;" horiz-adv-x="366" 
d="M2 1548h-65v80q0 60 27 96.5t85 36.5q26 0 51.5 -10.5t41 -22t40.5 -32.5l41 -35q16 -15 27 -23.5t27.5 -15t33.5 -6.5q26 0 40 13.5t14 49.5v78h67v-82q0 -59 -28.5 -94t-84.5 -35q-27 0 -51.5 10t-39 21t-42.5 35l-43 35q-20 17 -29 24t-25.5 14t-33.5 7q-53 0 -53 -64
v-80zM229 0h-92v1372h92v-1372z" />
    <glyph glyph-name="itilde" unicode="&#x129;" horiz-adv-x="325" 
d="M-18 1200h-66v80q0 60 27.5 96.5t85.5 36.5q26 0 51.5 -10.5t41 -22t40.5 -32.5l41 -35q16 -15 27 -23.5t27.5 -15t33.5 -6.5q26 0 39.5 13.5t13.5 49.5v78h68v-82q0 -59 -28.5 -94t-84.5 -35q-27 0 -51.5 10t-39 21t-42.5 35l-43 34q-20 17 -29 24t-25.5 14t-33.5 7
q-53 0 -53 -63v-80zM209 0h-92v1024h92v-1024z" />
    <glyph glyph-name="Imacron" unicode="&#x12a;" horiz-adv-x="366" 
d="M420 1595h-471v68h471v-68zM229 0h-92v1372h92v-1372z" />
    <glyph glyph-name="imacron" unicode="&#x12b;" horiz-adv-x="325" 
d="M399 1247h-471v68h471v-68zM209 0h-92v1024h92v-1024z" />
    <glyph glyph-name="Ibreve" unicode="&#x12c;" horiz-adv-x="366" 
d="M184 1475q-101 0 -163 57.5t-62 157.5v18h76v-20q0 -72 35.5 -108t113.5 -36q81 0 115.5 35.5t34.5 108.5v20h76v-18q0 -100 -62.5 -157.5t-163.5 -57.5zM229 0h-92v1372h92v-1372z" />
    <glyph glyph-name="ibreve" unicode="&#x12d;" horiz-adv-x="325" 
d="M164 1126q-101 0 -163 57.5t-62 157.5v54h75v-56q0 -72 36 -107.5t114 -35.5q81 0 115 35t34 108v56h76v-54q0 -100 -62 -157.5t-163 -57.5zM209 0h-92v1024h92v-1024z" />
    <glyph glyph-name="Iogonek" unicode="&#x12e;" horiz-adv-x="366" 
d="M229 0h-2l-84 -111q-32 -39 -46.5 -64.5t-14.5 -51.5q0 -39 30.5 -62.5t94.5 -23.5h98v-70h-104q-93 0 -145 36t-52 103q0 25 7 48.5t24.5 48t26 34.5t30.5 35l68 78h-23v1372h92v-1372z" />
    <glyph glyph-name="iogonek" unicode="&#x12f;" horiz-adv-x="325" 
d="M209 1147h-92v225h92v-225zM209 0h-2l-84 -111q-33 -40 -47.5 -65t-14.5 -51q0 -39 30.5 -62.5t94.5 -23.5h99v-70h-105q-93 0 -144.5 36t-51.5 103q0 25 7 48.5t24.5 48t26 34.5t30.5 35l67 78h-22v1024h92v-1024z" />
    <glyph glyph-name="Idotaccent" unicode="&#x130;" horiz-adv-x="366" 
d="M229 1495h-90v231h90v-231zM229 0h-92v1372h92v-1372z" />
    <glyph glyph-name="dotlessi" unicode="&#x131;" horiz-adv-x="325" 
d="M209 0h-92v1024h92v-1024z" />
    <glyph glyph-name="IJ" unicode="&#x132;" horiz-adv-x="1406" 
d="M229 0h-92v1372h92v-1372zM823 -20q-119 0 -209 36t-142.5 99.5t-78.5 143.5t-26 175v105h94v-115q0 -177 85.5 -265.5t276.5 -88.5q190 0 276.5 88.5t86.5 265.5v948h94v-938q0 -95 -26 -175t-79.5 -143.5t-143.5 -99.5t-208 -36z" />
    <glyph glyph-name="ij" unicode="&#x133;" horiz-adv-x="692" 
d="M209 1147h-92v225h92v-225zM571 1147h-90v225h90v-225zM209 0h-92v1024h92v-1024zM287 -348v88h67q75 0 101 21.5t26 91.5v1153h90v-1129q0 -125 -58.5 -175t-172.5 -50h-53z" />
    <glyph glyph-name="Jcircumflex" unicode="&#x134;" horiz-adv-x="1079" 
d="M725 1495h-84v10l219 256h90l219 -256v-10h-86l-174 203h-10zM496 -20q-119 0 -209 36t-143 99.5t-79 143.5t-26 175v105h94v-115q0 -177 86 -265.5t277 -88.5q190 0 276 88.5t86 265.5v948h94v-938q0 -95 -26 -175t-79 -143.5t-143 -99.5t-208 -36z" />
    <glyph glyph-name="jcircumflex" unicode="&#x135;" horiz-adv-x="335" 
d="M-12 1147h-84v10l219 256h90l219 -256v-10h-86l-174 203h-10zM-70 -348v88h68q75 0 101 21.5t26 91.5v1153h90v-1129q0 -125 -58.5 -175t-172.5 -50h-54z" />
    <glyph glyph-name="Kcommaaccent" unicode="&#x136;" horiz-adv-x="1230" 
d="M229 0h-92v1372h92v-645h422l414 645h106l-438 -680l443 -692h-107l-414 643h-426v-643zM475 -410h-76v11l164 256h103v-11z" />
    <glyph glyph-name="kcommaaccent" unicode="&#x137;" horiz-adv-x="980" 
d="M211 0h-90v1372h90v-805h295l332 439h106l-366 -476l358 -530h-107l-327 485h-291v-485zM362 -410h-75v11l164 256h102v-11z" />
    <glyph glyph-name="Lacute" unicode="&#x139;" horiz-adv-x="1019" 
d="M223 1495h-86v10l199 238h106v-10zM997 0h-860v1372h92v-1288h768v-84z" />
    <glyph glyph-name="lacute" unicode="&#x13a;" horiz-adv-x="331" 
d="M205 1513h-84v11l211 256h108v-11zM211 0h-90v1372h90v-1372z" />
    <glyph glyph-name="Lcommaaccent" unicode="&#x13b;" horiz-adv-x="1019" 
d="M997 0h-860v1372h92v-1288h768v-84zM420 -410h-76v11l164 256h102v-11z" />
    <glyph glyph-name="lcommaaccent" unicode="&#x13c;" horiz-adv-x="331" 
d="M211 0h-90v1372h90v-1372zM18 -410h-75v11l163 256h103v-11z" />
    <glyph glyph-name="Lcaron" unicode="&#x13d;" horiz-adv-x="1019" 
d="M997 0h-860v1372h92v-1288h768v-84zM721 975h-19v55h21q19 0 26 6.5t7 28.5v53h-45v254h102v-305q0 -92 -92 -92z" />
    <glyph glyph-name="lcaron" unicode="&#x13e;" horiz-adv-x="393" 
d="M211 0h-90v1372h90v-1372zM322 975h-19v55h21q18 0 25 6.5t7 28.5v53h-45v254h103v-305q0 -92 -92 -92z" />
    <glyph glyph-name="Ldot" unicode="&#x13f;" horiz-adv-x="1019" 
d="M997 0h-860v1372h92v-1288h768v-84zM977 571h-90v230h90v-230z" />
    <glyph glyph-name="ldot" unicode="&#x140;" horiz-adv-x="380" 
d="M211 0h-90v1372h90v-1372zM403 571h-90v230h90v-230z" />
    <glyph glyph-name="Lslash" unicode="&#x141;" horiz-adv-x="1122" 
d="M1100 0h-860v713l-220 -90v90l220 90v569h92v-532l495 204v-90l-495 -204v-666h768v-84z" />
    <glyph glyph-name="lslash" unicode="&#x142;" horiz-adv-x="581" 
d="M336 0h-90v776l-205 -125l-39 68l244 147v506h90v-450l205 125l39 -68l-244 -148v-831z" />
    <glyph glyph-name="Nacute" unicode="&#x143;" horiz-adv-x="1308" 
d="M700 1495h-86v10l199 238h107v-10zM229 0h-92v1372h103l721 -1055l112 -165h8v1220h90v-1372h-100l-715 1044l-118 175h-9v-1219z" />
    <glyph glyph-name="nacute" unicode="&#x144;" horiz-adv-x="1064" 
d="M580 1147h-84v10l211 256h108v-10zM211 0h-90v1006h78v-232h8q14 45 42 87t71.5 80.5t109 61.5t143.5 23q186 0 281.5 -116.5t95.5 -311.5v-598h-92v588q0 183 -73 269.5t-228 86.5q-161 0 -253.5 -93.5t-92.5 -283.5v-567z" />
    <glyph glyph-name="Ncommaaccent" unicode="&#x145;" horiz-adv-x="1308" 
d="M229 0h-92v1372h103l721 -1055l112 -165h8v1220h90v-1372h-100l-715 1044l-118 175h-9v-1219zM510 -410h-76v11l164 256h102v-11z" />
    <glyph glyph-name="ncommaaccent" unicode="&#x146;" horiz-adv-x="1064" 
d="M211 0h-90v1006h78v-232h8q14 45 42 87t71.5 80.5t109 61.5t143.5 23q186 0 281.5 -116.5t95.5 -311.5v-598h-92v588q0 183 -73 269.5t-228 86.5q-161 0 -253.5 -93.5t-92.5 -283.5v-567zM389 -410h-76v11l164 256h103v-11z" />
    <glyph glyph-name="Ncaron" unicode="&#x147;" horiz-adv-x="1308" 
d="M836 1761h84v-10l-220 -256h-90l-219 256v10h86l174 -202h11zM229 0h-92v1372h103l721 -1055l112 -165h8v1220h90v-1372h-100l-715 1044l-118 175h-9v-1219z" />
    <glyph glyph-name="ncaron" unicode="&#x148;" horiz-adv-x="1064" 
d="M582 1147h-90l-220 256v10h84l174 -203h11l174 203h86v-10zM211 0h-90v1006h78v-232h8q14 45 42 87t71.5 80.5t109 61.5t143.5 23q186 0 281.5 -116.5t95.5 -311.5v-598h-92v588q0 183 -73 269.5t-228 86.5q-161 0 -253.5 -93.5t-92.5 -283.5v-567z" />
    <glyph glyph-name="Eng" unicode="&#x14a;" horiz-adv-x="1308" 
d="M942 -348h-53v88h65q75 0 101 21.5t26 91.5v137l-843 1229h-9v-1219h-92v1372h103l833 -1220h8v1220h90v-1495q0 -125 -58.5 -175t-170.5 -50z" />
    <glyph glyph-name="eng" unicode="&#x14b;" horiz-adv-x="1064" 
d="M211 0h-90v1006h78v-232h8q14 45 42 87t71.5 80.5t109 61.5t143.5 23q186 0 281.5 -116.5t95.5 -311.5v-721q0 -125 -58.5 -175t-172.5 -50h-53v88h65q75 0 101 21.5t26 91.5v735q0 183 -73 269.5t-228 86.5q-161 0 -253.5 -93.5t-92.5 -283.5v-567z" />
    <glyph glyph-name="Omacron" unicode="&#x14c;" horiz-adv-x="1392" 
d="M932 1595h-471v68h471v-68zM696 -20q-275 0 -445.5 193.5t-170.5 512.5t170.5 513t445.5 194t446 -194t171 -513t-171 -512.5t-446 -193.5zM696 70q253 0 387 159t134 457t-134 457.5t-387 159.5t-386.5 -159.5t-133.5 -457.5t133.5 -457t386.5 -159z" />
    <glyph glyph-name="omacron" unicode="&#x14d;" horiz-adv-x="1107" 
d="M788 1247h-471v68h471v-68zM557 -20q-212 0 -344.5 148t-132.5 376q0 149 59 267.5t168.5 186.5t249.5 68q210 0 340.5 -147.5t130.5 -374.5q0 -228 -130.5 -376t-340.5 -148zM557 63q188 0 285.5 117t97.5 324q0 206 -97.5 323t-285.5 117q-189 0 -288 -117t-99 -323
q0 -207 98.5 -324t288.5 -117z" />
    <glyph glyph-name="Obreve" unicode="&#x14e;" horiz-adv-x="1392" 
d="M696 1475q-101 0 -163 57.5t-62 157.5v18h76v-20q0 -72 35.5 -108t113.5 -36q81 0 115.5 35.5t34.5 108.5v20h76v-18q0 -100 -62.5 -157.5t-163.5 -57.5zM696 -20q-275 0 -445.5 193.5t-170.5 512.5t170.5 513t445.5 194t446 -194t171 -513t-171 -512.5t-446 -193.5z
M696 70q253 0 387 159t134 457t-134 457.5t-387 159.5t-386.5 -159.5t-133.5 -457.5t133.5 -457t386.5 -159z" />
    <glyph glyph-name="obreve" unicode="&#x14f;" horiz-adv-x="1107" 
d="M553 1126q-101 0 -163 57.5t-62 157.5v54h75v-56q0 -72 36 -107.5t114 -35.5q81 0 115 35t34 108v56h76v-54q0 -100 -62 -157.5t-163 -57.5zM557 -20q-212 0 -344.5 148t-132.5 376q0 149 59 267.5t168.5 186.5t249.5 68q210 0 340.5 -147.5t130.5 -374.5
q0 -228 -130.5 -376t-340.5 -148zM557 63q188 0 285.5 117t97.5 324q0 206 -97.5 323t-285.5 117q-189 0 -288 -117t-99 -323q0 -207 98.5 -324t288.5 -117z" />
    <glyph glyph-name="Ohungarumlaut" unicode="&#x150;" horiz-adv-x="1392" 
d="M868 1495h-75v10l161 238h99v-10zM618 1495h-75v10l164 238h98v-10zM696 -20q-275 0 -445.5 193.5t-170.5 512.5t170.5 513t445.5 194t446 -194t171 -513t-171 -512.5t-446 -193.5zM696 70q253 0 387 159t134 457t-134 457.5t-387 159.5t-386.5 -159.5t-133.5 -457.5
t133.5 -457t386.5 -159z" />
    <glyph glyph-name="ohungarumlaut" unicode="&#x151;" horiz-adv-x="1107" 
d="M457 1147h-74v10l172 256h98v-10zM707 1147h-76v10l172 256h98v-10zM557 -20q-212 0 -344.5 148t-132.5 376q0 149 59 267.5t168.5 186.5t249.5 68q210 0 340.5 -147.5t130.5 -374.5q0 -228 -130.5 -376t-340.5 -148zM557 63q188 0 285.5 117t97.5 324q0 206 -97.5 323
t-285.5 117q-189 0 -288 -117t-99 -323q0 -207 98.5 -324t288.5 -117z" />
    <glyph glyph-name="OE" unicode="&#x152;" horiz-adv-x="1951" 
d="M1868 0h-1092q-331 0 -513.5 184.5t-182.5 501.5t182.5 501.5t513.5 184.5h1092v-84h-789v-557h758v-82h-758v-565h789v-84zM776 84h211v1204h-211q-303 0 -452.5 -153.5t-149.5 -448.5t149.5 -448.5t452.5 -153.5z" />
    <glyph glyph-name="oe" unicode="&#x153;" horiz-adv-x="1912" 
d="M557 -20q-212 0 -344.5 148t-132.5 376q0 149 59 267.5t168.5 186.5t249.5 68q148 0 259.5 -76.5t166.5 -208.5q52 132 158.5 208.5t251.5 76.5q85 0 160.5 -27t137 -80t97 -142t35.5 -204q0 -58 -11 -104h-784q6 -193 97.5 -299.5t273.5 -106.5q155 0 240 74t85 187v12
h91v-12q0 -142 -118 -243t-298 -101q-152 0 -259 75t-159 207q-55 -131 -165.5 -206.5t-258.5 -75.5zM1393 946q-176 0 -267.5 -107t-97.5 -296h707q7 209 -86 306t-256 97zM557 63q188 0 285.5 117t97.5 324q0 206 -97.5 323t-285.5 117q-189 0 -288 -117t-99 -323
q0 -207 98.5 -324t288.5 -117z" />
    <glyph glyph-name="Racute" unicode="&#x154;" horiz-adv-x="1200" 
d="M635 1495h-86v10l199 238h106v-10zM229 0h-92v1372h537q207 0 336 -105t129 -288q0 -174 -120.5 -277.5t-311.5 -103.5v-8q105 -31 180 -156l254 -434h-105l-241 408q-37 62 -77.5 98.5t-104 56t-156.5 19.5h-228v-582zM229 1288v-626h453q365 0 365 313t-365 313h-453z
" />
    <glyph glyph-name="racute" unicode="&#x155;" horiz-adv-x="829" 
d="M489 1147h-83v10l210 256h109v-10zM211 0h-90v1024h78v-186h10q25 81 98 134.5t178 53.5q146 0 215.5 -87.5t69.5 -227.5v-39h-90v30q0 130 -51.5 186t-163.5 56q-127 0 -190.5 -71t-63.5 -222v-651z" />
    <glyph glyph-name="Rcommaaccent" unicode="&#x156;" horiz-adv-x="1200" 
d="M229 0h-92v1372h537q207 0 336 -105t129 -288q0 -174 -120.5 -277.5t-311.5 -103.5v-8q105 -31 180 -156l254 -434h-105l-241 408q-37 62 -77.5 98.5t-104 56t-156.5 19.5h-228v-582zM229 1288v-626h453q365 0 365 313t-365 313h-453zM444 -410h-75v11l163 256h103v-11z
" />
    <glyph glyph-name="rcommaaccent" unicode="&#x157;" horiz-adv-x="829" 
d="M211 0h-90v1024h78v-186h10q25 81 98 134.5t178 53.5q146 0 215.5 -87.5t69.5 -227.5v-39h-90v30q0 130 -51.5 186t-163.5 56q-127 0 -190.5 -71t-63.5 -222v-651zM23 -410h-76v11l164 256h102v-11z" />
    <glyph glyph-name="Rcaron" unicode="&#x158;" horiz-adv-x="1200" 
d="M770 1761h84v-10l-219 -256h-90l-219 256v10h86l174 -202h10zM229 0h-92v1372h537q207 0 336 -105t129 -288q0 -174 -120.5 -277.5t-311.5 -103.5v-8q105 -31 180 -156l254 -434h-105l-241 408q-37 62 -77.5 98.5t-104 56t-156.5 19.5h-228v-582zM229 1288v-626h453
q365 0 365 313t-365 313h-453z" />
    <glyph glyph-name="rcaron" unicode="&#x159;" horiz-adv-x="829" 
d="M492 1147h-91l-219 256v10h84l174 -203h11l174 203h86v-10zM211 0h-90v1024h78v-186h10q25 81 98 134.5t178 53.5q146 0 215.5 -87.5t69.5 -227.5v-39h-90v30q0 130 -51.5 186t-163.5 56q-127 0 -190.5 -71t-63.5 -222v-651z" />
    <glyph glyph-name="Sacute" unicode="&#x15a;" horiz-adv-x="1181" 
d="M637 1495h-86v10l199 238h106v-10zM629 -20q-134 0 -239 35.5t-169.5 96.5t-97.5 139t-33 167v20h92v-22q0 -168 111.5 -258t337.5 -90q186 0 282.5 66.5t96.5 199.5q0 128 -70 191t-229 100l-244 57q-83 19 -144 44.5t-113.5 66t-80 101.5t-27.5 142q0 70 31 133.5
t89.5 114t151.5 80t208 29.5q122 0 219 -36.5t157 -98.5t91.5 -140t31.5 -166v-18h-92v22q0 166 -104.5 257.5t-304.5 91.5q-186 0 -285.5 -65.5t-99.5 -192.5q0 -66 17.5 -112t57.5 -78.5t92.5 -53t135.5 -41.5l243 -60q82 -19 143 -45t112.5 -67t78.5 -103t27 -143
q0 -73 -29.5 -137.5t-86.5 -115.5t-149 -81t-208 -30z" />
    <glyph glyph-name="sacute" unicode="&#x15b;" horiz-adv-x="972" 
d="M530 1147h-84v10l211 256h109v-10zM516 -20q-195 0 -302.5 87t-107.5 250v5h91v-15q0 -84 28 -136.5t100 -82t193 -29.5q143 0 205.5 48.5t62.5 144.5q0 86 -54.5 128.5t-178.5 65.5l-174 33q-275 49 -275 266q0 125 101 203t266 78q174 0 280.5 -88t106.5 -246v-8h-90
v14q0 248 -297 248q-276 0 -276 -196q0 -87 50 -129t169 -66l172 -33q137 -27 212.5 -88.5t75.5 -175.5q0 -128 -97 -203t-261 -75z" />
    <glyph glyph-name="Scircumflex" unicode="&#x15c;" horiz-adv-x="1181" 
d="M412 1495h-84v10l219 256h90l219 -256v-10h-86l-174 203h-10zM629 -20q-134 0 -239 35.5t-169.5 96.5t-97.5 139t-33 167v20h92v-22q0 -168 111.5 -258t337.5 -90q186 0 282.5 66.5t96.5 199.5q0 128 -70 191t-229 100l-244 57q-83 19 -144 44.5t-113.5 66t-80 101.5
t-27.5 142q0 70 31 133.5t89.5 114t151.5 80t208 29.5q122 0 219 -36.5t157 -98.5t91.5 -140t31.5 -166v-18h-92v22q0 166 -104.5 257.5t-304.5 91.5q-186 0 -285.5 -65.5t-99.5 -192.5q0 -66 17.5 -112t57.5 -78.5t92.5 -53t135.5 -41.5l243 -60q82 -19 143 -45t112.5 -67
t78.5 -103t27 -143q0 -73 -29.5 -137.5t-86.5 -115.5t-149 -81t-208 -30z" />
    <glyph glyph-name="scircumflex" unicode="&#x15d;" horiz-adv-x="972" 
d="M307 1147h-84v10l219 256h90l220 -256v-10h-86l-174 203h-11zM516 -20q-195 0 -302.5 87t-107.5 250v5h91v-15q0 -84 28 -136.5t100 -82t193 -29.5q143 0 205.5 48.5t62.5 144.5q0 86 -54.5 128.5t-178.5 65.5l-174 33q-275 49 -275 266q0 125 101 203t266 78
q174 0 280.5 -88t106.5 -246v-8h-90v14q0 248 -297 248q-276 0 -276 -196q0 -87 50 -129t169 -66l172 -33q137 -27 212.5 -88.5t75.5 -175.5q0 -128 -97 -203t-261 -75z" />
    <glyph glyph-name="Scedilla" unicode="&#x15e;" horiz-adv-x="1181" 
d="M649 -401h-114v69h110q88 0 88 68q0 42 -22.5 55.5t-65.5 13.5h-80v177q-119 8 -211.5 46.5t-149 98.5t-85.5 133.5t-29 157.5v20h92v-22q0 -168 111.5 -258t337.5 -90q186 0 282.5 66.5t96.5 199.5q0 128 -70 191t-229 100l-244 57q-83 19 -144 44.5t-113.5 66
t-80 101.5t-27.5 142q0 70 31 133.5t89.5 114t151.5 80t208 29.5q122 0 219 -36.5t157 -98.5t91.5 -140t31.5 -166v-18h-92v22q0 166 -104.5 257.5t-304.5 91.5q-186 0 -285.5 -65.5t-99.5 -192.5q0 -66 17.5 -112t57.5 -78.5t92.5 -53t135.5 -41.5l243 -60q82 -19 143 -45
t112.5 -67t78.5 -103t27 -143q0 -73 -29.5 -137.5t-86 -115.5t-147 -81t-204.5 -30v-107h14q73 0 115.5 -36.5t42.5 -98.5q0 -65 -42.5 -102t-115.5 -37z" />
    <glyph glyph-name="scedilla" unicode="&#x15f;" horiz-adv-x="972" 
d="M559 -401h-115v69h111q88 0 88 68q0 42 -22.5 55.5t-65.5 13.5h-80v177q-176 8 -272.5 94.5t-96.5 240.5v5h91v-15q0 -84 28 -136.5t100 -82t193 -29.5q143 0 205.5 48.5t62.5 144.5q0 86 -54.5 128.5t-178.5 65.5l-174 33q-275 49 -275 266q0 125 101 203t266 78
q174 0 280.5 -88t106.5 -246v-8h-90v14q0 248 -297 248q-276 0 -276 -196q0 -87 50 -129t169 -66l172 -33q137 -27 212.5 -88.5t75.5 -175.5q0 -122 -88.5 -196t-240.5 -82v-107h14q73 0 115.5 -36.5t42.5 -98.5q0 -65 -42.5 -102t-115.5 -37z" />
    <glyph glyph-name="Scaron" unicode="&#x160;" horiz-adv-x="1181" 
d="M772 1761h84v-10l-219 -256h-90l-219 256v10h86l174 -202h10zM629 -20q-134 0 -239 35.5t-169.5 96.5t-97.5 139t-33 167v20h92v-22q0 -168 111.5 -258t337.5 -90q186 0 282.5 66.5t96.5 199.5q0 128 -70 191t-229 100l-244 57q-83 19 -144 44.5t-113.5 66t-80 101.5
t-27.5 142q0 70 31 133.5t89.5 114t151.5 80t208 29.5q122 0 219 -36.5t157 -98.5t91.5 -140t31.5 -166v-18h-92v22q0 166 -104.5 257.5t-304.5 91.5q-186 0 -285.5 -65.5t-99.5 -192.5q0 -66 17.5 -112t57.5 -78.5t92.5 -53t135.5 -41.5l243 -60q82 -19 143 -45t112.5 -67
t78.5 -103t27 -143q0 -73 -29.5 -137.5t-86.5 -115.5t-149 -81t-208 -30z" />
    <glyph glyph-name="scaron" unicode="&#x161;" horiz-adv-x="972" 
d="M532 1147h-90l-219 256v10h84l174 -203h11l174 203h86v-10zM516 -20q-195 0 -302.5 87t-107.5 250v5h91v-15q0 -84 28 -136.5t100 -82t193 -29.5q143 0 205.5 48.5t62.5 144.5q0 86 -54.5 128.5t-178.5 65.5l-174 33q-275 49 -275 266q0 125 101 203t266 78
q174 0 280.5 -88t106.5 -246v-8h-90v14q0 248 -297 248q-276 0 -276 -196q0 -87 50 -129t169 -66l172 -33q137 -27 212.5 -88.5t75.5 -175.5q0 -128 -97 -203t-261 -75z" />
    <glyph glyph-name="Tcedilla" unicode="&#x162;" horiz-adv-x="1165" 
d="M629 0h-2v-127h14q73 0 115.5 -36.5t42.5 -98.5q0 -65 -42.5 -102t-115.5 -37h-115v69h111q88 0 88 68q0 42 -22.5 55.5t-65.5 13.5h-80v195h-18v1288h-504v84h1095v-84h-501v-1288z" />
    <glyph glyph-name="tcedilla" unicode="&#x163;" horiz-adv-x="653" 
d="M465 -2q-128 0 -193 59.5t-65 208.5v660h-170v80h170l26 264h64v-264h332v-80h-332v-682q0 -91 46.5 -125.5t145.5 -34.5h140v-70q-62 -16 -164 -16zM385 -401h-115v69h111q88 0 88 68q0 42 -22.5 55.5t-65.5 13.5h-80v201h70v-133h14q73 0 115.5 -36.5t42.5 -98.5
q0 -65 -42.5 -102t-115.5 -37z" />
    <glyph glyph-name="Tcaron" unicode="&#x164;" horiz-adv-x="1165" 
d="M764 1761h84v-10l-219 -256h-90l-220 256v10h87l174 -202h10zM629 0h-90v1288h-504v84h1095v-84h-501v-1288z" />
    <glyph glyph-name="tcaron" unicode="&#x165;" horiz-adv-x="653" 
d="M442 1102h-18v55h20q19 0 26 6.5t7 28.5v53h-45v254h103v-305q0 -92 -93 -92zM465 -2q-128 0 -193 59.5t-65 208.5v660h-170v80h170l26 264h64v-264h332v-80h-332v-682q0 -91 46.5 -125.5t145.5 -34.5h140v-70q-62 -16 -164 -16z" />
    <glyph glyph-name="Tbar" unicode="&#x166;" horiz-adv-x="1165" 
d="M629 0h-90v731h-373v84h373v473h-504v84h1095v-84h-501v-473h372v-84h-372v-731z" />
    <glyph glyph-name="tbar" unicode="&#x167;" horiz-adv-x="653" 
d="M37 522v80h170v324h-170v80h170l26 264h64v-264h332v-80h-332v-324h332v-80h-332v-278q0 -92 45 -126t147 -34h140v-70q-54 -14 -164 -14q-127 0 -192.5 60.5t-65.5 205.5v256h-170z" />
    <glyph glyph-name="Utilde" unicode="&#x168;" horiz-adv-x="1388" 
d="M512 1548h-66v80q0 60 27.5 96.5t85.5 36.5q26 0 51.5 -10.5t41 -22t40.5 -32.5l41 -35q16 -15 27 -23.5t27.5 -15t33.5 -6.5q26 0 39.5 13.5t13.5 49.5v78h68v-82q0 -59 -28.5 -94t-84.5 -35q-27 0 -51.5 10t-39 21t-42.5 35l-43 35q-20 17 -29 24t-25.5 14t-33.5 7
q-53 0 -53 -64v-80zM692 -20q-253 0 -404 147.5t-151 413.5v831h90v-831q0 -241 116 -356t349 -115q234 0 349.5 115t115.5 356v831h90v-831q0 -267 -150.5 -414t-404.5 -147z" />
    <glyph glyph-name="utilde" unicode="&#x169;" horiz-adv-x="1081" 
d="M356 1200h-65v80q0 60 27 96.5t85 36.5q37 0 66.5 -16.5t67.5 -48.5l41 -35q16 -15 27 -23.5t27.5 -15t33.5 -6.5q26 0 39.5 13.5t13.5 49.5v78h67v-82q0 -60 -28 -94.5t-84 -34.5q-27 0 -51.5 10t-39 21t-42.5 35l-43 34q-20 17 -29 24t-25.5 14t-33.5 7q-54 0 -54 -63
v-80zM500 -20q-191 0 -288 118t-97 314v594h90v-586q0 -183 78 -271t237 -88q160 0 255 96t95 289v560h93v-1006h-80v238h-9q-14 -46 -42.5 -89t-73 -82.5t-111.5 -63t-147 -23.5z" />
    <glyph glyph-name="Umacron" unicode="&#x16a;" horiz-adv-x="1388" 
d="M930 1595h-471v68h471v-68zM692 -20q-253 0 -404 147.5t-151 413.5v831h90v-831q0 -241 116 -356t349 -115q234 0 349.5 115t115.5 356v831h90v-831q0 -267 -150.5 -414t-404.5 -147z" />
    <glyph glyph-name="umacron" unicode="&#x16b;" horiz-adv-x="1081" 
d="M774 1247h-471v68h471v-68zM500 -20q-191 0 -288 118t-97 314v594h90v-586q0 -183 78 -271t237 -88q160 0 255 96t95 289v560h93v-1006h-80v238h-9q-14 -46 -42.5 -89t-73 -82.5t-111.5 -63t-147 -23.5z" />
    <glyph glyph-name="Ubreve" unicode="&#x16c;" horiz-adv-x="1388" 
d="M694 1475q-101 0 -163 57.5t-62 157.5v18h76v-20q0 -72 35.5 -108t113.5 -36q81 0 115.5 35.5t34.5 108.5v20h76v-18q0 -100 -62.5 -157.5t-163.5 -57.5zM692 -20q-253 0 -404 147.5t-151 413.5v831h90v-831q0 -241 116 -356t349 -115q234 0 349.5 115t115.5 356v831h90
v-831q0 -267 -150.5 -414t-404.5 -147z" />
    <glyph glyph-name="ubreve" unicode="&#x16d;" horiz-adv-x="1081" 
d="M539 1126q-101 0 -163.5 57.5t-62.5 157.5v54h76v-56q0 -72 36 -107.5t114 -35.5q81 0 115 35t34 108v56h76v-54q0 -100 -62 -157.5t-163 -57.5zM500 -20q-191 0 -288 118t-97 314v594h90v-586q0 -183 78 -271t237 -88q160 0 255 96t95 289v560h93v-1006h-80v238h-9
q-14 -46 -42.5 -89t-73 -82.5t-111.5 -63t-147 -23.5z" />
    <glyph glyph-name="Uring" unicode="&#x16e;" horiz-adv-x="1388" 
d="M694 1462q-82 0 -132 49t-50 131t50 131.5t132 49.5t132.5 -49.5t50.5 -131.5q0 -81 -50.5 -130.5t-132.5 -49.5zM694 1520q121 0 121 122q0 123 -121 123t-121 -123q0 -122 121 -122zM692 -20q-253 0 -404 147.5t-151 413.5v831h90v-831q0 -241 116 -356t349 -115
q234 0 349.5 115t115.5 356v831h90v-831q0 -267 -150.5 -414t-404.5 -147z" />
    <glyph glyph-name="uring" unicode="&#x16f;" horiz-adv-x="1081" 
d="M539 1114q-82 0 -132.5 49.5t-50.5 130.5q0 82 50.5 131.5t132.5 49.5t132 -49.5t50 -131.5t-50 -131t-132 -49zM539 1171q120 0 120 123t-120 123q-121 0 -121 -123t121 -123zM500 -20q-191 0 -288 118t-97 314v594h90v-586q0 -183 78 -271t237 -88q160 0 255 96t95 289
v560h93v-1006h-80v238h-9q-14 -46 -42.5 -89t-73 -82.5t-111.5 -63t-147 -23.5z" />
    <glyph glyph-name="Uhungarumlaut" unicode="&#x170;" horiz-adv-x="1388" 
d="M866 1495h-75v10l161 238h99v-10zM616 1495h-75v10l164 238h98v-10zM692 -20q-253 0 -404 147.5t-151 413.5v831h90v-831q0 -241 116 -356t349 -115q234 0 349.5 115t115.5 356v831h90v-831q0 -267 -150.5 -414t-404.5 -147z" />
    <glyph glyph-name="uhungarumlaut" unicode="&#x171;" horiz-adv-x="1081" 
d="M440 1147h-73v10l172 256h98v-10zM690 1147h-76v10l172 256h99v-10zM500 -20q-191 0 -288 118t-97 314v594h90v-586q0 -183 78 -271t237 -88q160 0 255 96t95 289v560h93v-1006h-80v238h-9q-14 -46 -42.5 -89t-73 -82.5t-111.5 -63t-147 -23.5z" />
    <glyph glyph-name="Uogonek" unicode="&#x172;" horiz-adv-x="1388" 
d="M852 -383h-104q-93 0 -145 36t-52 103q0 25 7 48.5t24.5 48t26 34.5t30.5 35l49 58q-251 2 -401 149t-150 412v831h90v-831q0 -241 116 -356t349 -115q234 0 349.5 115t115.5 356v831h90v-831q0 -247 -130.5 -392.5t-354.5 -166.5l-72 -93q-32 -39 -46.5 -64.5
t-14.5 -51.5q0 -39 30.5 -62.5t94.5 -23.5h98v-70z" />
    <glyph glyph-name="uogonek" unicode="&#x173;" horiz-adv-x="1081" 
d="M500 -20q-191 0 -288 118t-97 314v594h90v-586q0 -183 78 -271t237 -88q160 0 255 96t95 289v560h93v-1006h-2l-84 -111q-33 -40 -47.5 -65t-14.5 -51q0 -39 30.5 -62.5t94.5 -23.5h98v-70h-104q-93 0 -145 36t-52 103q0 25 7 48.5t24.5 48t26 34.5t30.5 35l68 78h-10
v238h-9q-14 -46 -42.5 -89t-73 -82.5t-111.5 -63t-147 -23.5z" />
    <glyph glyph-name="Wcircumflex" unicode="&#x174;" horiz-adv-x="2054" 
d="M838 1495h-84v10l219 256h90l219 -256v-10h-86l-174 203h-10zM600 0h-129l-379 1372h103l270 -989l72 -283h8l88 283l328 989h118l328 -989l88 -283h8l72 283l270 989h103l-379 -1372h-131l-273 813l-141 430h-10l-140 -430z" />
    <glyph glyph-name="wcircumflex" unicode="&#x175;" horiz-adv-x="1531" 
d="M586 1147h-84v10l219 256h90l219 -256v-10h-86l-174 203h-10zM414 0h-115l-270 1006h96l188 -727l45 -187h9l61 187l281 727h116l281 -730l61 -182h9l45 182l188 730h94l-270 -1006h-115l-266 692l-82 228h-6l-84 -228z" />
    <glyph glyph-name="Ycircumflex" unicode="&#x176;" horiz-adv-x="1185" 
d="M412 1495h-84v10l219 256h90l219 -256v-10h-86l-174 203h-10zM637 0h-90v532l-529 840h105l338 -530l131 -215h8l131 215l332 530h104l-530 -840v-532z" />
    <glyph glyph-name="ycircumflex" unicode="&#x177;" horiz-adv-x="985" 
d="M311 1147h-84v10l219 256h91l219 -256v-10h-86l-174 203h-11zM236 -348q-65 0 -115 12v72h98q71 0 103 21t59 83l74 168l-432 998h96l262 -611l117 -272h8l110 272l250 611h99l-506 -1199q-64 -155 -223 -155z" />
    <glyph glyph-name="Ydieresis" unicode="&#x178;" horiz-adv-x="1185" 
d="M788 1495h-90v231h90v-231zM485 1495h-90v231h90v-231zM637 0h-90v532l-529 840h105l338 -530l131 -215h8l131 215l332 530h104l-530 -840v-532z" />
    <glyph glyph-name="Zacute" unicode="&#x179;" horiz-adv-x="1173" 
d="M631 1495h-86v10l198 238h107v-10zM1133 0h-1074v82l922 1198v8h-881v84h1002v-82l-922 -1198v-8h953v-84z" />
    <glyph glyph-name="zacute" unicode="&#x17a;" horiz-adv-x="1007" 
d="M547 1147h-84v10l211 256h108v-10zM946 0h-885v80l631 717l105 118v9h-705v82h823v-82l-643 -731l-90 -103v-8h764v-82z" />
    <glyph glyph-name="Zdotaccent" unicode="&#x17b;" horiz-adv-x="1173" 
d="M633 1495h-90v231h90v-231zM1133 0h-1074v82l922 1198v8h-881v84h1002v-82l-922 -1198v-8h953v-84z" />
    <glyph glyph-name="zdotaccent" unicode="&#x17c;" horiz-adv-x="1007" 
d="M549 1147h-90v231h90v-231zM946 0h-885v80l631 717l105 118v9h-705v82h823v-82l-643 -731l-90 -103v-8h764v-82z" />
    <glyph glyph-name="Zcaron" unicode="&#x17d;" horiz-adv-x="1173" 
d="M768 1761h84v-10l-219 -256h-90l-219 256v10h86l174 -202h10zM1133 0h-1074v82l922 1198v8h-881v84h1002v-82l-922 -1198v-8h953v-84z" />
    <glyph glyph-name="zcaron" unicode="&#x17e;" horiz-adv-x="1007" 
d="M549 1147h-90l-219 256v10h84l174 -203h10l174 203h86v-10zM946 0h-885v80l631 717l105 118v9h-705v82h823v-82l-643 -731l-90 -103v-8h764v-82z" />
    <glyph glyph-name="florin" unicode="&#x192;" horiz-adv-x="933" 
d="M66 -348h-101l15 84h92q112 0 171.5 49.5t78.5 153.5l122 706h-227l14 82h228l61 348q50 297 354 297h95l-15 -84h-96q-111 0 -168 -49t-76 -154l-63 -358h305l-14 -82h-305l-123 -696q-52 -297 -348 -297z" />
    <glyph glyph-name="AEacute" unicode="&#x1fc;" horiz-adv-x="1961" 
d="M1108 1495h-86v10l199 238h106v-10zM111 0h-111l973 1372h905v-84h-788v-557h757v-82h-757v-565h788v-84h-881v436h-577zM991 1245l-512 -725h518v725h-6z" />
    <glyph glyph-name="aeacute" unicode="&#x1fd;" horiz-adv-x="1763" 
d="M913 1147h-84v10l211 256h109v-10zM399 -20q-147 0 -238 69t-91 193q0 248 364 278l359 29v14l-2 74q0 160 -73 233.5t-222 73.5q-143 0 -223 -70.5t-80 -216.5v-12h-91v14q0 154 108 260.5t288 106.5q143 0 232.5 -63.5t123.5 -171.5q59 110 159 172.5t230 62.5
q85 0 160.5 -27t137 -80t97 -142t35.5 -204q0 -62 -10 -104h-784q6 -193 97 -299.5t273 -106.5q156 0 241 74t85 187v12h90v-12q0 -142 -118 -243t-298 -101q-160 0 -270.5 84.5t-157.5 230.5q-38 -157 -155.5 -236t-266.5 -79zM1243 946q-175 0 -266.5 -107t-97.5 -296h708
q3 107 -21.5 186t-72 126t-109.5 69t-141 22zM160 250q0 -191 252 -191q167 0 270 100.5t109 315.5l-363 -29q-140 -11 -204 -56.5t-64 -139.5z" />
    <glyph glyph-name="Oslashacute" unicode="&#x1fe;" horiz-adv-x="1392" 
d="M743 1495h-86v10l199 238h107v-10zM696 -20q-255 0 -422 167l-168 -190l-59 51l176 199q-143 188 -143 479q0 319 170.5 513t445.5 194q259 0 422 -168l168 190l57 -51l-174 -199q144 -194 144 -479q0 -319 -171 -512.5t-446 -193.5zM176 686q0 -262 103 -416l786 893
q-134 140 -369 140q-253 0 -386.5 -159.5t-133.5 -457.5zM696 70q253 0 387 159t134 457q0 262 -103 416l-786 -893q133 -139 368 -139z" />
    <glyph glyph-name="oslashacute" unicode="&#x1ff;" horiz-adv-x="1107" 
d="M618 1147h-83v10l210 256h109v-10zM557 -20q-197 0 -328 131l-129 -138l-49 50l131 141q-102 139 -102 340q0 149 59 267.5t168.5 186.5t249.5 68q188 0 317 -123l134 144l51 -48l-139 -149q108 -139 108 -346q0 -228 -130.5 -376t-340.5 -148zM170 504q0 -172 68 -281
l585 625q-99 96 -266 96q-189 0 -288 -117t-99 -323zM557 63q188 0 285.5 117t97.5 324q0 179 -74 291l-585 -629q103 -103 276 -103z" />
    <glyph glyph-name="Scommaaccent" unicode="&#x218;" horiz-adv-x="1181" 
d="M629 -20q-134 0 -239 35.5t-169.5 96.5t-97.5 139t-33 167v20h92v-22q0 -168 111.5 -258t337.5 -90q186 0 282.5 66.5t96.5 199.5q0 128 -70 191t-229 100l-244 57q-83 19 -144 44.5t-113.5 66t-80 101.5t-27.5 142q0 70 31 133.5t89.5 114t151.5 80t208 29.5
q122 0 219 -36.5t157 -98.5t91.5 -140t31.5 -166v-18h-92v22q0 166 -104.5 257.5t-304.5 91.5q-186 0 -285.5 -65.5t-99.5 -192.5q0 -66 17.5 -112t57.5 -78.5t92.5 -53t135.5 -41.5l243 -60q82 -19 143 -45t112.5 -67t78.5 -103t27 -143q0 -73 -29.5 -137.5t-86.5 -115.5
t-149 -81t-208 -30zM446 -410h-75v11l164 256h102v-11z" />
    <glyph glyph-name="scommaaccent" unicode="&#x219;" horiz-adv-x="972" 
d="M516 -20q-195 0 -302.5 87t-107.5 250v5h91v-15q0 -84 28 -136.5t100 -82t193 -29.5q143 0 205.5 48.5t62.5 144.5q0 86 -54.5 128.5t-178.5 65.5l-174 33q-275 49 -275 266q0 125 101 203t266 78q174 0 280.5 -88t106.5 -246v-8h-90v14q0 248 -297 248q-276 0 -276 -196
q0 -87 50 -129t169 -66l172 -33q137 -27 212.5 -88.5t75.5 -175.5q0 -128 -97 -203t-261 -75zM354 -410h-75v11l163 256h103v-11z" />
    <glyph glyph-name="Tcommaaccent" unicode="&#x21a;" horiz-adv-x="1165" 
d="M629 0h-90v1288h-504v84h1095v-84h-501v-1288zM436 -410h-76v11l164 256h103v-11z" />
    <glyph glyph-name="tcommaaccent" unicode="&#x21b;" horiz-adv-x="653" 
d="M465 -2q-128 0 -193 59.5t-65 208.5v660h-170v80h170l26 264h64v-264h332v-80h-332v-682q0 -91 46.5 -125.5t145.5 -34.5h140v-70q-62 -16 -164 -16zM180 -410h-76v11l164 256h103v-11z" />
    <glyph glyph-name="dotlessj" unicode="&#x237;" horiz-adv-x="335" 
d="M-70 -348v88h68q75 0 101 21.5t26 91.5v1153h90v-1129q0 -125 -58.5 -175t-172.5 -50h-54z" />
    <glyph glyph-name="circumflex" unicode="&#x2c6;" 
d="M434 1147h-84v10l219 256h90l220 -256v-10h-86l-175 203h-10z" />
    <glyph glyph-name="caron" unicode="&#x2c7;" 
d="M659 1147h-90l-219 256v10h84l174 -203h10l175 203h86v-10z" />
    <glyph glyph-name="breve" unicode="&#x2d8;" 
d="M614 1126q-101 0 -163 57.5t-62 157.5v54h76v-56q0 -72 35.5 -107.5t113.5 -35.5q81 0 115.5 35t34.5 108v56h76v-54q0 -100 -62.5 -157.5t-163.5 -57.5z" />
    <glyph glyph-name="dotaccent" unicode="&#x2d9;" 
d="M659 1147h-90v231h90v-231z" />
    <glyph glyph-name="ring" unicode="&#x2da;" 
d="M614 1114q-82 0 -132 49t-50 131t50 131.5t132 49.5t132.5 -49.5t50.5 -131.5q0 -81 -50.5 -130.5t-132.5 -49.5zM614 1171q121 0 121 123t-121 123q-120 0 -120 -123t120 -123z" />
    <glyph glyph-name="ogonek" unicode="&#x2db;" 
d="M764 -383h-105q-93 0 -144.5 36t-51.5 103q0 25 7 48.5t24.5 48t26 34.5t30.5 35l67 78h68l-84 -111q-32 -39 -46.5 -64.5t-14.5 -51.5q0 -39 30.5 -62.5t94.5 -23.5h98v-70z" />
    <glyph glyph-name="tilde" unicode="&#x2dc;" 
d="M432 1200h-65v80q0 60 27 96.5t85 36.5q26 0 51.5 -10.5t41 -22t40.5 -32.5l41 -35q16 -15 27 -23.5t27.5 -15t33.5 -6.5q26 0 40 13.5t14 49.5v78h67v-82q0 -60 -28 -94.5t-84 -34.5q-27 0 -52 10t-40 21t-42 35l-43 34q-20 17 -29 24t-25.5 14t-33.5 7q-53 0 -53 -63
v-80z" />
    <glyph glyph-name="hungarumlaut" unicode="&#x2dd;" 
d="M428 1147h-74v10l172 256h99v-10zM678 1147h-76v10l172 256h98v-10z" />
    <glyph glyph-name="gravecomb" unicode="&#x300;" 
d="M774 1147h-84l-235 256v10h108l211 -256v-10z" />
    <glyph glyph-name="acutecomb" unicode="&#x301;" 
d="M539 1147h-84v10l211 256h108v-10z" />
    <glyph glyph-name="circumflexcomb" unicode="&#x302;" 
d="M434 1147h-84v10l219 256h90l220 -256v-10h-86l-175 203h-10z" />
    <glyph glyph-name="tildecomb" unicode="&#x303;" 
d="M432 1200h-65v80q0 60 27 96.5t85 36.5q26 0 51.5 -10.5t41 -22t40.5 -32.5l41 -35q16 -15 27 -23.5t27.5 -15t33.5 -6.5q26 0 40 13.5t14 49.5v78h67v-82q0 -60 -28 -94.5t-84 -34.5q-27 0 -52 10t-40 21t-42 35l-43 34q-20 17 -29 24t-25.5 14t-33.5 7q-53 0 -53 -63
v-80z" />
    <glyph glyph-name="macroncomb" unicode="&#x304;" 
d="M850 1247h-471v68h471v-68z" />
    <glyph glyph-name="brevecomb" unicode="&#x306;" 
d="M614 1126q-101 0 -163 57.5t-62 157.5v54h76v-56q0 -72 35.5 -107.5t113.5 -35.5q81 0 115.5 35t34.5 108v56h76v-54q0 -100 -62.5 -157.5t-163.5 -57.5z" />
    <glyph glyph-name="dotaccentcomb" unicode="&#x307;" 
d="M659 1147h-90v231h90v-231z" />
    <glyph glyph-name="dieresiscomb" unicode="&#x308;" 
d="M811 1147h-90v231h90v-231zM508 1147h-90v231h90v-231z" />
    <glyph glyph-name="ringcomb" unicode="&#x30a;" 
d="M614 1114q-82 0 -132 49t-50 131t50 131.5t132 49.5t132.5 -49.5t50.5 -131.5q0 -81 -50.5 -130.5t-132.5 -49.5zM614 1171q121 0 121 123t-121 123q-120 0 -120 -123t120 -123z" />
    <glyph glyph-name="hungarumlautcomb" unicode="&#x30b;" 
d="M428 1147h-74v10l172 256h99v-10zM678 1147h-76v10l172 256h98v-10z" />
    <glyph glyph-name="caroncomb" unicode="&#x30c;" 
d="M659 1147h-90l-219 256v10h84l174 -203h10l175 203h86v-10z" />
    <glyph glyph-name="commaturnedabovecomb" unicode="&#x312;" 
d="M672 1413h76v-10l-164 -256h-103v10z" />
    <glyph glyph-name="commaaccentcomb" unicode="&#x326;" 
d="M557 -410h-76v11l164 256h103v-11z" />
    <glyph glyph-name="cedillacomb" unicode="&#x327;" 
d="M592 -401h-115v69h111q88 0 88 68q0 42 -22.5 55.5t-65.5 13.5h-80v201h70v-133h14q73 0 115.5 -36.5t42.5 -98.5q0 -65 -42.5 -102t-115.5 -37z" />
    <glyph glyph-name="ogonekcomb" unicode="&#x328;" 
d="M764 -383h-105q-93 0 -144.5 36t-51.5 103q0 25 7 48.5t24.5 48t26 34.5t30.5 35l67 78h68l-84 -111q-32 -39 -46.5 -64.5t-14.5 -51.5q0 -39 30.5 -62.5t94.5 -23.5h98v-70z" />
    <glyph glyph-name="strokeshortcomb" unicode="&#x335;" 
d="M971 1126h-715v78h715v-78z" />
    <glyph glyph-name="strokelongcomb" unicode="&#x336;" 
d="M1321 1061h-1415v82h1415v-82z" />
    <glyph glyph-name="slashshortcomb" unicode="&#x337;" 
d="M903 979l-538 -328l-39 68l538 328z" />
    <glyph glyph-name="slashlongcomb" unicode="&#x338;" 
d="M1118 999l-958 -1026l-49 50l956 1024z" />
    <glyph glyph-name="Omega" unicode="&#x3a9;" horiz-adv-x="1417" 
d="M653 0h-528v84h285q-155 64 -241.5 209.5t-86.5 353.5q0 190 83.5 342t230.5 237t329 85q183 0 330.5 -85t231 -237t83.5 -342q0 -208 -86.5 -353.5t-241.5 -209.5h285v-84h-528v84q234 0 354.5 147.5t120.5 415.5q0 267 -146 420.5t-403 153.5q-256 0 -402.5 -154
t-146.5 -420q0 -268 121.5 -415.5t355.5 -147.5v-84z" />
    <glyph glyph-name="pi" unicode="&#x3c0;" horiz-adv-x="1175" 
d="M252 0v926h-232v80h1135v-80h-274v-684q0 -91 45.5 -125.5t144.5 -34.5h98v-72q-77 -16 -122 -16q-127 0 -191.5 60.5t-64.5 209.5v662h-449v-926h-90z" />
    <glyph glyph-name="Wgrave" unicode="&#x1e80;" horiz-adv-x="2054" 
d="M1057 1495h-84l-219 238v10h106l197 -238v-10zM600 0h-129l-379 1372h103l270 -989l72 -283h8l88 283l328 989h118l328 -989l88 -283h8l72 283l270 989h103l-379 -1372h-131l-273 813l-141 430h-10l-140 -430z" />
    <glyph glyph-name="wgrave" unicode="&#x1e81;" horiz-adv-x="1531" 
d="M819 1147h-84l-235 256v10h108l211 -256v-10zM414 0h-115l-270 1006h96l188 -727l45 -187h9l61 187l281 727h116l281 -730l61 -182h9l45 182l188 730h94l-270 -1006h-115l-266 692l-82 228h-6l-84 -228z" />
    <glyph glyph-name="Wacute" unicode="&#x1e82;" horiz-adv-x="2054" 
d="M1063 1495h-86v10l199 238h106v-10zM600 0h-129l-379 1372h103l270 -989l72 -283h8l88 283l328 989h118l328 -989l88 -283h8l72 283l270 989h103l-379 -1372h-131l-273 813l-141 430h-10l-140 -430z" />
    <glyph glyph-name="wacute" unicode="&#x1e83;" horiz-adv-x="1531" 
d="M809 1147h-84v10l211 256h108v-10zM414 0h-115l-270 1006h96l188 -727l45 -187h9l61 187l281 727h116l281 -730l61 -182h9l45 182l188 730h94l-270 -1006h-115l-266 692l-82 228h-6l-84 -228z" />
    <glyph glyph-name="Wdieresis" unicode="&#x1e84;" horiz-adv-x="2054" 
d="M1214 1495h-90v231h90v-231zM911 1495h-90v231h90v-231zM600 0h-129l-379 1372h103l270 -989l72 -283h8l88 283l328 989h118l328 -989l88 -283h8l72 283l270 989h103l-379 -1372h-131l-273 813l-141 430h-10l-140 -430z" />
    <glyph glyph-name="wdieresis" unicode="&#x1e85;" horiz-adv-x="1531" 
d="M963 1147h-91v231h91v-231zM659 1147h-90v231h90v-231zM414 0h-115l-270 1006h96l188 -727l45 -187h9l61 187l281 727h116l281 -730l61 -182h9l45 182l188 730h94l-270 -1006h-115l-266 692l-82 228h-6l-84 -228z" />
    <glyph glyph-name="Etilde" unicode="&#x1ebc;" horiz-adv-x="1099" 
d="M395 1548h-65v80q0 60 27 96.5t85 36.5q26 0 51.5 -10.5t41 -22t40.5 -32.5l41 -35q49 -45 89 -45q26 0 39.5 13.5t13.5 49.5v78h67v-82q0 -60 -28 -94.5t-84 -34.5q-27 0 -51.5 10t-39 21t-42.5 35l-43 35q-20 17 -29 24t-25.5 14t-33.5 7q-54 0 -54 -64v-80zM1018 0
h-881v1372h881v-84h-789v-557h758v-82h-758v-565h789v-84z" />
    <glyph glyph-name="etilde" unicode="&#x1ebd;" horiz-adv-x="1052" 
d="M348 1200h-65v80q0 60 27 96.5t85 36.5q26 0 51.5 -10.5t41 -22t40.5 -32.5l41 -35q16 -15 27 -23.5t27.5 -15t33.5 -6.5q26 0 40 13.5t14 49.5v78h67v-82q0 -60 -28 -94.5t-84 -34.5q-27 0 -52 10t-40 21t-42 35l-43 34q-20 17 -29 24t-25.5 14t-33.5 7q-53 0 -53 -63
v-80zM539 -20q-143 0 -248 68.5t-158 186t-53 269.5q0 228 123 375t329 147q85 0 161 -27t137 -80t97 -142t36 -204q0 -58 -11 -104h-784q6 -193 97.5 -299.5t273.5 -106.5q155 0 240 74t85 187v12h90v-12q0 -142 -117.5 -243t-297.5 -101zM532 946q-176 0 -267 -107
t-97 -296h706q7 209 -86 306t-256 97z" />
    <glyph glyph-name="Ygrave" unicode="&#x1ef2;" horiz-adv-x="1185" 
d="M631 1495h-84l-219 238v10h106l197 -238v-10zM637 0h-90v532l-529 840h105l338 -530l131 -215h8l131 215l332 530h104l-530 -840v-532z" />
    <glyph glyph-name="ygrave" unicode="&#x1ef3;" horiz-adv-x="985" 
d="M545 1147h-84l-236 256v10h109l211 -256v-10zM236 -348q-65 0 -115 12v72h98q71 0 103 21t59 83l74 168l-432 998h96l262 -611l117 -272h8l110 272l250 611h99l-506 -1199q-64 -155 -223 -155z" />
    <glyph glyph-name="Ytilde" unicode="&#x1ef8;" horiz-adv-x="1185" 
d="M410 1548h-66v80q0 60 27.5 96.5t85.5 36.5q26 0 51.5 -10.5t41 -22t40.5 -32.5l41 -35q16 -15 27 -23.5t27.5 -15t33.5 -6.5q26 0 39.5 13.5t13.5 49.5v78h68v-82q0 -59 -28.5 -94t-84.5 -35q-27 0 -51.5 10t-39 21t-42.5 35l-43 35q-20 17 -29 24t-25.5 14t-33.5 7
q-53 0 -53 -64v-80zM637 0h-90v532l-529 840h105l338 -530l131 -215h8l131 215l332 530h104l-530 -840v-532z" />
    <glyph glyph-name="ytilde" unicode="&#x1ef9;" horiz-adv-x="985" 
d="M309 1200h-65v80q0 60 27 96.5t85 36.5q26 0 51.5 -10.5t41 -22t40.5 -32.5l41 -35q16 -15 27 -23.5t27.5 -15t33.5 -6.5q26 0 40 13.5t14 49.5v78h67v-82q0 -60 -28 -94.5t-84 -34.5q-27 0 -51.5 10t-39 21t-42.5 35l-43 34q-19 16 -28.5 23.5t-26.5 14.5t-34 7
q-53 0 -53 -63v-80zM236 -348q-65 0 -115 12v72h98q71 0 103 21t59 83l74 168l-432 998h96l262 -611l117 -272h8l110 272l250 611h99l-506 -1199q-64 -155 -223 -155z" />
    <glyph glyph-name="endash" unicode="&#x2013;" horiz-adv-x="868" 
d="M813 557h-758v80h758v-80z" />
    <glyph glyph-name="emdash" unicode="&#x2014;" horiz-adv-x="1349" 
d="M1294 557h-1239v80h1239v-80z" />
    <glyph glyph-name="quoteleft" unicode="&#x2018;" horiz-adv-x="231" 
d="M156 1446h18v-60h-20q-19 0 -27 -6t-8 -28v-56h49v-258h-109v316q0 92 97 92z" />
    <glyph glyph-name="quoteright" unicode="&#x2019;" horiz-adv-x="231" 
d="M72 965h-19v59h21q19 0 27 6.5t8 28.5v55h-50v258h109v-315q0 -92 -96 -92z" />
    <glyph glyph-name="quotesinglbase" unicode="&#x201a;" horiz-adv-x="251" 
d="M74 -150h-19v60h21q19 0 27 6.5t8 28.5v55h-50v258h109v-315q0 -93 -96 -93z" />
    <glyph glyph-name="quotedblleft" unicode="&#x201c;" horiz-adv-x="442" 
d="M156 1446h18v-60h-20q-19 0 -27 -6t-8 -28v-56h49v-258h-109v316q0 92 97 92zM365 1446h18v-60h-21q-19 0 -26.5 -6t-7.5 -28v-56h49v-258h-109v316q0 92 97 92z" />
    <glyph glyph-name="quotedblright" unicode="&#x201d;" horiz-adv-x="442" 
d="M287 965h-19v59h21q19 0 27 6.5t8 28.5v55h-50v258h109v-315q0 -92 -96 -92zM78 965h-19v59h21q19 0 27 6.5t8 28.5v55h-49v258h108v-315q0 -92 -96 -92z" />
    <glyph glyph-name="quotedblbase" unicode="&#x201e;" horiz-adv-x="434" 
d="M74 -150h-19v60h21q19 0 27 6.5t8 28.5v55h-50v258h109v-315q0 -93 -96 -93zM283 -150h-19v60h21q19 0 26.5 6.5t7.5 28.5v55h-49v258h109v-315q0 -93 -96 -93z" />
    <glyph glyph-name="dagger" unicode="&#x2020;" horiz-adv-x="901" 
d="M496 0h-90v942h-351v82h351v348h90v-348h350v-82h-350v-942z" />
    <glyph glyph-name="daggerdbl" unicode="&#x2021;" horiz-adv-x="901" 
d="M496 0h-90v346h-351v82h351v514h-351v82h351v348h90v-348h350v-82h-350v-514h350v-82h-350v-346z" />
    <glyph glyph-name="bullet" unicode="&#x2022;" horiz-adv-x="503" 
d="M252 502q-78 0 -131 50t-53 134t53 134t131 50t131 -50t53 -134t-53 -134t-131 -50z" />
    <glyph glyph-name="ellipsis" unicode="&#x2026;" horiz-adv-x="899" 
d="M190 0h-108v258h108v-258zM504 0h-109v258h109v-258zM817 -2h-108v258h108v-258z" />
    <glyph glyph-name="perthousand" unicode="&#x2030;" horiz-adv-x="2273" 
d="M360 715q-97 0 -167 49.5t-102 125t-32 165.5q0 65 19 124.5t55 108t95 77t132 28.5t131.5 -28.5t94.5 -77t54.5 -108t18.5 -124.5q0 -90 -31.5 -165.5t-101 -125t-166.5 -49.5zM244 0h-97l1145 1372h94zM360 791q220 0 220 264q0 262 -220 262q-219 0 -219 -262
q0 -129 52 -196.5t167 -67.5zM1913 -20q-74 0 -132.5 28.5t-94.5 76t-55 107.5t-19 127q0 65 19 124.5t55 108t95 77t132 28.5t132 -28.5t95 -77t55 -108t19 -124.5q0 -67 -19 -127t-55 -107.5t-94.5 -76t-132.5 -28.5zM1176 -20q-97 0 -167.5 49.5t-102.5 124.5t-32 165
q0 88 32 163t102.5 125t167.5 50q73 0 132 -28.5t95 -77t55 -108t19 -124.5q0 -67 -19 -127t-55 -107.5t-94.5 -76t-132.5 -28.5zM1913 55q219 0 219 264q0 263 -219 263t-219 -263q0 -264 219 -264zM1176 55q219 0 219 264q0 263 -219 263q-220 0 -220 -263
q0 -264 220 -264z" />
    <glyph glyph-name="guilsinglleft" unicode="&#x2039;" horiz-adv-x="497" 
d="M27 666l409 301v-97l-338 -241v-8l338 -242v-96l-409 301v82z" />
    <glyph glyph-name="guilsinglright" unicode="&#x203a;" horiz-adv-x="497" 
d="M471 584l-410 -301v96l338 242v8l-338 241v97l410 -301v-82z" />
    <glyph glyph-name="fraction" unicode="&#x2044;" horiz-adv-x="309" 
d="M-369 0h-96l1145 1372h94z" />
    <glyph glyph-name="zero.superior" unicode="&#x2070;" horiz-adv-x="790" 
d="M395 666q-155 0 -237 101t-82 261t82 262.5t237 102.5t237.5 -102.5t82.5 -262.5t-82.5 -261t-237.5 -101zM395 741q126 0 182 69t56 218q0 152 -55.5 220.5t-182.5 68.5t-182 -68.5t-55 -220.5q0 -149 55.5 -218t181.5 -69z" />
    <glyph glyph-name="four.superior" unicode="&#x2074;" horiz-adv-x="776" 
d="M582 686h-80v141h-426v58l420 487h86v-471h118v-74h-118v-141zM188 901h314v363h-6l-308 -357v-6z" />
    <glyph glyph-name="Euro" unicode="&#x20ac;" horiz-adv-x="1429" 
d="M817 -20q-252 0 -411 142.5t-201 393.5h-185v74h177q-4 62 -4 96t4 96h-177v74h185q42 251 201 394t411 143q144 0 265 -56t194.5 -161t73.5 -236v-18h-99v18q0 168 -117.5 265.5t-318.5 97.5q-447 0 -514 -447h612v-74h-620q-4 -62 -4 -96t4 -96h620v-74h-612
q66 -446 514 -446q202 0 319 97t117 265v19h99v-19q0 -131 -73.5 -235.5t-194.5 -160.5t-265 -56z" />
    <glyph glyph-name="indianrupee" unicode="&#x20b9;" horiz-adv-x="1128" 
d="M922 0h-105l-258 428q-52 86 -133 127t-209 41h-121v82h355q154 0 231.5 64.5t77.5 201.5h-664v82h664v264h-664v82h971v-82h-217v-264h217v-82h-217q-4 -161 -103 -248t-274 -84v-6q111 -36 184 -160z" />
    <glyph glyph-name="trademark" unicode="&#x2122;" horiz-adv-x="1071" 
d="M602 961h-63v411h86l145 -321h6l146 321h86v-411h-64v223l2 80h-8l-131 -279h-70l-131 277h-6l2 -74v-227zM293 961h-68v350h-162v61h392v-61h-162v-350z" />
    <glyph glyph-name="Ohm" unicode="&#x2126;" horiz-adv-x="1417" 
d="M653 0h-528v84h285q-155 64 -241.5 209.5t-86.5 353.5q0 190 83.5 342t230.5 237t329 85q183 0 330.5 -85t231 -237t83.5 -342q0 -208 -86.5 -353.5t-241.5 -209.5h285v-84h-528v84q234 0 354.5 147.5t120.5 415.5q0 267 -146 420.5t-403 153.5q-256 0 -402.5 -154
t-146.5 -420q0 -268 121.5 -415.5t355.5 -147.5v-84z" />
    <glyph glyph-name="estimated" unicode="&#x212e;" horiz-adv-x="1411" 
d="M735 -20q-312 0 -489.5 191t-177.5 515q0 209 77.5 369t223.5 249t340 89q196 0 342 -87.5t220.5 -237t74.5 -339.5h-1012v-520q139 -139 401 -139q129 0 240 52t181.5 157t70.5 243h94q1 -155 -79 -280t-214 -193.5t-293 -68.5zM334 1169v-356h745v363
q-152 127 -370 127t-375 -134z" />
    <glyph glyph-name="partialdiff" unicode="&#x2202;" horiz-adv-x="1234" 
d="M510 -20q-221 0 -341 97.5t-120 282.5q0 134 70.5 246.5t191.5 178t264 65.5q207 0 320.5 -81t124.5 -206h10q39 171 39 320q0 420 -422 420h-223v90h233q253 0 378.5 -140t125.5 -376q0 -144 -24 -275t-76 -245t-127.5 -197.5t-184 -131.5t-239.5 -48zM524 70
q194 0 324.5 120t130.5 293q0 138 -99 210.5t-296 72.5q-202 0 -322.5 -110.5t-120.5 -290.5q0 -155 94.5 -225t288.5 -70z" />
    <glyph glyph-name="product" unicode="&#x220f;" horiz-adv-x="1155" 
d="M229 -182h-92v1554h879v-1554h-90v1470h-697v-1470z" />
    <glyph glyph-name="summation" unicode="&#x2211;" horiz-adv-x="1007" 
d="M928 -182h-836v80l438 542l121 150v8l-121 150l-438 542v82h836v-82h-715v-8l96 -117l428 -530v-80l-428 -530l-96 -117v-8h715v-82z" />
    <glyph glyph-name="minus" unicode="&#x2212;" horiz-adv-x="1024" 
d="M838 645h-758v82h758v-82z" />
    <glyph glyph-name="radical" unicode="&#x221a;" horiz-adv-x="1054" 
d="M618 0h-110l-320 928l-276 -127l-39 78l289 127h96l303 -914h6l502 1280h96z" />
    <glyph glyph-name="infinity" unicode="&#x221e;" horiz-adv-x="1347" 
d="M369 360q-131 0 -220.5 89t-89.5 237q0 149 91.5 238.5t228.5 89.5q109 0 187.5 -58t101.5 -157q20 48 43.5 83t59.5 67t88.5 48.5t119.5 16.5q131 0 221 -89t90 -237q0 -149 -92 -238.5t-229 -89.5q-116 0 -196 65t-97 173q-21 -53 -43 -91t-57.5 -74t-87 -54.5
t-119.5 -18.5zM973 932q-35 0 -65.5 -8t-52.5 -19.5t-42.5 -32.5t-34 -39.5t-28.5 -49t-23.5 -51.5t-21.5 -56q20 -234 258 -234q109 0 172 62.5t63 183.5q0 120 -61.5 182t-163.5 62zM150 686q0 -119 61.5 -181.5t163.5 -62.5q47 0 84.5 15t62 36.5t45.5 58.5t33.5 68.5
t29.5 78.5q2 5 3 8.5t3 8.5t3 9q-15 103 -80 155t-174 52t-172 -62.5t-63 -183.5z" />
    <glyph glyph-name="integral" unicode="&#x222b;" horiz-adv-x="563" 
d="M-90 -348v80h67q98 0 144.5 41.5t46.5 128.5v1177q0 143 75 218t222 75h53v-80h-67q-98 0 -144.5 -41.5t-46.5 -128.5v-1177q0 -143 -75 -218t-222 -75h-53z" />
    <glyph glyph-name="approxequal" unicode="&#x2248;" horiz-adv-x="978" 
d="M162 389h-82v164q0 85 49 129v4h-49v160q0 34 7 62.5t24 56.5t51.5 44.5t83.5 16.5q30 0 58 -8t61.5 -29t50 -32.5t57.5 -43.5l74 -53q5 -4 22 -16t23 -16.5t21.5 -15t23.5 -15t22 -11.5t24 -10t23 -5.5t25 -2.5q86 0 86 100v156h82v-164q0 -83 -49 -129v-4h49v-162
q0 -74 -37.5 -126t-120.5 -52q-43 0 -86.5 16.5t-69.5 34t-67 49.5l-90 66q-6 4 -26 19.5t-27 20.5t-24 16.5t-26.5 16t-23.5 11t-27 8.5t-26 2q-86 0 -86 -102v-156zM737 469q44 0 65 25t21 77v138q-28 -25 -82 -25q-41 0 -84.5 17t-69 33.5t-69.5 49.5l-92 66
q-80 62 -112 77q-36 17 -70 17q-90 0 -90 -102v-137q30 24 90 24q39 0 81.5 -18t70 -37.5t75.5 -57.5l78 -53q3 -2 24.5 -18t27.5 -20t24.5 -16.5t28.5 -16.5t25.5 -11t29.5 -9.5t28 -2.5z" />
    <glyph glyph-name="notequal" unicode="&#x2260;" horiz-adv-x="919" 
d="M840 438h-523l-133 -174l-61 45l98 129h-139v82h203l252 332h-455v82h518l133 174l62 -43l-101 -131h146v-82h-207l-254 -332h461v-82z" />
    <glyph glyph-name="lessequal" unicode="&#x2264;" horiz-adv-x="899" 
d="M836 233h-760v82h690v9l-690 313v98l760 344v-90l-660 -297v-12l660 -297v-150z" />
    <glyph glyph-name="greaterequal" unicode="&#x2265;" horiz-adv-x="899" 
d="M838 233h-758v150l657 297v12l-657 297v90l758 -344v-98l-688 -313v-9h688v-82z" />
    <glyph glyph-name="lozenge" unicode="&#x25ca;" horiz-adv-x="985" 
d="M489 25h9l311 602l-311 602h-9l-311 -602zM549 -57h-113l-356 684l356 684h113l356 -684z" />
    <glyph glyph-name="t_t" horiz-adv-x="1167" 
d="M457 0q-123 0 -187.5 60.5t-64.5 205.5v660h-166v80h166l26 264h66v-264h424l27 264h63v-264h332v-80h-332v-682q0 -91 46.5 -125.5t146.5 -34.5h139v-70q-62 -16 -164 -16q-128 0 -193 59.5t-65 208.5v660h-424v-682q0 -92 44.5 -126t145.5 -34h136v-70
q-51 -14 -166 -14z" />
    <glyph glyph-name="tcaron_t" horiz-adv-x="1167" 
d="M442 1102h-18v55h20q19 0 26 6.5t7 28.5v53h-45v254h103v-305q0 -92 -93 -92zM457 0q-123 0 -187.5 60.5t-64.5 205.5v660h-166v80h166l26 264h66v-264h424l27 264h63v-264h332v-80h-332v-682q0 -91 46.5 -125.5t146.5 -34.5h139v-70q-62 -16 -164 -16q-128 0 -193 59.5
t-65 208.5v660h-424v-682q0 -92 44.5 -126t145.5 -34h136v-70q-51 -14 -166 -14z" />
    <glyph glyph-name="IJacute" horiz-adv-x="1406" 
d="M227 1495h-86v10l199 238h106v-10zM1276 1495h-86v10l199 238h106v-10zM229 0h-92v1372h92v-1372zM823 -20q-119 0 -209 36t-142.5 99.5t-78.5 143.5t-26 175v105h94v-115q0 -177 85.5 -265.5t276.5 -88.5q190 0 276.5 88.5t86.5 265.5v948h94v-938q0 -95 -26 -175
t-79.5 -143.5t-143.5 -99.5t-208 -36z" />
    <glyph glyph-name="idotaccent" horiz-adv-x="325" 
d="M209 1147h-92v225h92v-225zM209 0h-92v1024h92v-1024z" />
    <glyph glyph-name="ijacute" horiz-adv-x="692" 
d="M205 1147h-84v10l211 256h108v-10zM567 1147h-84v10l211 256h109v-10zM209 0h-92v1024h92v-1024zM287 -348v88h67q75 0 101 21.5t26 91.5v1153h90v-1129q0 -125 -58.5 -175t-172.5 -50h-53z" />
    <glyph glyph-name="acutecomb.case" 
d="M547 1495h-86v10l198 238h107v-10z" />
    <glyph glyph-name="brevecomb.case" 
d="M614 1475q-101 0 -163 57.5t-62 157.5v18h76v-20q0 -72 35.5 -108t113.5 -36q81 0 115.5 35.5t34.5 108.5v20h76v-18q0 -100 -62.5 -157.5t-163.5 -57.5z" />
    <glyph glyph-name="caroncomb.alt" 
d="M578 975h-19v55h21q18 0 25 6.5t7 28.5v53h-45v254h103v-305q0 -92 -92 -92z" />
    <glyph glyph-name="caroncomb.alt.case" 
d="M578 975h-19v55h21q18 0 25 6.5t7 28.5v53h-45v254h103v-305q0 -92 -92 -92z" />
    <glyph glyph-name="caroncomb.case" 
d="M795 1761h84v-10l-220 -256h-90l-219 256v10h86l174 -202h11z" />
    <glyph glyph-name="cedillacomb.case" 
d="M592 -401h-115v69h111q88 0 88 68q0 42 -22.5 55.5t-65.5 13.5h-80v201h70v-133h14q73 0 115.5 -36.5t42.5 -98.5q0 -65 -42.5 -102t-115.5 -37z" />
    <glyph glyph-name="circumflexcomb.case" 
d="M434 1495h-84v10l219 256h90l220 -256v-10h-86l-175 203h-10z" />
    <glyph glyph-name="commaaccentcomb.case" 
d="M557 -410h-76v11l164 256h103v-11z" />
    <glyph glyph-name="dieresiscomb.case" 
d="M811 1495h-90v231h90v-231zM508 1495h-90v231h90v-231z" />
    <glyph glyph-name="dotaccentcomb.case" 
d="M659 1495h-90v231h90v-231z" />
    <glyph glyph-name="gravecomb.case" 
d="M766 1495h-84l-219 238v10h106l197 -238v-10z" />
    <glyph glyph-name="hungarumlautcomb.case" 
d="M684 1495h-76v10l162 238h98v-10zM434 1495h-76v10l164 238h99v-10z" />
    <glyph glyph-name="macroncomb.case" 
d="M850 1595h-471v68h471v-68z" />
    <glyph glyph-name="ogonekcomb.case" 
d="M764 -383h-105q-93 0 -144.5 36t-51.5 103q0 25 7 48.5t24.5 48t26 34.5t30.5 35l67 78h68l-84 -111q-32 -39 -46.5 -64.5t-14.5 -51.5q0 -39 30.5 -62.5t94.5 -23.5h98v-70z" />
    <glyph glyph-name="ringcomb.case" 
d="M614 1462q-82 0 -132 49t-50 131t50 131.5t132 49.5t132.5 -49.5t50.5 -131.5q0 -81 -50.5 -130.5t-132.5 -49.5zM614 1520q121 0 121 122q0 123 -121 123q-120 0 -120 -123q0 -122 120 -122z" />
    <glyph glyph-name="slashlongcomb.case" 
d="M1262 1364l-1237 -1407l-60 51l1239 1407z" />
    <glyph glyph-name="slashshortcomb.case" 
d="M1018 954l-807 -331v90l807 331v-90z" />
    <glyph glyph-name="strokeshortcomb.case" 
d="M1032 731h-835v84h835v-84z" />
    <glyph glyph-name="tildecomb.case" 
d="M432 1548h-65v80q0 60 27 96.5t85 36.5q26 0 51.5 -10.5t41 -22t40.5 -32.5l41 -35q16 -15 27 -23.5t27.5 -15t33.5 -6.5q26 0 40 13.5t14 49.5v78h67v-82q0 -60 -28 -94.5t-84 -34.5q-27 0 -52 10t-40 21t-42 35l-43 35q-20 17 -29 24t-25.5 14t-33.5 7q-53 0 -53 -64
v-80z" />
    <glyph glyph-name="d.component" horiz-adv-x="1153" 
d="M518 -20q-208 0 -323 123.5t-115 338.5q0 212 116.5 336.5t321.5 124.5q133 0 231 -68.5t134 -170.5v708h90v-1372h-80v229h-6q-35 -110 -133.5 -179.5t-235.5 -69.5zM170 442q0 -110 28 -187.5t79.5 -118t112 -58t138.5 -17.5q155 0 255 93.5t100 265.5v45
q0 170 -99.5 263t-253.5 93q-61 0 -111 -10t-97.5 -36t-80 -67.5t-52 -109t-19.5 -156.5z" />
    <glyph glyph-name="h.component" horiz-adv-x="1140" 
d="M270 0h-90v1372h90v-700h6q12 34 30 64.5t48.5 61.5t68.5 53.5t92.5 37t117.5 14.5q185 0 280 -117t95 -311v-475h-90v465q0 183 -74 269.5t-230 86.5q-163 0 -253.5 -93.5t-90.5 -285.5v-442z" />
    <glyph glyph-name="ITF" horiz-adv-x="3561" 
d="M225 0v1434h443v-1434h-443zM760 1016v418h442v-418h-442zM1292 0v1434h445v-1434h-445zM1827 1016v418h442v-418h-442zM2359 0v1434h445v-1434h-445zM2894 1016v418h442v-418h-442zM2894 506v420h442v-420h-442z" />
    </font>
</defs>
</svg>
