<?xml version="1.0" standalone="no"?>
<!DOCTYPE svg PUBLIC "-//W3C//DTD SVG 1.1//EN" "http://www.w3.org/Graphics/SVG/1.1/DTD/svg11.dtd" >
<svg xmlns="http://www.w3.org/2000/svg" xmlns:xlink="http://www.w3.org/1999/xlink" version="1.1">
<metadata>
Created by FontForge 20170731 at Fri Oct 27 11:26:39 2023
 By Aleksey,,,
Copyright 2017-2021 Indian Type Foundry. All rights reserved.
</metadata>
<defs>
<font id="ClashGrotesk-Semibold" horiz-adv-x="1206" >
  <font-face 
    font-family="Clash Grotesk Semibold"
    font-weight="600"
    font-stretch="normal"
    units-per-em="2048"
    panose-1="0 0 0 0 0 0 0 0 0 0"
    ascent="1638"
    descent="-410"
    x-height="1030"
    cap-height="1372"
    bbox="-379 -469 3316 1823"
    underline-thickness="212"
    underline-position="-499"
    unicode-range="U+000D-FB04"
  />
<missing-glyph horiz-adv-x="1224" 
d="M100 0v1331h1028v-1331h-1028zM279 1219l335 -463l336 463h-671zM213 1128v-925l336 463zM680 666l336 -463v925zM279 113h671l-336 462z" />
    <glyph glyph-name="f_f" unicode="ff" horiz-adv-x="1374" 
d="M465 0h-307v776h-150v254h152q14 165 125 255.5t313 90.5q63 0 96 -4v-229h-127q-60 0 -87 -21.5t-27 -72.5v-19h368q14 165 125.5 255.5t313.5 90.5q63 0 96 -4v-229h-127q-60 0 -87.5 -21.5t-27.5 -72.5v-19h242v-254h-230v-776h-307v776h-354v-776z" />
    <glyph glyph-name="fi" unicode="fi" horiz-adv-x="1175" 
d="M465 0h-307v776h-150v254h152q14 165 125 255.5t313 90.5q63 0 96 -4v-229h-127q-60 0 -87 -21.5t-27 -72.5v-19h241v-254h-229v-776zM1092 1147h-301l-5 225h306v-225zM1098 0h-307v1030h307v-1030z" />
    <glyph glyph-name="fl" unicode="fl" horiz-adv-x="1212" 
d="M465 0h-307v776h-150v254h152q14 165 125 255.5t313 90.5q63 0 96 -4v-229h-127q-60 0 -87 -21.5t-27 -72.5v-19h241v-254h-229v-776zM1116 0h-305v1372h305v-1372z" />
    <glyph glyph-name="f_f_i" unicode="ffi" horiz-adv-x="1837" 
d="M465 0h-307v776h-150v254h152q14 165 125 255.5t313 90.5q63 0 96 -4v-229h-127q-60 0 -87 -21.5t-27 -72.5v-19h368q14 165 125.5 255.5t313.5 90.5q63 0 96 -4v-229h-127q-60 0 -87.5 -21.5t-27.5 -72.5v-19h242v-254h-230v-776h-307v776h-354v-776zM1753 1147h-301
l-4 225h305v-225zM1759 0h-307v1030h307v-1030z" />
    <glyph glyph-name="f_f_l" unicode="ffl" horiz-adv-x="1871" 
d="M465 0h-307v776h-150v254h152q14 165 125 255.5t313 90.5q63 0 96 -4v-229h-127q-60 0 -87 -21.5t-27 -72.5v-19h368q14 165 125.5 255.5t313.5 90.5q63 0 96 -4v-229h-127q-60 0 -87.5 -21.5t-27.5 -72.5v-19h242v-254h-230v-776h-307v776h-354v-776zM1778 0h-305v1372
h305v-1372z" />
    <glyph glyph-name="f_t" unicode="ft" horiz-adv-x="1441" 
d="M465 0h-307v776h-150v254h152q14 165 125 255.5t313 90.5q63 0 96 -4v-229h-127q-60 0 -87 -21.5t-27 -72.5v-19h350l57 240h242v-240h291v-254h-291v-403q0 -66 30.5 -83.5t133.5 -17.5h127v-256q-98 -20 -201 -20q-204 0 -300.5 80.5t-96.5 261.5v438h-330v-776z" />
    <glyph glyph-name="f_b" unicode="fb" horiz-adv-x="1931" 
d="M465 0h-307v776h-150v254h152q14 165 125 255.5t313 90.5q63 0 96 -4v-229h-127q-60 0 -87 -21.5t-27 -72.5v-19h241v-254h-229v-776zM1096 0h-285v1372h305v-485h12q38 70 120.5 117t193.5 47q209 0 320.5 -144t111.5 -393q0 -248 -111.5 -391t-318.5 -143
q-121 0 -209 44.5t-129 127.5h-10v-152zM1116 432q0 -101 57 -145.5t170 -44.5q128 0 177 63.5t49 208.5q0 147 -48.5 210.5t-177.5 63.5q-113 0 -170 -44.5t-57 -145.5v-166z" />
    <glyph glyph-name="f_f_b" unicode="ffb" horiz-adv-x="2592" 
d="M465 0h-307v776h-150v254h152q14 165 125 255.5t313 90.5q63 0 96 -4v-229h-127q-60 0 -87 -21.5t-27 -72.5v-19h368q14 165 125.5 255.5t313.5 90.5q63 0 96 -4v-229h-127q-60 0 -87.5 -21.5t-27.5 -72.5v-19h242v-254h-230v-776h-307v776h-354v-776zM1757 0h-284v1372
h305v-485h12q38 70 120.5 117t192.5 47q209 0 320.5 -144t111.5 -393q0 -248 -111.5 -391t-318.5 -143q-121 0 -209 44.5t-129 127.5h-10v-152zM1778 432q0 -101 57 -145.5t170 -44.5q128 0 176.5 63.5t48.5 208.5q0 147 -48 210.5t-177 63.5q-113 0 -170 -44.5t-57 -145.5
v-166z" />
    <glyph glyph-name="f_f_h" unicode="ffh" horiz-adv-x="2584" 
d="M465 0h-307v776h-150v254h152q14 165 125 255.5t313 90.5q63 0 96 -4v-229h-127q-60 0 -87 -21.5t-27 -72.5v-19h368q14 165 125.5 255.5t313.5 90.5q63 0 96 -4v-229h-127q-60 0 -87.5 -21.5t-27.5 -72.5v-19h242v-254h-230v-776h-307v776h-354v-776zM1778 0h-305v1372
h305v-502h12q45 79 130.5 130t201.5 51q189 0 283 -111t94 -287v-653h-308v592q0 109 -43 151.5t-159 42.5q-113 0 -162 -45t-49 -159v-582z" />
    <glyph glyph-name="f_f_j" unicode="ffj" horiz-adv-x="1882" 
d="M465 0h-307v776h-150v254h152q14 165 125 255.5t313 90.5q63 0 96 -4v-229h-127q-60 0 -87 -21.5t-27 -72.5v-19h368q14 165 125.5 255.5t313.5 90.5q63 0 96 -4v-229h-127q-60 0 -87.5 -21.5t-27.5 -72.5v-19h242v-254h-230v-776h-307v776h-354v-776zM1788 1147h-307
v225h307v-225zM1282 -344v258h82q75 0 96 16.5t21 73.5v1026h307v-979q0 -114 -29 -193t-86 -123.5t-130.5 -63.5t-172.5 -19q-34 0 -88 4z" />
    <glyph glyph-name="f_f_k" unicode="ffk" horiz-adv-x="2510" 
d="M465 0h-307v776h-150v254h152q14 165 125 255.5t313 90.5q63 0 96 -4v-229h-127q-60 0 -87 -21.5t-27 -72.5v-19h368q14 165 125.5 255.5t313.5 90.5q63 0 96 -4v-229h-127q-60 0 -87.5 -21.5t-27.5 -72.5v-19h242v-254h-230v-776h-307v776h-354v-776zM1778 0h-305v1372
h305v-723h151l234 381h352l-336 -491l334 -539h-352l-226 375h-157v-375z" />
    <glyph glyph-name="f_h" unicode="fh" horiz-adv-x="1925" 
d="M465 0h-307v776h-150v254h152q14 165 125 255.5t313 90.5q63 0 96 -4v-229h-127q-60 0 -87 -21.5t-27 -72.5v-19h241v-254h-229v-776zM1116 0h-305v1372h305v-502h12q45 79 130.5 130t201.5 51q189 0 283 -111t94 -287v-653h-307v592q0 108 -43.5 151t-159.5 43
q-113 0 -162 -45t-49 -159v-582z" />
    <glyph glyph-name="f_j" unicode="fj" horiz-adv-x="1220" 
d="M465 0h-307v776h-150v254h152q14 165 125 255.5t313 90.5q63 0 96 -4v-229h-127q-60 0 -87 -21.5t-27 -72.5v-19h241v-254h-229v-776zM1126 1147h-307v225h307v-225zM621 -344v258h81q75 0 96 16.5t21 73.5v1026h307v-979q0 -114 -29 -193t-86 -123.5t-130 -63.5
t-172 -19q-34 0 -88 4z" />
    <glyph glyph-name="f_k" unicode="fk" horiz-adv-x="1851" 
d="M465 0h-307v776h-150v254h152q14 165 125 255.5t313 90.5q63 0 96 -4v-229h-127q-60 0 -87 -21.5t-27 -72.5v-19h241v-254h-229v-776zM1116 0h-305v1372h305v-723h152l233 381h352l-335 -491l333 -539h-352l-225 375h-158v-375z" />
    <glyph glyph-name=".notdef" horiz-adv-x="1224" 
d="M100 0v1331h1028v-1331h-1028zM279 1219l335 -463l336 463h-671zM213 1128v-925l336 463zM680 666l336 -463v925zM279 113h671l-336 462z" />
    <glyph glyph-name=".null" horiz-adv-x="0" 
 />
    <glyph glyph-name="nonmarkingreturn" horiz-adv-x="682" 
 />
    <glyph glyph-name="CR" unicode="&#xd;" horiz-adv-x="614" 
 />
    <glyph glyph-name="space" unicode=" " horiz-adv-x="389" 
 />
    <glyph glyph-name="exclam" unicode="!" horiz-adv-x="602" 
d="M455 451h-308q0 85 -21.5 392.5t-21.5 385.5v143h396v-143q0 -78 -22.5 -386t-22.5 -392zM477 0h-350v334h350v-334z" />
    <glyph glyph-name="quotedbl" unicode="&#x22;" horiz-adv-x="927" 
d="M778 780h-188l-64 297v295h318v-295zM336 780h-186l-66 297v295h317v-295z" />
    <glyph glyph-name="numbersign" unicode="#" horiz-adv-x="1736" 
d="M479 0h-309l106 283h-194v274h289l73 201h-270v274h381l129 340h309l-129 -340h283l129 340h309l-127 -340h203v-274h-297l-76 -201h281v-274h-389l-109 -283h-307l104 283h-282zM737 780l-90 -245h350l90 245h-350z" />
    <glyph glyph-name="dollar" unicode="$" horiz-adv-x="1267" 
d="M799 -205h-285v197q-418 60 -418 454v27h301v-20q0 -79 24.5 -119t88.5 -58t190 -18q127 0 172.5 28t45.5 99q0 38 -6 59.5t-28 41t-64 32.5t-115 25l-242 43q-193 33 -283 130.5t-90 260.5q0 152 105 265.5t319 141.5v193h285v-199q198 -35 295.5 -157t97.5 -303v-17
h-303v23q0 108 -55.5 149t-206.5 41q-129 0 -180.5 -29.5t-51.5 -95.5q0 -65 37 -90t160 -49l244 -47q207 -39 297 -143.5t90 -264.5t-104 -272t-320 -137v-191z" />
    <glyph glyph-name="percent" unicode="%" horiz-adv-x="1619" 
d="M397 713q-166 0 -263 91t-97 249t97 249t263 91q165 0 262 -91t97 -249t-97 -249t-262 -91zM457 0h-281l989 1372h279zM397 922q74 0 101.5 26.5t27.5 104.5t-27.5 104.5t-101.5 26.5t-101.5 -26.5t-27.5 -104.5t27.5 -104.5t101.5 -26.5zM1225 -20q-166 0 -263.5 90.5
t-97.5 248.5t97.5 249t263.5 91t262 -91t96 -249t-96 -248.5t-262 -90.5zM1225 188q74 0 101.5 26.5t27.5 104.5t-27.5 105t-101.5 27t-101.5 -27t-27.5 -105t27.5 -104.5t101.5 -26.5z" />
    <glyph glyph-name="ampersand" unicode="&#x26;" horiz-adv-x="1421" 
d="M592 1114q-75 0 -111.5 -31t-36.5 -112q0 -79 36.5 -109.5t111.5 -30.5h297v187h303v-187h209v-251h-209v-119q0 -235 -133 -358t-432 -123q-272 0 -408.5 97t-136.5 300q0 147 82 231.5t215 102.5v10q-116 14 -178 99.5t-62 209.5q0 365 479 365h207v-281h-233zM643 260
q150 0 198 40t48 161v119h-303q-97 0 -145 -34.5t-48 -131.5q0 -93 52.5 -123.5t197.5 -30.5z" />
    <glyph glyph-name="quotesingle" unicode="'" horiz-adv-x="485" 
d="M336 780h-186l-66 297v295h317v-295z" />
    <glyph glyph-name="parenleft" unicode="(" horiz-adv-x="718" 
d="M682 4l-156 -151q-72 60 -129.5 118.5t-117 138.5t-99.5 163t-65 190t-25 223t25 223t65 190.5t99.5 163.5t117 138.5t129.5 118.5l156 -152q-114 -124 -168 -223t-70 -195t-16 -264t16 -264t70 -195t168 -223z" />
    <glyph glyph-name="parenright" unicode=")" horiz-adv-x="718" 
d="M33 1368l155 152q72 -60 129.5 -118.5t117 -138.5t99.5 -163.5t65.5 -190.5t25.5 -223t-25.5 -223t-65 -190t-99.5 -163t-117.5 -138.5t-129.5 -118.5l-155 151q114 124 168 223t70 195t16 264t-16 264t-70 195t-168 223z" />
    <glyph glyph-name="asterisk" unicode="*" horiz-adv-x="925" 
d="M432 864l-110 -176l-179 129l133 160l-6 18l-200 52l67 208l197 -81l14 14l-14 207h219l-14 -207l14 -14l195 79l65 -209l-201 -49l-6 -18l133 -160l-178 -131l-108 178h-21z" />
    <glyph glyph-name="plus" unicode="+" horiz-adv-x="1034" 
d="M649 229h-262v330h-328v254h328v330h262v-330h326v-254h-326v-330z" />
    <glyph glyph-name="comma" unicode="," horiz-adv-x="516" 
d="M176 -303h-102v201h94q34 0 47.5 13.5t13.5 51.5v37h-163v362h385v-395q0 -134 -71 -202t-204 -68z" />
    <glyph glyph-name="hyphen" unicode="-" horiz-adv-x="843" 
d="M803 473h-762v262h762v-262z" />
    <glyph glyph-name="period" unicode="." horiz-adv-x="516" 
d="M451 0h-385v362h385v-362z" />
    <glyph glyph-name="slash" unicode="/" horiz-adv-x="970" 
d="M283 -41h-324l737 1454h324z" />
    <glyph glyph-name="zero" unicode="0" horiz-adv-x="1443" 
d="M723 -20q-292 0 -454.5 190.5t-162.5 515.5q0 324 162.5 515.5t454.5 191.5q291 0 452.5 -191.5t161.5 -515.5q0 -325 -161.5 -515.5t-452.5 -190.5zM723 276q109 0 169 34.5t89 123.5t29 252t-29 252t-89 123.5t-169 34.5q-110 0 -170 -34.5t-89.5 -123.5t-29.5 -252
t29.5 -252t89.5 -123.5t170 -34.5z" />
    <glyph glyph-name="one" unicode="1" horiz-adv-x="741" 
d="M647 0h-305v983h-309v219h61q98 0 162 39t113 131h278v-1372z" />
    <glyph glyph-name="two" unicode="2" horiz-adv-x="1296" 
d="M1184 0h-1073v184q0 77 21.5 142.5t53 111t84 87.5t99 69t112.5 59l238 113q92 43 128 84.5t36 107.5q0 79 -49 116.5t-179 37.5q-99 0 -151 -21t-70 -62.5t-18 -119.5v-35h-307v33q0 103 32.5 189t99 153.5t179 105.5t260.5 38q132 0 231.5 -32t159 -91t88.5 -136.5
t29 -172.5q0 -86 -28 -157t-79.5 -123t-108 -89t-130.5 -70l-207 -90q-101 -46 -149 -80.5t-48 -79.5l221 4h525v-276z" />
    <glyph glyph-name="three" unicode="3" horiz-adv-x="1275" 
d="M641 -20q-299 0 -433 113t-134 327v45h301v-41q0 -65 21 -98.5t77.5 -48.5t167.5 -15q134 0 194 32.5t60 123.5q0 97 -42.5 129.5t-147.5 32.5h-289v249h256q96 0 133 27.5t37 108.5q0 79 -54.5 112t-166.5 33q-138 0 -192 -34.5t-54 -127.5v-18h-301v22q0 205 146.5 323
t408.5 118q247 0 383.5 -94.5t136.5 -276.5q0 -126 -63.5 -202t-194.5 -91v-12q149 -14 232 -101.5t83 -238.5q0 -195 -149.5 -296t-415.5 -101z" />
    <glyph glyph-name="four" unicode="4" horiz-adv-x="1335" 
d="M1102 0h-307v260h-775v215l725 897h357v-835h196v-277h-196v-260zM408 537h387v462h-19l-368 -442v-20z" />
    <glyph glyph-name="five" unicode="5" horiz-adv-x="1343" 
d="M668 -20q-273 0 -414 109t-141 304v17h305v-17q0 -73 62 -103t202 -30q145 0 203.5 43t58.5 148q0 107 -60 149.5t-206 42.5q-166 0 -283 -70l-272 37l41 762h1007v-276h-735l-22 -299h8q47 43 138.5 74.5t219.5 31.5q224 0 344.5 -117.5t120.5 -324.5q0 -108 -32.5 -194
t-99.5 -151.5t-180 -100.5t-265 -35z" />
    <glyph glyph-name="six" unicode="6" horiz-adv-x="1339" 
d="M702 -20q-163 0 -277.5 45.5t-185 138.5t-102 226.5t-31.5 318.5q0 332 155.5 508t457.5 176q237 0 372.5 -117.5t135.5 -317.5v-16h-326v12q0 75 -52.5 108.5t-170.5 33.5q-149 0 -201.5 -67t-52.5 -222v-119h10q105 160 373 160q223 0 339 -109t116 -307
q0 -211 -144.5 -331.5t-415.5 -120.5zM707 274q144 0 199 36.5t55 127.5q0 89 -55 125.5t-199 36.5t-200 -36.5t-56 -125.5q0 -90 56 -127t200 -37z" />
    <glyph glyph-name="seven" unicode="7" horiz-adv-x="1142" 
d="M578 -2h-336q0 123 17.5 237.5t46 205.5t71 177.5t84.5 150t96 126.5t96 104.5t92 85.5v11h-708v276h1069v-254q-286 -264 -407 -518t-121 -602z" />
    <glyph glyph-name="eight" unicode="8" horiz-adv-x="1286" 
d="M641 -20q-282 0 -433 100.5t-151 298.5q0 72 22 131.5t61 99t84.5 65.5t99.5 42v12q-99 18 -160.5 96t-61.5 197q0 170 136 270.5t405 100.5t405 -100.5t136 -270.5q0 -119 -61 -197t-160 -96v-12q53 -16 98 -42t84 -65.5t61.5 -99t22.5 -131.5q0 -198 -152 -298.5
t-436 -100.5zM643 811q129 0 181.5 36t52.5 116t-52.5 115.5t-181.5 35.5q-130 0 -182.5 -35.5t-52.5 -115.5t52.5 -116t182.5 -36zM643 256q159 0 217 40t58 134q0 63 -22.5 98.5t-83 54.5t-169.5 19q-161 0 -217.5 -39t-56.5 -133q0 -63 21.5 -99t82 -55.5t170.5 -19.5z
" />
    <glyph glyph-name="nine" unicode="9" horiz-adv-x="1339" 
d="M676 -20q-241 0 -380.5 118.5t-139.5 317.5v12h325v-12q0 -76 50.5 -110t164.5 -34q76 0 123.5 15t75 52t37.5 89.5t10 136.5v119h-10q-108 -160 -375 -160q-221 0 -337 109t-116 307q0 211 144.5 332t415.5 121q323 0 459.5 -170t136.5 -543q0 -700 -584 -700zM662 772
q143 0 198 36.5t55 125.5q0 90 -55 127t-198 37q-146 0 -201 -36.5t-55 -127.5q0 -89 55.5 -125.5t200.5 -36.5z" />
    <glyph glyph-name="colon" unicode=":" horiz-adv-x="516" 
d="M467 666h-385v362h385v-362zM467 0h-385v362h385v-362z" />
    <glyph glyph-name="semicolon" unicode=";" horiz-adv-x="516" 
d="M467 666h-385v362h385v-362zM193 -303h-103v201h94q34 0 48 13.5t14 51.5v37h-164v362h385v-395q0 -135 -70.5 -202.5t-203.5 -67.5z" />
    <glyph glyph-name="less" unicode="&#x3c;" horiz-adv-x="1036" 
d="M39 868l915 289v-287l-639 -174v-20l639 -174v-287l-915 289v364z" />
    <glyph glyph-name="equal" unicode="=" horiz-adv-x="1034" 
d="M975 811h-916v252h916v-252zM975 309h-916v252h916v-252z" />
    <glyph glyph-name="greater" unicode="&#x3e;" horiz-adv-x="1036" 
d="M975 504l-916 -289v287l639 174v20l-639 174v287l916 -289v-364z" />
    <glyph glyph-name="question" unicode="?" horiz-adv-x="1181" 
d="M670 459h-308v45q0 100 40 155t137 101l120 59q47 22 67.5 33t45 30.5t33 41.5t8.5 53q0 72 -44 104.5t-163 32.5q-136 0 -190 -39t-54 -133v-33h-301v31q0 95 33.5 175.5t100 143.5t175.5 98.5t251 35.5q130 0 228 -31t155.5 -87t85.5 -127.5t28 -158.5
q0 -73 -22 -132.5t-62.5 -101.5t-83 -70t-96.5 -52l-115 -49q-41 -19 -55 -40t-14 -55v-30zM694 0h-350v334h350v-334z" />
    <glyph glyph-name="at" unicode="@" horiz-adv-x="1910" 
d="M846 86q-107 0 -180 55.5t-105.5 147t-32.5 213.5q0 185 86 300.5t242 115.5q168 0 231 -154h11v137h266v-500q0 -46 21 -67t67 -21q53 0 72.5 51t19.5 181q0 152 -34.5 256.5t-107.5 167t-176 89.5t-249 27q-154 0 -261 -29.5t-181.5 -98t-109 -180.5t-34.5 -277
q0 -158 32.5 -265.5t103 -172.5t170.5 -93t245 -28q117 0 266 49l64 -234q-165 -61 -375 -61q-382 0 -588.5 210t-206.5 595q0 256 108.5 449.5t311 299t473.5 105.5q255 0 440.5 -94t281 -262.5t95.5 -391.5q0 -249 -101 -385.5t-300 -136.5q-238 0 -309 162h-8
q-69 -160 -248 -160zM813 502q0 -104 31 -147.5t108 -43.5q68 0 97.5 30t29.5 99v121q0 69 -30 100t-97 31q-77 0 -108 -43.5t-31 -146.5z" />
    <glyph glyph-name="A" unicode="A" horiz-adv-x="1466" 
d="M324 0h-320l506 1372h446l506 -1372h-334l-110 305h-582zM614 793l-77 -213h381l-78 213l-101 309h-20z" />
    <glyph glyph-name="B" unicode="B" horiz-adv-x="1331" 
d="M805 0h-709v1372h676q224 0 337.5 -83t113.5 -259q0 -124 -70 -200t-205 -93v-20q161 -12 245.5 -104.5t84.5 -235.5q0 -177 -121 -277t-352 -100zM403 1096v-267h349q90 0 126.5 27.5t36.5 106.5q0 80 -36.5 106.5t-126.5 26.5h-349zM403 580v-304h392q93 0 133.5 29.5
t40.5 120.5q0 94 -40 124t-134 30h-392z" />
    <glyph glyph-name="C" unicode="C" horiz-adv-x="1413" 
d="M723 -20q-307 0 -482 191t-175 515t175.5 515.5t481.5 191.5q301 0 463 -147t162 -406v-19h-328v10q0 147 -67.5 206t-231.5 59q-121 0 -189.5 -34.5t-103.5 -124t-35 -251.5t35 -251.5t103.5 -124t189.5 -34.5q164 0 231.5 59t67.5 206v10h328v-19q0 -258 -162 -405
t-463 -147z" />
    <glyph glyph-name="D" unicode="D" horiz-adv-x="1388" 
d="M621 0h-525v1372h525q331 0 520.5 -182t189.5 -504t-189.5 -504t-520.5 -182zM616 1096h-213v-820h213q109 0 178.5 18t118 65t68.5 125.5t20 201.5t-20 201.5t-68.5 125.5t-118 65t-178.5 18z" />
    <glyph glyph-name="E" unicode="E" horiz-adv-x="1220" 
d="M1143 0h-1047v1372h1047v-276h-740v-269h709v-274h-709v-277h740v-276z" />
    <glyph glyph-name="F" unicode="F" horiz-adv-x="1179" 
d="M403 0h-307v1372h1030v-276h-723v-314h693v-274h-693v-508z" />
    <glyph glyph-name="G" unicode="G" horiz-adv-x="1456" 
d="M666 -20q-292 0 -450.5 187t-158.5 519q0 324 178.5 515.5t489.5 191.5q302 0 464.5 -139.5t162.5 -387.5v-10h-326v8q0 128 -69.5 180t-237.5 52q-92 0 -152.5 -18.5t-102.5 -65t-60.5 -125.5t-18.5 -201q0 -124 20 -204t65.5 -127t111 -65t166.5 -18q171 0 242 41.5
t71 159.5h-375v256h670v-729h-285v209h-12q-17 -43 -45.5 -80.5t-74 -72.5t-116 -55.5t-157.5 -20.5z" />
    <glyph glyph-name="H" unicode="H" horiz-adv-x="1404" 
d="M403 0h-307v1372h307v-545h598v545h308v-1372h-308v553h-598v-553z" />
    <glyph glyph-name="I" unicode="I" horiz-adv-x="499" 
d="M403 0h-307v1372h307v-1372z" />
    <glyph glyph-name="J" unicode="J" horiz-adv-x="1198" 
d="M573 -20q-290 0 -422.5 140t-132.5 406v41h326v-55q0 -58 4.5 -93.5t17 -66t37.5 -45.5t63 -23t97 -8q72 0 114 11t65.5 41t30.5 71t7 113v860h328v-833q0 -559 -535 -559z" />
    <glyph glyph-name="K" unicode="K" horiz-adv-x="1337" 
d="M403 0h-307v1372h307v-547h261l321 547h348l-413 -680l407 -692h-352l-307 528h-265v-528z" />
    <glyph glyph-name="L" unicode="L" horiz-adv-x="1148" 
d="M1112 0h-1016v1372h307v-1096h709v-276z" />
    <glyph glyph-name="M" unicode="M" horiz-adv-x="1765" 
d="M403 0h-307v1372h432l240 -641l111 -352h20l109 352l229 641h432v-1372h-307v649l16 264h-22l-80 -268l-207 -551h-373l-207 551l-81 268h-21l16 -264v-649z" />
    <glyph glyph-name="N" unicode="N" horiz-adv-x="1402" 
d="M403 0h-307v1372h328l444 -688l115 -184h21l-5 184v688h308v-1372h-328l-426 649l-133 211h-21l4 -211v-649z" />
    <glyph glyph-name="O" unicode="O" horiz-adv-x="1447" 
d="M725 -20q-306 0 -482.5 191.5t-176.5 514.5t176.5 515t482.5 192q305 0 481 -192t176 -515t-176 -514.5t-481 -191.5zM725 276q92 0 152 18.5t101 65.5t59 126t18 200t-18 200t-59 126t-101 65.5t-152 18.5t-152 -18.5t-102 -65.5t-60 -126t-18 -200t18 -200t60 -126
t102 -65.5t152 -18.5z" />
    <glyph glyph-name="P" unicode="P" horiz-adv-x="1267" 
d="M403 0h-307v1372h631q226 0 366 -129t140 -354q0 -226 -140 -353.5t-366 -127.5h-324v-408zM739 1096h-336v-414h336q108 0 148.5 43t40.5 164q0 122 -40.5 164.5t-148.5 42.5z" />
    <glyph glyph-name="Q" unicode="Q" horiz-adv-x="1447" 
d="M725 -20q-306 0 -482.5 191.5t-176.5 514.5t176.5 515t482.5 192q305 0 481 -192t176 -515q0 -225 -87.5 -390t-247.5 -247l241 -338h-397l-164 269h-2zM725 276q92 0 152 18.5t101 65.5t59 126t18 200t-18 200t-59 126t-101 65.5t-152 18.5t-152 -18.5t-102 -65.5
t-60 -126t-18 -200t18 -200t60 -126t102 -65.5t152 -18.5z" />
    <glyph glyph-name="R" unicode="R" horiz-adv-x="1310" 
d="M403 0h-307v1372h631q245 0 377.5 -109t132.5 -309q0 -347 -346 -376v-21q84 -26 134.5 -76.5t94.5 -136.5l174 -344h-358l-162 317q-25 50 -44.5 78t-47.5 51t-65 32t-91 9h-123v-487zM403 1096v-355h338q107 0 149 39t42 140q0 98 -42 137t-149 39h-338z" />
    <glyph glyph-name="S" unicode="S" horiz-adv-x="1267" 
d="M686 -20q-590 0 -590 466v27h301v-20q0 -79 24.5 -119t88.5 -58t190 -18q127 0 172.5 28t45.5 99q0 38 -6 59.5t-28 41t-64 32.5t-115 25l-242 43q-193 33 -283 130.5t-90 260.5q0 65 18.5 124t61 112.5t104.5 93t155.5 63t207.5 23.5q280 0 417.5 -129.5t137.5 -345.5
v-17h-303v23q0 108 -55.5 149t-206.5 41q-129 0 -180.5 -29.5t-51.5 -95.5q0 -65 37 -90t160 -49l244 -47q207 -39 297 -143.5t90 -264.5q0 -85 -30 -157.5t-92 -131.5t-168 -92.5t-247 -33.5z" />
    <glyph glyph-name="T" unicode="T" horiz-adv-x="1200" 
d="M754 0h-308v1096h-442v276h1192v-276h-442v-1096z" />
    <glyph glyph-name="U" unicode="U" horiz-adv-x="1382" 
d="M692 -20q-294 0 -448 147t-154 408v837h305v-833q0 -149 64 -206t233 -57q168 0 231.5 57.5t63.5 205.5v833h307v-837q0 -261 -154 -408t-448 -147z" />
    <glyph glyph-name="V" unicode="V" horiz-adv-x="1429" 
d="M920 0h-410l-498 1372h346l351 -1028h20l344 1028h344z" />
    <glyph glyph-name="W" unicode="W" horiz-adv-x="2019" 
d="M743 0h-450l-277 1372h357l104 -618l49 -453h23l84 453l162 618h436l162 -614l86 -457h22l49 457l105 614h348l-277 -1372h-448l-166 608l-92 434h-21l-92 -434z" />
    <glyph glyph-name="X" unicode="X" horiz-adv-x="1437" 
d="M406 0h-359l424 678v20l-424 674h363l305 -487h20l297 487h359l-422 -672v-20l422 -680h-363l-305 489h-21z" />
    <glyph glyph-name="Y" unicode="Y" horiz-adv-x="1368" 
d="M838 0h-308v496l-534 876h348l215 -360l119 -203h20l117 203l215 360h342l-534 -876v-496z" />
    <glyph glyph-name="Z" unicode="Z" horiz-adv-x="1232" 
d="M1192 0h-1151v254l704 821v21h-665v276h1083v-254l-710 -821v-21h739v-276z" />
    <glyph glyph-name="bracketleft" unicode="[" horiz-adv-x="641" 
d="M604 -123h-510v1618h510v-254h-225v-1110h225v-254z" />
    <glyph glyph-name="backslash" unicode="\" horiz-adv-x="983" 
d="M1024 -41h-328l-737 1454h328z" />
    <glyph glyph-name="bracketright" unicode="]" horiz-adv-x="641" 
d="M4 131h225v1110h-225v254h510v-1618h-510v254z" />
    <glyph glyph-name="asciicircum" unicode="^" horiz-adv-x="1079" 
d="M352 573h-286l292 799h363l293 -799h-287l-176 521h-23z" />
    <glyph glyph-name="underscore" unicode="_" horiz-adv-x="778" 
d="M758 -219h-738v219h738v-219z" />
    <glyph glyph-name="grave" unicode="`" horiz-adv-x="1228" 
d="M866 1147h-325l-320 256v10h418l227 -256v-10z" />
    <glyph glyph-name="a" unicode="a" horiz-adv-x="1114" 
d="M379 -20q-142 0 -233 73.5t-91 208.5q0 119 83.5 192.5t244.5 98.5l352 53v33q0 86 -43.5 114.5t-142.5 28.5q-95 0 -134.5 -31t-39.5 -108v-22h-293v22q0 185 131.5 296.5t349.5 111.5q224 0 343.5 -116.5t119.5 -324.5v-610h-285v139h-12q-115 -159 -350 -159zM348 287
q0 -40 32 -57t101 -17q254 0 254 193l-295 -46q-48 -8 -70 -24.5t-22 -48.5z" />
    <glyph glyph-name="b" unicode="b" horiz-adv-x="1214" 
d="M379 0h-285v1372h305v-485h13q38 70 120.5 117t192.5 47q209 0 320.5 -144t111.5 -393q0 -248 -111.5 -391t-318.5 -143q-121 0 -209 44.5t-129 127.5h-10v-152zM399 432q0 -101 57.5 -145.5t170.5 -44.5q128 0 176.5 63.5t48.5 208.5q0 147 -48 210.5t-177 63.5
q-113 0 -170.5 -44.5t-57.5 -145.5v-166z" />
    <glyph glyph-name="c" unicode="c" horiz-adv-x="1128" 
d="M580 -20q-251 0 -387 142t-136 390q0 250 142 394.5t397 144.5q208 0 341.5 -116.5t133.5 -305.5v-25h-307v17q0 85 -47 120t-146 35q-112 0 -161.5 -59.5t-49.5 -202.5q0 -141 49.5 -200.5t161.5 -59.5q99 0 146 35.5t47 120.5v16h307v-25q0 -189 -137.5 -305
t-353.5 -116z" />
    <glyph glyph-name="d" unicode="d" horiz-adv-x="1214" 
d="M504 -20q-215 0 -331 143.5t-116 390.5t119 392t328 145q112 0 186.5 -43t112.5 -113h12v477h305v-1372h-284v152h-11q-40 -83 -123.5 -127.5t-197.5 -44.5zM362 514q0 -145 49.5 -208.5t178.5 -63.5q113 0 169 44.5t56 145.5v166q0 101 -56 145.5t-169 44.5
q-129 0 -178.5 -64t-49.5 -210z" />
    <glyph glyph-name="e" unicode="e" horiz-adv-x="1132" 
d="M573 -20q-259 0 -387.5 140t-128.5 392q0 248 138.5 393.5t379.5 145.5q229 0 360.5 -124.5t131.5 -328.5q0 -70 -14 -152h-707q5 -109 56.5 -154.5t175.5 -45.5q92 0 134 21.5t42 68.5v12h303v-20q0 -163 -130.5 -255.5t-353.5 -92.5zM565 799q-107 0 -157.5 -41
t-59.5 -125h424q5 80 -48 123t-159 43z" />
    <glyph glyph-name="f" unicode="f" horiz-adv-x="712" 
d="M465 0h-307v776h-150v254h152q14 165 125 255.5t313 90.5q63 0 96 -4v-229h-127q-60 0 -87 -21.5t-27 -72.5v-19h241v-254h-229v-776z" />
    <glyph glyph-name="g" unicode="g" horiz-adv-x="1214" 
d="M494 109q-211 0 -324 125t-113 344t116.5 346t332.5 127q112 0 195 -43.5t124 -126.5h11v149h284v-915q0 -248 -128.5 -366t-381.5 -118q-242 0 -371.5 104t-129.5 300h305q0 -56 15.5 -82.5t58.5 -38.5t133 -12q121 0 157.5 37.5t36.5 158.5v160h-12
q-36 -64 -117 -106.5t-192 -42.5zM362 578q0 -113 49.5 -163t176.5 -50q113 0 170 43t57 139v61q0 96 -56 139.5t-169 43.5q-128 0 -178 -50t-50 -163z" />
    <glyph glyph-name="h" unicode="h" 
d="M399 0h-305v1372h305v-502h13q45 79 130 130t201 51q189 0 283 -111t94 -287v-653h-307v592q0 108 -43.5 151t-159.5 43q-113 0 -162 -45t-49 -159v-582z" />
    <glyph glyph-name="i" unicode="i" horiz-adv-x="466" 
d="M383 1147h-301l-4 225h305v-225zM389 0h-307v1030h307v-1030z" />
    <glyph glyph-name="j" unicode="j" horiz-adv-x="499" 
d="M406 1147h-308v225h308v-225zM-100 -344v258h82q75 0 95.5 16.5t20.5 73.5v1026h308v-979q0 -114 -29 -193t-86 -123.5t-130.5 -63.5t-172.5 -19q-34 0 -88 4z" />
    <glyph glyph-name="k" unicode="k" horiz-adv-x="1132" 
d="M399 0h-305v1372h305v-723h152l233 381h353l-336 -491l334 -539h-353l-225 375h-158v-375z" />
    <glyph glyph-name="l" unicode="l" horiz-adv-x="493" 
d="M399 0h-305v1372h305v-1372z" />
    <glyph glyph-name="m" unicode="m" horiz-adv-x="1886" 
d="M399 0h-305v1030h285v-180h12q44 93 128 147t210 54q249 0 334 -201h10q101 201 350 201q97 0 170.5 -31t117.5 -86.5t65.5 -126t21.5 -154.5v-653h-307v592q0 109 -41 151.5t-152 42.5q-107 0 -152.5 -42t-45.5 -152v-592h-307v592q0 108 -42 151t-151 43
q-107 0 -154 -42t-47 -148v-596z" />
    <glyph glyph-name="n" unicode="n" 
d="M399 0h-305v1030h285v-180h12q44 93 130.5 147t215.5 54q98 0 172.5 -31t120 -86t68 -126t22.5 -155v-653h-307v592q0 108 -43.5 151t-159.5 43q-113 0 -162 -44t-49 -158v-584z" />
    <glyph glyph-name="o" unicode="o" horiz-adv-x="1165" 
d="M586 -20q-247 0 -388 144t-141 390q0 248 141 392.5t388 144.5q245 0 383.5 -144.5t138.5 -392.5q0 -247 -138.5 -390.5t-383.5 -143.5zM586 250q125 0 174 57.5t49 206.5q0 150 -49 208t-174 58q-127 0 -176.5 -58t-49.5 -208q0 -149 50 -206.5t176 -57.5z" />
    <glyph glyph-name="p" unicode="p" horiz-adv-x="1214" 
d="M383 -344h-307v1374h284v-151h11q41 83 126 127.5t201 44.5q214 0 328.5 -144t114.5 -393q0 -246 -114.5 -390t-321.5 -144q-117 0 -195.5 42.5t-116.5 112.5h-10v-479zM383 432q0 -101 56 -145.5t169 -44.5q129 0 177.5 63.5t48.5 208.5q0 147 -48.5 210.5t-177.5 63.5
q-113 0 -169 -44.5t-56 -145.5v-166z" />
    <glyph glyph-name="q" unicode="q" horiz-adv-x="1214" 
d="M502 -20q-213 0 -329 143.5t-116 390.5q0 249 114 393t323 144q119 0 205 -44.5t126 -127.5h11v151h284v-1374h-305v479h-12q-37 -70 -114.5 -112.5t-186.5 -42.5zM362 514q0 -145 49.5 -208.5t178.5 -63.5q113 0 169 44.5t56 145.5v166q0 101 -56 145.5t-169 44.5
q-129 0 -178.5 -64t-49.5 -210z" />
    <glyph glyph-name="r" unicode="r" horiz-adv-x="1009" 
d="M399 0h-305v1030h285v-166h12q41 85 113.5 136t175.5 51q78 0 136 -28t92.5 -78.5t50.5 -115.5t16 -145v-94h-305v55q0 82 -29 114t-102 32t-106.5 -32t-33.5 -114v-645z" />
    <glyph glyph-name="s" unicode="s" horiz-adv-x="1034" 
d="M547 -20q-243 0 -362 91.5t-119 278.5v6h292v-43q0 -56 40 -74t155 -18q90 0 117.5 15t27.5 55t-30.5 56.5t-135.5 35.5l-155 29q-158 29 -236 102t-78 211q0 147 117.5 236.5t331.5 89.5q196 0 320 -91.5t124 -259.5v-28h-292v28q0 55 -33.5 80t-126.5 25
q-88 0 -120 -18.5t-32 -57.5q0 -37 25.5 -53t116.5 -35l188 -39q161 -30 234 -104.5t73 -202.5q0 -147 -115.5 -231t-326.5 -84z" />
    <glyph glyph-name="t" unicode="t" horiz-adv-x="819" 
d="M569 -4q-204 0 -300.5 80.5t-96.5 261.5v438h-164v254h172l58 240h241v-240h291v-254h-291v-403q0 -66 30.5 -83.5t133.5 -17.5h127v-256q-98 -20 -201 -20z" />
    <glyph glyph-name="u" unicode="u" 
d="M471 -20q-192 0 -287.5 110.5t-95.5 286.5v653h305v-592q0 -108 44 -151t159 -43q113 0 162 44t49 158v584h305v-1030h-285v180h-10q-96 -200 -346 -200z" />
    <glyph glyph-name="v" unicode="v" horiz-adv-x="1200" 
d="M795 0h-392l-399 1030h342l246 -735h22l246 735h336z" />
    <glyph glyph-name="w" unicode="w" horiz-adv-x="1708" 
d="M657 0h-401l-240 1030h338l68 -475l39 -309h22l58 309l125 475h391l127 -477l55 -307h21l36 307l72 477h324l-240 -1030h-401l-133 489l-52 271h-22l-51 -271z" />
    <glyph glyph-name="x" unicode="x" horiz-adv-x="1153" 
d="M344 0h-344l342 512v18l-342 500h354l221 -344h19l215 344h344l-342 -512v-20l342 -498h-356l-219 342h-21z" />
    <glyph glyph-name="y" unicode="y" horiz-adv-x="1185" 
d="M309 -348q-93 0 -188 22v254h172q61 0 87.5 14t49.5 62l19 39l-433 987h342l168 -430l74 -199h23l63 199l145 430h343l-459 -1102q-65 -155 -157.5 -215.5t-248.5 -60.5z" />
    <glyph glyph-name="z" unicode="z" horiz-adv-x="1120" 
d="M1063 0h-1006v236l412 385l147 122l-2 23l-145 -4h-381v268h944v-258l-430 -379l-129 -106l2 -21l127 2h461v-268z" />
    <glyph glyph-name="braceleft" unicode="{" horiz-adv-x="704" 
d="M664 -123h-25q-418 0 -418 430v148q0 59 -26.5 79.5t-100.5 20.5h-57v262h57q74 0 100.5 20.5t26.5 80.5v147q0 430 418 430h25v-297h-19q-39 0 -64 -5.5t-40.5 -15.5t-23 -33t-9.5 -48t-2 -70v-72q0 -133 -61.5 -195.5t-172.5 -62.5v-20q111 0 172.5 -62.5t61.5 -195.5
v-72q0 -45 2 -70t9.5 -48t23 -33t40.5 -15.5t64 -5.5h19v-297z" />
    <glyph glyph-name="bar" unicode="|" horiz-adv-x="393" 
d="M338 -205h-283v1782h283v-1782z" />
    <glyph glyph-name="braceright" unicode="}" horiz-adv-x="704" 
d="M41 1495h25q417 0 417 -430v-147q0 -60 26.5 -80.5t100.5 -20.5h58v-262h-58q-74 0 -100.5 -20.5t-26.5 -79.5v-148q0 -430 -417 -430h-25v297h18q49 0 76.5 7t42 29.5t18 51t3.5 84.5v72q0 258 233 258v20q-233 0 -233 258v72q0 56 -3.5 84.5t-18 51t-42 29.5t-76.5 7
h-18v297z" />
    <glyph glyph-name="asciitilde" unicode="~" horiz-adv-x="1107" 
d="M309 496h-256v108q0 277 246 277q69 0 172 -35l145 -55q93 -35 136 -35q25 0 36 10.5t11 38.5v57h256v-114q0 -119 -51 -192t-168 -73q-101 0 -240 54l-133 47q-68 22 -96 22q-31 0 -44.5 -14t-13.5 -43v-53z" />
    <glyph glyph-name="nbspace" unicode="&#xa0;" horiz-adv-x="389" 
 />
    <glyph glyph-name="exclamdown" unicode="&#xa1;" horiz-adv-x="602" 
d="M125 1024h350v-334h-350v334zM147 573h308q0 -85 21.5 -392.5t21.5 -385.5v-143h-396v143q0 78 22.5 386t22.5 392z" />
    <glyph glyph-name="cent" unicode="&#xa2;" horiz-adv-x="1128" 
d="M717 -205h-285v199q-183 39 -279 174.5t-96 343.5q0 205 97.5 341t277.5 179v203h285v-197q161 -31 257.5 -140.5t96.5 -268.5v-25h-307v17q0 85 -47 120t-146 35q-112 0 -161.5 -59.5t-49.5 -202.5q0 -141 49.5 -200.5t161.5 -59.5q99 0 146 35.5t47 120.5v16h307v-25
q0 -156 -96.5 -264.5t-257.5 -142.5v-199z" />
    <glyph glyph-name="sterling" unicode="&#xa3;" horiz-adv-x="1267" 
d="M852 498h-250q2 -14 2 -43q0 -115 -106 -168v-11h710v-276h-1126v276h86q79 0 121.5 35.5t42.5 94.5q0 40 -15 92h-241v252h114q-51 115 -51 229q0 183 140.5 298.5t400.5 115.5q136 0 237.5 -35.5t160 -99.5t86.5 -145t28 -181v-37h-301v35q0 103 -46 142.5t-177 39.5
q-118 0 -170 -37t-52 -117q0 -76 56 -202l2 -6h348v-252z" />
    <glyph glyph-name="currency" unicode="&#xa4;" horiz-adv-x="1236" 
d="M621 143q-182 0 -310 86l-178 -161l-113 122l173 156q-84 119 -84 283q0 162 84 284l-173 156l113 123l178 -162q128 86 310 86q179 0 307 -86l176 162l113 -123l-173 -156q82 -124 82 -284q0 -162 -82 -283l173 -156l-113 -122l-176 161q-133 -86 -307 -86zM621 414
q111 0 158.5 50.5t47.5 164.5q0 115 -47.5 166t-158.5 51q-113 0 -161 -51t-48 -166q0 -114 48 -164.5t161 -50.5z" />
    <glyph glyph-name="yen" unicode="&#xa5;" horiz-adv-x="1521" 
d="M930 0h-305v287h-527v252h502l-88 143h-414v254h258l-266 436h346l260 -434l74 -172h23l73 172l258 434h342l-268 -436h260v-254h-416l-88 -143h504v-252h-528v-287z" />
    <glyph glyph-name="brokenbar" unicode="&#xa6;" horiz-adv-x="489" 
d="M387 768h-285v809h285v-809zM387 -205h-285v809h285v-809z" />
    <glyph glyph-name="section" unicode="&#xa7;" horiz-adv-x="1040" 
d="M543 -20q-233 0 -353 88.5t-120 261.5v30h295v-38q0 -53 33.5 -76t131.5 -23q94 0 128 16.5t34 53.5q0 32 -24.5 46.5t-110.5 37.5l-278 80q-110 31 -165 81.5t-55 139.5q0 122 123 180v10q-121 62 -121 215q0 141 117.5 225.5t331.5 84.5q206 0 323 -90.5t117 -260.5
v-24h-295v37q0 49 -31.5 71.5t-123.5 22.5q-88 0 -120 -17t-32 -53t24.5 -50.5t116.5 -41.5l275 -80q108 -33 162.5 -83t54.5 -132q0 -61 -31 -110.5t-92 -79.5v-10q56 -29 88.5 -80t32.5 -119q0 -146 -110.5 -229.5t-325.5 -83.5zM385 682l256 -74q36 -10 53 2.5t17 36.5
q0 19 -13 30.5t-43 18.5l-256 74q-33 10 -50 -2t-17 -35q0 -18 11 -29.5t42 -21.5z" />
    <glyph glyph-name="dieresis" unicode="&#xa8;" horiz-adv-x="1228" 
d="M954 1147h-303v270h303v-270zM528 1147h-301v270h301v-270z" />
    <glyph glyph-name="copyright" unicode="&#xa9;" horiz-adv-x="1460" 
d="M729 -12q-200 0 -357 85t-247 244.5t-90 368.5q0 208 90 368t247 245t357 85q201 0 358.5 -85t247.5 -245t90 -368q0 -209 -90 -368.5t-247.5 -244.5t-358.5 -85zM729 203q117 0 199 24t141.5 79.5t88 149.5t28.5 230t-28.5 230t-88 149.5t-141.5 79.5t-199 24
q-116 0 -198 -24t-142 -79.5t-88.5 -149.5t-28.5 -230t28.5 -230t88.5 -149.5t142 -79.5t198 -24zM739 315q-163 0 -257.5 100.5t-94.5 270.5q0 171 94 271t258 100q150 0 243 -86.5t93 -227.5v-16h-221v12q0 62 -27.5 88.5t-87.5 26.5q-73 0 -102 -35.5t-29 -132.5
t29 -132.5t102 -35.5q59 0 87 27t28 88v12h221v-16q0 -141 -93 -227.5t-243 -86.5z" />
    <glyph glyph-name="ordfeminine" unicode="&#xaa;" horiz-adv-x="477" 
d="M193 1073q-109 0 -109 82q0 35 28.5 57.5t84.5 28.5l110 12v7q0 25 -12 35t-39 10t-39 -10.5t-12 -37.5v-4h-113v7q0 60 46.5 96.5t123.5 36.5t116.5 -35t39.5 -96v-183h-105v47h-4q-27 -53 -116 -53zM190 1163q0 -18 41 -18q74 0 74 47l-84 -8q-31 -3 -31 -21z" />
    <glyph glyph-name="guillemotleft" unicode="&#xab;" horiz-adv-x="1024" 
d="M553 795l410 274v-313l-203 -121v-21l203 -120v-314l-410 275v340zM61 795l410 274v-313l-203 -121v-21l203 -120v-314l-410 275v340z" />
    <glyph glyph-name="logicalnot" unicode="&#xac;" horiz-adv-x="1034" 
d="M995 309h-262v377h-674v254h936v-631z" />
    <glyph glyph-name="softhyphen" unicode="&#xad;" horiz-adv-x="843" 
d="M803 473h-762v262h762v-262z" />
    <glyph glyph-name="registered" unicode="&#xae;" horiz-adv-x="819" 
d="M410 680q-166 0 -269.5 98t-103.5 260t104 260.5t269 98.5q164 0 267 -98.5t103 -260.5t-103 -260t-267 -98zM410 797q134 0 189.5 55.5t55.5 185.5t-55.5 186t-189.5 56t-189 -56t-55 -186t55 -185.5t189 -55.5zM367 895h-101v295h170q60 0 91.5 -24t31.5 -66
q0 -41 -23.5 -64.5t-60.5 -23.5v-4q18 -6 29.5 -16.5t25.5 -33.5l39 -63h-112l-37 59q-10 19 -20 25t-29 6h-4v-90zM367 1106v-47h67q27 0 27 22q0 25 -27 25h-67z" />
    <glyph glyph-name="macron" unicode="&#xaf;" horiz-adv-x="1228" 
d="M893 1171h-629v215h629v-215z" />
    <glyph glyph-name="degree" unicode="&#xb0;" horiz-adv-x="475" 
d="M238 1073q-79 0 -127 44t-48 116t48 116t127 44t126.5 -44t47.5 -116t-47.5 -116t-126.5 -44zM238 1174q34 0 47.5 13.5t13.5 45.5t-13.5 45.5t-47.5 13.5t-48 -13.5t-14 -45.5t14 -45.5t48 -13.5z" />
    <glyph glyph-name="plusminus" unicode="&#xb1;" horiz-adv-x="1056" 
d="M975 39h-916v252h351v268h-328v254h328v330h260v-330h327v-254h-327v-268h305v-252z" />
    <glyph glyph-name="twosuperior" unicode="&#xb2;" horiz-adv-x="710" 
d="M655 696h-620v99q0 94 52 152.5t157 96.5l102 37q80 30 95.5 43.5t15.5 32.5q0 28 -20.5 41.5t-74.5 13.5q-61 0 -87.5 -15.5t-26.5 -53.5v-17h-211v17q0 109 86.5 179.5t251.5 70.5q150 0 223.5 -59t73.5 -160q0 -86 -54 -135t-159 -83l-158 -51q-42 -16 -55 -39l131 4
h278v-174z" />
    <glyph glyph-name="threesuperior" unicode="&#xb3;" horiz-adv-x="731" 
d="M375 686q-324 0 -324 234v22h211v-20q0 -38 21 -52t84 -14q58 0 77 13.5t19 50.5q0 36 -18 46.5t-66 10.5h-98v147h84q40 0 55.5 8t15.5 35q0 31 -17 43.5t-63 12.5q-56 0 -75 -13t-19 -47v-10h-211v8q0 109 83.5 170.5t236.5 61.5q282 0 282 -185q0 -124 -157 -143v-10
q87 -9 136.5 -53.5t49.5 -120.5q0 -98 -80.5 -146.5t-226.5 -48.5z" />
    <glyph glyph-name="acute" unicode="&#xb4;" horiz-adv-x="1228" 
d="M629 1147h-326v10l227 256h418v-10z" />
    <glyph glyph-name="paragraph" unicode="&#xb6;" horiz-adv-x="1413" 
d="M860 0h-305v553h-12q-229 0 -366.5 104t-137.5 306t137.5 305.5t366.5 103.5h317v-1372zM1315 0h-307v1372h307v-1372z" />
    <glyph glyph-name="periodcentered" unicode="&#xb7;" horiz-adv-x="516" 
d="M467 512h-385v362h385v-362z" />
    <glyph glyph-name="cedilla" unicode="&#xb8;" horiz-adv-x="1228" 
d="M569 -469h-209v162h205q31 0 44.5 8.5t13.5 28.5q0 22 -13 29.5t-45 7.5h-155v239h161v-94h11q105 0 163 -50t58 -136q0 -90 -61.5 -142.5t-172.5 -52.5z" />
    <glyph glyph-name="onesuperior" unicode="&#xb9;" horiz-adv-x="460" 
d="M432 686h-217v432h-174v170h22q62 0 100.5 18t63.5 66h205v-686z" />
    <glyph glyph-name="ordmasculine" unicode="&#xba;" horiz-adv-x="475" 
d="M238 1073q-79 0 -127 44t-48 116t48 116t127 44t126.5 -44t47.5 -116t-47.5 -116t-126.5 -44zM238 1174q34 0 47.5 13.5t13.5 45.5t-13.5 45.5t-47.5 13.5t-48 -13.5t-14 -45.5t14 -45.5t48 -13.5z" />
    <glyph glyph-name="guillemotright" unicode="&#xbb;" horiz-adv-x="1024" 
d="M471 455l-410 -275v314l203 120v21l-203 121v313l410 -274v-340zM963 455l-410 -275v314l203 120v21l-203 121v313l410 -274v-340z" />
    <glyph glyph-name="onequarter" unicode="&#xbc;" horiz-adv-x="1579" 
d="M481 686h-217v432h-174v170h23q61 0 99.5 18t63.5 66h205v-686zM414 0h-281l989 1372h279zM1427 0h-217v133h-387v170l363 383h241v-360h99v-193h-99v-133zM1051 326h159v161h-12l-147 -151v-10z" />
    <glyph glyph-name="onehalf" unicode="&#xbd;" horiz-adv-x="1634" 
d="M481 686h-217v432h-174v170h23q61 0 99.5 18t63.5 66h205v-686zM414 0h-281l989 1372h279zM1561 0h-621v98q0 94 52 153t157 97l102 37q80 30 95.5 43.5t15.5 32.5q0 28 -20 41.5t-74 13.5q-61 0 -88 -16t-27 -54v-16h-211v16q0 109 86.5 179.5t251.5 70.5
q150 0 223.5 -59t73.5 -160q0 -86 -54 -134.5t-159 -82.5l-158 -51q-42 -16 -55 -39l131 4h279v-174z" />
    <glyph glyph-name="threequarters" unicode="&#xbe;" horiz-adv-x="1705" 
d="M389 686q-323 0 -323 234v22h210v-20q0 -38 21 -52t84 -14q58 0 77 13.5t19 50.5q0 36 -18 46.5t-66 10.5h-98v147h84q41 0 56.5 8.5t15.5 34.5q0 31 -17 43.5t-63 12.5q-56 0 -75.5 -13t-19.5 -47v-10h-210v8q0 109 83 170.5t236 61.5q283 0 283 -185q0 -123 -158 -143
v-10q87 -9 136.5 -53.5t49.5 -120.5q0 -98 -80.5 -146.5t-226.5 -48.5zM541 0h-281l989 1372h279zM1554 0h-217v133h-387v170l363 383h241v-360h99v-193h-99v-133zM1178 326h159v161h-12l-147 -151v-10z" />
    <glyph glyph-name="questiondown" unicode="&#xbf;" horiz-adv-x="1181" 
d="M487 1024h351v-334h-351v334zM512 565h307v-45q0 -100 -39.5 -155t-136.5 -101l-121 -59q-47 -22 -67.5 -33t-44.5 -30.5t-32.5 -41.5t-8.5 -53q0 -72 43.5 -104.5t162.5 -32.5q136 0 190 39t54 133v33h301v-31q0 -95 -33.5 -175.5t-99.5 -143.5t-175 -98.5t-251 -35.5
q-130 0 -228 31t-156 87t-86 127.5t-28 158.5q0 73 22.5 132.5t63 101.5t83 70t96.5 52l114 49q41 19 55.5 40t14.5 55v30z" />
    <glyph glyph-name="Agrave" unicode="&#xc0;" horiz-adv-x="1466" 
d="M887 1495h-326l-319 258v10h417l228 -258v-10zM324 0h-320l506 1372h446l506 -1372h-334l-110 305h-582zM614 793l-77 -213h381l-78 213l-101 309h-20z" />
    <glyph glyph-name="Aacute" unicode="&#xc1;" horiz-adv-x="1466" 
d="M918 1495h-326v10l227 258h418v-10zM324 0h-320l506 1372h446l506 -1372h-334l-110 305h-582zM614 793l-77 -213h381l-78 213l-101 309h-20z" />
    <glyph glyph-name="Acircumflex" unicode="&#xc2;" horiz-adv-x="1466" 
d="M635 1495h-295v10l213 256h365l210 -256v-10h-294l-89 115h-22zM324 0h-320l506 1372h446l506 -1372h-334l-110 305h-582zM614 793l-77 -213h381l-78 213l-101 309h-20z" />
    <glyph glyph-name="Atilde" unicode="&#xc3;" horiz-adv-x="1466" 
d="M575 1489h-204v80q0 219 176 219q48 0 135 -37l98 -41q57 -24 76 -24q18 0 25.5 9.5t7.5 35.5v36h205v-94q0 -87 -39.5 -145t-128.5 -58q-10 0 -21.5 1t-20 2.5t-21 5t-19.5 5.5t-20.5 7t-18.5 6.5t-20.5 8t-18.5 7.5l-104 43q-48 19 -58 19q-29 0 -29 -41v-45zM324 0
h-320l506 1372h446l506 -1372h-334l-110 305h-582zM614 793l-77 -213h381l-78 213l-101 309h-20z" />
    <glyph glyph-name="Adieresis" unicode="&#xc4;" horiz-adv-x="1466" 
d="M1096 1495h-301v270h301v-270zM672 1495h-301v270h301v-270zM324 0h-320l506 1372h446l506 -1372h-334l-110 305h-582zM614 793l-77 -213h381l-78 213l-101 309h-20z" />
    <glyph glyph-name="Aring" unicode="&#xc5;" horiz-adv-x="1466" 
d="M324 0h-320l504 1364q-21 44 -21 92q0 96 67.5 154.5t178.5 58.5t179.5 -58.5t68.5 -154.5q0 -46 -20 -94l501 -1362h-334l-110 305h-582zM733 1391q55 0 73.5 13t18.5 52q0 38 -18.5 51t-73.5 13q-54 0 -72 -13t-18 -51t18 -51.5t72 -13.5zM614 793l-77 -213h381
l-78 213l-101 309h-20z" />
    <glyph glyph-name="AE" unicode="&#xc6;" horiz-adv-x="2240" 
d="M377 0h-381l930 1372h1237v-276h-740v-269h709v-274h-709v-277h740v-276h-1047v303h-543zM1098 1108l-344 -528h362v528h-18z" />
    <glyph glyph-name="Ccedilla" unicode="&#xc7;" horiz-adv-x="1413" 
d="M774 -469h-209v162h205q31 0 44 8.5t13 28.5q0 22 -12.5 29.5t-44.5 7.5h-156v219q-258 34 -403 220.5t-145 479.5q0 324 175.5 515.5t481.5 191.5q301 0 463 -147t162 -406v-19h-328v10q0 147 -67.5 206t-231.5 59q-121 0 -189.5 -34.5t-103.5 -124t-35 -251.5
t35 -251.5t103.5 -124t189.5 -34.5q164 0 231.5 59t67.5 206v10h328v-19q0 -247 -148.5 -392.5t-423.5 -157.5v-70h10q105 0 163.5 -50t58.5 -136q0 -90 -61.5 -142.5t-172.5 -52.5z" />
    <glyph glyph-name="Egrave" unicode="&#xc8;" horiz-adv-x="1220" 
d="M774 1495h-325l-320 258v10h418l227 -258v-10zM1143 0h-1047v1372h1047v-276h-740v-269h709v-274h-709v-277h740v-276z" />
    <glyph glyph-name="Eacute" unicode="&#xc9;" horiz-adv-x="1220" 
d="M805 1495h-326v10l228 258h417v-10zM1143 0h-1047v1372h1047v-276h-740v-269h709v-274h-709v-277h740v-276z" />
    <glyph glyph-name="Ecircumflex" unicode="&#xca;" horiz-adv-x="1220" 
d="M522 1495h-295v10l213 256h365l211 -256v-10h-295l-88 115h-23zM1143 0h-1047v1372h1047v-276h-740v-269h709v-274h-709v-277h740v-276z" />
    <glyph glyph-name="Edieresis" unicode="&#xcb;" horiz-adv-x="1220" 
d="M983 1495h-301v270h301v-270zM559 1495h-301v270h301v-270zM1143 0h-1047v1372h1047v-276h-740v-269h709v-274h-709v-277h740v-276z" />
    <glyph glyph-name="Igrave" unicode="&#xcc;" horiz-adv-x="499" 
d="M403 1495h-325l-320 258v10h418l227 -258v-10zM403 0h-307v1372h307v-1372z" />
    <glyph glyph-name="Iacute" unicode="&#xcd;" horiz-adv-x="499" 
d="M434 1495h-325v10l227 258h418v-10zM403 0h-307v1372h307v-1372z" />
    <glyph glyph-name="Icircumflex" unicode="&#xce;" horiz-adv-x="499" 
d="M150 1495h-295v10l213 256h364l211 -256v-10h-295l-88 115h-22zM403 0h-307v1372h307v-1372z" />
    <glyph glyph-name="Idieresis" unicode="&#xcf;" horiz-adv-x="499" 
d="M612 1495h-301v270h301v-270zM188 1495h-301v270h301v-270zM403 0h-307v1372h307v-1372z" />
    <glyph glyph-name="Eth" unicode="&#xd0;" horiz-adv-x="1509" 
d="M741 0h-524v549h-201v274h201v549h524q331 0 521 -182t190 -504t-190 -504t-521 -182zM846 549h-322v-273h213q109 0 178.5 18t118 65t68.5 125.5t20 201.5t-20 201.5t-68.5 125.5t-118 65t-178.5 18h-213v-273h322v-274z" />
    <glyph glyph-name="Ntilde" unicode="&#xd1;" horiz-adv-x="1402" 
d="M545 1489h-205v80q0 219 176 219q48 0 135 -37l99 -41q57 -24 75 -24t25.5 9.5t7.5 35.5v36h205v-94q0 -87 -39.5 -145t-128.5 -58q-10 0 -21.5 1t-20 2.5t-21 5t-19.5 5.5t-20.5 7t-18.5 6.5t-20.5 8t-18.5 7.5l-104 43q-47 19 -58 19q-28 0 -28 -41v-45zM403 0h-307
v1372h328l444 -688l115 -184h21l-5 184v688h308v-1372h-328l-426 649l-133 211h-21l4 -211v-649z" />
    <glyph glyph-name="Ograve" unicode="&#xd2;" horiz-adv-x="1447" 
d="M879 1495h-326l-320 258v10h418l228 -258v-10zM725 -20q-306 0 -482.5 191.5t-176.5 514.5t176.5 515t482.5 192q305 0 481 -192t176 -515t-176 -514.5t-481 -191.5zM725 276q92 0 152 18.5t101 65.5t59 126t18 200t-18 200t-59 126t-101 65.5t-152 18.5t-152 -18.5
t-102 -65.5t-60 -126t-18 -200t18 -200t60 -126t102 -65.5t152 -18.5z" />
    <glyph glyph-name="Oacute" unicode="&#xd3;" horiz-adv-x="1447" 
d="M909 1495h-325v10l227 258h418v-10zM725 -20q-306 0 -482.5 191.5t-176.5 514.5t176.5 515t482.5 192q305 0 481 -192t176 -515t-176 -514.5t-481 -191.5zM725 276q92 0 152 18.5t101 65.5t59 126t18 200t-18 200t-59 126t-101 65.5t-152 18.5t-152 -18.5t-102 -65.5
t-60 -126t-18 -200t18 -200t60 -126t102 -65.5t152 -18.5z" />
    <glyph glyph-name="Ocircumflex" unicode="&#xd4;" horiz-adv-x="1447" 
d="M625 1495h-295v10l213 256h364l211 -256v-10h-295l-88 115h-22zM725 -20q-306 0 -482.5 191.5t-176.5 514.5t176.5 515t482.5 192q305 0 481 -192t176 -515t-176 -514.5t-481 -191.5zM725 276q92 0 152 18.5t101 65.5t59 126t18 200t-18 200t-59 126t-101 65.5t-152 18.5
t-152 -18.5t-102 -65.5t-60 -126t-18 -200t18 -200t60 -126t102 -65.5t152 -18.5z" />
    <glyph glyph-name="Otilde" unicode="&#xd5;" horiz-adv-x="1447" 
d="M567 1489h-205v80q0 25 2.5 47t9 48.5t19.5 47.5t31.5 38.5t48 27.5t66.5 10q48 0 135 -37l98 -41q57 -24 76 -24q18 0 25.5 9.5t7.5 35.5v36h204v-94q0 -88 -39 -145.5t-128 -57.5q-10 0 -21.5 1t-20 2.5t-21 5t-19.5 5.5t-20.5 7t-18.5 6.5t-20.5 8t-18.5 7.5l-105 43
q-47 19 -57 19q-29 0 -29 -41v-45zM725 -20q-306 0 -482.5 191.5t-176.5 514.5t176.5 515t482.5 192q305 0 481 -192t176 -515t-176 -514.5t-481 -191.5zM725 276q92 0 152 18.5t101 65.5t59 126t18 200t-18 200t-59 126t-101 65.5t-152 18.5t-152 -18.5t-102 -65.5
t-60 -126t-18 -200t18 -200t60 -126t102 -65.5t152 -18.5z" />
    <glyph glyph-name="Odieresis" unicode="&#xd6;" horiz-adv-x="1447" 
d="M1087 1495h-301v270h301v-270zM664 1495h-302v270h302v-270zM725 -20q-306 0 -482.5 191.5t-176.5 514.5t176.5 515t482.5 192q305 0 481 -192t176 -515t-176 -514.5t-481 -191.5zM725 276q92 0 152 18.5t101 65.5t59 126t18 200t-18 200t-59 126t-101 65.5t-152 18.5
t-152 -18.5t-102 -65.5t-60 -126t-18 -200t18 -200t60 -126t102 -65.5t152 -18.5z" />
    <glyph glyph-name="multiply" unicode="&#xd7;" horiz-adv-x="968" 
d="M915 440l-186 -184l-248 248l-245 -246l-179 178l246 246l-248 250l185 184l249 -248l246 246l178 -178l-245 -246z" />
    <glyph glyph-name="Oslash" unicode="&#xd8;" horiz-adv-x="1447" 
d="M725 -20q-251 0 -420 133l-176 -176l-158 151l191 193q-96 175 -96 405q0 323 176.5 515t482.5 192q246 0 416 -131l176 178l158 -152l-191 -192q98 -173 98 -410q0 -323 -176 -514.5t-481 -191.5zM393 686q0 -89 13 -162l526 529q-71 43 -207 43q-92 0 -152 -18.5
t-102 -65.5t-60 -126t-18 -200zM725 276q92 0 152 18.5t101 65.5t59 126t18 200q0 92 -13 168l-528 -530q70 -48 211 -48z" />
    <glyph glyph-name="Ugrave" unicode="&#xd9;" horiz-adv-x="1382" 
d="M846 1495h-326l-319 258v10h417l228 -258v-10zM692 -20q-294 0 -448 147t-154 408v837h305v-833q0 -149 64 -206t233 -57q168 0 231.5 57.5t63.5 205.5v833h307v-837q0 -261 -154 -408t-448 -147z" />
    <glyph glyph-name="Uacute" unicode="&#xda;" horiz-adv-x="1382" 
d="M874 1495h-325v10l227 258h418v-10zM692 -20q-294 0 -448 147t-154 408v837h305v-833q0 -149 64 -206t233 -57q168 0 231.5 57.5t63.5 205.5v833h307v-837q0 -261 -154 -408t-448 -147z" />
    <glyph glyph-name="Ucircumflex" unicode="&#xdb;" horiz-adv-x="1382" 
d="M592 1495h-295v10l213 256h364l211 -256v-10h-294l-89 115h-22zM692 -20q-294 0 -448 147t-154 408v837h305v-833q0 -149 64 -206t233 -57q168 0 231.5 57.5t63.5 205.5v833h307v-837q0 -261 -154 -408t-448 -147z" />
    <glyph glyph-name="Udieresis" unicode="&#xdc;" horiz-adv-x="1382" 
d="M1055 1495h-301v270h301v-270zM631 1495h-301v270h301v-270zM692 -20q-294 0 -448 147t-154 408v837h305v-833q0 -149 64 -206t233 -57q168 0 231.5 57.5t63.5 205.5v833h307v-837q0 -261 -154 -408t-448 -147z" />
    <glyph glyph-name="Yacute" unicode="&#xdd;" horiz-adv-x="1368" 
d="M868 1495h-325v10l227 258h418v-10zM838 0h-308v496l-534 876h348l215 -360l119 -203h20l117 203l215 360h342l-534 -876v-496z" />
    <glyph glyph-name="Thorn" unicode="&#xde;" horiz-adv-x="1267" 
d="M403 0h-307v1372h307v-211h324q226 0 366 -126.5t140 -348.5q0 -223 -140 -349t-366 -126h-324v-211zM739 885h-336v-398h336q108 0 148.5 41t40.5 158t-40.5 158t-148.5 41z" />
    <glyph glyph-name="germandbls" unicode="&#xdf;" 
d="M379 0h-301v893q0 244 135.5 373t415.5 129q232 0 358.5 -94.5t126.5 -268.5q0 -124 -67.5 -201t-204.5 -94v-20q163 -15 246 -101.5t83 -238.5q0 -186 -133 -281.5t-352 -95.5h-174v276h131q131 0 174 27.5t43 122.5q0 92 -39.5 123t-138.5 31h-170v251h127
q94 0 132 27.5t38 106.5q0 86 -42 117.5t-157 31.5q-139 0 -185 -40.5t-46 -162.5v-911z" />
    <glyph glyph-name="agrave" unicode="&#xe0;" horiz-adv-x="1114" 
d="M745 1147h-325l-320 256v10h418l227 -256v-10zM379 -20q-142 0 -233 73.5t-91 208.5q0 119 83.5 192.5t244.5 98.5l352 53v33q0 86 -43.5 114.5t-142.5 28.5q-95 0 -134.5 -31t-39.5 -108v-22h-293v22q0 185 131.5 296.5t349.5 111.5q224 0 343.5 -116.5t119.5 -324.5
v-610h-285v139h-12q-115 -159 -350 -159zM348 287q0 -40 32 -57t101 -17q254 0 254 193l-295 -46q-48 -8 -70 -24.5t-22 -48.5z" />
    <glyph glyph-name="aacute" unicode="&#xe1;" horiz-adv-x="1114" 
d="M737 1147h-325v10l227 256h418v-10zM379 -20q-142 0 -233 73.5t-91 208.5q0 119 83.5 192.5t244.5 98.5l352 53v33q0 86 -43.5 114.5t-142.5 28.5q-95 0 -134.5 -31t-39.5 -108v-22h-293v22q0 185 131.5 296.5t349.5 111.5q224 0 343.5 -116.5t119.5 -324.5v-610h-285
v139h-12q-115 -159 -350 -159zM348 287q0 -40 32 -57t101 -17q254 0 254 193l-295 -46q-48 -8 -70 -24.5t-22 -48.5z" />
    <glyph glyph-name="acircumflex" unicode="&#xe2;" horiz-adv-x="1114" 
d="M455 1147h-295v10l213 256h364l211 -256v-10h-295l-88 115h-22zM379 -20q-142 0 -233 73.5t-91 208.5q0 119 83.5 192.5t244.5 98.5l352 53v33q0 86 -43.5 114.5t-142.5 28.5q-95 0 -134.5 -31t-39.5 -108v-22h-293v22q0 185 131.5 296.5t349.5 111.5q224 0 343.5 -116.5
t119.5 -324.5v-610h-285v139h-12q-115 -159 -350 -159zM348 287q0 -40 32 -57t101 -17q254 0 254 193l-295 -46q-48 -8 -70 -24.5t-22 -48.5z" />
    <glyph glyph-name="atilde" unicode="&#xe3;" horiz-adv-x="1114" 
d="M397 1143h-204v80q0 217 176 217q44 0 135 -35l98 -43q54 -23 76 -23q18 0 25.5 9.5t7.5 33.5v39h204v-96q0 -86 -39 -143.5t-128 -57.5q-55 0 -160 41l-105 45q-8 3 -21 8t-21 7t-15 2q-29 0 -29 -39v-45zM379 -20q-142 0 -233 73.5t-91 208.5q0 119 83.5 192.5
t244.5 98.5l352 53v33q0 86 -43.5 114.5t-142.5 28.5q-95 0 -134.5 -31t-39.5 -108v-22h-293v22q0 185 131.5 296.5t349.5 111.5q224 0 343.5 -116.5t119.5 -324.5v-610h-285v139h-12q-115 -159 -350 -159zM348 287q0 -40 32 -57t101 -17q254 0 254 193l-295 -46
q-48 -8 -70 -24.5t-22 -48.5z" />
    <glyph glyph-name="adieresis" unicode="&#xe4;" horiz-adv-x="1114" 
d="M918 1147h-304v270h304v-270zM492 1147h-302v270h302v-270zM379 -20q-142 0 -233 73.5t-91 208.5q0 119 83.5 192.5t244.5 98.5l352 53v33q0 86 -43.5 114.5t-142.5 28.5q-95 0 -134.5 -31t-39.5 -108v-22h-293v22q0 185 131.5 296.5t349.5 111.5q224 0 343.5 -116.5
t119.5 -324.5v-610h-285v139h-12q-115 -159 -350 -159zM348 287q0 -40 32 -57t101 -17q254 0 254 193l-295 -46q-48 -8 -70 -24.5t-22 -48.5z" />
    <glyph glyph-name="aring" unicode="&#xe5;" horiz-adv-x="1114" 
d="M555 1114q-94 0 -151.5 48.5t-57.5 131.5t57.5 132t151.5 49t151.5 -49t57.5 -132t-57.5 -131.5t-151.5 -48.5zM555 1239q46 0 62 11.5t16 43.5t-16 44t-62 12t-62 -12t-16 -44t16 -43.5t62 -11.5zM379 -20q-142 0 -233 73.5t-91 208.5q0 119 83.5 192.5t244.5 98.5
l352 53v33q0 86 -43.5 114.5t-142.5 28.5q-95 0 -134.5 -31t-39.5 -108v-22h-293v22q0 185 131.5 296.5t349.5 111.5q224 0 343.5 -116.5t119.5 -324.5v-610h-285v139h-12q-115 -159 -350 -159zM348 287q0 -40 32 -57t101 -17q254 0 254 193l-295 -46q-48 -8 -70 -24.5
t-22 -48.5z" />
    <glyph glyph-name="ae" unicode="&#xe6;" horiz-adv-x="1814" 
d="M414 -20q-168 0 -263.5 71.5t-95.5 212.5q0 119 83 192.5t241 96.5l356 53v33q0 85 -43 114t-141 29q-94 0 -134 -32t-40 -109v-23h-295v25q0 185 131.5 296.5t349.5 111.5q224 0 346 -119q138 119 359 119q223 0 352 -125.5t129 -329.5q0 -84 -12 -154h-711
q6 -111 59 -153.5t175 -42.5q93 0 135.5 21.5t42.5 68.5v12h303v-20q0 -163 -131 -255.5t-353 -92.5q-292 0 -423 182q-63 -87 -173 -134.5t-247 -47.5zM1247 795q-106 0 -157 -40t-60 -122h426q2 78 -51.5 120t-157.5 42zM348 287q0 -39 33 -56.5t104 -17.5q260 0 260 195
l-305 -48q-48 -8 -70 -24.5t-22 -48.5z" />
    <glyph glyph-name="ccedilla" unicode="&#xe7;" horiz-adv-x="1128" 
d="M631 -469h-209v162h205q31 0 44 8.5t13 28.5q0 22 -12.5 29.5t-44.5 7.5h-156v221q-200 29 -307 167t-107 357q0 250 142 394.5t397 144.5q208 0 341.5 -116.5t133.5 -305.5v-25h-307v17q0 85 -47 120t-146 35q-112 0 -161.5 -59.5t-49.5 -202.5q0 -141 49.5 -200.5
t161.5 -59.5q99 0 146 35.5t47 120.5v16h307v-25q0 -176 -121.5 -290t-316.5 -129v-70h10q105 0 163 -50t58 -136q0 -90 -61 -142.5t-172 -52.5z" />
    <glyph glyph-name="egrave" unicode="&#xe8;" horiz-adv-x="1132" 
d="M758 1147h-326l-319 256v10h417l228 -256v-10zM573 -20q-259 0 -387.5 140t-128.5 392q0 248 138.5 393.5t379.5 145.5q229 0 360.5 -124.5t131.5 -328.5q0 -70 -14 -152h-707q5 -109 56.5 -154.5t175.5 -45.5q92 0 134 21.5t42 68.5v12h303v-20q0 -163 -130.5 -255.5
t-353.5 -92.5zM565 799q-107 0 -157.5 -41t-59.5 -125h424q5 80 -48 123t-159 43z" />
    <glyph glyph-name="eacute" unicode="&#xe9;" horiz-adv-x="1132" 
d="M750 1147h-326v10l227 256h418v-10zM573 -20q-259 0 -387.5 140t-128.5 392q0 248 138.5 393.5t379.5 145.5q229 0 360.5 -124.5t131.5 -328.5q0 -70 -14 -152h-707q5 -109 56.5 -154.5t175.5 -45.5q92 0 134 21.5t42 68.5v12h303v-20q0 -163 -130.5 -255.5t-353.5 -92.5
zM565 799q-107 0 -157.5 -41t-59.5 -125h424q5 80 -48 123t-159 43z" />
    <glyph glyph-name="ecircumflex" unicode="&#xea;" horiz-adv-x="1132" 
d="M467 1147h-295v10l213 256h365l211 -256v-10h-295l-88 115h-23zM573 -20q-259 0 -387.5 140t-128.5 392q0 248 138.5 393.5t379.5 145.5q229 0 360.5 -124.5t131.5 -328.5q0 -70 -14 -152h-707q5 -109 56.5 -154.5t175.5 -45.5q92 0 134 21.5t42 68.5v12h303v-20
q0 -163 -130.5 -255.5t-353.5 -92.5zM565 799q-107 0 -157.5 -41t-59.5 -125h424q5 80 -48 123t-159 43z" />
    <glyph glyph-name="edieresis" unicode="&#xeb;" horiz-adv-x="1132" 
d="M930 1147h-303v270h303v-270zM504 1147h-301v270h301v-270zM573 -20q-259 0 -387.5 140t-128.5 392q0 248 138.5 393.5t379.5 145.5q229 0 360.5 -124.5t131.5 -328.5q0 -70 -14 -152h-707q5 -109 56.5 -154.5t175.5 -45.5q92 0 134 21.5t42 68.5v12h303v-20
q0 -163 -130.5 -255.5t-353.5 -92.5zM565 799q-107 0 -157.5 -41t-59.5 -125h424q5 80 -48 123t-159 43z" />
    <glyph glyph-name="igrave" unicode="&#xec;" horiz-adv-x="462" 
d="M422 1147h-326l-319 256v10h418l227 -256v-10zM385 0h-307v1030h307v-1030z" />
    <glyph glyph-name="iacute" unicode="&#xed;" horiz-adv-x="462" 
d="M414 1147h-326v10l227 256h418v-10zM385 0h-307v1030h307v-1030z" />
    <glyph glyph-name="icircumflex" unicode="&#xee;" horiz-adv-x="462" 
d="M131 1147h-295v10l213 256h365l211 -256v-10h-295l-88 115h-23zM385 0h-307v1030h307v-1030z" />
    <glyph glyph-name="idieresis" unicode="&#xef;" horiz-adv-x="462" 
d="M596 1147h-303v270h303v-270zM170 1147h-301v270h301v-270zM385 0h-307v1030h307v-1030z" />
    <glyph glyph-name="eth" unicode="&#xf0;" horiz-adv-x="1394" 
d="M729 -20q-277 0 -418 127t-141 354q0 212 129 323t352 111q226 0 342 -129l13 6q-62 129 -213 287l-357 -96l-41 141l275 74q-110 98 -248 194h414q86 -59 141 -112l305 79l41 -139l-231 -61q109 -131 175 -283.5t66 -312.5q0 -270 -148 -416.5t-456 -146.5zM750 276
q145 0 199.5 38.5t54.5 131.5q0 97 -54.5 136t-199.5 39t-199.5 -39t-54.5 -133q0 -93 55 -133t199 -40z" />
    <glyph glyph-name="ntilde" unicode="&#xf1;" 
d="M451 1143h-205v80q0 217 176 217q44 0 135 -35l98 -43q54 -23 76 -23q18 0 25.5 9.5t7.5 33.5v39h205v-96q0 -86 -39.5 -143.5t-128.5 -57.5q-55 0 -160 41l-104 45q-8 2 -21.5 7.5t-21.5 7.5t-15 2q-28 0 -28 -39v-45zM399 0h-305v1030h285v-180h12q44 93 130.5 147
t215.5 54q98 0 172.5 -31t120 -86t68 -126t22.5 -155v-653h-307v592q0 108 -43.5 151t-159.5 43q-113 0 -162 -44t-49 -158v-584z" />
    <glyph glyph-name="ograve" unicode="&#xf2;" horiz-adv-x="1165" 
d="M774 1147h-325l-320 256v10h418l227 -256v-10zM586 -20q-247 0 -388 144t-141 390q0 248 141 392.5t388 144.5q245 0 383.5 -144.5t138.5 -392.5q0 -247 -138.5 -390.5t-383.5 -143.5zM586 250q125 0 174 57.5t49 206.5q0 150 -49 208t-174 58q-127 0 -176.5 -58
t-49.5 -208q0 -149 50 -206.5t176 -57.5z" />
    <glyph glyph-name="oacute" unicode="&#xf3;" horiz-adv-x="1165" 
d="M766 1147h-326v10l228 256h417v-10zM586 -20q-247 0 -388 144t-141 390q0 248 141 392.5t388 144.5q245 0 383.5 -144.5t138.5 -392.5q0 -247 -138.5 -390.5t-383.5 -143.5zM586 250q125 0 174 57.5t49 206.5q0 150 -49 208t-174 58q-127 0 -176.5 -58t-49.5 -208
q0 -149 50 -206.5t176 -57.5z" />
    <glyph glyph-name="ocircumflex" unicode="&#xf4;" horiz-adv-x="1165" 
d="M483 1147h-295v10l213 256h365l211 -256v-10h-295l-88 115h-23zM586 -20q-247 0 -388 144t-141 390q0 248 141 392.5t388 144.5q245 0 383.5 -144.5t138.5 -392.5q0 -247 -138.5 -390.5t-383.5 -143.5zM586 250q125 0 174 57.5t49 206.5q0 150 -49 208t-174 58
q-127 0 -176.5 -58t-49.5 -208q0 -149 50 -206.5t176 -57.5z" />
    <glyph glyph-name="otilde" unicode="&#xf5;" horiz-adv-x="1165" 
d="M426 1143h-205v80q0 217 176 217q44 0 135 -35l99 -43q54 -23 76 -23q18 0 25 9.5t7 33.5v39h205v-96q0 -86 -39.5 -143.5t-128.5 -57.5q-55 0 -160 41l-104 45q-8 3 -21 8t-21 7t-15 2q-29 0 -29 -39v-45zM586 -20q-247 0 -388 144t-141 390q0 248 141 392.5t388 144.5
q245 0 383.5 -144.5t138.5 -392.5q0 -247 -138.5 -390.5t-383.5 -143.5zM586 250q125 0 174 57.5t49 206.5q0 150 -49 208t-174 58q-127 0 -176.5 -58t-49.5 -208q0 -149 50 -206.5t176 -57.5z" />
    <glyph glyph-name="odieresis" unicode="&#xf6;" horiz-adv-x="1165" 
d="M948 1147h-303v270h303v-270zM522 1147h-301v270h301v-270zM586 -20q-247 0 -388 144t-141 390q0 248 141 392.5t388 144.5q245 0 383.5 -144.5t138.5 -392.5q0 -247 -138.5 -390.5t-383.5 -143.5zM586 250q125 0 174 57.5t49 206.5q0 150 -49 208t-174 58
q-127 0 -176.5 -58t-49.5 -208q0 -149 50 -206.5t176 -57.5z" />
    <glyph glyph-name="divide" unicode="&#xf7;" horiz-adv-x="1030" 
d="M692 952h-354v320h354v-320zM995 559h-915v254h915v-254zM692 100h-354v320h354v-320z" />
    <glyph glyph-name="oslash" unicode="&#xf8;" horiz-adv-x="1165" 
d="M586 -20q-209 0 -346 106l-152 -137l-113 123l156 141q-74 124 -74 301q0 248 141 392.5t388 144.5q207 0 342 -107l147 133l113 -123l-152 -139q72 -126 72 -301q0 -247 -138.5 -390.5t-383.5 -143.5zM360 514q0 -24 5 -86l356 326q-48 26 -135 26q-127 0 -176.5 -58
t-49.5 -208zM586 250q125 0 174 57.5t49 206.5q0 36 -4 90l-359 -328q51 -26 140 -26z" />
    <glyph glyph-name="ugrave" unicode="&#xf9;" 
d="M791 1147h-326l-320 256v10h418l228 -256v-10zM471 -20q-192 0 -287.5 110.5t-95.5 286.5v653h305v-592q0 -108 44 -151t159 -43q113 0 162 44t49 158v584h305v-1030h-285v180h-10q-96 -200 -346 -200z" />
    <glyph glyph-name="uacute" unicode="&#xfa;" 
d="M782 1147h-325v10l227 256h418v-10zM471 -20q-192 0 -287.5 110.5t-95.5 286.5v653h305v-592q0 -108 44 -151t159 -43q113 0 162 44t49 158v584h305v-1030h-285v180h-10q-96 -200 -346 -200z" />
    <glyph glyph-name="ucircumflex" unicode="&#xfb;" 
d="M500 1147h-295v10l213 256h364l211 -256v-10h-295l-88 115h-22zM471 -20q-192 0 -287.5 110.5t-95.5 286.5v653h305v-592q0 -108 44 -151t159 -43q113 0 162 44t49 158v584h305v-1030h-285v180h-10q-96 -200 -346 -200z" />
    <glyph glyph-name="udieresis" unicode="&#xfc;" 
d="M965 1147h-303v270h303v-270zM539 1147h-301v270h301v-270zM471 -20q-192 0 -287.5 110.5t-95.5 286.5v653h305v-592q0 -108 44 -151t159 -43q113 0 162 44t49 158v584h305v-1030h-285v180h-10q-96 -200 -346 -200z" />
    <glyph glyph-name="yacute" unicode="&#xfd;" horiz-adv-x="1185" 
d="M776 1147h-325v10l227 256h418v-10zM309 -348q-93 0 -188 22v254h172q61 0 87.5 14t49.5 62l19 39l-433 987h342l168 -430l74 -199h23l63 199l145 430h343l-459 -1102q-65 -155 -157.5 -215.5t-248.5 -60.5z" />
    <glyph glyph-name="thorn" unicode="&#xfe;" horiz-adv-x="1247" 
d="M399 -344h-305v1716h305v-493h13q38 83 121 127.5t200 44.5q216 0 328.5 -143t112.5 -394q0 -248 -116.5 -391t-332.5 -143q-114 0 -195 43t-118 112h-13v-479zM399 432q0 -101 57.5 -145.5t170.5 -44.5q138 0 189.5 63.5t51.5 208.5q0 147 -51.5 210.5t-189.5 63.5
q-113 0 -170.5 -44.5t-57.5 -145.5v-166z" />
    <glyph glyph-name="ydieresis" unicode="&#xff;" horiz-adv-x="1185" 
d="M956 1147h-303v270h303v-270zM530 1147h-301v270h301v-270zM309 -348q-93 0 -188 22v254h172q61 0 87.5 14t49.5 62l19 39l-433 987h342l168 -430l74 -199h23l63 199l145 430h343l-459 -1102q-65 -155 -157.5 -215.5t-248.5 -60.5z" />
    <glyph glyph-name="Amacron" unicode="&#x100;" horiz-adv-x="1466" 
d="M1049 1522h-629v213h629v-213zM324 0h-320l506 1372h446l506 -1372h-334l-110 305h-582zM614 793l-77 -213h381l-78 213l-101 309h-20z" />
    <glyph glyph-name="amacron" unicode="&#x101;" horiz-adv-x="1114" 
d="M868 1171h-628v215h628v-215zM379 -20q-142 0 -233 73.5t-91 208.5q0 119 83.5 192.5t244.5 98.5l352 53v33q0 86 -43.5 114.5t-142.5 28.5q-95 0 -134.5 -31t-39.5 -108v-22h-293v22q0 185 131.5 296.5t349.5 111.5q224 0 343.5 -116.5t119.5 -324.5v-610h-285v139h-12
q-115 -159 -350 -159zM348 287q0 -40 32 -57t101 -17q254 0 254 193l-295 -46q-48 -8 -70 -24.5t-22 -48.5z" />
    <glyph glyph-name="Abreve" unicode="&#x102;" horiz-adv-x="1466" 
d="M735 1475q-140 0 -224.5 71t-84.5 189v28h215v-20q0 -48 19 -65t75 -17t74 17t18 65v20h215v-28q0 -118 -84.5 -189t-222.5 -71zM324 0h-320l506 1372h446l506 -1372h-334l-110 305h-582zM614 793l-77 -213h381l-78 213l-101 309h-20z" />
    <glyph glyph-name="abreve" unicode="&#x103;" horiz-adv-x="1114" 
d="M555 1126q-140 0 -224.5 71t-84.5 189v29h215v-20q0 -48 19 -65t75 -17t74 17t18 65v20h215v-29q0 -118 -84.5 -189t-222.5 -71zM379 -20q-142 0 -233 73.5t-91 208.5q0 119 83.5 192.5t244.5 98.5l352 53v33q0 86 -43.5 114.5t-142.5 28.5q-95 0 -134.5 -31t-39.5 -108
v-22h-293v22q0 185 131.5 296.5t349.5 111.5q224 0 343.5 -116.5t119.5 -324.5v-610h-285v139h-12q-115 -159 -350 -159zM348 287q0 -40 32 -57t101 -17q254 0 254 193l-295 -46q-48 -8 -70 -24.5t-22 -48.5z" />
    <glyph glyph-name="Aogonek" unicode="&#x104;" horiz-adv-x="1466" 
d="M324 0h-320l506 1372h446l506 -1372l-90 -115q-26 -28 -26 -55q0 -29 47 -29h108v-184h-192q-197 0 -197 139q0 83 96 187l52 57h-132l-110 305h-582zM614 793l-77 -213h381l-78 213l-101 309h-20z" />
    <glyph glyph-name="aogonek" unicode="&#x105;" horiz-adv-x="1114" 
d="M379 -20q-142 0 -233 73.5t-91 208.5q0 119 83.5 192.5t244.5 98.5l352 53v33q0 86 -43.5 114.5t-142.5 28.5q-95 0 -134.5 -31t-39.5 -108v-22h-293v22q0 185 131.5 296.5t349.5 111.5q224 0 343.5 -116.5t119.5 -324.5v-610l-90 -115q-27 -34 -27 -55q0 -29 49 -29h109
v-184h-195q-196 0 -196 139q0 83 96 187l51 57h-82v139h-12q-115 -159 -350 -159zM348 287q0 -40 32 -57t101 -17q254 0 254 193l-295 -46q-48 -8 -70 -24.5t-22 -48.5z" />
    <glyph glyph-name="Cacute" unicode="&#x106;" horiz-adv-x="1413" 
d="M909 1495h-325v10l227 258h418v-10zM723 -20q-307 0 -482 191t-175 515t175.5 515.5t481.5 191.5q301 0 463 -147t162 -406v-19h-328v10q0 147 -67.5 206t-231.5 59q-121 0 -189.5 -34.5t-103.5 -124t-35 -251.5t35 -251.5t103.5 -124t189.5 -34.5q164 0 231.5 59
t67.5 206v10h328v-19q0 -258 -162 -405t-463 -147z" />
    <glyph glyph-name="cacute" unicode="&#x107;" horiz-adv-x="1128" 
d="M748 1147h-326v10l227 256h418v-10zM580 -20q-251 0 -387 142t-136 390q0 250 142 394.5t397 144.5q208 0 341.5 -116.5t133.5 -305.5v-25h-307v17q0 85 -47 120t-146 35q-112 0 -161.5 -59.5t-49.5 -202.5q0 -141 49.5 -200.5t161.5 -59.5q99 0 146 35.5t47 120.5v16
h307v-25q0 -189 -137.5 -305t-353.5 -116z" />
    <glyph glyph-name="Ccircumflex" unicode="&#x108;" horiz-adv-x="1413" 
d="M625 1495h-295v10l213 256h364l211 -256v-10h-295l-88 115h-22zM723 -20q-307 0 -482 191t-175 515t175.5 515.5t481.5 191.5q301 0 463 -147t162 -406v-19h-328v10q0 147 -67.5 206t-231.5 59q-121 0 -189.5 -34.5t-103.5 -124t-35 -251.5t35 -251.5t103.5 -124
t189.5 -34.5q164 0 231.5 59t67.5 206v10h328v-19q0 -258 -162 -405t-463 -147z" />
    <glyph glyph-name="ccircumflex" unicode="&#x109;" horiz-adv-x="1128" 
d="M465 1147h-295v10l213 256h365l210 -256v-10h-294l-89 115h-22zM580 -20q-251 0 -387 142t-136 390q0 250 142 394.5t397 144.5q208 0 341.5 -116.5t133.5 -305.5v-25h-307v17q0 85 -47 120t-146 35q-112 0 -161.5 -59.5t-49.5 -202.5q0 -141 49.5 -200.5t161.5 -59.5
q99 0 146 35.5t47 120.5v16h307v-25q0 -189 -137.5 -305t-353.5 -116z" />
    <glyph glyph-name="Cdotaccent" unicode="&#x10a;" horiz-adv-x="1413" 
d="M879 1495h-306v270h306v-270zM723 -20q-307 0 -482 191t-175 515t175.5 515.5t481.5 191.5q301 0 463 -147t162 -406v-19h-328v10q0 147 -67.5 206t-231.5 59q-121 0 -189.5 -34.5t-103.5 -124t-35 -251.5t35 -251.5t103.5 -124t189.5 -34.5q164 0 231.5 59t67.5 206v10
h328v-19q0 -258 -162 -405t-463 -147z" />
    <glyph glyph-name="cdotaccent" unicode="&#x10b;" horiz-adv-x="1128" 
d="M719 1147h-305v270h305v-270zM580 -20q-251 0 -387 142t-136 390q0 250 142 394.5t397 144.5q208 0 341.5 -116.5t133.5 -305.5v-25h-307v17q0 85 -47 120t-146 35q-112 0 -161.5 -59.5t-49.5 -202.5q0 -141 49.5 -200.5t161.5 -59.5q99 0 146 35.5t47 120.5v16h307v-25
q0 -189 -137.5 -305t-353.5 -116z" />
    <glyph glyph-name="Ccaron" unicode="&#x10c;" horiz-adv-x="1413" 
d="M825 1761h295v-10l-213 -256h-364l-211 256v10h295l88 -114h22zM723 -20q-307 0 -482 191t-175 515t175.5 515.5t481.5 191.5q301 0 463 -147t162 -406v-19h-328v10q0 147 -67.5 206t-231.5 59q-121 0 -189.5 -34.5t-103.5 -124t-35 -251.5t35 -251.5t103.5 -124
t189.5 -34.5q164 0 231.5 59t67.5 206v10h328v-19q0 -258 -162 -405t-463 -147z" />
    <glyph glyph-name="ccaron" unicode="&#x10d;" horiz-adv-x="1128" 
d="M748 1147h-365l-213 256v10h295l88 -115h22l89 115h294v-10zM580 -20q-251 0 -387 142t-136 390q0 250 142 394.5t397 144.5q208 0 341.5 -116.5t133.5 -305.5v-25h-307v17q0 85 -47 120t-146 35q-112 0 -161.5 -59.5t-49.5 -202.5q0 -141 49.5 -200.5t161.5 -59.5
q99 0 146 35.5t47 120.5v16h307v-25q0 -189 -137.5 -305t-353.5 -116z" />
    <glyph glyph-name="Dcaron" unicode="&#x10e;" horiz-adv-x="1388" 
d="M801 1761h295v-10l-213 -256h-365l-211 256v10h295l88 -114h23zM621 0h-525v1372h525q331 0 520.5 -182t189.5 -504t-189.5 -504t-520.5 -182zM616 1096h-213v-820h213q109 0 178.5 18t118 65t68.5 125.5t20 201.5t-20 201.5t-68.5 125.5t-118 65t-178.5 18z" />
    <glyph glyph-name="dcaron" unicode="&#x10f;" horiz-adv-x="1556" 
d="M504 -20q-215 0 -331 143.5t-116 390.5t119 392t328 145q112 0 186.5 -43t112.5 -113h12v477h305v-1372h-284v152h-11q-40 -83 -123.5 -127.5t-197.5 -44.5zM1317 780h-96v183h88q30 0 42.5 11t12.5 46v33h-156v319h355v-348q0 -122 -63 -183t-183 -61zM362 514
q0 -145 49.5 -208.5t178.5 -63.5q113 0 169 44.5t56 145.5v166q0 101 -56 145.5t-169 44.5q-129 0 -178.5 -64t-49.5 -210z" />
    <glyph glyph-name="Dcroat" unicode="&#x110;" horiz-adv-x="1509" 
d="M741 0h-524v549h-201v274h201v549h524q331 0 521 -182t190 -504t-190 -504t-521 -182zM846 549h-322v-273h213q109 0 178.5 18t118 65t68.5 125.5t20 201.5t-20 201.5t-68.5 125.5t-118 65t-178.5 18h-213v-273h322v-274z" />
    <glyph glyph-name="dcroat" unicode="&#x111;" horiz-adv-x="1292" 
d="M506 -20q-216 0 -331.5 126t-115.5 345q0 220 113 346.5t322 126.5q113 0 193.5 -44.5t117.5 -111.5h12v250h-401v227h401v127h307v-127h152v-227h-152v-1018h-284v150h-13q-40 -84 -124 -127t-197 -43zM367 451q0 -110 48.5 -160.5t176.5 -50.5q113 0 169 43t56 139v59
q0 96 -56 139.5t-169 43.5q-128 0 -176.5 -51t-48.5 -162z" />
    <glyph glyph-name="Emacron" unicode="&#x112;" horiz-adv-x="1220" 
d="M936 1522h-629v213h629v-213zM1143 0h-1047v1372h1047v-276h-740v-269h709v-274h-709v-277h740v-276z" />
    <glyph glyph-name="emacron" unicode="&#x113;" horiz-adv-x="1132" 
d="M881 1171h-629v215h629v-215zM573 -20q-259 0 -387.5 140t-128.5 392q0 248 138.5 393.5t379.5 145.5q229 0 360.5 -124.5t131.5 -328.5q0 -70 -14 -152h-707q5 -109 56.5 -154.5t175.5 -45.5q92 0 134 21.5t42 68.5v12h303v-20q0 -163 -130.5 -255.5t-353.5 -92.5z
M565 799q-107 0 -157.5 -41t-59.5 -125h424q5 80 -48 123t-159 43z" />
    <glyph glyph-name="Ebreve" unicode="&#x114;" horiz-adv-x="1220" 
d="M623 1475q-140 0 -225 71t-85 189v28h215v-20q0 -48 19.5 -65t75.5 -17t74 17t18 65v20h215v-28q0 -118 -84.5 -189t-222.5 -71zM1143 0h-1047v1372h1047v-276h-740v-269h709v-274h-709v-277h740v-276z" />
    <glyph glyph-name="ebreve" unicode="&#x115;" horiz-adv-x="1132" 
d="M567 1126q-140 0 -224.5 71t-84.5 189v29h215v-20q0 -48 19 -65t75 -17t74 17t18 65v20h215v-29q0 -118 -84.5 -189t-222.5 -71zM573 -20q-259 0 -387.5 140t-128.5 392q0 248 138.5 393.5t379.5 145.5q229 0 360.5 -124.5t131.5 -328.5q0 -70 -14 -152h-707
q5 -109 56.5 -154.5t175.5 -45.5q92 0 134 21.5t42 68.5v12h303v-20q0 -163 -130.5 -255.5t-353.5 -92.5zM565 799q-107 0 -157.5 -41t-59.5 -125h424q5 80 -48 123t-159 43z" />
    <glyph glyph-name="Edotaccent" unicode="&#x116;" horiz-adv-x="1220" 
d="M774 1495h-305v270h305v-270zM1143 0h-1047v1372h1047v-276h-740v-269h709v-274h-709v-277h740v-276z" />
    <glyph glyph-name="edotaccent" unicode="&#x117;" horiz-adv-x="1132" 
d="M719 1147h-305v270h305v-270zM573 -20q-259 0 -387.5 140t-128.5 392q0 248 138.5 393.5t379.5 145.5q229 0 360.5 -124.5t131.5 -328.5q0 -70 -14 -152h-707q5 -109 56.5 -154.5t175.5 -45.5q92 0 134 21.5t42 68.5v12h303v-20q0 -163 -130.5 -255.5t-353.5 -92.5z
M565 799q-107 0 -157.5 -41t-59.5 -125h424q5 80 -48 123t-159 43z" />
    <glyph glyph-name="Eogonek" unicode="&#x118;" horiz-adv-x="1220" 
d="M1112 553h-709v-277h740v-276l-90 -115q-27 -29 -27 -55q0 -29 47 -29h109v-184h-193q-196 0 -196 139q0 83 96 187l51 57h-844v1372h1047v-276h-740v-269h709v-274z" />
    <glyph glyph-name="eogonek" unicode="&#x119;" horiz-adv-x="1132" 
d="M772 -383h-192q-197 0 -197 139q0 83 96 187l35 39q-229 17 -343 155t-114 375q0 248 138.5 393.5t379.5 145.5q229 0 360.5 -124.5t131.5 -328.5q0 -70 -14 -152h-707q5 -109 56.5 -154.5t175.5 -45.5q92 0 134 21.5t42 68.5v12h303v-20q0 -132 -87.5 -219t-242.5 -115
l-84 -109q-27 -29 -27 -55q0 -29 48 -29h108v-184zM565 799q-107 0 -157.5 -41t-59.5 -125h424q5 80 -48 123t-159 43z" />
    <glyph glyph-name="Ecaron" unicode="&#x11a;" horiz-adv-x="1220" 
d="M721 1761h295v-10l-213 -256h-365l-211 256v10h295l88 -114h23zM1143 0h-1047v1372h1047v-276h-740v-269h709v-274h-709v-277h740v-276z" />
    <glyph glyph-name="ecaron" unicode="&#x11b;" horiz-adv-x="1132" 
d="M750 1147h-365l-213 256v10h295l88 -115h23l88 115h295v-10zM573 -20q-259 0 -387.5 140t-128.5 392q0 248 138.5 393.5t379.5 145.5q229 0 360.5 -124.5t131.5 -328.5q0 -70 -14 -152h-707q5 -109 56.5 -154.5t175.5 -45.5q92 0 134 21.5t42 68.5v12h303v-20
q0 -163 -130.5 -255.5t-353.5 -92.5zM565 799q-107 0 -157.5 -41t-59.5 -125h424q5 80 -48 123t-159 43z" />
    <glyph glyph-name="Gcircumflex" unicode="&#x11c;" horiz-adv-x="1456" 
d="M629 1495h-295v10l213 256h364l211 -256v-10h-295l-88 115h-22zM666 -20q-292 0 -450.5 187t-158.5 519q0 324 178.5 515.5t489.5 191.5q302 0 464.5 -139.5t162.5 -387.5v-10h-326v8q0 128 -69.5 180t-237.5 52q-92 0 -152.5 -18.5t-102.5 -65t-60.5 -125.5t-18.5 -201
q0 -124 20 -204t65.5 -127t111 -65t166.5 -18q171 0 242 41.5t71 159.5h-375v256h670v-729h-285v209h-12q-17 -43 -45.5 -80.5t-74 -72.5t-116 -55.5t-157.5 -20.5z" />
    <glyph glyph-name="gcircumflex" unicode="&#x11d;" horiz-adv-x="1214" 
d="M496 1147h-295v10l213 256h364l211 -256v-10h-295l-88 115h-22zM494 109q-211 0 -324 125t-113 344t116.5 346t332.5 127q112 0 195 -43.5t124 -126.5h11v149h284v-915q0 -248 -128.5 -366t-381.5 -118q-242 0 -371.5 104t-129.5 300h305q0 -56 15.5 -82.5t58.5 -38.5
t133 -12q121 0 157.5 37.5t36.5 158.5v160h-12q-36 -64 -117 -106.5t-192 -42.5zM362 578q0 -113 49.5 -163t176.5 -50q113 0 170 43t57 139v61q0 96 -56 139.5t-169 43.5q-128 0 -178 -50t-50 -163z" />
    <glyph glyph-name="Gbreve" unicode="&#x11e;" horiz-adv-x="1456" 
d="M729 1475q-140 0 -224.5 71t-84.5 189v28h215v-20q0 -48 19 -65t75 -17t74 17t18 65v20h215v-28q0 -118 -84.5 -189t-222.5 -71zM666 -20q-292 0 -450.5 187t-158.5 519q0 324 178.5 515.5t489.5 191.5q302 0 464.5 -139.5t162.5 -387.5v-10h-326v8q0 128 -69.5 180
t-237.5 52q-92 0 -152.5 -18.5t-102.5 -65t-60.5 -125.5t-18.5 -201q0 -124 20 -204t65.5 -127t111 -65t166.5 -18q171 0 242 41.5t71 159.5h-375v256h670v-729h-285v209h-12q-17 -43 -45.5 -80.5t-74 -72.5t-116 -55.5t-157.5 -20.5z" />
    <glyph glyph-name="gbreve" unicode="&#x11f;" horiz-adv-x="1214" 
d="M596 1126q-140 0 -224.5 71t-84.5 189v29h215v-20q0 -48 19 -65t75 -17t74 17t18 65v20h215v-29q0 -118 -84.5 -189t-222.5 -71zM494 109q-211 0 -324 125t-113 344t116.5 346t332.5 127q112 0 195 -43.5t124 -126.5h11v149h284v-915q0 -248 -128.5 -366t-381.5 -118
q-242 0 -371.5 104t-129.5 300h305q0 -56 15.5 -82.5t58.5 -38.5t133 -12q121 0 157.5 37.5t36.5 158.5v160h-12q-36 -64 -117 -106.5t-192 -42.5zM362 578q0 -113 49.5 -163t176.5 -50q113 0 170 43t57 139v61q0 96 -56 139.5t-169 43.5q-128 0 -178 -50t-50 -163z" />
    <glyph glyph-name="Gdotaccent" unicode="&#x120;" horiz-adv-x="1456" 
d="M883 1495h-305v270h305v-270zM666 -20q-292 0 -450.5 187t-158.5 519q0 324 178.5 515.5t489.5 191.5q302 0 464.5 -139.5t162.5 -387.5v-10h-326v8q0 128 -69.5 180t-237.5 52q-92 0 -152.5 -18.5t-102.5 -65t-60.5 -125.5t-18.5 -201q0 -124 20 -204t65.5 -127t111 -65
t166.5 -18q171 0 242 41.5t71 159.5h-375v256h670v-729h-285v209h-12q-17 -43 -45.5 -80.5t-74 -72.5t-116 -55.5t-157.5 -20.5z" />
    <glyph glyph-name="gdotaccent" unicode="&#x121;" horiz-adv-x="1214" 
d="M748 1147h-306v270h306v-270zM494 109q-211 0 -324 125t-113 344t116.5 346t332.5 127q112 0 195 -43.5t124 -126.5h11v149h284v-915q0 -248 -128.5 -366t-381.5 -118q-242 0 -371.5 104t-129.5 300h305q0 -56 15.5 -82.5t58.5 -38.5t133 -12q121 0 157.5 37.5
t36.5 158.5v160h-12q-36 -64 -117 -106.5t-192 -42.5zM362 578q0 -113 49.5 -163t176.5 -50q113 0 170 43t57 139v61q0 96 -56 139.5t-169 43.5q-128 0 -178 -50t-50 -163z" />
    <glyph glyph-name="Gcommaaccent" unicode="&#x122;" horiz-adv-x="1456" 
d="M666 -20q-292 0 -450.5 187t-158.5 519q0 324 178.5 515.5t489.5 191.5q302 0 464.5 -139.5t162.5 -387.5v-10h-326v8q0 128 -69.5 180t-237.5 52q-92 0 -152.5 -18.5t-102.5 -65t-60.5 -125.5t-18.5 -201q0 -124 20 -204t65.5 -127t111 -65t166.5 -18q171 0 242 41.5
t71 159.5h-375v256h670v-729h-285v209h-12q-17 -43 -45.5 -80.5t-74 -72.5t-116 -55.5t-157.5 -20.5zM717 -410h-285v11l164 256h383v-11z" />
    <glyph glyph-name="gcommaaccent" unicode="&#x123;" horiz-adv-x="1214" 
d="M641 1413h285v-10l-164 -256h-385v10zM494 109q-211 0 -324 125t-113 344t116.5 346t332.5 127q112 0 195 -43.5t124 -126.5h11v149h284v-915q0 -248 -128.5 -366t-381.5 -118q-242 0 -371.5 104t-129.5 300h305q0 -56 15.5 -82.5t58.5 -38.5t133 -12q121 0 157.5 37.5
t36.5 158.5v160h-12q-36 -64 -117 -106.5t-192 -42.5zM362 578q0 -113 49.5 -163t176.5 -50q113 0 170 43t57 139v61q0 96 -56 139.5t-169 43.5q-128 0 -178 -50t-50 -163z" />
    <glyph glyph-name="Hcircumflex" unicode="&#x124;" horiz-adv-x="1404" 
d="M604 1495h-295v10l213 256h365l211 -256v-10h-295l-88 115h-23zM403 0h-307v1372h307v-545h598v545h308v-1372h-308v553h-598v-553z" />
    <glyph glyph-name="hcircumflex" unicode="&#x125;" 
d="M147 1495h-294v10l213 256h364l211 -256v-10h-295l-88 115h-22zM399 0h-305v1372h305v-502h13q45 79 130 130t201 51q189 0 283 -111t94 -287v-653h-307v592q0 108 -43.5 151t-159.5 43q-113 0 -162 -45t-49 -159v-582z" />
    <glyph glyph-name="Hbar" unicode="&#x126;" horiz-adv-x="1548" 
d="M475 0h-307v967h-152v266h152v139h307v-139h598v139h307v-139h152v-266h-152v-967h-307v553h-598v-553zM475 827h598v140h-598v-140z" />
    <glyph glyph-name="hbar" unicode="&#x127;" horiz-adv-x="1286" 
d="M475 0h-307v1016h-152v227h152v129h307v-129h402v-227h-402v-273h10q47 79 132 130t200 51q189 0 283 -111t94 -287v-526h-307v465q0 108 -43.5 151t-159.5 43q-112 0 -160.5 -45t-48.5 -159v-455z" />
    <glyph glyph-name="Itilde" unicode="&#x128;" horiz-adv-x="499" 
d="M92 1489h-205v80q0 219 176 219q49 0 136 -37l98 -41q57 -24 76 -24q18 0 25.5 9.5t7.5 35.5v36h204v-94q0 -87 -39.5 -145t-128.5 -58q-12 0 -23.5 1t-24.5 4t-21.5 5t-24 8t-21 7.5t-23.5 9t-21 8.5l-105 43q-47 19 -57 19q-29 0 -29 -41v-45zM403 0h-307v1372h307
v-1372z" />
    <glyph glyph-name="itilde" unicode="&#x129;" horiz-adv-x="462" 
d="M74 1143h-205v80q0 217 176 217q44 0 135 -35l99 -43q54 -23 75 -23q18 0 25.5 9.5t7.5 33.5v39h205v-96q0 -86 -39.5 -143.5t-128.5 -57.5q-55 0 -160 41l-104 45q-8 2 -21.5 7.5t-21.5 7.5t-15 2q-28 0 -28 -39v-45zM385 0h-307v1030h307v-1030z" />
    <glyph glyph-name="Imacron" unicode="&#x12a;" horiz-adv-x="499" 
d="M565 1522h-628v213h628v-213zM403 0h-307v1372h307v-1372z" />
    <glyph glyph-name="imacron" unicode="&#x12b;" horiz-adv-x="462" 
d="M547 1171h-629v215h629v-215zM385 0h-307v1030h307v-1030z" />
    <glyph glyph-name="Ibreve" unicode="&#x12c;" horiz-adv-x="499" 
d="M250 1475q-140 0 -224.5 71t-84.5 189v28h215v-20q0 -48 19 -65t75 -17t74 17t18 65v20h215v-28q0 -118 -84.5 -189t-222.5 -71zM403 0h-307v1372h307v-1372z" />
    <glyph glyph-name="ibreve" unicode="&#x12d;" horiz-adv-x="462" 
d="M231 1126q-140 0 -224.5 71t-84.5 189v29h215v-20q0 -48 19 -65t75 -17t74.5 17t18.5 65v20h215v-29q0 -118 -84.5 -189t-223.5 -71zM385 0h-307v1030h307v-1030z" />
    <glyph glyph-name="Iogonek" unicode="&#x12e;" horiz-adv-x="499" 
d="M442 -383h-192q-197 0 -197 139q0 82 97 187l51 57h-105v1372h307v-1372l-90 -115q-26 -28 -26 -55q0 -29 47 -29h108v-184z" />
    <glyph glyph-name="iogonek" unicode="&#x12f;" horiz-adv-x="466" 
d="M383 1147h-301l-4 225h305v-225zM428 -383h-192q-197 0 -197 139q0 83 96 187l51 57h-104v1030h307v-1030l-90 -115q-27 -29 -27 -55q0 -29 47 -29h109v-184z" />
    <glyph glyph-name="Idotaccent" unicode="&#x130;" horiz-adv-x="499" 
d="M401 1495h-305v270h305v-270zM403 0h-307v1372h307v-1372z" />
    <glyph glyph-name="dotlessi" unicode="&#x131;" horiz-adv-x="462" 
d="M385 0h-307v1030h307v-1030z" />
    <glyph glyph-name="IJ" unicode="&#x132;" horiz-adv-x="1671" 
d="M403 0h-307v1372h307v-1372zM1047 -20q-290 0 -422.5 140t-132.5 406v41h325v-55q0 -58 4.5 -93.5t17 -66t37.5 -45.5t63 -23t97 -8q72 0 114 11t65.5 41t30.5 71t7 113v860h328v-833q0 -559 -534 -559z" />
    <glyph glyph-name="ij" unicode="&#x133;" horiz-adv-x="1007" 
d="M383 1147h-301l-4 225h305v-225zM915 1147h-307v225h307v-225zM389 0h-307v1030h307v-1030zM410 -344v258h82q75 0 95.5 16.5t20.5 73.5v1026h307v-979q0 -114 -29 -193t-86 -123.5t-130 -63.5t-172 -19q-34 0 -88 4z" />
    <glyph glyph-name="Jcircumflex" unicode="&#x134;" horiz-adv-x="1198" 
d="M846 1495h-295v10l213 256h364l211 -256v-10h-295l-88 115h-22zM573 -20q-290 0 -422.5 140t-132.5 406v41h326v-55q0 -58 4.5 -93.5t17 -66t37.5 -45.5t63 -23t97 -8q72 0 114 11t65.5 41t30.5 71t7 113v860h328v-833q0 -559 -535 -559z" />
    <glyph glyph-name="jcircumflex" unicode="&#x135;" horiz-adv-x="499" 
d="M150 1147h-295v10l213 256h364l211 -256v-10h-295l-88 115h-22zM-100 -344v258h82q75 0 95.5 16.5t20.5 73.5v1026h308v-979q0 -114 -29 -193t-86 -123.5t-130.5 -63.5t-172.5 -19q-34 0 -88 4z" />
    <glyph glyph-name="Kcommaaccent" unicode="&#x136;" horiz-adv-x="1337" 
d="M403 0h-307v1372h307v-547h261l321 547h348l-413 -680l407 -692h-352l-307 528h-265v-528zM623 -410h-285v11l164 256h383v-11z" />
    <glyph glyph-name="kcommaaccent" unicode="&#x137;" horiz-adv-x="1132" 
d="M399 0h-305v1372h305v-723h152l233 381h353l-336 -491l334 -539h-353l-225 375h-158v-375zM555 -410h-285v11l164 256h383v-11z" />
    <glyph glyph-name="Lacute" unicode="&#x139;" horiz-adv-x="1148" 
d="M422 1495h-326v10l228 258h417v-10zM1112 0h-1016v1372h307v-1096h709v-276z" />
    <glyph glyph-name="lacute" unicode="&#x13a;" horiz-adv-x="493" 
d="M420 1489h-326v10l228 256h417v-10zM399 0h-305v1372h305v-1372z" />
    <glyph glyph-name="Lcommaaccent" unicode="&#x13b;" horiz-adv-x="1148" 
d="M1112 0h-1016v1372h307v-1096h709v-276zM516 -410h-285v11l164 256h383v-11z" />
    <glyph glyph-name="lcommaaccent" unicode="&#x13c;" horiz-adv-x="493" 
d="M399 0h-305v1372h305v-1372zM160 -410h-285v11l164 256h383v-11z" />
    <glyph glyph-name="Lcaron" unicode="&#x13d;" horiz-adv-x="1148" 
d="M1112 0h-1016v1372h307v-1096h709v-276zM772 780h-98v183h88q31 0 43 11t12 46v33h-155v319h356v-348q0 -121 -63.5 -182.5t-182.5 -61.5z" />
    <glyph glyph-name="lcaron" unicode="&#x13e;" horiz-adv-x="835" 
d="M399 0h-305v1372h305v-1372zM596 780h-96v183h88q30 0 42.5 11t12.5 46v33h-156v319h355v-348q0 -122 -63 -183t-183 -61z" />
    <glyph glyph-name="Ldot" unicode="&#x13f;" horiz-adv-x="1148" 
d="M1112 0h-1016v1372h307v-1096h709v-276zM989 551h-307v270h307v-270z" />
    <glyph glyph-name="ldot" unicode="&#x140;" horiz-adv-x="768" 
d="M399 0h-305v1372h305v-1372zM786 551h-307v270h307v-270z" />
    <glyph glyph-name="Lslash" unicode="&#x141;" horiz-adv-x="1247" 
d="M823 758l-321 -133v-349h708v-276h-1015v500l-179 -74v287l179 73v586h307v-461l321 133v-286z" />
    <glyph glyph-name="lslash" unicode="&#x142;" horiz-adv-x="796" 
d="M551 0h-305v612l-148 -69l-86 176l234 110v543h305v-397l147 69l86 -176l-233 -110v-758z" />
    <glyph glyph-name="Nacute" unicode="&#x143;" horiz-adv-x="1402" 
d="M887 1495h-326v10l227 258h418v-10zM403 0h-307v1372h328l444 -688l115 -184h21l-5 184v688h308v-1372h-328l-426 649l-133 211h-21l4 -211v-649z" />
    <glyph glyph-name="nacute" unicode="&#x144;" 
d="M791 1147h-326v10l227 256h418v-10zM399 0h-305v1030h285v-180h12q44 93 130.5 147t215.5 54q98 0 172.5 -31t120 -86t68 -126t22.5 -155v-653h-307v592q0 108 -43.5 151t-159.5 43q-113 0 -162 -44t-49 -158v-584z" />
    <glyph glyph-name="Ncommaaccent" unicode="&#x145;" horiz-adv-x="1402" 
d="M403 0h-307v1372h328l444 -688l115 -184h21l-5 184v688h308v-1372h-328l-426 649l-133 211h-21l4 -211v-649zM614 -410h-284v11l164 256h383v-11z" />
    <glyph glyph-name="ncommaaccent" unicode="&#x146;" 
d="M399 0h-305v1030h285v-180h12q44 93 130.5 147t215.5 54q98 0 172.5 -31t120 -86t68 -126t22.5 -155v-653h-307v592q0 108 -43.5 151t-159.5 43q-113 0 -162 -44t-49 -158v-584zM520 -410h-284v11l163 256h383v-11z" />
    <glyph glyph-name="Ncaron" unicode="&#x147;" horiz-adv-x="1402" 
d="M803 1761h295v-10l-213 -256h-365l-211 256v10h295l88 -114h23zM403 0h-307v1372h328l444 -688l115 -184h21l-5 184v688h308v-1372h-328l-426 649l-133 211h-21l4 -211v-649z" />
    <glyph glyph-name="ncaron" unicode="&#x148;" 
d="M791 1147h-365l-213 256v10h295l88 -115h22l89 115h294v-10zM399 0h-305v1030h285v-180h12q44 93 130.5 147t215.5 54q98 0 172.5 -31t120 -86t68 -126t22.5 -155v-653h-307v592q0 108 -43.5 151t-159.5 43q-113 0 -162 -44t-49 -158v-584z" />
    <glyph glyph-name="Eng" unicode="&#x14a;" horiz-adv-x="1406" 
d="M858 -348h-67v276h100q70 0 91.5 14.5t21.5 59.5l-578 848h-20v-850h-308v1372h328l555 -852h23v852h305v-1292q0 -122 -31 -207t-92.5 -132.5t-140.5 -68t-187 -20.5z" />
    <glyph glyph-name="eng" unicode="&#x14b;" 
d="M399 0h-305v1030h285v-180h12q44 93 130.5 147t215.5 54q98 0 172.5 -31t120 -86t68 -126t22.5 -155v-585q0 -119 -31 -201.5t-92 -128.5t-140 -66t-187 -20h-66v276h84q82 0 103.5 17t21.5 75v572q0 108 -43.5 151t-159.5 43q-113 0 -162 -44t-49 -158v-584z" />
    <glyph glyph-name="Omacron" unicode="&#x14c;" horiz-adv-x="1447" 
d="M1040 1522h-628v213h628v-213zM725 -20q-306 0 -482.5 191.5t-176.5 514.5t176.5 515t482.5 192q305 0 481 -192t176 -515t-176 -514.5t-481 -191.5zM725 276q92 0 152 18.5t101 65.5t59 126t18 200t-18 200t-59 126t-101 65.5t-152 18.5t-152 -18.5t-102 -65.5t-60 -126
t-18 -200t18 -200t60 -126t102 -65.5t152 -18.5z" />
    <glyph glyph-name="omacron" unicode="&#x14d;" horiz-adv-x="1165" 
d="M899 1171h-629v215h629v-215zM586 -20q-247 0 -388 144t-141 390q0 248 141 392.5t388 144.5q245 0 383.5 -144.5t138.5 -392.5q0 -247 -138.5 -390.5t-383.5 -143.5zM586 250q125 0 174 57.5t49 206.5q0 150 -49 208t-174 58q-127 0 -176.5 -58t-49.5 -208
q0 -149 50 -206.5t176 -57.5z" />
    <glyph glyph-name="Obreve" unicode="&#x14e;" horiz-adv-x="1447" 
d="M725 1475q-140 0 -224.5 71t-84.5 189v28h215v-20q0 -48 19 -65t75 -17t74 17t18 65v20h215v-28q0 -118 -84.5 -189t-222.5 -71zM725 -20q-306 0 -482.5 191.5t-176.5 514.5t176.5 515t482.5 192q305 0 481 -192t176 -515t-176 -514.5t-481 -191.5zM725 276
q92 0 152 18.5t101 65.5t59 126t18 200t-18 200t-59 126t-101 65.5t-152 18.5t-152 -18.5t-102 -65.5t-60 -126t-18 -200t18 -200t60 -126t102 -65.5t152 -18.5z" />
    <glyph glyph-name="obreve" unicode="&#x14f;" horiz-adv-x="1165" 
d="M584 1126q-140 0 -225 71t-85 189v29h215v-20q0 -48 19.5 -65t75.5 -17t74 17t18 65v20h215v-29q0 -118 -84.5 -189t-222.5 -71zM586 -20q-247 0 -388 144t-141 390q0 248 141 392.5t388 144.5q245 0 383.5 -144.5t138.5 -392.5q0 -247 -138.5 -390.5t-383.5 -143.5z
M586 250q125 0 174 57.5t49 206.5q0 150 -49 208t-174 58q-127 0 -176.5 -58t-49.5 -208q0 -149 50 -206.5t176 -57.5z" />
    <glyph glyph-name="Ohungarumlaut" unicode="&#x150;" horiz-adv-x="1447" 
d="M1022 1495h-262v10l137 258h346v-10zM602 1495h-264v10l137 258h348v-10zM725 -20q-306 0 -482.5 191.5t-176.5 514.5t176.5 515t482.5 192q305 0 481 -192t176 -515t-176 -514.5t-481 -191.5zM725 276q92 0 152 18.5t101 65.5t59 126t18 200t-18 200t-59 126t-101 65.5
t-152 18.5t-152 -18.5t-102 -65.5t-60 -126t-18 -200t18 -200t60 -126t102 -65.5t152 -18.5z" />
    <glyph glyph-name="ohungarumlaut" unicode="&#x151;" horiz-adv-x="1165" 
d="M461 1147h-262v10l135 256h348v-10zM883 1147h-262v10l135 256h348v-10zM586 -20q-247 0 -388 144t-141 390q0 248 141 392.5t388 144.5q245 0 383.5 -144.5t138.5 -392.5q0 -247 -138.5 -390.5t-383.5 -143.5zM586 250q125 0 174 57.5t49 206.5q0 150 -49 208t-174 58
q-127 0 -176.5 -58t-49.5 -208q0 -149 50 -206.5t176 -57.5z" />
    <glyph glyph-name="OE" unicode="&#x152;" horiz-adv-x="2119" 
d="M2042 0h-1274q-331 0 -521 182t-190 504t190 504t521 182h1274v-276h-739v-269h708v-274h-708v-277h739v-276zM772 276h223v820h-223q-109 0 -178.5 -18t-118 -65t-68.5 -125.5t-20 -201.5t20 -201.5t68.5 -125.5t118 -65t178.5 -18z" />
    <glyph glyph-name="oe" unicode="&#x153;" horiz-adv-x="1896" 
d="M586 -20q-247 0 -388 144t-141 390q0 248 141 392.5t388 144.5q239 0 379 -140q140 140 374 140q229 0 360.5 -124.5t131.5 -328.5q0 -70 -14 -152h-707q5 -109 56 -154.5t175 -45.5q92 0 134.5 21.5t42.5 68.5v12h303v-20q0 -163 -130.5 -255.5t-353.5 -92.5
q-249 0 -379 133q-139 -133 -372 -133zM1329 799q-107 0 -157.5 -41t-59.5 -125h424q5 80 -48 123t-159 43zM586 250q125 0 174 57.5t49 206.5q0 150 -49 208t-174 58q-127 0 -176.5 -58t-49.5 -208q0 -149 50 -206.5t176 -57.5z" />
    <glyph glyph-name="Racute" unicode="&#x154;" horiz-adv-x="1310" 
d="M819 1495h-325v10l227 258h418v-10zM403 0h-307v1372h631q245 0 377.5 -109t132.5 -309q0 -347 -346 -376v-21q84 -26 134.5 -76.5t94.5 -136.5l174 -344h-358l-162 317q-25 50 -44.5 78t-47.5 51t-65 32t-91 9h-123v-487zM403 1096v-355h338q107 0 149 39t42 140
q0 98 -42 137t-149 39h-338z" />
    <glyph glyph-name="racute" unicode="&#x155;" horiz-adv-x="1009" 
d="M717 1147h-326v10l227 256h418v-10zM399 0h-305v1030h285v-166h12q41 85 113.5 136t175.5 51q78 0 136 -28t92.5 -78.5t50.5 -115.5t16 -145v-94h-305v55q0 82 -29 114t-102 32t-106.5 -32t-33.5 -114v-645z" />
    <glyph glyph-name="Rcommaaccent" unicode="&#x156;" horiz-adv-x="1310" 
d="M403 0h-307v1372h631q245 0 377.5 -109t132.5 -309q0 -347 -346 -376v-21q84 -26 134.5 -76.5t94.5 -136.5l174 -344h-358l-162 317q-25 50 -44.5 78t-47.5 51t-65 32t-91 9h-123v-487zM403 1096v-355h338q107 0 149 39t42 140q0 98 -42 137t-149 39h-338zM551 -410h-285
v11l164 256h383v-11z" />
    <glyph glyph-name="rcommaaccent" unicode="&#x157;" horiz-adv-x="1009" 
d="M399 0h-305v1030h285v-166h12q41 85 113.5 136t175.5 51q78 0 136 -28t92.5 -78.5t50.5 -115.5t16 -145v-94h-305v55q0 82 -29 114t-102 32t-106.5 -32t-33.5 -114v-645zM168 -410h-285v11l164 256h383v-11z" />
    <glyph glyph-name="Rcaron" unicode="&#x158;" horiz-adv-x="1310" 
d="M735 1761h295v-10l-213 -256h-364l-211 256v10h295l88 -114h22zM403 0h-307v1372h631q245 0 377.5 -109t132.5 -309q0 -347 -346 -376v-21q84 -26 134.5 -76.5t94.5 -136.5l174 -344h-358l-162 317q-25 50 -44.5 78t-47.5 51t-65 32t-91 9h-123v-487zM403 1096v-355h338
q107 0 149 39t42 140q0 98 -42 137t-149 39h-338z" />
    <glyph glyph-name="rcaron" unicode="&#x159;" horiz-adv-x="1009" 
d="M717 1147h-365l-213 256v10h295l88 -115h23l88 115h295v-10zM399 0h-305v1030h285v-166h12q41 85 113.5 136t175.5 51q78 0 136 -28t92.5 -78.5t50.5 -115.5t16 -145v-94h-305v55q0 82 -29 114t-102 32t-106.5 -32t-33.5 -114v-645z" />
    <glyph glyph-name="Sacute" unicode="&#x15a;" horiz-adv-x="1267" 
d="M817 1495h-325v10l227 258h418v-10zM686 -20q-590 0 -590 466v27h301v-20q0 -79 24.5 -119t88.5 -58t190 -18q127 0 172.5 28t45.5 99q0 38 -6 59.5t-28 41t-64 32.5t-115 25l-242 43q-193 33 -283 130.5t-90 260.5q0 65 18.5 124t61 112.5t104.5 93t155.5 63t207.5 23.5
q280 0 417.5 -129.5t137.5 -345.5v-17h-303v23q0 108 -55.5 149t-206.5 41q-129 0 -180.5 -29.5t-51.5 -95.5q0 -65 37 -90t160 -49l244 -47q207 -39 297 -143.5t90 -264.5q0 -85 -30 -157.5t-92 -131.5t-168 -92.5t-247 -33.5z" />
    <glyph glyph-name="sacute" unicode="&#x15b;" horiz-adv-x="1034" 
d="M700 1147h-325v10l227 256h418v-10zM547 -20q-243 0 -362 91.5t-119 278.5v6h292v-43q0 -56 40 -74t155 -18q90 0 117.5 15t27.5 55t-30.5 56.5t-135.5 35.5l-155 29q-158 29 -236 102t-78 211q0 147 117.5 236.5t331.5 89.5q196 0 320 -91.5t124 -259.5v-28h-292v28
q0 55 -33.5 80t-126.5 25q-88 0 -120 -18.5t-32 -57.5q0 -37 25.5 -53t116.5 -35l188 -39q161 -30 234 -104.5t73 -202.5q0 -147 -115.5 -231t-326.5 -84z" />
    <glyph glyph-name="Scircumflex" unicode="&#x15c;" horiz-adv-x="1267" 
d="M532 1495h-294v10l213 256h364l211 -256v-10h-295l-88 115h-22zM686 -20q-590 0 -590 466v27h301v-20q0 -79 24.5 -119t88.5 -58t190 -18q127 0 172.5 28t45.5 99q0 38 -6 59.5t-28 41t-64 32.5t-115 25l-242 43q-193 33 -283 130.5t-90 260.5q0 65 18.5 124t61 112.5
t104.5 93t155.5 63t207.5 23.5q280 0 417.5 -129.5t137.5 -345.5v-17h-303v23q0 108 -55.5 149t-206.5 41q-129 0 -180.5 -29.5t-51.5 -95.5q0 -65 37 -90t160 -49l244 -47q207 -39 297 -143.5t90 -264.5q0 -85 -30 -157.5t-92 -131.5t-168 -92.5t-247 -33.5z" />
    <glyph glyph-name="scircumflex" unicode="&#x15d;" horiz-adv-x="1034" 
d="M418 1147h-295v10l213 256h364l211 -256v-10h-295l-88 115h-22zM547 -20q-243 0 -362 91.5t-119 278.5v6h292v-43q0 -56 40 -74t155 -18q90 0 117.5 15t27.5 55t-30.5 56.5t-135.5 35.5l-155 29q-158 29 -236 102t-78 211q0 147 117.5 236.5t331.5 89.5q196 0 320 -91.5
t124 -259.5v-28h-292v28q0 55 -33.5 80t-126.5 25q-88 0 -120 -18.5t-32 -57.5q0 -37 25.5 -53t116.5 -35l188 -39q161 -30 234 -104.5t73 -202.5q0 -147 -115.5 -231t-326.5 -84z" />
    <glyph glyph-name="Scedilla" unicode="&#x15e;" horiz-adv-x="1267" 
d="M711 -469h-209v162h205q31 0 44 8.5t13 28.5q0 22 -12.5 29.5t-44.5 7.5h-156v219q-455 52 -455 460v27h301v-20q0 -79 24.5 -119t88.5 -58t190 -18q127 0 172.5 28t45.5 99q0 38 -6 59.5t-28 41t-64 32.5t-115 25l-242 43q-193 33 -283 130.5t-90 260.5q0 65 18.5 124
t61 112.5t104.5 93t155.5 63t207.5 23.5q280 0 417.5 -129.5t137.5 -345.5v-17h-303v23q0 108 -55.5 149t-206.5 41q-129 0 -180.5 -29.5t-51.5 -95.5q0 -65 37 -90t160 -49l244 -47q207 -39 297 -143.5t90 -264.5q0 -84 -28.5 -155t-87.5 -129.5t-159.5 -93t-234.5 -37.5
v-68h10q105 0 163 -50t58 -136q0 -90 -61 -142.5t-172 -52.5z" />
    <glyph glyph-name="scedilla" unicode="&#x15f;" horiz-adv-x="1034" 
d="M594 -469h-209v162h205q31 0 44 8.5t13 28.5q0 22 -12.5 29.5t-44.5 7.5h-156v219q-186 20 -277 110t-91 254v6h292v-43q0 -56 40 -74t155 -18q90 0 117.5 15t27.5 55t-30.5 56.5t-135.5 35.5l-155 29q-158 29 -236 102t-78 211q0 147 117.5 236.5t331.5 89.5
q196 0 320 -91.5t124 -259.5v-28h-292v28q0 55 -33.5 80t-126.5 25q-88 0 -120 -18.5t-32 -57.5q0 -37 25.5 -53t116.5 -35l188 -39q161 -30 234 -104.5t73 -202.5q0 -137 -102.5 -220.5t-290.5 -92.5v-70h10q105 0 163 -50t58 -136q0 -90 -61 -142.5t-172 -52.5z" />
    <glyph glyph-name="Scaron" unicode="&#x160;" horiz-adv-x="1267" 
d="M733 1761h295v-10l-213 -256h-364l-211 256v10h295l88 -114h22zM686 -20q-590 0 -590 466v27h301v-20q0 -79 24.5 -119t88.5 -58t190 -18q127 0 172.5 28t45.5 99q0 38 -6 59.5t-28 41t-64 32.5t-115 25l-242 43q-193 33 -283 130.5t-90 260.5q0 65 18.5 124t61 112.5
t104.5 93t155.5 63t207.5 23.5q280 0 417.5 -129.5t137.5 -345.5v-17h-303v23q0 108 -55.5 149t-206.5 41q-129 0 -180.5 -29.5t-51.5 -95.5q0 -65 37 -90t160 -49l244 -47q207 -39 297 -143.5t90 -264.5q0 -85 -30 -157.5t-92 -131.5t-168 -92.5t-247 -33.5z" />
    <glyph glyph-name="scaron" unicode="&#x161;" horiz-adv-x="1034" 
d="M700 1147h-364l-213 256v10h295l88 -115h22l88 115h295v-10zM547 -20q-243 0 -362 91.5t-119 278.5v6h292v-43q0 -56 40 -74t155 -18q90 0 117.5 15t27.5 55t-30.5 56.5t-135.5 35.5l-155 29q-158 29 -236 102t-78 211q0 147 117.5 236.5t331.5 89.5q196 0 320 -91.5
t124 -259.5v-28h-292v28q0 55 -33.5 80t-126.5 25q-88 0 -120 -18.5t-32 -57.5q0 -37 25.5 -53t116.5 -35l188 -39q161 -30 234 -104.5t73 -202.5q0 -147 -115.5 -231t-326.5 -84z" />
    <glyph glyph-name="Tcedilla" unicode="&#x162;" horiz-adv-x="1200" 
d="M754 0h-84v-88h10q105 0 163 -50t58 -136q0 -90 -61 -142.5t-172 -52.5h-209v162h205q31 0 44 8.5t13 28.5q0 22 -12.5 29.5t-44.5 7.5h-156v233h-62v1096h-442v276h1192v-276h-442v-1096z" />
    <glyph glyph-name="tcedilla" unicode="&#x163;" horiz-adv-x="819" 
d="M569 -4q-35 0 -51 2v-86h10q105 0 163.5 -50t58.5 -136q0 -90 -61.5 -142.5t-172.5 -52.5h-209v162h205q31 0 44 8.5t13 28.5q0 22 -12.5 29.5t-44.5 7.5h-156v239h80q-135 23 -199.5 103.5t-64.5 228.5v438h-164v254h172l58 240h241v-240h291v-254h-291v-403
q0 -66 30.5 -83.5t133.5 -17.5h127v-256q-98 -20 -201 -20z" />
    <glyph glyph-name="Tcaron" unicode="&#x164;" horiz-adv-x="1200" 
d="M700 1761h295v-10l-213 -256h-364l-211 256v10h295l88 -114h22zM754 0h-308v1096h-442v276h1192v-276h-442v-1096z" />
    <glyph glyph-name="tcaron" unicode="&#x165;" horiz-adv-x="819" 
d="M635 1083h-96v183h88q30 0 42.5 11t12.5 46v33h-156v319h355v-348q0 -122 -63 -183t-183 -61zM569 -4q-204 0 -300.5 80.5t-96.5 261.5v438h-164v254h172l58 240h241v-240h291v-254h-291v-403q0 -66 30.5 -83.5t133.5 -17.5h127v-256q-98 -20 -201 -20z" />
    <glyph glyph-name="Tbar" unicode="&#x166;" horiz-adv-x="1200" 
d="M754 0h-308v539h-342v276h342v281h-442v276h1192v-276h-442v-281h344v-276h-344v-539z" />
    <glyph glyph-name="tbar" unicode="&#x167;" horiz-adv-x="825" 
d="M8 414v250h170v116h-170v250h178l58 240h241v-240h291v-250h-291v-116h291v-250h-291v-41q0 -66 30.5 -83.5t133.5 -17.5h127v-256q-98 -20 -201 -20q-204 0 -300.5 80.5t-96.5 261.5v76h-170z" />
    <glyph glyph-name="Utilde" unicode="&#x168;" horiz-adv-x="1382" 
d="M535 1489h-205v80q0 219 176 219q48 0 135 -37l98 -41q57 -24 76 -24q18 0 25.5 9.5t7.5 35.5v36h205v-94q0 -87 -39.5 -145t-128.5 -58q-10 0 -21.5 1t-20 2.5t-21 5t-19.5 5.5t-20.5 7t-18.5 6.5t-20.5 8t-18.5 7.5l-104 43q-47 19 -58 19q-28 0 -28 -41v-45zM692 -20
q-294 0 -448 147t-154 408v837h305v-833q0 -149 64 -206t233 -57q168 0 231.5 57.5t63.5 205.5v833h307v-837q0 -261 -154 -408t-448 -147z" />
    <glyph glyph-name="utilde" unicode="&#x169;" 
d="M442 1143h-204v80q0 217 176 217q44 0 135 -35l98 -43q54 -23 76 -23q18 0 25.5 9.5t7.5 33.5v39h205v-96q0 -86 -39.5 -143.5t-128.5 -57.5q-55 0 -160 41l-105 45q-8 3 -21 8t-21 7t-15 2q-29 0 -29 -39v-45zM471 -20q-192 0 -287.5 110.5t-95.5 286.5v653h305v-592
q0 -108 44 -151t159 -43q113 0 162 44t49 158v584h305v-1030h-285v180h-10q-96 -200 -346 -200z" />
    <glyph glyph-name="Umacron" unicode="&#x16a;" horiz-adv-x="1382" 
d="M1006 1522h-629v213h629v-213zM692 -20q-294 0 -448 147t-154 408v837h305v-833q0 -149 64 -206t233 -57q168 0 231.5 57.5t63.5 205.5v833h307v-837q0 -261 -154 -408t-448 -147z" />
    <glyph glyph-name="umacron" unicode="&#x16b;" 
d="M915 1171h-628v215h628v-215zM471 -20q-192 0 -287.5 110.5t-95.5 286.5v653h305v-592q0 -108 44 -151t159 -43q113 0 162 44t49 158v584h305v-1030h-285v180h-10q-96 -200 -346 -200z" />
    <glyph glyph-name="Ubreve" unicode="&#x16c;" horiz-adv-x="1382" 
d="M692 1475q-140 0 -224.5 71t-84.5 189v28h215v-20q0 -48 19 -65t75 -17t74 17t18 65v20h215v-28q0 -118 -84.5 -189t-222.5 -71zM692 -20q-294 0 -448 147t-154 408v837h305v-833q0 -149 64 -206t233 -57q168 0 231.5 57.5t63.5 205.5v833h307v-837q0 -261 -154 -408
t-448 -147z" />
    <glyph glyph-name="ubreve" unicode="&#x16d;" 
d="M600 1126q-140 0 -224.5 71t-84.5 189v29h215v-20q0 -48 19 -65t75 -17t74 17t18 65v20h215v-29q0 -118 -84.5 -189t-222.5 -71zM471 -20q-192 0 -287.5 110.5t-95.5 286.5v653h305v-592q0 -108 44 -151t159 -43q113 0 162 44t49 158v584h305v-1030h-285v180h-10
q-96 -200 -346 -200z" />
    <glyph glyph-name="Uring" unicode="&#x16e;" horiz-adv-x="1382" 
d="M692 1462q-94 0 -151.5 48.5t-57.5 131.5t57.5 132t151.5 49t151.5 -49t57.5 -132t-57.5 -131.5t-151.5 -48.5zM692 1587q46 0 62 11.5t16 43.5t-16 44t-62 12t-62 -12t-16 -44t16 -43.5t62 -11.5zM692 -20q-294 0 -448 147t-154 408v837h305v-833q0 -149 64 -206
t233 -57q168 0 231.5 57.5t63.5 205.5v833h307v-837q0 -261 -154 -408t-448 -147z" />
    <glyph glyph-name="uring" unicode="&#x16f;" 
d="M600 1114q-94 0 -151.5 48.5t-57.5 131.5t57.5 132t151.5 49t151.5 -49t57.5 -132t-57.5 -131.5t-151.5 -48.5zM600 1239q46 0 62 11.5t16 43.5t-16 44t-62 12t-62 -12t-16 -44t16 -43.5t62 -11.5zM471 -20q-192 0 -287.5 110.5t-95.5 286.5v653h305v-592q0 -108 44 -151
t159 -43q113 0 162 44t49 158v584h305v-1030h-285v180h-10q-96 -200 -346 -200z" />
    <glyph glyph-name="Uhungarumlaut" unicode="&#x170;" horiz-adv-x="1382" 
d="M989 1495h-262v10l137 258h346v-10zM569 1495h-264v10l137 258h349v-10zM692 -20q-294 0 -448 147t-154 408v837h305v-833q0 -149 64 -206t233 -57q168 0 231.5 57.5t63.5 205.5v833h307v-837q0 -261 -154 -408t-448 -147z" />
    <glyph glyph-name="uhungarumlaut" unicode="&#x171;" 
d="M477 1147h-262v10l135 256h348v-10zM899 1147h-262v10l135 256h348v-10zM471 -20q-192 0 -287.5 110.5t-95.5 286.5v653h305v-592q0 -108 44 -151t159 -43q113 0 162 44t49 158v584h305v-1030h-285v180h-10q-96 -200 -346 -200z" />
    <glyph glyph-name="Uogonek" unicode="&#x172;" horiz-adv-x="1382" 
d="M887 -383h-193q-196 0 -196 139q0 83 96 187l35 39q-265 17 -402 161.5t-137 391.5v837h305v-833q0 -149 64 -206t233 -57q168 0 231.5 57.5t63.5 205.5v833h307v-837q0 -226 -115.5 -367.5t-338.5 -177.5l-82 -105q-27 -29 -27 -55q0 -29 47 -29h109v-184z" />
    <glyph glyph-name="uogonek" unicode="&#x173;" 
d="M471 -20q-192 0 -287.5 110.5t-95.5 286.5v653h305v-592q0 -108 44 -151t159 -43q113 0 162 44t49 158v584h305v-1030l-90 -115q-27 -29 -27 -55q0 -29 47 -29h109v-184h-193q-196 0 -196 139q0 83 96 187l51 57h-82v180h-10q-96 -200 -346 -200z" />
    <glyph glyph-name="Wcircumflex" unicode="&#x174;" horiz-adv-x="2019" 
d="M909 1495h-295v10l213 256h365l211 -256v-10h-295l-88 115h-23zM743 0h-450l-277 1372h357l104 -618l49 -453h23l84 453l162 618h436l162 -614l86 -457h22l49 457l105 614h348l-277 -1372h-448l-166 608l-92 434h-21l-92 -434z" />
    <glyph glyph-name="wcircumflex" unicode="&#x175;" horiz-adv-x="1708" 
d="M756 1147h-295v10l213 256h364l211 -256v-10h-295l-88 115h-22zM657 0h-401l-240 1030h338l68 -475l39 -309h22l58 309l125 475h391l127 -477l55 -307h21l36 307l72 477h324l-240 -1030h-401l-133 489l-52 271h-22l-51 -271z" />
    <glyph glyph-name="Ycircumflex" unicode="&#x176;" horiz-adv-x="1368" 
d="M584 1495h-295v10l213 256h364l211 -256v-10h-295l-88 115h-22zM838 0h-308v496l-534 876h348l215 -360l119 -203h20l117 203l215 360h342l-534 -876v-496z" />
    <glyph glyph-name="ycircumflex" unicode="&#x177;" horiz-adv-x="1185" 
d="M494 1147h-295v10l213 256h364l211 -256v-10h-295l-88 115h-22zM309 -348q-93 0 -188 22v254h172q61 0 87.5 14t49.5 62l19 39l-433 987h342l168 -430l74 -199h23l63 199l145 430h343l-459 -1102q-65 -155 -157.5 -215.5t-248.5 -60.5z" />
    <glyph glyph-name="Ydieresis" unicode="&#x178;" horiz-adv-x="1368" 
d="M1047 1495h-302v270h302v-270zM623 1495h-301v270h301v-270zM838 0h-308v496l-534 876h348l215 -360l119 -203h20l117 203l215 360h342l-534 -876v-496z" />
    <glyph glyph-name="Zacute" unicode="&#x179;" horiz-adv-x="1232" 
d="M801 1495h-326v10l227 258h418v-10zM1192 0h-1151v254l704 821v21h-665v276h1083v-254l-710 -821v-21h739v-276z" />
    <glyph glyph-name="zacute" unicode="&#x17a;" horiz-adv-x="1120" 
d="M743 1147h-325v10l227 256h418v-10zM1063 0h-1006v236l412 385l147 122l-2 23l-145 -4h-381v268h944v-258l-430 -379l-129 -106l2 -21l127 2h461v-268z" />
    <glyph glyph-name="Zdotaccent" unicode="&#x17b;" horiz-adv-x="1232" 
d="M770 1495h-305v270h305v-270zM1192 0h-1151v254l704 821v21h-665v276h1083v-254l-710 -821v-21h739v-276z" />
    <glyph glyph-name="zdotaccent" unicode="&#x17c;" horiz-adv-x="1120" 
d="M713 1147h-305v270h305v-270zM1063 0h-1006v236l412 385l147 122l-2 23l-145 -4h-381v268h944v-258l-430 -379l-129 -106l2 -21l127 2h461v-268z" />
    <glyph glyph-name="Zcaron" unicode="&#x17d;" horiz-adv-x="1232" 
d="M717 1761h295v-10l-213 -256h-365l-211 256v10h295l88 -114h23zM1192 0h-1151v254l704 821v21h-665v276h1083v-254l-710 -821v-21h739v-276z" />
    <glyph glyph-name="zcaron" unicode="&#x17e;" horiz-adv-x="1120" 
d="M743 1147h-364l-213 256v10h295l88 -115h22l88 115h295v-10zM1063 0h-1006v236l412 385l147 122l-2 23l-145 -4h-381v268h944v-258l-430 -379l-129 -106l2 -21l127 2h461v-268z" />
    <glyph glyph-name="florin" unicode="&#x192;" horiz-adv-x="880" 
d="M-29 -348h-112l49 276h78q124 0 166 30.5t61 133.5l80 457h-215l47 274h217l16 97q41 235 183 343.5t409 108.5h70l-47 -276h-78q-125 0 -167.5 -30.5t-61.5 -133.5l-19 -109h277l-50 -274h-274l-78 -445q-44 -249 -170 -350.5t-381 -101.5z" />
    <glyph glyph-name="AEacute" unicode="&#x1fc;" horiz-adv-x="2240" 
d="M1540 1495h-326v10l228 258h418v-10zM377 0h-381l930 1372h1237v-276h-740v-269h709v-274h-709v-277h740v-276h-1047v303h-543zM1098 1108l-344 -528h362v528h-18z" />
    <glyph glyph-name="aeacute" unicode="&#x1fd;" horiz-adv-x="1814" 
d="M1083 1147h-325v10l227 256h418v-10zM414 -20q-168 0 -263.5 71.5t-95.5 212.5q0 119 83 192.5t241 96.5l356 53v33q0 85 -43 114t-141 29q-94 0 -134 -32t-40 -109v-23h-295v25q0 185 131.5 296.5t349.5 111.5q224 0 346 -119q138 119 359 119q223 0 352 -125.5
t129 -329.5q0 -84 -12 -154h-711q6 -111 59 -153.5t175 -42.5q93 0 135.5 21.5t42.5 68.5v12h303v-20q0 -163 -131 -255.5t-353 -92.5q-292 0 -423 182q-63 -87 -173 -134.5t-247 -47.5zM1247 795q-106 0 -157 -40t-60 -122h426q2 78 -51.5 120t-157.5 42zM348 287
q0 -39 33 -56.5t104 -17.5q260 0 260 195l-305 -48q-48 -8 -70 -24.5t-22 -48.5z" />
    <glyph glyph-name="Oslashacute" unicode="&#x1fe;" horiz-adv-x="1447" 
d="M858 1495h-326v10l228 258h418v-10zM725 -20q-251 0 -420 133l-176 -176l-158 151l191 193q-96 175 -96 405q0 323 176.5 515t482.5 192q246 0 416 -131l176 178l158 -152l-191 -192q98 -173 98 -410q0 -323 -176 -514.5t-481 -191.5zM393 686q0 -89 13 -162l526 529
q-71 43 -207 43q-92 0 -152 -18.5t-102 -65.5t-60 -126t-18 -200zM725 276q92 0 152 18.5t101 65.5t59 126t18 200q0 92 -13 168l-528 -530q70 -48 211 -48z" />
    <glyph glyph-name="oslashacute" unicode="&#x1ff;" horiz-adv-x="1165" 
d="M731 1147h-325v10l227 256h418v-10zM586 -20q-209 0 -346 106l-152 -137l-113 123l156 141q-74 124 -74 301q0 248 141 392.5t388 144.5q207 0 342 -107l147 133l113 -123l-152 -139q72 -126 72 -301q0 -247 -138.5 -390.5t-383.5 -143.5zM360 514q0 -24 5 -86l356 326
q-48 26 -135 26q-127 0 -176.5 -58t-49.5 -208zM586 250q125 0 174 57.5t49 206.5q0 36 -4 90l-359 -328q51 -26 140 -26z" />
    <glyph glyph-name="Scommaaccent" unicode="&#x218;" horiz-adv-x="1267" 
d="M686 -20q-590 0 -590 466v27h301v-20q0 -79 24.5 -119t88.5 -58t190 -18q127 0 172.5 28t45.5 99q0 38 -6 59.5t-28 41t-64 32.5t-115 25l-242 43q-193 33 -283 130.5t-90 260.5q0 65 18.5 124t61 112.5t104.5 93t155.5 63t207.5 23.5q280 0 417.5 -129.5t137.5 -345.5
v-17h-303v23q0 108 -55.5 149t-206.5 41q-129 0 -180.5 -29.5t-51.5 -95.5q0 -65 37 -90t160 -49l244 -47q207 -39 297 -143.5t90 -264.5q0 -85 -30 -157.5t-92 -131.5t-168 -92.5t-247 -33.5zM555 -410h-285v11l164 256h383v-11z" />
    <glyph glyph-name="scommaaccent" unicode="&#x219;" horiz-adv-x="1034" 
d="M547 -20q-243 0 -362 91.5t-119 278.5v6h292v-43q0 -56 40 -74t155 -18q90 0 117.5 15t27.5 55t-30.5 56.5t-135.5 35.5l-155 29q-158 29 -236 102t-78 211q0 147 117.5 236.5t331.5 89.5q196 0 320 -91.5t124 -259.5v-28h-292v28q0 55 -33.5 80t-126.5 25
q-88 0 -120 -18.5t-32 -57.5q0 -37 25.5 -53t116.5 -35l188 -39q161 -30 234 -104.5t73 -202.5q0 -147 -115.5 -231t-326.5 -84zM440 -410h-284v11l163 256h383v-11z" />
    <glyph glyph-name="Tcommaaccent" unicode="&#x21a;" horiz-adv-x="1200" 
d="M754 0h-308v1096h-442v276h1192v-276h-442v-1096zM514 -410h-285v11l164 256h383v-11z" />
    <glyph glyph-name="tcommaaccent" unicode="&#x21b;" horiz-adv-x="819" 
d="M569 -4q-204 0 -300.5 80.5t-96.5 261.5v438h-164v254h172l58 240h241v-240h291v-254h-291v-403q0 -66 30.5 -83.5t133.5 -17.5h127v-256q-98 -20 -201 -20zM360 -410h-284v11l164 256h383v-11z" />
    <glyph glyph-name="dotlessj" unicode="&#x237;" horiz-adv-x="499" 
d="M-100 -344v258h82q75 0 95.5 16.5t20.5 73.5v1026h308v-979q0 -114 -29 -193t-86 -123.5t-130.5 -63.5t-172.5 -19q-34 0 -88 4z" />
    <glyph glyph-name="circumflex" unicode="&#x2c6;" horiz-adv-x="1228" 
d="M485 1147h-295v10l213 256h365l211 -256v-10h-295l-88 115h-23z" />
    <glyph glyph-name="caron" unicode="&#x2c7;" horiz-adv-x="1228" 
d="M768 1147h-365l-213 256v10h295l88 -115h23l88 115h295v-10z" />
    <glyph glyph-name="breve" unicode="&#x2d8;" horiz-adv-x="1228" 
d="M578 1126q-140 0 -225 71t-85 189v29h215v-20q0 -48 19.5 -65t75.5 -17t74 17t18 65v20h215v-29q0 -118 -84.5 -189t-222.5 -71z" />
    <glyph glyph-name="dotaccent" unicode="&#x2d9;" horiz-adv-x="1228" 
d="M700 1147h-305v270h305v-270z" />
    <glyph glyph-name="ring" unicode="&#x2da;" horiz-adv-x="1228" 
d="M553 1114q-94 0 -151.5 48.5t-57.5 131.5t57.5 132t151.5 49t151.5 -49t57.5 -132t-57.5 -131.5t-151.5 -48.5zM553 1239q46 0 62 11.5t16 43.5t-16 44t-62 12t-62 -12t-16 -44t16 -43.5t62 -11.5z" />
    <glyph glyph-name="ogonek" unicode="&#x2db;" horiz-adv-x="1228" 
d="M745 -383h-192q-197 0 -197 139q0 82 97 187l51 57h203l-91 -115q-26 -28 -26 -55q0 -29 47 -29h108v-184z" />
    <glyph glyph-name="tilde" unicode="&#x2dc;" horiz-adv-x="1228" 
d="M432 1143h-205v80q0 217 176 217q45 0 136 -35l98 -43q54 -23 76 -23q18 0 25 9.5t7 33.5v39h205v-96q0 -86 -39.5 -143.5t-128.5 -57.5q-54 0 -159 41l-105 45q-8 3 -21 8t-21 7t-15 2q-29 0 -29 -39v-45z" />
    <glyph glyph-name="hungarumlaut" unicode="&#x2dd;" horiz-adv-x="1228" 
d="M426 1147h-262v10l135 256h348v-10zM848 1147h-262v10l135 256h348v-10z" />
    <glyph glyph-name="gravecomb" unicode="&#x300;" horiz-adv-x="1163" 
d="M866 1147h-325l-320 256v10h418l227 -256v-10z" />
    <glyph glyph-name="acutecomb" unicode="&#x301;" horiz-adv-x="1163" 
d="M629 1147h-326v10l227 256h418v-10z" />
    <glyph glyph-name="circumflexcomb" unicode="&#x302;" horiz-adv-x="1171" 
d="M485 1147h-295v10l213 256h365l211 -256v-10h-295l-88 115h-23z" />
    <glyph glyph-name="tildecomb" unicode="&#x303;" horiz-adv-x="1179" 
d="M432 1143h-205v80q0 217 176 217q45 0 136 -35l98 -43q54 -23 76 -23q18 0 25 9.5t7 33.5v39h205v-96q0 -86 -39.5 -143.5t-128.5 -57.5q-54 0 -159 41l-105 45q-8 3 -21 8t-21 7t-15 2q-29 0 -29 -39v-45z" />
    <glyph glyph-name="macroncomb" unicode="&#x304;" horiz-adv-x="1155" 
d="M893 1171h-629v215h629v-215z" />
    <glyph glyph-name="brevecomb" unicode="&#x306;" horiz-adv-x="1153" 
d="M578 1126q-140 0 -225 71t-85 189v29h215v-20q0 -48 19.5 -65t75.5 -17t74 17t18 65v20h215v-29q0 -118 -84.5 -189t-222.5 -71z" />
    <glyph glyph-name="dotaccentcomb" unicode="&#x307;" horiz-adv-x="1095" 
d="M700 1147h-305v270h305v-270z" />
    <glyph glyph-name="dieresiscomb" unicode="&#x308;" horiz-adv-x="1179" 
d="M954 1147h-303v270h303v-270zM528 1147h-301v270h301v-270z" />
    <glyph glyph-name="ringcomb" unicode="&#x30a;" horiz-adv-x="1105" 
d="M553 1114q-94 0 -151.5 48.5t-57.5 131.5t57.5 132t151.5 49t151.5 -49t57.5 -132t-57.5 -131.5t-151.5 -48.5zM553 1239q46 0 62 11.5t16 43.5t-16 44t-62 12t-62 -12t-16 -44t16 -43.5t62 -11.5z" />
    <glyph glyph-name="hungarumlautcomb" unicode="&#x30b;" horiz-adv-x="1222" 
d="M426 1147h-262v10l135 256h348v-10zM848 1147h-262v10l135 256h348v-10z" />
    <glyph glyph-name="caroncomb" unicode="&#x30c;" horiz-adv-x="1171" 
d="M768 1147h-365l-213 256v10h295l88 -115h23l88 115h295v-10z" />
    <glyph glyph-name="commaturnedabovecomb" unicode="&#x312;" horiz-adv-x="1228" 
d="M643 1413h285v-10l-164 -256h-385v10z" />
    <glyph glyph-name="commaaccentcomb" unicode="&#x326;" horiz-adv-x="1150" 
d="M565 -410h-284v11l163 256h383v-11z" />
    <glyph glyph-name="cedillacomb" unicode="&#x327;" horiz-adv-x="1132" 
d="M569 -469h-209v162h205q31 0 44.5 8.5t13.5 28.5q0 22 -13 29.5t-45 7.5h-155v239h161v-94h11q105 0 163 -50t58 -136q0 -90 -61.5 -142.5t-172.5 -52.5z" />
    <glyph glyph-name="ogonekcomb" unicode="&#x328;" horiz-adv-x="1103" 
d="M745 -383h-192q-197 0 -197 139q0 82 97 187l51 57h203l-91 -115q-26 -28 -26 -55q0 -29 47 -29h108v-184z" />
    <glyph glyph-name="strokeshortcomb" unicode="&#x335;" horiz-adv-x="1239" 
d="M1008 1016h-861v227h861v-227z" />
    <glyph glyph-name="strokelongcomb" unicode="&#x336;" horiz-adv-x="1280" 
d="M1397 967h-1516v266h1516v-266z" />
    <glyph glyph-name="slashshortcomb" unicode="&#x337;" horiz-adv-x="1132" 
d="M952 868l-686 -325l-86 176l686 325z" />
    <glyph glyph-name="slashlongcomb" unicode="&#x338;" horiz-adv-x="1220" 
d="M1217 954l-1100 -1005l-113 123l1100 1005z" />
    <glyph glyph-name="Omega" unicode="&#x3a9;" horiz-adv-x="1513" 
d="M690 0h-610v276h182q-196 135 -196 443q0 126 46.5 236.5t133 194.5t219 132.5t293.5 48.5t293.5 -48.5t219 -132.5t133 -194.5t46.5 -236.5q0 -308 -199 -443h185v-276h-611v276h33q80 3 133.5 33t80.5 84.5t37.5 115.5t10.5 144q0 203 -89 292t-273 89
q-183 0 -274 -90.5t-91 -290.5q0 -65 6 -116t23.5 -101t46.5 -83t77 -54t113 -23h31v-276z" />
    <glyph glyph-name="pi" unicode="&#x3c0;" horiz-adv-x="1466" 
d="M238 0v776h-230v254h1364v-254h-246v-411q0 -66 30.5 -83.5t133.5 -17.5h82v-256q-75 -20 -155 -20q-204 0 -301 81t-97 261v446h-274v-776h-307z" />
    <glyph glyph-name="Wgrave" unicode="&#x1e80;" horiz-adv-x="2019" 
d="M1163 1495h-325l-320 258v10h418l227 -258v-10zM743 0h-450l-277 1372h357l104 -618l49 -453h23l84 453l162 618h436l162 -614l86 -457h22l49 457l105 614h348l-277 -1372h-448l-166 608l-92 434h-21l-92 -434z" />
    <glyph glyph-name="wgrave" unicode="&#x1e81;" horiz-adv-x="1708" 
d="M1047 1147h-326l-320 256v10h418l228 -256v-10zM657 0h-401l-240 1030h338l68 -475l39 -309h22l58 309l125 475h391l127 -477l55 -307h21l36 307l72 477h324l-240 -1030h-401l-133 489l-52 271h-22l-51 -271z" />
    <glyph glyph-name="Wacute" unicode="&#x1e82;" horiz-adv-x="2019" 
d="M1194 1495h-326v10l228 258h417v-10zM743 0h-450l-277 1372h357l104 -618l49 -453h23l84 453l162 618h436l162 -614l86 -457h22l49 457l105 614h348l-277 -1372h-448l-166 608l-92 434h-21l-92 -434z" />
    <glyph glyph-name="wacute" unicode="&#x1e83;" horiz-adv-x="1708" 
d="M1038 1147h-325v10l227 256h418v-10zM657 0h-401l-240 1030h338l68 -475l39 -309h22l58 309l125 475h391l127 -477l55 -307h21l36 307l72 477h324l-240 -1030h-401l-133 489l-52 271h-22l-51 -271z" />
    <glyph glyph-name="Wdieresis" unicode="&#x1e84;" horiz-adv-x="2019" 
d="M1372 1495h-301v270h301v-270zM948 1495h-301v270h301v-270zM743 0h-450l-277 1372h357l104 -618l49 -453h23l84 453l162 618h436l162 -614l86 -457h22l49 457l105 614h348l-277 -1372h-448l-166 608l-92 434h-21l-92 -434z" />
    <glyph glyph-name="wdieresis" unicode="&#x1e85;" horiz-adv-x="1708" 
d="M1219 1147h-304v270h304v-270zM793 1147h-301v270h301v-270zM657 0h-401l-240 1030h338l68 -475l39 -309h22l58 309l125 475h391l127 -477l55 -307h21l36 307l72 477h324l-240 -1030h-401l-133 489l-52 271h-22l-51 -271z" />
    <glyph glyph-name="Etilde" unicode="&#x1ebc;" horiz-adv-x="1220" 
d="M463 1489h-205v80q0 219 176 219q48 0 135 -37l99 -41q57 -24 75 -24t25.5 9.5t7.5 35.5v36h205v-94q0 -87 -39.5 -145t-128.5 -58q-10 0 -21.5 1t-20 2.5t-21 5t-19.5 5.5t-20.5 7t-18.5 6.5t-20.5 8t-18.5 7.5l-104 43q-48 19 -57 19q-29 0 -29 -41v-45zM1143 0h-1047
v1372h1047v-276h-740v-269h709v-274h-709v-277h740v-276z" />
    <glyph glyph-name="etilde" unicode="&#x1ebd;" horiz-adv-x="1132" 
d="M408 1143h-205v80q0 217 176 217q44 0 135 -35l98 -43q54 -23 76 -23q18 0 25.5 9.5t7.5 33.5v39h205v-96q0 -86 -39.5 -143.5t-128.5 -57.5q-55 0 -160 41l-104 45q-8 2 -21.5 7.5t-21.5 7.5t-15 2q-28 0 -28 -39v-45zM573 -20q-259 0 -387.5 140t-128.5 392
q0 248 138.5 393.5t379.5 145.5q229 0 360.5 -124.5t131.5 -328.5q0 -70 -14 -152h-707q5 -109 56.5 -154.5t175.5 -45.5q92 0 134 21.5t42 68.5v12h303v-20q0 -163 -130.5 -255.5t-353.5 -92.5zM565 799q-107 0 -157.5 -41t-59.5 -125h424q5 80 -48 123t-159 43z" />
    <glyph glyph-name="Ygrave" unicode="&#x1ef2;" horiz-adv-x="1368" 
d="M838 1495h-326l-319 258v10h417l228 -258v-10zM838 0h-308v496l-534 876h348l215 -360l119 -203h20l117 203l215 360h342l-534 -876v-496z" />
    <glyph glyph-name="ygrave" unicode="&#x1ef3;" horiz-adv-x="1185" 
d="M784 1147h-325l-320 256v10h418l227 -256v-10zM309 -348q-93 0 -188 22v254h172q61 0 87.5 14t49.5 62l19 39l-433 987h342l168 -430l74 -199h23l63 199l145 430h343l-459 -1102q-65 -155 -157.5 -215.5t-248.5 -60.5z" />
    <glyph glyph-name="Ytilde" unicode="&#x1ef8;" horiz-adv-x="1368" 
d="M526 1489h-204v80q0 219 176 219q48 0 135 -37l98 -41q57 -24 76 -24q18 0 25.5 9.5t7.5 35.5v36h204v-94q0 -88 -39 -145.5t-128 -57.5q-10 0 -21.5 1t-20 2.5t-21 5t-19.5 5.5t-20.5 7t-18.5 6.5t-20.5 8t-18.5 7.5l-105 43q-48 19 -57 19q-29 0 -29 -41v-45zM838 0
h-308v496l-534 876h348l215 -360l119 -203h20l117 203l215 360h342l-534 -876v-496z" />
    <glyph glyph-name="ytilde" unicode="&#x1ef9;" horiz-adv-x="1185" 
d="M434 1143h-205v80q0 30 3.5 56t14.5 57t29.5 53t52 36.5t77.5 14.5t135 -35l98 -43q54 -23 76 -23q18 0 25.5 9.5t7.5 33.5v39h204v-96q0 -86 -39.5 -143.5t-128.5 -57.5q-54 0 -159 41l-105 45q-8 3 -21 8t-21 7t-15 2q-29 0 -29 -39v-45zM309 -348q-93 0 -188 22v254
h172q61 0 87.5 14t49.5 62l19 39l-433 987h342l168 -430l74 -199h23l63 199l145 430h343l-459 -1102q-65 -155 -157.5 -215.5t-248.5 -60.5z" />
    <glyph glyph-name="endash" unicode="&#x2013;" horiz-adv-x="1099" 
d="M1075 473h-1050v262h1050v-262z" />
    <glyph glyph-name="emdash" unicode="&#x2014;" horiz-adv-x="1953" 
d="M1929 473h-1904v262h1904v-262z" />
    <glyph glyph-name="quoteleft" unicode="&#x2018;" horiz-adv-x="516" 
d="M328 1372h102v-201h-94q-34 0 -48 -13.5t-14 -51.5v-37h164v-362h-385v395q0 134 71 202t204 68z" />
    <glyph glyph-name="quoteright" unicode="&#x2019;" horiz-adv-x="516" 
d="M172 707h-102v200h94q34 0 47.5 13.5t13.5 52.5v37h-164v362h385v-395q0 -135 -70.5 -202.5t-203.5 -67.5z" />
    <glyph glyph-name="quotesinglbase" unicode="&#x201a;" horiz-adv-x="483" 
d="M176 -303h-102v201h94q34 0 47.5 13.5t13.5 51.5v37h-163v362h385v-395q0 -134 -71 -202t-204 -68z" />
    <glyph glyph-name="quotedblleft" unicode="&#x201c;" horiz-adv-x="1021" 
d="M328 1372h102v-201h-94q-34 0 -48 -13.5t-14 -51.5v-37h164v-362h-385v395q0 134 71 202t204 68zM817 1372h103v-201h-95q-34 0 -47.5 -13.5t-13.5 -51.5v-37h164v-362h-385v395q0 135 70.5 202.5t203.5 67.5z" />
    <glyph glyph-name="quotedblright" unicode="&#x201d;" horiz-adv-x="1021" 
d="M692 707h-102v200h94q34 0 47.5 13.5t13.5 52.5v37h-163v362h385v-395q0 -134 -71 -202t-204 -68zM205 707h-103v200h95q33 0 47 13.5t14 52.5v37h-164v362h385v-395q0 -135 -70.5 -202.5t-203.5 -67.5z" />
    <glyph glyph-name="quotedblbase" unicode="&#x201e;" horiz-adv-x="972" 
d="M176 -303h-102v201h94q34 0 47.5 13.5t13.5 51.5v37h-163v362h385v-395q0 -134 -71 -202t-204 -68zM666 -303h-103v201h94q34 0 48 13.5t14 51.5v37h-164v362h385v-395q0 -135 -70.5 -202.5t-203.5 -67.5z" />
    <glyph glyph-name="dagger" unicode="&#x2020;" horiz-adv-x="921" 
d="M612 0h-305v776h-291v254h291v342h305v-342h293v-254h-293v-776z" />
    <glyph glyph-name="daggerdbl" unicode="&#x2021;" horiz-adv-x="921" 
d="M612 0h-305v342h-291v254h291v180h-291v254h291v342h305v-342h293v-254h-293v-180h293v-254h-293v-342z" />
    <glyph glyph-name="bullet" unicode="&#x2022;" horiz-adv-x="804" 
d="M403 389q-127 0 -212 81t-85 216t85 216t212 81q125 0 211 -81.5t86 -215.5t-86 -215.5t-211 -81.5z" />
    <glyph glyph-name="ellipsis" unicode="&#x2026;" horiz-adv-x="1568" 
d="M467 0h-385v362h385v-362zM977 0h-385v362h385v-362zM1487 0h-385v362h385v-362z" />
    <glyph glyph-name="perthousand" unicode="&#x2030;" horiz-adv-x="2414" 
d="M397 713q-166 0 -263 91t-97 249t97 249t263 91q165 0 262 -91t97 -249t-97 -249t-262 -91zM457 0h-281l989 1372h279zM397 922q74 0 101.5 26.5t27.5 104.5t-27.5 104.5t-101.5 26.5t-101.5 -26.5t-27.5 -104.5t27.5 -104.5t101.5 -26.5zM2017 -20q-166 0 -263 90.5
t-97 248.5t97 249t263 91t263.5 -91t97.5 -249t-97.5 -248.5t-263.5 -90.5zM1225 -20q-166 0 -263.5 90.5t-97.5 248.5t97.5 249t263.5 91t262 -91t96 -249t-96 -248.5t-262 -90.5zM2017 188q74 0 101.5 26.5t27.5 104.5t-27.5 105t-101.5 27t-101.5 -27t-27.5 -105
t27.5 -104.5t101.5 -26.5zM1225 188q74 0 101.5 26.5t27.5 104.5t-27.5 105t-101.5 27t-101.5 -27t-27.5 -105t27.5 -104.5t101.5 -26.5z" />
    <glyph glyph-name="guilsinglleft" unicode="&#x2039;" horiz-adv-x="532" 
d="M61 795l410 274v-313l-203 -121v-21l203 -120v-314l-410 275v340z" />
    <glyph glyph-name="guilsinglright" unicode="&#x203a;" horiz-adv-x="532" 
d="M471 455l-410 -275v314l203 120v21l-203 121v313l410 -274v-340z" />
    <glyph glyph-name="fraction" unicode="&#x2044;" horiz-adv-x="509" 
d="M-98 0h-281l989 1372h279z" />
    <glyph glyph-name="zero.superior" unicode="&#x2070;" horiz-adv-x="790" 
d="M395 666q-165 0 -261.5 97.5t-96.5 264.5t97 266t261 99t261.5 -99t97.5 -266t-97 -264.5t-262 -97.5zM395 874q76 0 101.5 30.5t25.5 123.5q0 94 -25.5 125t-101.5 31t-101.5 -31t-25.5 -125q0 -93 25.5 -123.5t101.5 -30.5z" />
    <glyph glyph-name="four.superior" unicode="&#x2074;" horiz-adv-x="776" 
d="M641 686h-217v133h-387v170l362 383h242v-360h98v-193h-98v-133zM264 1012h160v162h-12l-148 -152v-10z" />
    <glyph glyph-name="Euro" unicode="&#x20ac;" horiz-adv-x="1499" 
d="M809 -20q-242 0 -404 120.5t-221 335.5h-164v197h134q-2 16 -2 53t2 53h-134v197h164q59 215 221.5 336t403.5 121q301 0 463 -147t162 -406v-11h-328v17q0 141 -67.5 197.5t-231.5 56.5q-124 0 -195 -36.5t-104 -127.5h432v-197h-465v-53v-53h465v-197h-432
q33 -91 104 -127.5t195 -36.5q164 0 231.5 56.5t67.5 197.5v17h328v-11q0 -258 -162 -405t-463 -147z" />
    <glyph glyph-name="indianrupee" unicode="&#x20b9;" horiz-adv-x="1193" 
d="M1090 0h-369l-287 338q-56 67 -111.5 96t-156.5 29h-109v258h369q76 0 115.5 19.5t54.5 66.5h-539v242h549v79h-549v244h1084v-244h-228v-79h228v-242h-238q-26 -119 -110 -186t-228 -68v-10q77 -29 138 -84.5t139 -149.5z" />
    <glyph glyph-name="trademark" unicode="&#x2122;" horiz-adv-x="1157" 
d="M696 961h-133v411h182l95 -256h6l90 256h184v-411h-133v137l4 78h-8l-65 -191h-154l-68 191h-6l6 -78v-137zM340 961h-145v276h-158v135h461v-135h-158v-276z" />
    <glyph glyph-name="Ohm" unicode="&#x2126;" horiz-adv-x="1513" 
d="M690 0h-610v276h182q-196 135 -196 443q0 126 46.5 236.5t133 194.5t219 132.5t293.5 48.5t293.5 -48.5t219 -132.5t133 -194.5t46.5 -236.5q0 -308 -199 -443h185v-276h-611v276h33q80 3 133.5 33t80.5 84.5t37.5 115.5t10.5 144q0 203 -89 292t-273 89
q-183 0 -274 -90.5t-91 -290.5q0 -65 6 -116t23.5 -101t46.5 -83t77 -54t113 -23h31v-276z" />
    <glyph glyph-name="estimated" unicode="&#x212e;" horiz-adv-x="1486" 
d="M766 -20q-355 0 -540 186t-185 520q0 326 184.5 516.5t522.5 190.5q364 0 537 -207.5t161 -583.5h-938v-283q92 -43 266 -43q62 0 116 11t99.5 34.5t71.5 64.5t26 97h328q0 -221 -179.5 -362t-469.5 -141zM508 1053v-185h471v185q-98 43 -231 43q-142 0 -240 -43z" />
    <glyph glyph-name="partialdiff" unicode="&#x2202;" horiz-adv-x="1357" 
d="M567 -20q-244 0 -369.5 101.5t-125.5 299.5q0 205 146.5 336t387.5 131q275 0 348 -164h11q30 104 30 211q0 94 -61.5 147.5t-181.5 53.5h-316v297h332q267 0 401 -124.5t134 -363.5q0 -203 -46.5 -370.5t-136.5 -292t-231 -193.5t-322 -69zM608 274q143 0 216 42.5
t73 144.5q0 78 -52 108.5t-179 30.5q-146 0 -217.5 -41.5t-71.5 -152.5q0 -72 52.5 -102t178.5 -30z" />
    <glyph glyph-name="product" unicode="&#x220f;" horiz-adv-x="1404" 
d="M436 -256h-307v1628h1139v-1628h-307v1352h-525v-1352z" />
    <glyph glyph-name="summation" unicode="&#x2211;" horiz-adv-x="1120" 
d="M1098 -256h-994v258l332 313l238 232v20l-248 234l-322 313v258h994v-268h-449l-145 4v-21l82 -61l354 -350v-236l-354 -348l-82 -61v-23l145 6h449v-270z" />
    <glyph glyph-name="minus" unicode="&#x2212;" horiz-adv-x="1024" 
d="M975 559h-916v254h916v-254z" />
    <glyph glyph-name="radical" unicode="&#x221a;" horiz-adv-x="1589" 
d="M1182 0h-389l-295 762l-336 -189l-146 246l377 211h342l246 -735h23l360 1077h336z" />
    <glyph glyph-name="infinity" unicode="&#x221e;" horiz-adv-x="1572" 
d="M469 252q-180 0 -285.5 114.5t-105.5 319.5t105.5 319.5t285.5 114.5q111 0 188.5 -53t100.5 -145q107 198 350 198q180 0 285.5 -114.5t105.5 -319.5t-105.5 -319.5t-285.5 -114.5q-112 0 -189.5 54.5t-99.5 148.5q-25 -45 -54 -79t-70.5 -63.5t-98.5 -45t-127 -15.5z
M1075 858q-29 0 -53.5 -11.5t-41 -28.5t-33 -47t-26.5 -56.5t-24 -67.5q11 -68 49 -100.5t111 -32.5q77 0 114 42.5t37 129.5q0 172 -133 172zM369 686q0 -172 135 -172q29 0 53 12t40.5 29t32.5 48.5t26 57t24 68.5q-12 67 -50.5 98t-109.5 31q-151 0 -151 -172z" />
    <glyph glyph-name="integral" unicode="&#x222b;" horiz-adv-x="712" 
d="M0 -340v231h76q60 0 87 21t27 72v995q0 189 111.5 293t329.5 104q39 0 55 -4v-229h-76q-58 0 -85 -21.5t-27 -72.5v-994q0 -189 -112.5 -294t-328.5 -105q-21 0 -57 4z" />
    <glyph glyph-name="approxequal" unicode="&#x2248;" horiz-adv-x="1116" 
d="M315 322h-258v127q0 161 113 219v8h-113v108q0 277 246 277q77 0 172 -37l146 -55q101 -33 135 -33q24 0 35.5 10t11.5 37v59h256v-122q0 -172 -115 -224v-8h115v-115q0 -266 -219 -266q-95 0 -238 53l-135 50q-58 20 -94 20q-58 0 -58 -55v-53zM791 565q29 0 43 13
t14 45v43q-3 0 -7 -1t-7 -1q-83 0 -228 57l-147 51q-69 29 -113 29q-74 0 -74 -66v-33h25q89 0 168 -32l166 -64q121 -41 160 -41z" />
    <glyph glyph-name="notequal" unicode="&#x2260;" horiz-adv-x="1056" 
d="M997 309h-553l-127 -235l-194 100l74 135h-115v252h250l135 250h-385v252h520l131 242l195 -101l-76 -141h145v-252h-282l-135 -250h417v-252z" />
    <glyph glyph-name="lessequal" unicode="&#x2264;" horiz-adv-x="1036" 
d="M977 29h-916v254h644v22l-644 199v364l916 289v-287l-639 -174v-20l639 -174v-473z" />
    <glyph glyph-name="greaterequal" unicode="&#x2265;" horiz-adv-x="1036" 
d="M975 29h-916v473l639 174v20l-639 174v287l916 -289v-364l-643 -199v-22h643v-254z" />
    <glyph glyph-name="lozenge" unicode="&#x25ca;" horiz-adv-x="1200" 
d="M592 168h22l193 424l-193 424h-22l-193 -424zM795 -90h-392l-346 682l346 682h392l348 -682z" />
    <glyph glyph-name="t_t" horiz-adv-x="1478" 
d="M522 -4q-181 0 -269.5 80.5t-88.5 261.5v438h-148v254h156l57 240h242v-240h363l57 240h242v-240h290v-254h-290v-403q0 -66 30 -83.5t133 -17.5h127v-256q-98 -20 -200 -20q-204 0 -301 81t-97 261v438h-354v-403q0 -68 31.5 -84.5t144.5 -16.5h78v-256
q-98 -20 -203 -20z" />
    <glyph glyph-name="tcaron_t" horiz-adv-x="1478" 
d="M627 1083h-97v183h88q30 0 43 11t13 46v33h-156v319h354v-348q0 -122 -62.5 -183t-182.5 -61zM522 -4q-181 0 -269.5 80.5t-88.5 261.5v438h-148v254h156l57 240h242v-240h363l57 240h242v-240h290v-254h-290v-403q0 -66 30 -83.5t133 -17.5h127v-256q-98 -20 -200 -20
q-204 0 -301 81t-97 261v438h-354v-403q0 -68 31.5 -84.5t144.5 -16.5h78v-256q-98 -20 -203 -20z" />
    <glyph glyph-name="IJacute" horiz-adv-x="1671" 
d="M434 1495h-325v10l227 258h418v-10zM1604 1495h-326v10l227 258h418v-10zM403 0h-307v1372h307v-1372zM1047 -20q-290 0 -422.5 140t-132.5 406v41h325v-55q0 -58 4.5 -93.5t17 -66t37.5 -45.5t63 -23t97 -8q72 0 114 11t65.5 41t30.5 71t7 113v860h328v-833
q0 -559 -534 -559z" />
    <glyph glyph-name="idotaccent" horiz-adv-x="466" 
d="M383 1147h-301l-4 225h305v-225zM389 0h-307v1030h307v-1030z" />
    <glyph glyph-name="ijacute" horiz-adv-x="1003" 
d="M414 1147h-326v10l227 256h418v-10zM938 1147h-326v10l228 256h417v-10zM385 0h-307v1030h307v-1030zM403 -344v258h82q75 0 96 16.5t21 73.5v1026h307v-979q0 -114 -29 -193t-86 -123.5t-130 -63.5t-172 -19q-35 0 -89 4z" />
    <glyph glyph-name="acutecomb.case" horiz-adv-x="1163" 
d="M631 1495h-326v10l227 258h418v-10z" />
    <glyph glyph-name="brevecomb.case" horiz-adv-x="1153" 
d="M578 1475q-140 0 -225 71t-85 189v28h215v-20q0 -48 19.5 -65t75.5 -17t74 17t18 65v20h215v-28q0 -118 -84.5 -189t-222.5 -71z" />
    <glyph glyph-name="caroncomb.alt" horiz-adv-x="1189" 
d="M526 780h-96v183h88q30 0 42.5 11t12.5 46v33h-155v319h354v-348q0 -122 -63 -183t-183 -61z" />
    <glyph glyph-name="caroncomb.alt.case" horiz-adv-x="1228" 
d="M547 780h-98v183h88q31 0 43 11t12 46v33h-156v319h357v-348q0 -121 -63.5 -182.5t-182.5 -61.5z" />
    <glyph glyph-name="caroncomb.case" horiz-adv-x="1175" 
d="M690 1761h295v-10l-213 -256h-364l-211 256v10h295l88 -114h22z" />
    <glyph glyph-name="cedillacomb.case" horiz-adv-x="1132" 
d="M569 -469h-209v162h205q31 0 44.5 8.5t13.5 28.5q0 22 -13 29.5t-45 7.5h-155v239h161v-94h11q105 0 163 -50t58 -136q0 -90 -61.5 -142.5t-172.5 -52.5z" />
    <glyph glyph-name="circumflexcomb.case" horiz-adv-x="1175" 
d="M485 1495h-295v10l213 256h365l211 -256v-10h-295l-88 115h-23z" />
    <glyph glyph-name="commaaccentcomb.case" horiz-adv-x="1150" 
d="M543 -410h-285v11l164 256h383v-11z" />
    <glyph glyph-name="dieresiscomb.case" horiz-adv-x="1179" 
d="M944 1495h-301v270h301v-270zM520 1495h-301v270h301v-270z" />
    <glyph glyph-name="dotaccentcomb.case" horiz-adv-x="1095" 
d="M700 1495h-305v270h305v-270z" />
    <glyph glyph-name="gravecomb.case" horiz-adv-x="1150" 
d="M862 1495h-325l-320 258v10h418l227 -258v-10z" />
    <glyph glyph-name="hungarumlautcomb.case" horiz-adv-x="1222" 
d="M846 1495h-262v10l137 258h346v-10zM426 1495h-264v10l137 258h348v-10z" />
    <glyph glyph-name="macroncomb.case" horiz-adv-x="1155" 
d="M893 1522h-629v213h629v-213z" />
    <glyph glyph-name="ogonekcomb.case" horiz-adv-x="1103" 
d="M745 -383h-192q-197 0 -197 139q0 82 97 187l51 57h203l-91 -115q-26 -28 -26 -55q0 -29 47 -29h108v-184z" />
    <glyph glyph-name="ringcomb.case" horiz-adv-x="1105" 
d="M553 1462q-94 0 -151.5 48.5t-57.5 131.5t57.5 132t151.5 49t151.5 -49t57.5 -132t-57.5 -131.5t-151.5 -48.5zM553 1587q46 0 62 11.5t16 43.5t-16 44t-62 12t-62 -12t-16 -44t16 -43.5t62 -11.5z" />
    <glyph glyph-name="slashlongcomb.case" horiz-adv-x="1275" 
d="M1389 1288l-1346 -1351l-158 151l1346 1352z" />
    <glyph glyph-name="slashshortcomb.case" horiz-adv-x="1232" 
d="M975 758l-807 -332v287l807 331v-286z" />
    <glyph glyph-name="strokeshortcomb.case" horiz-adv-x="1228" 
d="M1112 539h-993v276h993v-276z" />
    <glyph glyph-name="tildecomb.case" horiz-adv-x="1179" 
d="M432 1489h-205v80q0 219 176 219q49 0 136 -37l98 -41q57 -24 76 -24q18 0 25 9.5t7 35.5v36h205v-94q0 -87 -39.5 -145t-128.5 -58q-12 0 -23.5 1t-24.5 4t-21.5 5t-24 8t-21 7.5t-23.5 9t-21 8.5l-105 43q-47 19 -57 19q-29 0 -29 -41v-45z" />
    <glyph glyph-name="d.component" horiz-adv-x="1292" 
d="M506 -20q-216 0 -331.5 126t-115.5 345q0 220 113 346.5t322 126.5q113 0 193.5 -44.5t117.5 -111.5h12v604h307v-1372h-284v150h-13q-40 -84 -124 -127t-197 -43zM367 451q0 -110 48.5 -160.5t176.5 -50.5q113 0 169 43t56 139v59q0 96 -56 139.5t-169 43.5
q-128 0 -176.5 -51t-48.5 -162z" />
    <glyph glyph-name="h.component" horiz-adv-x="1286" 
d="M475 0h-307v1372h307v-629h10q47 79 132 130t200 51q189 0 283 -111t94 -287v-526h-307v465q0 108 -43.5 151t-159.5 43q-112 0 -160.5 -45t-48.5 -159v-455z" />
    <glyph glyph-name="ITF" horiz-adv-x="3520" 
d="M205 0v1434h442v-1434h-442zM739 1016v418h443v-418h-443zM1272 0v1434h444v-1434h-444zM1806 1016v418h443v-418h-443zM2339 0v1434h444v-1434h-444zM2873 1016v418h443v-418h-443zM2873 506v420h443v-420h-443z" />
    </font>
</defs>
</svg>
