<?xml version="1.0" standalone="no"?>
<!DOCTYPE svg PUBLIC "-//W3C//DTD SVG 1.1//EN" "http://www.w3.org/Graphics/SVG/1.1/DTD/svg11.dtd" >
<svg xmlns="http://www.w3.org/2000/svg" xmlns:xlink="http://www.w3.org/1999/xlink" version="1.1">
<metadata>
Created by FontForge 20170731 at Fri Oct 27 11:26:37 2023
 By Aleksey,,,
Copyright 2017-2021 Indian Type Foundry. All rights reserved.
</metadata>
<defs>
<font id="ClashGrotesk-Medium" horiz-adv-x="1228" >
  <font-face 
    font-family="Clash Grotesk Medium"
    font-weight="500"
    font-stretch="normal"
    units-per-em="2048"
    panose-1="0 0 0 0 0 0 0 0 0 0"
    ascent="1638"
    descent="-410"
    x-height="1018"
    cap-height="1372"
    bbox="-418 -442 3336 1823"
    underline-thickness="143"
    underline-position="-429"
    unicode-range="U+000D-FB04"
  />
<missing-glyph 
d="M100 0v1331h1028v-1331h-1028zM279 1219l335 -463l336 463h-671zM213 1128v-925l336 463zM680 666l336 -463v925zM279 113h671l-336 462z" />
    <glyph glyph-name="f_f" unicode="ff" horiz-adv-x="1257" 
d="M383 0h-221v834h-150v184h150q3 172 104.5 263t294.5 91h82v-176h-123q-74 0 -108.5 -29.5t-34.5 -93.5v-55h387q3 172 104.5 263t294.5 91h82v-176h-123q-74 0 -108.5 -29.5t-34.5 -93.5v-55h266v-184h-260v-834h-221v834h-381v-834z" />
    <glyph glyph-name="fi" unicode="fi" horiz-adv-x="1062" 
d="M383 0h-221v834h-150v184h150q3 172 104.5 263t294.5 91h82v-176h-123q-74 0 -108.5 -29.5t-34.5 -93.5v-55h266v-184h-260v-834zM967 1147h-219l-3 225h222v-225zM969 0h-221v1024h221v-1024z" />
    <glyph glyph-name="fl" unicode="fl" horiz-adv-x="1099" 
d="M383 0h-221v834h-150v184h150q3 172 104.5 263t294.5 91h82v-176h-123q-74 0 -108.5 -29.5t-34.5 -93.5v-55h266v-184h-260v-834zM991 0h-221v1372h221v-1372z" />
    <glyph glyph-name="f_f_i" unicode="ffi" horiz-adv-x="1665" 
d="M383 0h-221v834h-150v184h150q3 172 104.5 263t294.5 91h82v-176h-123q-74 0 -108.5 -29.5t-34.5 -93.5v-55h387q3 172 104.5 263t294.5 91h82v-176h-123q-74 0 -108.5 -29.5t-34.5 -93.5v-55h266v-184h-260v-834h-221v834h-381v-834zM1569 1147h-219l-2 225h221v-225z
M1571 0h-221v1024h221v-1024z" />
    <glyph glyph-name="f_f_l" unicode="ffl" horiz-adv-x="1701" 
d="M383 0h-221v834h-150v184h150q3 172 104.5 263t294.5 91h82v-176h-123q-74 0 -108.5 -29.5t-34.5 -93.5v-55h387q3 172 104.5 263t294.5 91h82v-176h-123q-74 0 -108.5 -29.5t-34.5 -93.5v-55h266v-184h-260v-834h-221v834h-381v-834zM1593 0h-221v1372h221v-1372z" />
    <glyph glyph-name="f_t" unicode="ft" horiz-adv-x="1325" 
d="M383 0h-221v834h-150v184h150q3 172 104.5 263t294.5 91h82v-176h-123q-74 0 -108.5 -29.5t-34.5 -93.5v-55h383l47 252h170v-252h307v-184h-307v-510q0 -77 37.5 -101t144.5 -24h125v-181q-77 -18 -182 -18q-175 0 -260.5 73t-85.5 240v521h-373v-834z" />
    <glyph glyph-name="f_b" unicode="fb" horiz-adv-x="1832" 
d="M383 0h-221v834h-150v184h150q3 172 104.5 263t294.5 91h82v-176h-123q-74 0 -108.5 -29.5t-34.5 -93.5v-55h266v-184h-260v-834zM973 0h-203v1372h221v-516h4q37 76 126.5 129t215.5 53q207 0 317.5 -141t110.5 -387q0 -247 -114.5 -388.5t-325.5 -141.5q-131 0 -219 49
t-125 139h-8v-168zM991 418q0 -250 277 -250q149 0 213.5 77.5t64.5 264.5q0 185 -65 262.5t-213 77.5q-277 0 -277 -250v-182z" />
    <glyph glyph-name="f_f_b" unicode="ffb" horiz-adv-x="2435" 
d="M383 0h-221v834h-150v184h150q3 172 104.5 263t294.5 91h82v-176h-123q-74 0 -108.5 -29.5t-34.5 -93.5v-55h387q3 172 104.5 263t294.5 91h82v-176h-123q-74 0 -108.5 -29.5t-34.5 -93.5v-55h266v-184h-260v-834h-221v834h-381v-834zM1575 0h-203v1372h221v-516h4
q37 76 126.5 129t215.5 53q207 0 317.5 -141t110.5 -387q0 -247 -114.5 -388.5t-325.5 -141.5q-131 0 -219 49t-125 139h-8v-168zM1593 418q0 -250 277 -250q149 0 213.5 77.5t64.5 264.5q0 185 -65 262.5t-213 77.5q-277 0 -277 -250v-182z" />
    <glyph glyph-name="f_f_h" unicode="ffh" horiz-adv-x="2428" 
d="M383 0h-221v834h-150v184h150q3 172 104.5 263t294.5 91h82v-176h-123q-74 0 -108.5 -29.5t-34.5 -93.5v-55h387q3 172 104.5 263t294.5 91h82v-176h-123q-74 0 -108.5 -29.5t-34.5 -93.5v-55h266v-184h-260v-834h-221v834h-381v-834zM1593 0h-221v1372h221v-524h9
q41 79 127 134.5t213 55.5q190 0 284 -109.5t94 -287.5v-641h-221v590q0 139 -53.5 198.5t-190.5 59.5q-138 0 -200 -60t-62 -202v-586z" />
    <glyph glyph-name="f_f_j" unicode="ffj" horiz-adv-x="1708" 
d="M383 0h-221v834h-150v184h150q3 172 104.5 263t294.5 91h82v-176h-123q-74 0 -108.5 -29.5t-34.5 -93.5v-55h387q3 172 104.5 263t294.5 91h82v-176h-123q-74 0 -108.5 -29.5t-34.5 -93.5v-55h266v-184h-260v-834h-221v834h-381v-834zM1599 1147h-221v225h221v-225z
M1174 -348v201h79q78 0 101.5 18.5t23.5 81.5v1065h221v-1020q0 -99 -25 -167.5t-74 -107t-112.5 -55t-150.5 -16.5h-63z" />
    <glyph glyph-name="f_f_k" unicode="ffk" horiz-adv-x="2338" 
d="M383 0h-221v834h-150v184h150q3 172 104.5 263t294.5 91h82v-176h-123q-74 0 -108.5 -29.5t-34.5 -93.5v-55h387q3 172 104.5 263t294.5 91h82v-176h-123q-74 0 -108.5 -29.5t-34.5 -93.5v-55h266v-184h-260v-834h-221v834h-381v-834zM1593 0h-221v1372h221v-758h201
l272 404h261l-355 -481l348 -537h-258l-266 416h-203v-416z" />
    <glyph glyph-name="f_h" unicode="fh" horiz-adv-x="1826" 
d="M383 0h-221v834h-150v184h150q3 172 104.5 263t294.5 91h82v-176h-123q-74 0 -108.5 -29.5t-34.5 -93.5v-55h266v-184h-260v-834zM991 0h-221v1372h221v-524h8q41 79 127 134.5t213 55.5q190 0 284.5 -109.5t94.5 -287.5v-641h-221v590q0 139 -53.5 198.5t-190.5 59.5
q-138 0 -200 -60t-62 -202v-586z" />
    <glyph glyph-name="f_j" unicode="fj" horiz-adv-x="1107" 
d="M383 0h-221v834h-150v184h150q3 172 104.5 263t294.5 91h82v-176h-123q-74 0 -108.5 -29.5t-34.5 -93.5v-55h266v-184h-260v-834zM999 1147h-221v225h221v-225zM573 -348v201h80q78 0 101.5 18.5t23.5 81.5v1065h221v-1020q0 -99 -25 -167.5t-74 -107t-112.5 -55
t-150.5 -16.5h-64z" />
    <glyph glyph-name="f_k" unicode="fk" horiz-adv-x="1736" 
d="M383 0h-221v834h-150v184h150q3 172 104.5 263t294.5 91h82v-176h-123q-74 0 -108.5 -29.5t-34.5 -93.5v-55h266v-184h-260v-834zM991 0h-221v1372h221v-758h201l272 404h260l-354 -481l348 -537h-258l-266 416h-203v-416z" />
    <glyph glyph-name=".notdef" 
d="M100 0v1331h1028v-1331h-1028zM279 1219l335 -463l336 463h-671zM213 1128v-925l336 463zM680 666l336 -463v925zM279 113h671l-336 462z" />
    <glyph glyph-name=".null" horiz-adv-x="0" 
 />
    <glyph glyph-name="nonmarkingreturn" horiz-adv-x="682" 
 />
    <glyph glyph-name="CR" unicode="&#xd;" horiz-adv-x="614" 
 />
    <glyph glyph-name="space" unicode=" " horiz-adv-x="385" 
 />
    <glyph glyph-name="exclam" unicode="!" horiz-adv-x="473" 
d="M344 451h-215q0 105 -16.5 404.5t-16.5 373.5v143h281v-143q0 -74 -16.5 -374.5t-16.5 -403.5zM362 0h-249v303h249v-303z" />
    <glyph glyph-name="quotedbl" unicode="&#x22;" horiz-adv-x="722" 
d="M598 850h-129l-49 266v256h227v-256zM254 850h-129l-49 266v256h227v-256z" />
    <glyph glyph-name="numbersign" unicode="#" horiz-adv-x="1716" 
d="M412 0h-217l120 315h-245v199h315l119 305h-305v199h387l141 354h217l-137 -354h367l139 354h217l-135 -354h252v-199h-324l-119 -305h314v-199h-400l-121 -315h-217l121 315h-369zM715 838l-129 -342h407l129 342h-407z" />
    <glyph glyph-name="dollar" unicode="$" horiz-adv-x="1236" 
d="M741 -205h-204v193q-219 27 -327 142.5t-108 295.5v35h217v-23q0 -67 16 -112.5t55.5 -79t110.5 -49t177 -15.5q150 0 213 43t63 140q0 66 -19.5 102.5t-72.5 62.5t-160 48l-233 47q-181 35 -272 126t-91 250q0 71 26 135.5t77.5 118t135.5 89t192 45.5v188h204v-193
q105 -15 185 -56.5t128 -102.5t71.5 -133.5t23.5 -155.5v-25h-217v23q0 132 -71 194t-249 62q-150 0 -217 -43t-67 -135t49 -130.5t194 -70.5l234 -49q191 -39 281 -135.5t90 -253.5q0 -159 -110 -266.5t-325 -124.5v-187z" />
    <glyph glyph-name="percent" unicode="%" horiz-adv-x="1583" 
d="M383 713q-156 0 -246 95t-90 245t90 245t246 95q157 0 246.5 -95t89.5 -245t-89.5 -245t-246.5 -95zM377 0h-217l1050 1372h215zM383 868q90 0 128 42.5t38 142.5t-37.5 142t-128.5 42q-90 0 -127 -42t-37 -142t37 -142.5t127 -42.5zM1200 -20q-157 0 -246.5 94
t-89.5 245q0 150 90 245t246 95q157 0 246.5 -95t89.5 -245q0 -151 -89 -245t-247 -94zM1200 135q91 0 128.5 42t37.5 142t-38 142.5t-128 42.5t-127 -42.5t-37 -142.5t37 -142t127 -42z" />
    <glyph glyph-name="ampersand" unicode="&#x26;" horiz-adv-x="1382" 
d="M563 1184q-111 0 -161 -44t-50 -149q0 -101 54 -144.5t163 -43.5h355v215h217v-215h221v-185h-221v-174q0 -223 -133.5 -343.5t-409.5 -120.5q-252 0 -384 98.5t-132 294.5q0 144 80 231.5t215 108.5v10q-119 20 -182.5 104t-63.5 205q0 179 122.5 266.5t342.5 87.5h217
v-202h-250zM608 182q185 0 250.5 56.5t65.5 205.5v174h-353q-138 0 -202 -49.5t-64 -173.5q0 -120 65 -166.5t238 -46.5z" />
    <glyph glyph-name="quotesingle" unicode="'" horiz-adv-x="378" 
d="M254 850h-129l-49 266v256h227v-256z" />
    <glyph glyph-name="parenleft" unicode="(" horiz-adv-x="659" 
d="M625 -35l-113 -112q-65 58 -118.5 116t-110 138.5t-94.5 164t-62.5 191.5t-24.5 223t24.5 223t62.5 192t94 164.5t110 138.5t119 116l113 -113q-109 -116 -167 -211.5t-87 -217t-29 -292.5t29 -292.5t87 -217t167 -211.5z" />
    <glyph glyph-name="parenright" unicode=")" horiz-adv-x="659" 
d="M20 1407l113 113q65 -58 119 -116t110 -138.5t94 -164.5t62.5 -192t24.5 -223t-24.5 -223t-62.5 -191.5t-94.5 -164t-110 -138.5t-118.5 -116l-113 112q109 116 167 211.5t87 217t29 292.5t-29 292.5t-87 217t-167 211.5z" />
    <glyph glyph-name="asterisk" unicode="*" horiz-adv-x="843" 
d="M399 926l-120 -187l-134 97l142 172l-4 16l-215 57l51 156l209 -84l12 10l-12 223h164l-15 -223l15 -10l206 82l52 -156l-218 -55l-4 -16l142 -172l-133 -99l-119 189h-19z" />
    <glyph glyph-name="plus" unicode="+" horiz-adv-x="987" 
d="M590 260h-193v334h-329v184h329v334h193v-334h332v-184h-332v-334z" />
    <glyph glyph-name="comma" unicode="," horiz-adv-x="409" 
d="M141 -242h-73v146h67q28 0 40.5 10.5t12.5 42.5v43h-125v317h281v-356q0 -101 -52.5 -152t-150.5 -51z" />
    <glyph glyph-name="hyphen" unicode="-" horiz-adv-x="747" 
d="M700 508h-653v188h653v-188z" />
    <glyph glyph-name="period" unicode="." horiz-adv-x="409" 
d="M344 0h-281v317h281v-317z" />
    <glyph glyph-name="slash" unicode="/" horiz-adv-x="874" 
d="M182 -41h-223l737 1454h224z" />
    <glyph glyph-name="zero" unicode="0" horiz-adv-x="1406" 
d="M702 -20q-276 0 -433.5 189.5t-157.5 516.5t157.5 517t433.5 190t435 -190.5t159 -516.5t-159 -516t-435 -190zM702 193q187 0 273 113.5t86 379.5q0 267 -86 380.5t-273 113.5q-186 0 -271 -113.5t-85 -380.5t85 -380t271 -113z" />
    <glyph glyph-name="one" unicode="1" horiz-adv-x="671" 
d="M557 0h-221v1044h-289v158h53q97 0 158.5 39t103.5 131h195v-1372z" />
    <glyph glyph-name="two" unicode="2" horiz-adv-x="1245" 
d="M1133 0h-1012v137q0 75 20.5 140t52.5 111.5t83 90t98.5 73t113.5 62.5l211 109q114 61 160.5 116t46.5 140q0 51 -11.5 87t-40 65.5t-84 44t-138.5 14.5q-93 0 -152.5 -15t-92 -50t-44.5 -82.5t-12 -122.5v-29h-221v33q0 99 31.5 182t94.5 148t168.5 102t243.5 37
q123 0 216.5 -31t150 -87t84.5 -128.5t28 -159.5q0 -81 -25.5 -149t-74 -120.5t-102.5 -91t-127 -75.5l-201 -102q-61 -32 -98.5 -55t-75 -54t-55 -65.5t-17.5 -75.5h781v-199z" />
    <glyph glyph-name="three" unicode="3" horiz-adv-x="1234" 
d="M623 -20q-281 0 -411 116.5t-130 323.5v33h217v-31q0 -68 13.5 -110.5t49.5 -73.5t100 -43.5t165 -12.5q165 0 234 47t69 166q0 127 -60 175t-206 48h-275v185h244q137 0 193.5 41t56.5 147q0 107 -64.5 153t-210.5 46q-175 0 -242 -54t-67 -186v-16h-217v18
q0 201 137.5 321t390.5 120q234 0 364 -94.5t130 -272.5q0 -123 -63.5 -202t-190.5 -97v-8q143 -20 223 -110t80 -236q0 -193 -142.5 -293t-387.5 -100z" />
    <glyph glyph-name="four" unicode="4" horiz-adv-x="1292" 
d="M1038 0h-219v285h-792v153l755 934h256v-889h213v-198h-213v-285zM309 483h510v617h-16l-494 -600v-17z" />
    <glyph glyph-name="five" unicode="5" horiz-adv-x="1302" 
d="M651 -20q-263 0 -401.5 108.5t-138.5 300.5v12h219v-12q0 -113 77.5 -160t251.5 -47q181 0 251.5 57.5t70.5 202.5q0 138 -73 197t-246 59q-184 0 -334 -86l-195 31l47 729h946v-198h-751l-33 -400h6q61 50 158.5 82.5t222.5 32.5q220 0 345.5 -116.5t125.5 -323.5
q0 -221 -136.5 -345t-412.5 -124z" />
    <glyph glyph-name="six" unicode="6" horiz-adv-x="1314" 
d="M686 -20q-157 0 -266 43.5t-176 135t-97 223.5t-30 318q0 161 35 287t105.5 217.5t184 140t263.5 48.5q221 0 353 -113t132 -309v-13h-234v13q0 103 -63 156t-217 53q-99 0 -164.5 -25t-102.5 -80.5t-52 -131.5t-15 -189v-113h10q45 95 146 152t264 57q224 0 344.5 -113
t120.5 -311q0 -207 -141 -326.5t-400 -119.5zM692 193q175 0 245.5 55.5t70.5 181.5q0 123 -70 178.5t-244 55.5q-172 0 -246.5 -57t-74.5 -179q0 -123 74.5 -179t244.5 -56z" />
    <glyph glyph-name="seven" unicode="7" horiz-adv-x="1101" 
d="M537 -2h-240q0 172 31.5 331t80 279t117.5 229.5t134.5 184t140.5 141.5v11h-766v198h1030v-182q-278 -254 -403 -540t-125 -652z" />
    <glyph glyph-name="eight" unicode="8" horiz-adv-x="1259" 
d="M629 -20q-268 0 -414.5 100.5t-146.5 294.5q0 138 75 223.5t199 120.5v8q-108 19 -170.5 99.5t-62.5 199.5q0 166 134 266.5t386 100.5t386 -100.5t134 -266.5q0 -119 -62 -199.5t-169 -99.5v-8q123 -35 198.5 -120.5t75.5 -223.5q0 -194 -147.5 -294.5t-415.5 -100.5z
M629 788q164 0 231.5 48.5t67.5 154.5q0 102 -66.5 150.5t-232.5 48.5q-165 0 -232 -49t-67 -150q0 -106 68 -154.5t231 -48.5zM629 182q133 0 208.5 26.5t103.5 74t28 127.5q0 79 -29 126.5t-104.5 74t-206.5 26.5t-206 -26.5t-103.5 -74t-28.5 -126.5q0 -80 28 -127.5
t103 -74t207 -26.5z" />
    <glyph glyph-name="nine" unicode="9" horiz-adv-x="1314" 
d="M666 -20q-227 0 -361.5 115.5t-134.5 312.5v12h233v-12q0 -105 62.5 -160t216.5 -55q78 0 132 15.5t89.5 46t55.5 83.5t28 118.5t8 161.5v113h-10q-105 -209 -410 -209q-223 0 -341.5 112.5t-118.5 311.5q0 207 140 327t398 120q309 0 439.5 -167t130.5 -540
q0 -706 -557 -706zM647 709q171 0 244.5 56.5t73.5 178.5q0 123 -74 179.5t-244 56.5q-175 0 -246 -56t-71 -182q0 -123 70.5 -178t246.5 -55z" />
    <glyph glyph-name="colon" unicode=":" horiz-adv-x="409" 
d="M358 700h-280v318h280v-318zM358 0h-280v317h280v-317z" />
    <glyph glyph-name="semicolon" unicode=";" horiz-adv-x="409" 
d="M358 700h-280v318h280v-318zM156 -242h-74v146h68q28 0 40.5 10.5t12.5 42.5v43h-125v317h280v-356q0 -101 -52 -152t-150 -51z" />
    <glyph glyph-name="less" unicode="&#x3c;" horiz-adv-x="983" 
d="M45 815l854 326v-209l-651 -238v-16l651 -238v-209l-854 326v258z" />
    <glyph glyph-name="equal" unicode="=" horiz-adv-x="987" 
d="M922 825h-854v185h854v-185zM922 362h-854v185h854v-185z" />
    <glyph glyph-name="greater" unicode="&#x3e;" horiz-adv-x="983" 
d="M922 557l-854 -326v209l651 238v16l-651 238v209l854 -326v-258z" />
    <glyph glyph-name="question" unicode="?" horiz-adv-x="1120" 
d="M606 449h-221v55q0 91 35.5 143.5t124.5 95.5l123 60q51 25 76 40t52 38t37.5 51t10.5 67q0 64 -20 103.5t-78.5 63.5t-161.5 24q-118 0 -185 -26.5t-93.5 -77.5t-26.5 -138v-30h-218v32q0 93 32 172.5t95 140.5t166.5 95.5t237.5 34.5q123 0 216 -29t148 -82t82 -120.5
t27 -149.5q0 -70 -22 -127.5t-62.5 -99t-82.5 -69.5t-97 -54l-117 -54q-46 -21 -62 -44.5t-16 -63.5v-51zM625 0h-252v303h252v-303z" />
    <glyph glyph-name="at" unicode="@" horiz-adv-x="1863" 
d="M844 86q-161 0 -247.5 114t-86.5 302q0 184 90.5 300t253.5 116q96 0 159.5 -43.5t92.5 -120.5h10v147h195v-522q0 -67 26.5 -97t87.5 -30q76 0 107 65.5t31 237.5q0 319 -143 459.5t-466 140.5q-328 0 -485.5 -151t-157.5 -496q0 -336 151 -484.5t464 -148.5
q132 0 291 49l47 -170q-168 -59 -367 -59q-375 0 -585 215t-210 598q0 189 61 346t172.5 266.5t273 169.5t356.5 60q374 0 585 -199.5t211 -552.5q0 -241 -92.5 -377.5t-267.5 -136.5q-229 0 -283 178h-4q-29 -81 -97.5 -128.5t-172.5 -47.5zM717 502q0 -131 45 -190.5
t149 -59.5q100 0 146.5 44.5t46.5 143.5v123q0 99 -45.5 144t-145.5 45q-108 0 -152 -58.5t-44 -191.5z" />
    <glyph glyph-name="A" unicode="A" horiz-adv-x="1425" 
d="M250 0h-232l535 1372h317l535 -1372h-240l-139 356h-637zM610 918l-143 -363h481l-143 363l-88 253h-17z" />
    <glyph glyph-name="B" unicode="B" horiz-adv-x="1292" 
d="M770 0h-655v1372h630q205 0 318 -86t113 -256q0 -121 -68 -198t-199 -97v-16q153 -20 234.5 -111.5t81.5 -230.5q0 -176 -120 -276.5t-335 -100.5zM336 1174v-371h389q126 0 178.5 40.5t52.5 143.5q0 105 -50 146t-175 41h-395zM336 618v-419h428q128 0 182.5 45.5
t54.5 163.5q0 120 -54.5 165t-182.5 45h-428z" />
    <glyph glyph-name="C" unicode="C" horiz-adv-x="1380" 
d="M715 -20q-297 0 -469 191.5t-172 514.5t172 515t469 192q276 0 434 -143.5t158 -391.5v-12h-236v12q0 170 -84.5 246t-277.5 76q-214 0 -307 -114t-93 -380t92.5 -379.5t307.5 -113.5q193 0 277.5 76t84.5 245v12h236v-12q0 -248 -158 -391t-434 -143z" />
    <glyph glyph-name="D" unicode="D" horiz-adv-x="1363" 
d="M602 0h-487v1372h487q319 0 506.5 -184.5t187.5 -501.5t-187.5 -501.5t-506.5 -184.5zM602 1174h-266v-975h266q247 0 353 112t106 375t-106 375.5t-353 112.5z" />
    <glyph glyph-name="E" unicode="E" horiz-adv-x="1177" 
d="M1096 0h-981v1372h981v-198h-760v-383h729v-201h-729v-391h760v-199z" />
    <glyph glyph-name="F" unicode="F" horiz-adv-x="1148" 
d="M336 0h-221v1372h972v-198h-751v-424h721v-201h-721v-549z" />
    <glyph glyph-name="G" unicode="G" horiz-adv-x="1425" 
d="M678 -20q-290 0 -450 188t-160 518q0 323 174.5 515t478.5 192q275 0 432.5 -137.5t157.5 -374.5v-15h-234v15q0 157 -85.5 228t-280.5 71q-218 0 -313 -114t-95 -380t99 -379.5t327 -113.5q194 0 282.5 65t88.5 223v33h-428v191h641v-705h-203v215h-8
q-41 -101 -151.5 -168t-272.5 -67z" />
    <glyph glyph-name="H" unicode="H" horiz-adv-x="1361" 
d="M336 0h-221v1372h221v-581h692v581h221v-1372h-221v592h-692v-592z" />
    <glyph glyph-name="I" unicode="I" horiz-adv-x="450" 
d="M336 0h-221v1372h221v-1372z" />
    <glyph glyph-name="J" unicode="J" horiz-adv-x="1150" 
d="M543 -20q-137 0 -237.5 37.5t-161 107.5t-89 163t-28.5 212v57h233v-74q0 -82 10 -132.5t40 -88.5t84.5 -53.5t142.5 -15.5q87 0 141 15.5t83.5 53.5t39.5 88.5t10 132.5v889h236v-872q0 -243 -123.5 -381.5t-380.5 -138.5z" />
    <glyph glyph-name="K" unicode="K" horiz-adv-x="1290" 
d="M336 0h-221v1372h221v-586h317l361 586h252l-426 -680l424 -692h-254l-353 573h-321v-573z" />
    <glyph glyph-name="L" unicode="L" horiz-adv-x="1103" 
d="M1067 0h-952v1372h221v-1173h731v-199z" />
    <glyph glyph-name="M" unicode="M" horiz-adv-x="1732" 
d="M336 0h-221v1372h313l313 -754l121 -327h17l118 327l308 754h313v-1372h-219v811l8 229h-14l-86 -229l-308 -729h-266l-309 729l-82 229h-18l12 -229v-811z" />
    <glyph glyph-name="N" unicode="N" horiz-adv-x="1368" 
d="M336 0h-221v1372h237l520 -786l146 -219h16v1005h221v-1372h-237l-518 774l-150 223h-14v-997z" />
    <glyph glyph-name="O" unicode="O" horiz-adv-x="1427" 
d="M715 -20q-293 0 -467 192.5t-174 513.5q0 322 174 514.5t467 192.5q291 0 465 -193t174 -514t-174 -513.5t-465 -192.5zM715 193q215 0 309 113.5t94 379.5t-94 380t-309 114t-310.5 -114.5t-95.5 -379.5t95.5 -379t310.5 -114z" />
    <glyph glyph-name="P" unicode="P" horiz-adv-x="1243" 
d="M336 0h-221v1372h583q144 0 256 -54t177 -160.5t65 -250.5t-65 -250.5t-177 -160.5t-256 -54h-362v-442zM725 1174h-389v-533h389q136 0 194 60t58 206q0 147 -58 207t-194 60z" />
    <glyph glyph-name="Q" unicode="Q" horiz-adv-x="1427" 
d="M715 -20q-293 0 -467 192.5t-174 513.5q0 322 174 514.5t467 192.5q291 0 465 -193t174 -514q0 -243 -102 -416t-285 -245l217 -314h-281l-166 269h-22zM715 193q215 0 309 113.5t94 379.5t-94 380t-309 114t-310.5 -114.5t-95.5 -379.5t95.5 -379t310.5 -114z" />
    <glyph glyph-name="R" unicode="R" horiz-adv-x="1265" 
d="M336 0h-221v1372h590q229 0 361 -108t132 -301q0 -170 -100 -269t-281 -108v-17q73 -24 122 -69.5t89 -118.5l205 -381h-256l-195 354q-34 64 -66 99t-85 55t-133 20h-162v-528zM336 1174v-463h395q133 0 189.5 53t56.5 178q0 123 -57 177.5t-189 54.5h-395z" />
    <glyph glyph-name="S" unicode="S" horiz-adv-x="1236" 
d="M670 -20q-286 0 -427 119.5t-141 326.5v35h217v-23q0 -67 16 -112.5t55.5 -79t110.5 -49t177 -15.5q150 0 213 43t63 140q0 66 -19.5 102.5t-72.5 62.5t-160 48l-233 47q-181 35 -272 126t-91 250q0 78 31 147t91.5 124.5t161 88t228.5 32.5q138 0 242.5 -36.5t166 -101
t92 -145t30.5 -174.5v-25h-217v23q0 132 -71 194t-249 62q-150 0 -217 -43t-67 -135t49 -130.5t194 -70.5l234 -49q191 -39 281 -135.5t90 -253.5q0 -82 -30.5 -152t-90.5 -124.5t-159 -85.5t-226 -31z" />
    <glyph glyph-name="T" unicode="T" horiz-adv-x="1177" 
d="M698 0h-219v1174h-467v198h1153v-198h-467v-1174z" />
    <glyph glyph-name="U" unicode="U" horiz-adv-x="1388" 
d="M694 -20q-279 0 -431 146.5t-152 410.5v835h219v-835q0 -187 81.5 -265.5t282.5 -78.5q200 0 281.5 78.5t81.5 265.5v835h221v-835q0 -263 -153 -410t-431 -147z" />
    <glyph glyph-name="V" unicode="V" horiz-adv-x="1386" 
d="M840 0h-293l-520 1372h247l414 -1126h17l409 1126h246z" />
    <glyph glyph-name="W" unicode="W" horiz-adv-x="2031" 
d="M684 0h-322l-317 1372h254l170 -772l59 -379h17l88 379l227 772h309l228 -772l88 -379h16l60 379l172 772h249l-319 -1372h-322l-208 698l-111 426h-18l-111 -426z" />
    <glyph glyph-name="X" unicode="X" horiz-adv-x="1452" 
d="M338 0h-260l467 684v16l-467 672h264l373 -534h16l369 534h260l-467 -672v-16l467 -684h-264l-373 547h-14z" />
    <glyph glyph-name="Y" unicode="Y" horiz-adv-x="1298" 
d="M758 0h-219v510l-533 862h252l260 -424l127 -215h14l125 215l258 424h250l-534 -866v-506z" />
    <glyph glyph-name="Z" unicode="Z" horiz-adv-x="1208" 
d="M1167 0h-1120v184l793 973v17h-752v198h1049v-184l-795 -973v-16h825v-199z" />
    <glyph glyph-name="bracketleft" unicode="[" horiz-adv-x="573" 
d="M539 -123h-424v1618h424v-184h-217v-1250h217v-184z" />
    <glyph glyph-name="backslash" unicode="\" horiz-adv-x="890" 
d="M932 -41h-236l-737 1454h236z" />
    <glyph glyph-name="bracketright" unicode="]" horiz-adv-x="573" 
d="M-6 61h217v1250h-217v184h424v-1618h-424v184z" />
    <glyph glyph-name="asciicircum" unicode="^" horiz-adv-x="978" 
d="M256 573h-207l309 799h263l309 -799h-205l-227 598h-17z" />
    <glyph glyph-name="underscore" unicode="_" horiz-adv-x="778" 
d="M758 -160h-738v160h738v-160z" />
    <glyph glyph-name="grave" unicode="`" 
d="M870 1147h-229l-283 256v10h293l219 -256v-10z" />
    <glyph glyph-name="a" unicode="a" horiz-adv-x="1073" 
d="M387 -20q-142 0 -233 71.5t-91 200.5q0 238 340 287l357 53v55q0 111 -53 154t-177 43q-122 0 -173.5 -43t-51.5 -144v-30h-213v20q0 172 124.5 281.5t326.5 109.5q208 0 318 -114t110 -306v-618h-205v160h-10q-49 -80 -141.5 -130t-227.5 -50zM279 268q0 -60 41.5 -86
t138.5 -26q58 0 108 12.5t95.5 41t71.5 82t26 126.5v18l-324 -49q-89 -12 -123 -37.5t-34 -81.5z" />
    <glyph glyph-name="b" unicode="b" horiz-adv-x="1171" 
d="M311 0h-202v1372h221v-516h4q37 76 126.5 129t215.5 53q207 0 317.5 -141t110.5 -387q0 -247 -114.5 -388.5t-325.5 -141.5q-131 0 -219.5 49t-125.5 139h-8v-168zM330 418q0 -250 276 -250q149 0 214 77.5t65 264.5q0 185 -65.5 262.5t-213.5 77.5q-276 0 -276 -250
v-182z" />
    <glyph glyph-name="c" unicode="c" horiz-adv-x="1093" 
d="M565 -23q-234 0 -365.5 145t-131.5 386t134.5 385.5t370.5 144.5q201 0 327 -113t126 -296v-19h-219v13q0 112 -60 164.5t-188 52.5q-145 0 -208.5 -81t-63.5 -251q0 -169 63.5 -249.5t208.5 -80.5q128 0 188 51.5t60 163.5v13h219v-19q0 -182 -128 -296t-333 -114z" />
    <glyph glyph-name="d" unicode="d" horiz-adv-x="1171" 
d="M516 -20q-215 0 -331.5 141.5t-116.5 388.5q0 245 114 386.5t322 141.5q126 0 211.5 -51t122.5 -127h6v512h219v-1372h-203v168h-8q-38 -90 -123 -139t-213 -49zM289 510q0 -187 63.5 -264.5t212.5 -77.5q279 0 279 250v182q0 250 -279 250q-148 0 -212 -77t-64 -263z
" />
    <glyph glyph-name="e" unicode="e" horiz-adv-x="1103" 
d="M561 -20q-245 0 -369 142t-124 388q0 238 133 383t358 145q209 0 338 -118t129 -324q0 -77 -12 -139h-740q6 -146 70.5 -213.5t218.5 -67.5q236 0 236 150v16h219v-18q0 -156 -125.5 -250t-331.5 -94zM555 852q-140 0 -205 -62t-74 -186h539q6 128 -60 188t-200 60z" />
    <glyph glyph-name="f" unicode="f" horiz-adv-x="657" 
d="M383 0h-221v834h-150v184h150q3 172 104.5 263t294.5 91h82v-176h-123q-74 0 -108.5 -29.5t-34.5 -93.5v-55h266v-184h-260v-834z" />
    <glyph glyph-name="g" unicode="g" horiz-adv-x="1171" 
d="M504 96q-208 0 -322 126.5t-114 344.5t116 344.5t328 126.5q123 0 213 -49.5t127 -138.5h8v168h203v-944q0 -222 -123 -332.5t-350 -110.5q-219 0 -344 100t-125 283h219q0 -106 52.5 -146t203.5 -40q147 0 197.5 51.5t50.5 194.5v202h-8q-37 -78 -125 -129t-207 -51z
M289 567q0 -154 65.5 -218t212.5 -64q129 0 203 63.5t74 188.5v63q0 124 -75 187t-206 63q-145 0 -209.5 -64.5t-64.5 -218.5z" />
    <glyph glyph-name="h" unicode="h" horiz-adv-x="1165" 
d="M330 0h-221v1372h221v-524h8q41 79 127 134.5t213 55.5q190 0 284.5 -109.5t94.5 -287.5v-641h-221v590q0 139 -53.5 198.5t-190.5 59.5q-138 0 -200 -60t-62 -202v-586z" />
    <glyph glyph-name="i" unicode="i" horiz-adv-x="411" 
d="M315 1147h-219l-2 225h221v-225zM317 0h-221v1024h221v-1024z" />
    <glyph glyph-name="j" unicode="j" horiz-adv-x="442" 
d="M334 1147h-221v225h221v-225zM-92 -348v201h80q78 0 101.5 18.5t23.5 81.5v1065h221v-1020q0 -99 -25 -167.5t-74.5 -107t-113 -55t-150.5 -16.5h-63z" />
    <glyph glyph-name="k" unicode="k" horiz-adv-x="1075" 
d="M330 0h-221v1372h221v-758h200l273 404h260l-354 -481l348 -537h-258l-267 416h-202v-416z" />
    <glyph glyph-name="l" unicode="l" horiz-adv-x="438" 
d="M330 0h-221v1372h221v-1372z" />
    <glyph glyph-name="m" unicode="m" horiz-adv-x="1845" 
d="M330 0h-221v1018h202v-191h8q40 92 126.5 151.5t222.5 59.5q130 0 215 -55.5t123 -155.5h6q26 58 67 102.5t115.5 76.5t169.5 32q189 0 284 -108.5t95 -290.5v-639h-221v590q0 140 -52.5 199t-187.5 59q-128 0 -187 -59.5t-59 -196.5v-592h-221v590q0 140 -52.5 199
t-187.5 59q-128 0 -186.5 -59t-58.5 -195v-594z" />
    <glyph glyph-name="n" unicode="n" horiz-adv-x="1159" 
d="M330 0h-221v1018h202v-191h8q40 92 128 151.5t227 59.5q191 0 287 -108.5t96 -290.5v-639h-221v590q0 139 -53.5 198.5t-190.5 59.5t-199.5 -60t-62.5 -200v-588z" />
    <glyph glyph-name="o" unicode="o" horiz-adv-x="1142" 
d="M575 -20q-233 0 -370 145t-137 385q0 238 137 383t370 145q231 0 365.5 -144.5t134.5 -383.5q0 -240 -134.5 -385t-365.5 -145zM575 176q157 0 222 79t65 255q0 174 -65 253t-222 79q-158 0 -224 -79t-66 -253q0 -175 66 -254.5t224 -79.5z" />
    <glyph glyph-name="p" unicode="p" horiz-adv-x="1171" 
d="M319 -354h-219v1372h201v-168h10q36 90 122.5 139t217.5 49q213 0 329 -142t116 -388q0 -245 -112.5 -386.5t-317.5 -141.5q-128 0 -215.5 50.5t-124.5 127.5h-7v-512zM319 418q0 -250 279 -250q148 0 212 77t64 263q0 187 -63.5 264.5t-212.5 77.5q-279 0 -279 -250
v-182z" />
    <glyph glyph-name="q" unicode="q" horiz-adv-x="1171" 
d="M502 -20q-210 0 -322 141t-112 387q0 247 115 388.5t327 141.5q130 0 217.5 -49t124.5 -139h8v168h203v-1372h-219v512h-6q-37 -76 -124.5 -127t-211.5 -51zM289 508q0 -186 64 -263t212 -77q279 0 279 250v182q0 250 -279 250q-149 0 -212.5 -77.5t-63.5 -264.5z" />
    <glyph glyph-name="r" unicode="r" horiz-adv-x="948" 
d="M330 0h-221v1024h202v-162h11q34 77 106 126.5t178 49.5q77 0 135.5 -27t92.5 -75t50.5 -109t16.5 -135v-67h-221v41q0 103 -36 143.5t-132 40.5q-100 0 -141 -42.5t-41 -143.5v-664z" />
    <glyph glyph-name="s" unicode="s" horiz-adv-x="1013" 
d="M537 -20q-453 0 -453 364v4h213v-37q0 -85 50.5 -118t193.5 -33q117 0 155.5 25.5t38.5 86.5q0 60 -41 86.5t-157 47.5l-158 26q-145 26 -221 96.5t-76 202.5q0 140 110.5 223.5t307.5 83.5q187 0 303.5 -91t116.5 -259v-18h-211v24q0 39 -8.5 65.5t-30.5 50t-66 35
t-110 11.5q-116 0 -158.5 -29t-42.5 -92q0 -58 35.5 -82.5t144.5 -46.5l172 -33q151 -30 225 -100t74 -194q0 -141 -107 -220t-300 -79z" />
    <glyph glyph-name="t" unicode="t" horiz-adv-x="759" 
d="M535 0q-176 0 -261.5 73t-85.5 240v521h-170v184h175l47 252h170v-252h307v-184h-307v-510q0 -77 37.5 -101t144.5 -24h125v-181q-77 -18 -182 -18z" />
    <glyph glyph-name="u" unicode="u" horiz-adv-x="1165" 
d="M487 -20q-191 0 -288 113t-97 296v629h222v-590q0 -137 57 -197.5t188 -60.5q133 0 200 64t67 210v574h221v-1018h-205v203h-8q-41 -98 -129.5 -160.5t-227.5 -62.5z" />
    <glyph glyph-name="v" unicode="v" horiz-adv-x="1120" 
d="M698 0h-278l-408 1018h246l297 -807h14l299 807h240z" />
    <glyph glyph-name="w" unicode="w" horiz-adv-x="1640" 
d="M563 0h-289l-251 1018h239l117 -565l41 -269h16l68 269l178 565h287l180 -567l63 -267h17l41 267l119 567h229l-252 -1018h-287l-182 567l-68 256h-16l-65 -256z" />
    <glyph glyph-name="x" unicode="x" horiz-adv-x="1093" 
d="M262 0h-250l365 512v14l-365 492h258l275 -377h14l272 377h250l-364 -500v-16l364 -502h-258l-274 389h-14z" />
    <glyph glyph-name="y" unicode="y" horiz-adv-x="1118" 
d="M283 -348q-91 0 -154 18v180h139q67 0 97.5 17.5t54.5 73.5l39 86l-432 991h243l205 -494l92 -221h17l84 221l186 494h244l-482 -1139q-55 -130 -131 -178.5t-202 -48.5z" />
    <glyph glyph-name="z" unicode="z" horiz-adv-x="1085" 
d="M1024 0h-963v174l496 504l131 129v16h-596v195h901v-189l-510 -503l-118 -115v-16h659v-195z" />
    <glyph glyph-name="braceleft" unicode="{" horiz-adv-x="628" 
d="M594 -123h-21q-348 0 -348 377v233q0 60 -25.5 80.5t-99.5 20.5h-59v196h59q74 0 99.5 20.5t25.5 80.5v233q0 377 348 377h21v-213h-23q-89 0 -114 -33t-25 -139v-188q0 -228 -199 -228v-16q97 0 148 -53.5t51 -173.5v-189q0 -106 25 -139t114 -33h23v-213z" />
    <glyph glyph-name="bar" unicode="|" horiz-adv-x="376" 
d="M291 -205h-205v1782h205v-1782z" />
    <glyph glyph-name="braceright" unicode="}" horiz-adv-x="628" 
d="M35 1495h20q348 0 348 -377v-233q0 -60 25.5 -80.5t99.5 -20.5h60v-196h-60q-74 0 -99.5 -20.5t-25.5 -80.5v-233q0 -377 -348 -377h-20v213h22q89 0 114.5 33.5t25.5 138.5v189q0 120 50.5 173.5t147.5 53.5v16q-96 0 -147 54t-51 174v188q0 105 -25.5 138.5
t-114.5 33.5h-22v213z" />
    <glyph glyph-name="asciitilde" unicode="~" horiz-adv-x="1107" 
d="M279 508h-187v119q0 33 4.5 63.5t19 64.5t37 58.5t62.5 40.5t92 16q80 0 195 -61l116 -57q39 -20 57.5 -28.5t47.5 -18t51 -9.5q62 0 62 66v96h184v-129q0 -104 -46 -167.5t-149 -63.5q-97 0 -231 69l-119 58q-92 45 -131 45q-35 0 -50 -17.5t-15 -54.5v-90z" />
    <glyph glyph-name="nbspace" unicode="&#xa0;" horiz-adv-x="385" 
 />
    <glyph glyph-name="exclamdown" unicode="&#xa1;" horiz-adv-x="473" 
d="M111 1024h249v-303h-249v303zM129 573h215q0 -105 16.5 -404.5t16.5 -373.5v-143h-281v143q0 74 16.5 374.5t16.5 403.5z" />
    <glyph glyph-name="cent" unicode="&#xa2;" horiz-adv-x="1093" 
d="M662 -205h-205v191q-185 33 -287 172.5t-102 349.5q0 209 102 347t287 173v201h205v-197q165 -25 264.5 -134t99.5 -269v-19h-219v13q0 112 -60 164.5t-188 52.5q-145 0 -208.5 -81t-63.5 -251q0 -169 63.5 -249.5t208.5 -80.5q128 0 188 51.5t60 163.5v13h219v-19
q0 -159 -98.5 -267t-265.5 -134v-191z" />
    <glyph glyph-name="sterling" unicode="&#xa3;" horiz-adv-x="1224" 
d="M834 553h-299q36 -79 36 -152q0 -134 -122 -192v-10h714v-199h-1065v199h62q99 0 158 45.5t59 124.5q0 89 -53 174l-7 10h-235v184h127q-72 131 -72 260q0 172 132.5 284t379.5 112q132 0 230.5 -35t157 -97.5t86.5 -142t28 -174.5v-33h-217v29q0 92 -23.5 143.5t-88 79
t-183.5 27.5q-151 0 -216 -52t-65 -153q0 -56 18.5 -107t59.5 -130l6 -11h392v-184z" />
    <glyph glyph-name="currency" unicode="&#xa4;" horiz-adv-x="1167" 
d="M586 174q-161 0 -291 86l-176 -170l-88 92l172 166q-103 125 -103 297q0 169 103 297l-172 166l88 92l176 -172q125 88 291 88t291 -88l174 172l88 -92l-172 -166q100 -124 100 -297q0 -167 -100 -297l172 -166l-88 -92l-177 172q-125 -88 -288 -88zM586 369
q268 0 268 276q0 275 -268 275q-269 0 -269 -275q0 -276 269 -276z" />
    <glyph glyph-name="yen" unicode="&#xa5;" horiz-adv-x="1419" 
d="M834 0h-220v371h-534v184h508l-105 168h-403v182h291l-291 467h248l305 -491l86 -166h16l86 166l303 491h242l-289 -467h289v-182h-403l-105 -168h508v-184h-532v-371z" />
    <glyph glyph-name="brokenbar" unicode="&#xa6;" horiz-adv-x="411" 
d="M309 768h-207v809h207v-809zM309 -205h-207v809h207v-809z" />
    <glyph glyph-name="section" unicode="&#xa7;" horiz-adv-x="1013" 
d="M530 -20q-217 0 -333.5 89t-116.5 261v22h215v-35q0 -38 8.5 -63.5t31.5 -48t69 -33t116 -10.5q120 0 164.5 26.5t44.5 87.5q0 52 -36.5 75.5t-143.5 51.5l-250 64q-106 26 -163.5 77t-57.5 146q0 65 39 113t110 71v9q-149 53 -149 217q0 135 108.5 214t302.5 79
q197 0 310.5 -90.5t113.5 -260.5v-18h-213v33q0 81 -45.5 117t-169.5 36q-111 0 -154.5 -27t-43.5 -87q0 -53 36.5 -78t141.5 -51l252 -66q105 -29 162 -79t57 -136q0 -67 -38.5 -119t-109.5 -75v-11q72 -26 111 -79.5t39 -125.5q0 -139 -106.5 -217.5t-301.5 -78.5z
M385 633l223 -60q63 -16 95 9.5t32 70.5q0 38 -24 58t-80 32l-228 58q-58 14 -89 -10t-31 -66q0 -39 22 -58t80 -34z" />
    <glyph glyph-name="dieresis" unicode="&#xa8;" 
d="M911 1147h-221v254h221v-254zM537 1147h-220v254h220v-254z" />
    <glyph glyph-name="copyright" unicode="&#xa9;" horiz-adv-x="1490" 
d="M745 -4q-306 0 -492.5 189.5t-186.5 500.5t186.5 500.5t492.5 189.5t493 -190t187 -500t-187 -500t-493 -190zM745 156q263 0 382.5 127t119.5 403t-119.5 403.5t-382.5 127.5q-264 0 -383.5 -127t-119.5 -404q0 -276 119.5 -403t383.5 -127zM756 315
q-161 0 -254.5 102.5t-93.5 268.5t93.5 268.5t254.5 102.5q144 0 234.5 -83.5t90.5 -213.5v-17h-166v13q0 81 -39 115t-120 34q-98 0 -140.5 -50.5t-42.5 -168.5t42.5 -168.5t140.5 -50.5q80 0 119.5 34.5t39.5 114.5v13h166v-17q0 -130 -90.5 -213.5t-234.5 -83.5z" />
    <glyph glyph-name="ordfeminine" unicode="&#xaa;" horiz-adv-x="458" 
d="M190 1073q-106 0 -106 82q0 72 104 84l113 12v11q0 30 -12.5 42.5t-46.5 12.5t-47 -12t-13 -41v-4h-92v6q0 57 42 92t114 35q71 0 108 -35t37 -94v-185h-84v49h-4q-28 -55 -113 -55zM172 1161q0 -24 47 -24q84 0 84 61l-94 -12q-37 -3 -37 -25z" />
    <glyph glyph-name="guillemotleft" unicode="&#xab;" horiz-adv-x="1011" 
d="M541 743l409 283v-225l-256 -168v-17l256 -167v-226l-409 283v237zM49 743l410 283v-225l-256 -168v-17l256 -167v-226l-410 283v237z" />
    <glyph glyph-name="logicalnot" unicode="&#xac;" horiz-adv-x="987" 
d="M942 365h-192v352h-682v184h874v-536z" />
    <glyph glyph-name="softhyphen" unicode="&#xad;" horiz-adv-x="747" 
d="M700 508h-653v188h653v-188z" />
    <glyph glyph-name="registered" unicode="&#xae;" horiz-adv-x="802" 
d="M401 696q-158 0 -253 95.5t-95 246.5t95 246.5t253 95.5q159 0 254 -95.5t95 -246.5t-95 -246.5t-254 -95.5zM401 793q125 0 185.5 58.5t60.5 186.5q0 129 -60.5 187.5t-185.5 58.5q-124 0 -182.5 -58.5t-58.5 -187.5t58.5 -187t182.5 -58zM352 897h-84v291h152
q121 0 121 -90q0 -39 -23 -61.5t-59 -22.5v-4q18 -6 29.5 -17t25.5 -35l37 -61h-92l-35 55q-13 24 -24 32.5t-35 8.5h-13v-96zM352 1118v-61h70q23 0 31 5.5t8 22.5q0 19 -8 26t-31 7h-70z" />
    <glyph glyph-name="macron" unicode="&#xaf;" 
d="M897 1200h-567v160h567v-160z" />
    <glyph glyph-name="degree" unicode="&#xb0;" horiz-adv-x="475" 
d="M238 1073q-76 0 -122 44.5t-46 115.5t46 115.5t122 44.5t122 -44.5t46 -115.5t-46 -115.5t-122 -44.5zM238 1157q40 0 57.5 18t17.5 58t-17.5 58t-57.5 18t-58 -18t-18 -58t18 -58t58 -18z" />
    <glyph glyph-name="plusminus" unicode="&#xb1;" horiz-adv-x="1003" 
d="M922 113h-854v184h344v297h-330v184h330v334h192v-334h332v-184h-332v-297h318v-184z" />
    <glyph glyph-name="twosuperior" unicode="&#xb2;" horiz-adv-x="710" 
d="M649 696h-586v72q0 100 48.5 158.5t150.5 95.5l100 39q40 15 59 23.5t40 21.5t29 27.5t8 33.5q0 45 -26 66.5t-101 21.5q-83 0 -117.5 -25.5t-34.5 -84.5v-15h-158v15q0 107 82 177.5t238 70.5q137 0 206.5 -58t69.5 -155q0 -83 -51.5 -131t-154.5 -86l-152 -58
q-41 -15 -57.5 -31.5t-16.5 -44.5h424v-133z" />
    <glyph glyph-name="threesuperior" unicode="&#xb3;" horiz-adv-x="731" 
d="M375 686q-157 0 -231 59.5t-74 167.5v23h155v-23q0 -52 32 -74t118 -22q74 0 103.5 19.5t29.5 72.5q0 51 -29 67.5t-100 16.5h-103v115h86q67 0 92 13t25 57t-24 64t-90 20q-78 0 -109 -21.5t-31 -73.5v-14h-155v14q0 104 78 165t223 61q127 0 199.5 -46.5t72.5 -138.5
q0 -125 -149 -145v-10q82 -8 130 -51.5t48 -120.5q0 -96 -80.5 -145.5t-216.5 -49.5z" />
    <glyph glyph-name="acute" unicode="&#xb4;" 
d="M588 1147h-232v10l222 256h292v-10z" />
    <glyph glyph-name="paragraph" unicode="&#xb6;" horiz-adv-x="1312" 
d="M760 0h-221v553h-13q-213 0 -346 105t-133 307q0 134 64.5 227.5t170.5 136.5t244 43h234v-1372zM1198 0h-221v1372h221v-1372z" />
    <glyph glyph-name="periodcentered" unicode="&#xb7;" horiz-adv-x="421" 
d="M365 512h-281v317h281v-317z" />
    <glyph glyph-name="cedilla" unicode="&#xb8;" 
d="M598 -442h-170v125h164q36 0 54 10.5t18 38.5q0 30 -17.5 40.5t-54.5 10.5h-123v223h123v-110h12q93 0 145 -44.5t52 -121.5q0 -79 -54.5 -125.5t-148.5 -46.5z" />
    <glyph glyph-name="onesuperior" unicode="&#xb9;" horiz-adv-x="460" 
d="M379 686h-164v471h-172v131h51q54 0 84.5 18t48.5 66h152v-686z" />
    <glyph glyph-name="ordmasculine" unicode="&#xba;" horiz-adv-x="475" 
d="M238 1073q-76 0 -122 44.5t-46 115.5t46 115.5t122 44.5t122 -44.5t46 -115.5t-46 -115.5t-122 -44.5zM238 1157q40 0 57.5 18t17.5 58t-17.5 58t-57.5 18t-58 -18t-18 -58t18 -58t58 -18z" />
    <glyph glyph-name="guillemotright" unicode="&#xbb;" horiz-adv-x="1011" 
d="M471 506l-410 -283v226l256 167v17l-256 168v225l410 -283v-237zM963 506l-410 -283v226l256 167v17l-256 168v225l410 -283v-237z" />
    <glyph glyph-name="onequarter" unicode="&#xbc;" horiz-adv-x="1521" 
d="M432 686h-164v471h-172v131h51q55 0 85.5 18t48.5 66h151v-686zM324 0h-218l1051 1372h215zM1354 0h-162v135h-401v125l383 426h180v-405h106v-146h-106v-135zM973 281h219v241h-8l-211 -231v-10z" />
    <glyph glyph-name="onehalf" unicode="&#xbd;" horiz-adv-x="1595" 
d="M432 686h-164v471h-172v131h51q55 0 85.5 18t48.5 66h151v-686zM324 0h-218l1051 1372h215zM1526 0h-586v72q0 100 48.5 158.5t150.5 95.5l100 39q39 15 58.5 23.5t40 21.5t28.5 27.5t8 33.5q0 45 -26 66.5t-101 21.5q-82 0 -116.5 -25.5t-34.5 -84.5v-15h-158v15
q0 107 81.5 177t237.5 70q137 0 207 -58t70 -155q0 -83 -52 -131t-155 -86l-151 -57q-41 -15 -57.5 -31.5t-16.5 -44.5h424v-133z" />
    <glyph glyph-name="threequarters" unicode="&#xbe;" horiz-adv-x="1652" 
d="M383 686q-157 0 -231 59.5t-74 167.5v23h155v-23q0 -52 32 -74t118 -22q74 0 103.5 19.5t29.5 72.5q0 51 -29 67.5t-100 16.5h-102v115h86q67 0 91.5 13t24.5 57t-24 64t-90 20q-78 0 -109 -21.5t-31 -73.5v-14h-155v14q0 104 78 165t223 61q127 0 199.5 -46.5
t72.5 -138.5q0 -125 -149 -145v-10q82 -8 130 -51.5t48 -120.5q0 -96 -80.5 -145.5t-216.5 -49.5zM463 0h-217l1050 1372h215zM1473 0h-162v135h-402v125l383 426h181v-405h106v-146h-106v-135zM1092 281h219v241h-8l-211 -231v-10z" />
    <glyph glyph-name="questiondown" unicode="&#xbf;" horiz-adv-x="1120" 
d="M496 1024h252v-303h-252v303zM514 575h221v-55q0 -91 -35.5 -143.5t-124.5 -95.5l-122 -60q-34 -17 -52.5 -26.5t-42.5 -24.5t-36 -28t-24 -31t-17 -39t-5 -47q0 -48 11 -81t39 -59t80.5 -38.5t130.5 -12.5q118 0 185 26.5t93.5 77.5t26.5 138v30h217v-32
q0 -93 -32 -172.5t-95 -140.5t-166.5 -95.5t-237.5 -34.5q-123 0 -216 29t-148 82t-82 120.5t-27 149.5q0 70 22 127.5t62.5 99t82.5 69.5t97 54l117 54q46 21 62 44.5t16 63.5v51z" />
    <glyph glyph-name="Agrave" unicode="&#xc0;" horiz-adv-x="1425" 
d="M817 1495h-231l-277 250v10h293l215 -250v-10zM250 0h-232l535 1372h317l535 -1372h-240l-139 356h-637zM610 918l-143 -363h481l-143 363l-88 253h-17z" />
    <glyph glyph-name="Aacute" unicode="&#xc1;" horiz-adv-x="1425" 
d="M844 1495h-234v10l217 250h293v-10zM250 0h-232l535 1372h317l535 -1372h-240l-139 356h-637zM610 918l-143 -363h481l-143 363l-88 253h-17z" />
    <glyph glyph-name="Acircumflex" unicode="&#xc2;" horiz-adv-x="1425" 
d="M584 1495h-211v10l211 256h256l213 -256v-10h-211l-121 147h-16zM250 0h-232l535 1372h317l535 -1372h-240l-139 356h-637zM610 918l-143 -363h481l-143 363l-88 253h-17z" />
    <glyph glyph-name="Atilde" unicode="&#xc3;" horiz-adv-x="1425" 
d="M547 1513h-152v74q0 34 6.5 63.5t21.5 59t46.5 47t75.5 17.5q55 0 141 -50l76 -41q46 -26 78 -26q39 0 39 51v51h149v-82q0 -78 -34.5 -128t-110.5 -50q-40 0 -72 11.5t-80 39.5l-80 43q-45 25 -67 25q-37 0 -37 -49v-56zM250 0h-232l535 1372h317l535 -1372h-240
l-139 356h-637zM610 918l-143 -363h481l-143 363l-88 253h-17z" />
    <glyph glyph-name="Adieresis" unicode="&#xc4;" horiz-adv-x="1425" 
d="M1010 1495h-222v254h222v-254zM637 1495h-221v254h221v-254zM250 0h-232l535 1372h317l535 -1372h-240l-139 356h-637zM610 918l-143 -363h481l-143 363l-88 253h-17z" />
    <glyph glyph-name="Aring" unicode="&#xc5;" horiz-adv-x="1425" 
d="M250 0h-232l525 1346q-43 53 -43 124q0 87 58.5 140t154.5 53t154.5 -53t58.5 -140q0 -76 -45 -124l524 -1346h-240l-139 356h-637zM713 1384q56 0 78 19t22 67t-22 68.5t-78 20.5t-79.5 -20.5t-23.5 -68.5q0 -47 23 -66.5t80 -19.5zM610 918l-143 -363h481l-143 363
l-88 253h-17z" />
    <glyph glyph-name="AE" unicode="&#xc6;" horiz-adv-x="2140" 
d="M272 0h-272l950 1372h1108v-198h-760v-383h730v-201h-730v-391h760v-199h-981v356h-563zM1061 1167l-414 -612h430v612h-16z" />
    <glyph glyph-name="Ccedilla" unicode="&#xc7;" horiz-adv-x="1380" 
d="M766 -442h-170v125h164q36 0 53.5 10.5t17.5 38.5q0 30 -17 40.5t-54 10.5h-123v201q-263 25 -413 213t-150 489q0 323 172 515t469 192q276 0 434 -143.5t158 -391.5v-12h-236v12q0 170 -84.5 246t-277.5 76q-214 0 -307 -114t-93 -380t92.5 -379.5t307.5 -113.5
q193 0 277.5 76t84.5 245v12h236v-12q0 -237 -145.5 -379.5t-401.5 -152.5v-86h12q93 0 145 -44.5t52 -121.5q0 -79 -54.5 -125.5t-148.5 -46.5z" />
    <glyph glyph-name="Egrave" unicode="&#xc8;" horiz-adv-x="1177" 
d="M711 1495h-232l-276 250v10h293l215 -250v-10zM1096 0h-981v1372h981v-198h-760v-383h729v-201h-729v-391h760v-199z" />
    <glyph glyph-name="Eacute" unicode="&#xc9;" horiz-adv-x="1177" 
d="M737 1495h-233v10l217 250h293v-10zM1096 0h-981v1372h981v-198h-760v-383h729v-201h-729v-391h760v-199z" />
    <glyph glyph-name="Ecircumflex" unicode="&#xca;" horiz-adv-x="1177" 
d="M477 1495h-211v10l211 256h256l213 -256v-10h-211l-121 147h-16zM1096 0h-981v1372h981v-198h-760v-383h729v-201h-729v-391h760v-199z" />
    <glyph glyph-name="Edieresis" unicode="&#xcb;" horiz-adv-x="1177" 
d="M903 1495h-221v254h221v-254zM530 1495h-221v254h221v-254zM1096 0h-981v1372h981v-198h-760v-383h729v-201h-729v-391h760v-199z" />
    <glyph glyph-name="Igrave" unicode="&#xcc;" horiz-adv-x="450" 
d="M330 1495h-232l-276 250v10h293l215 -250v-10zM336 0h-221v1372h221v-1372z" />
    <glyph glyph-name="Iacute" unicode="&#xcd;" horiz-adv-x="450" 
d="M356 1495h-233v10l217 250h293v-10zM336 0h-221v1372h221v-1372z" />
    <glyph glyph-name="Icircumflex" unicode="&#xce;" horiz-adv-x="450" 
d="M96 1495h-211v10l211 256h256l213 -256v-10h-211l-121 147h-16zM336 0h-221v1372h221v-1372z" />
    <glyph glyph-name="Idieresis" unicode="&#xcf;" horiz-adv-x="450" 
d="M522 1495h-221v254h221v-254zM150 1495h-222v254h222v-254zM336 0h-221v1372h221v-1372z" />
    <glyph glyph-name="Eth" unicode="&#xd0;" horiz-adv-x="1488" 
d="M727 0h-487v586h-220v200h220v586h487q319 0 506.5 -184.5t187.5 -501.5t-187.5 -501.5t-506.5 -184.5zM850 586h-389v-387h266q247 0 353 112t106 375t-106 375.5t-353 112.5h-266v-388h389v-200z" />
    <glyph glyph-name="Ntilde" unicode="&#xd1;" horiz-adv-x="1368" 
d="M518 1513h-151v74q0 34 6 63.5t21 59t46.5 47t75.5 17.5q55 0 141 -50l76 -41q46 -26 78 -26q39 0 39 51v51h149v-82q0 -78 -34.5 -128t-110.5 -50q-40 0 -72 11.5t-80 39.5l-79 43q-45 25 -68 25q-37 0 -37 -49v-56zM336 0h-221v1372h237l520 -786l146 -219h16v1005h221
v-1372h-237l-518 774l-150 223h-14v-997z" />
    <glyph glyph-name="Ograve" unicode="&#xd2;" horiz-adv-x="1427" 
d="M819 1495h-231l-277 250v10h293l215 -250v-10zM715 -20q-293 0 -467 192.5t-174 513.5q0 322 174 514.5t467 192.5q291 0 465 -193t174 -514t-174 -513.5t-465 -192.5zM715 193q215 0 309 113.5t94 379.5t-94 380t-309 114t-310.5 -114.5t-95.5 -379.5t95.5 -379
t310.5 -114z" />
    <glyph glyph-name="Oacute" unicode="&#xd3;" horiz-adv-x="1427" 
d="M846 1495h-234v10l217 250h293v-10zM715 -20q-293 0 -467 192.5t-174 513.5q0 322 174 514.5t467 192.5q291 0 465 -193t174 -514t-174 -513.5t-465 -192.5zM715 193q215 0 309 113.5t94 379.5t-94 380t-309 114t-310.5 -114.5t-95.5 -379.5t95.5 -379t310.5 -114z" />
    <glyph glyph-name="Ocircumflex" unicode="&#xd4;" horiz-adv-x="1427" 
d="M586 1495h-211v10l211 256h256l213 -256v-10h-211l-121 147h-16zM715 -20q-293 0 -467 192.5t-174 513.5q0 322 174 514.5t467 192.5q291 0 465 -193t174 -514t-174 -513.5t-465 -192.5zM715 193q215 0 309 113.5t94 379.5t-94 380t-309 114t-310.5 -114.5t-95.5 -379.5
t95.5 -379t310.5 -114z" />
    <glyph glyph-name="Otilde" unicode="&#xd5;" horiz-adv-x="1427" 
d="M549 1513h-152v74q0 34 6.5 63.5t21.5 59t46.5 47t75.5 17.5q55 0 141 -50l76 -41q46 -26 78 -26q39 0 39 51v51h149v-82q0 -78 -34.5 -128t-110.5 -50q-40 0 -72 11.5t-80 39.5l-80 43q-45 25 -67 25q-37 0 -37 -49v-56zM715 -20q-293 0 -467 192.5t-174 513.5
q0 322 174 514.5t467 192.5q291 0 465 -193t174 -514t-174 -513.5t-465 -192.5zM715 193q215 0 309 113.5t94 379.5t-94 380t-309 114t-310.5 -114.5t-95.5 -379.5t95.5 -379t310.5 -114z" />
    <glyph glyph-name="Odieresis" unicode="&#xd6;" horiz-adv-x="1427" 
d="M1012 1495h-221v254h221v-254zM639 1495h-221v254h221v-254zM715 -20q-293 0 -467 192.5t-174 513.5q0 322 174 514.5t467 192.5q291 0 465 -193t174 -514t-174 -513.5t-465 -192.5zM715 193q215 0 309 113.5t94 379.5t-94 380t-309 114t-310.5 -114.5t-95.5 -379.5
t95.5 -379t310.5 -114z" />
    <glyph glyph-name="multiply" unicode="&#xd7;" horiz-adv-x="937" 
d="M854 438l-137 -135l-250 250l-250 -248l-129 129l250 250l-252 250l135 135l252 -250l248 248l131 -129l-250 -250z" />
    <glyph glyph-name="Oslash" unicode="&#xd8;" horiz-adv-x="1427" 
d="M715 -20q-254 0 -420 147l-178 -188l-119 112l190 201q-114 177 -114 434q0 322 174 514.5t467 192.5q249 0 418 -146l178 189l119 -113l-191 -201q115 -179 115 -436q0 -321 -174 -513.5t-465 -192.5zM309 686q0 -161 35 -268l647 682q-92 80 -276 80
q-215 0 -310.5 -114.5t-95.5 -379.5zM715 193q215 0 309 113.5t94 379.5q0 163 -35 270l-647 -682q90 -81 279 -81z" />
    <glyph glyph-name="Ugrave" unicode="&#xd9;" horiz-adv-x="1388" 
d="M799 1495h-232l-276 250v10h293l215 -250v-10zM694 -20q-279 0 -431 146.5t-152 410.5v835h219v-835q0 -187 81.5 -265.5t282.5 -78.5q200 0 281.5 78.5t81.5 265.5v835h221v-835q0 -263 -153 -410t-431 -147z" />
    <glyph glyph-name="Uacute" unicode="&#xda;" horiz-adv-x="1388" 
d="M825 1495h-233v10l217 250h293v-10zM694 -20q-279 0 -431 146.5t-152 410.5v835h219v-835q0 -187 81.5 -265.5t282.5 -78.5q200 0 281.5 78.5t81.5 265.5v835h221v-835q0 -263 -153 -410t-431 -147z" />
    <glyph glyph-name="Ucircumflex" unicode="&#xdb;" horiz-adv-x="1388" 
d="M565 1495h-211v10l211 256h256l213 -256v-10h-211l-121 147h-16zM694 -20q-279 0 -431 146.5t-152 410.5v835h219v-835q0 -187 81.5 -265.5t282.5 -78.5q200 0 281.5 78.5t81.5 265.5v835h221v-835q0 -263 -153 -410t-431 -147z" />
    <glyph glyph-name="Udieresis" unicode="&#xdc;" horiz-adv-x="1388" 
d="M991 1495h-221v254h221v-254zM618 1495h-221v254h221v-254zM694 -20q-279 0 -431 146.5t-152 410.5v835h219v-835q0 -187 81.5 -265.5t282.5 -78.5q200 0 281.5 78.5t81.5 265.5v835h221v-835q0 -263 -153 -410t-431 -147z" />
    <glyph glyph-name="Yacute" unicode="&#xdd;" horiz-adv-x="1298" 
d="M780 1495h-233v10l217 250h293v-10zM758 0h-219v510l-533 862h252l260 -424l127 -215h14l125 215l258 424h250l-534 -866v-506z" />
    <glyph glyph-name="Thorn" unicode="&#xde;" horiz-adv-x="1243" 
d="M336 0h-221v1372h221v-227h362q144 0 256 -53.5t177 -158.5t65 -247t-65 -247t-177 -158.5t-256 -53.5h-362v-227zM713 946h-377v-520h377q146 0 205 58.5t59 201.5t-59 201.5t-205 58.5z" />
    <glyph glyph-name="germandbls" unicode="&#xdf;" horiz-adv-x="1161" 
d="M311 0h-217v895q0 241 128 366t384 125q221 0 340 -92t119 -262q0 -121 -66 -199t-200 -98v-16q157 -22 236 -109t79 -233q0 -122 -63.5 -208.5t-168.5 -127.5t-241 -41h-176v199h153q160 0 216.5 43t56.5 166q0 120 -53 165t-185 45h-188v185h143q124 0 181 41.5
t57 142.5q0 110 -51.5 153.5t-200.5 43.5q-87 0 -141 -13t-86 -46.5t-44 -83t-12 -130.5v-911z" />
    <glyph glyph-name="agrave" unicode="&#xe0;" horiz-adv-x="1073" 
d="M666 1147h-230l-282 256v10h292l220 -256v-10zM387 -20q-142 0 -233 71.5t-91 200.5q0 238 340 287l357 53v55q0 111 -53 154t-177 43q-122 0 -173.5 -43t-51.5 -144v-30h-213v20q0 172 124.5 281.5t326.5 109.5q208 0 318 -114t110 -306v-618h-205v160h-10
q-49 -80 -141.5 -130t-227.5 -50zM279 268q0 -60 41.5 -86t138.5 -26q58 0 108 12.5t95.5 41t71.5 82t26 126.5v18l-324 -49q-89 -12 -123 -37.5t-34 -81.5z" />
    <glyph glyph-name="aacute" unicode="&#xe1;" horiz-adv-x="1073" 
d="M657 1147h-231v10l221 256h293v-10zM387 -20q-142 0 -233 71.5t-91 200.5q0 238 340 287l357 53v55q0 111 -53 154t-177 43q-122 0 -173.5 -43t-51.5 -144v-30h-213v20q0 172 124.5 281.5t326.5 109.5q208 0 318 -114t110 -306v-618h-205v160h-10q-49 -80 -141.5 -130
t-227.5 -50zM279 268q0 -60 41.5 -86t138.5 -26q58 0 108 12.5t95.5 41t71.5 82t26 126.5v18l-324 -49q-89 -12 -123 -37.5t-34 -81.5z" />
    <glyph glyph-name="acircumflex" unicode="&#xe2;" horiz-adv-x="1073" 
d="M401 1147h-211v10l211 256h256l213 -256v-10h-211l-120 147h-17zM387 -20q-142 0 -233 71.5t-91 200.5q0 238 340 287l357 53v55q0 111 -53 154t-177 43q-122 0 -173.5 -43t-51.5 -144v-30h-213v20q0 172 124.5 281.5t326.5 109.5q208 0 318 -114t110 -306v-618h-205v160
h-10q-49 -80 -141.5 -130t-227.5 -50zM279 268q0 -60 41.5 -86t138.5 -26q58 0 108 12.5t95.5 41t71.5 82t26 126.5v18l-324 -49q-89 -12 -123 -37.5t-34 -81.5z" />
    <glyph glyph-name="atilde" unicode="&#xe3;" horiz-adv-x="1073" 
d="M365 1165h-152v74q0 27 3.5 50.5t13.5 49t25.5 44t43 30.5t63.5 12q58 0 142 -49l76 -41q46 -26 77 -26q39 0 39 51v51h150v-82q0 -78 -35 -128t-111 -50q-40 0 -71.5 11.5t-79.5 39.5l-80 43q-45 25 -68 25q-36 0 -36 -49v-56zM387 -20q-142 0 -233 71.5t-91 200.5
q0 238 340 287l357 53v55q0 111 -53 154t-177 43q-122 0 -173.5 -43t-51.5 -144v-30h-213v20q0 172 124.5 281.5t326.5 109.5q208 0 318 -114t110 -306v-618h-205v160h-10q-49 -80 -141.5 -130t-227.5 -50zM279 268q0 -60 41.5 -86t138.5 -26q58 0 108 12.5t95.5 41t71.5 82
t26 126.5v18l-324 -49q-89 -12 -123 -37.5t-34 -81.5z" />
    <glyph glyph-name="adieresis" unicode="&#xe4;" horiz-adv-x="1073" 
d="M827 1147h-221v254h221v-254zM453 1147h-220v254h220v-254zM387 -20q-142 0 -233 71.5t-91 200.5q0 238 340 287l357 53v55q0 111 -53 154t-177 43q-122 0 -173.5 -43t-51.5 -144v-30h-213v20q0 172 124.5 281.5t326.5 109.5q208 0 318 -114t110 -306v-618h-205v160h-10
q-49 -80 -141.5 -130t-227.5 -50zM279 268q0 -60 41.5 -86t138.5 -26q58 0 108 12.5t95.5 41t71.5 82t26 126.5v18l-324 -49q-89 -12 -123 -37.5t-34 -81.5z" />
    <glyph glyph-name="aring" unicode="&#xe5;" horiz-adv-x="1073" 
d="M530 1114q-89 0 -143.5 49t-54.5 131t54.5 131.5t143.5 49.5t144 -49.5t55 -131.5t-54.5 -131t-144.5 -49zM530 1212q52 0 73.5 18.5t21.5 63.5t-21.5 63.5t-73.5 18.5q-53 0 -74.5 -18.5t-21.5 -63.5t21.5 -63.5t74.5 -18.5zM387 -20q-142 0 -233 71.5t-91 200.5
q0 238 340 287l357 53v55q0 111 -53 154t-177 43q-122 0 -173.5 -43t-51.5 -144v-30h-213v20q0 172 124.5 281.5t326.5 109.5q208 0 318 -114t110 -306v-618h-205v160h-10q-49 -80 -141.5 -130t-227.5 -50zM279 268q0 -60 41.5 -86t138.5 -26q58 0 108 12.5t95.5 41t71.5 82
t26 126.5v18l-324 -49q-89 -12 -123 -37.5t-34 -81.5z" />
    <glyph glyph-name="ae" unicode="&#xe6;" horiz-adv-x="1798" 
d="M412 -20q-159 0 -254 70t-95 204q0 122 88.5 194t251.5 91l359 45v51q0 122 -56 165.5t-176 43.5q-116 0 -169.5 -43.5t-53.5 -155.5v-18h-215v20q0 172 123 281.5t324 109.5q240 0 352 -151q135 151 369 151q206 0 333 -118.5t127 -325.5q0 -84 -10 -139h-739
q5 -145 71 -212t218 -67q235 0 235 150v16h217v-18q0 -156 -125 -250t-330 -94q-302 0 -423 219q-58 -107 -171 -163t-251 -56zM1249 852q-139 0 -203 -62.5t-73 -185.5h536q6 127 -60.5 187.5t-199.5 60.5zM279 272q0 -63 42.5 -90.5t137.5 -27.5q61 0 112.5 13.5t97 43.5
t71.5 86.5t26 134.5l-330 -41q-88 -10 -122.5 -36.5t-34.5 -82.5z" />
    <glyph glyph-name="ccedilla" unicode="&#xe7;" horiz-adv-x="1093" 
d="M621 -442h-170v125h163q36 0 54 10.5t18 38.5q0 30 -17.5 40.5t-54.5 10.5h-122v199q-202 23 -313 164t-111 362q0 241 134.5 385.5t370.5 144.5q201 0 327 -113t126 -296v-19h-219v13q0 112 -60 164.5t-188 52.5q-145 0 -208.5 -81t-63.5 -251q0 -169 63.5 -249.5
t208.5 -80.5q128 0 188 51.5t60 163.5v13h219v-19q0 -170 -113 -281.5t-299 -125.5v-84h13q93 0 144.5 -44.5t51.5 -121.5q0 -79 -54 -125.5t-148 -46.5z" />
    <glyph glyph-name="egrave" unicode="&#xe8;" horiz-adv-x="1103" 
d="M686 1147h-229l-283 256v10h293l219 -256v-10zM561 -20q-245 0 -369 142t-124 388q0 238 133 383t358 145q209 0 338 -118t129 -324q0 -77 -12 -139h-740q6 -146 70.5 -213.5t218.5 -67.5q236 0 236 150v16h219v-18q0 -156 -125.5 -250t-331.5 -94zM555 852
q-140 0 -205 -62t-74 -186h539q6 128 -60 188t-200 60z" />
    <glyph glyph-name="eacute" unicode="&#xe9;" horiz-adv-x="1103" 
d="M680 1147h-231v10l221 256h293v-10zM561 -20q-245 0 -369 142t-124 388q0 238 133 383t358 145q209 0 338 -118t129 -324q0 -77 -12 -139h-740q6 -146 70.5 -213.5t218.5 -67.5q236 0 236 150v16h219v-18q0 -156 -125.5 -250t-331.5 -94zM555 852q-140 0 -205 -62
t-74 -186h539q6 128 -60 188t-200 60z" />
    <glyph glyph-name="ecircumflex" unicode="&#xea;" horiz-adv-x="1103" 
d="M422 1147h-211v10l211 256h256l213 -256v-10h-211l-121 147h-16zM561 -20q-245 0 -369 142t-124 388q0 238 133 383t358 145q209 0 338 -118t129 -324q0 -77 -12 -139h-740q6 -146 70.5 -213.5t218.5 -67.5q236 0 236 150v16h219v-18q0 -156 -125.5 -250t-331.5 -94z
M555 852q-140 0 -205 -62t-74 -186h539q6 128 -60 188t-200 60z" />
    <glyph glyph-name="edieresis" unicode="&#xeb;" horiz-adv-x="1103" 
d="M848 1147h-221v254h221v-254zM473 1147h-219v254h219v-254zM561 -20q-245 0 -369 142t-124 388q0 238 133 383t358 145q209 0 338 -118t129 -324q0 -77 -12 -139h-740q6 -146 70.5 -213.5t218.5 -67.5q236 0 236 150v16h219v-18q0 -156 -125.5 -250t-331.5 -94zM555 852
q-140 0 -205 -62t-74 -186h539q6 128 -60 188t-200 60z" />
    <glyph glyph-name="igrave" unicode="&#xec;" horiz-adv-x="409" 
d="M340 1147h-229l-283 256v10h293l219 -256v-10zM315 0h-221v1024h221v-1024z" />
    <glyph glyph-name="iacute" unicode="&#xed;" horiz-adv-x="409" 
d="M332 1147h-232v10l222 256h292v-10zM315 0h-221v1024h221v-1024z" />
    <glyph glyph-name="icircumflex" unicode="&#xee;" horiz-adv-x="409" 
d="M76 1147h-211v10l211 256h256l213 -256v-10h-211l-121 147h-16zM315 0h-221v1024h221v-1024z" />
    <glyph glyph-name="idieresis" unicode="&#xef;" horiz-adv-x="409" 
d="M502 1147h-221v254h221v-254zM127 1147h-219v254h219v-254zM315 0h-221v1024h221v-1024z" />
    <glyph glyph-name="eth" unicode="&#xf0;" horiz-adv-x="1316" 
d="M674 -20q-261 0 -398 123t-137 339q0 203 132 315.5t356 112.5q145 0 239.5 -50.5t134.5 -125.5l13 4q-41 184 -230 379l-383 -102l-30 110l317 84q-115 104 -266 203h297q94 -59 188 -143l332 88l33 -109l-273 -73q252 -287 252 -592q0 -266 -141 -414.5t-436 -148.5z
M688 193q176 0 247 57.5t71 185.5q0 122 -72 179t-244 57q-176 0 -247.5 -56.5t-71.5 -181.5q0 -128 69.5 -184.5t247.5 -56.5z" />
    <glyph glyph-name="ntilde" unicode="&#xf1;" horiz-adv-x="1159" 
d="M418 1165h-152v74q0 34 6.5 63.5t21.5 59t46.5 46.5t75.5 17q57 0 141 -49l76 -41q46 -26 78 -26q39 0 39 51v51h149v-82q0 -78 -34.5 -128t-110.5 -50q-40 0 -72 11.5t-80 39.5l-80 43q-45 25 -67 25q-37 0 -37 -49v-56zM330 0h-221v1018h202v-191h8q40 92 128 151.5
t227 59.5q191 0 287 -108.5t96 -290.5v-639h-221v590q0 139 -53.5 198.5t-190.5 59.5t-199.5 -60t-62.5 -200v-588z" />
    <glyph glyph-name="ograve" unicode="&#xf2;" horiz-adv-x="1142" 
d="M707 1147h-230l-282 256v10h292l220 -256v-10zM575 -20q-233 0 -370 145t-137 385q0 238 137 383t370 145q231 0 365.5 -144.5t134.5 -383.5q0 -240 -134.5 -385t-365.5 -145zM575 176q157 0 222 79t65 255q0 174 -65 253t-222 79q-158 0 -224 -79t-66 -253
q0 -175 66 -254.5t224 -79.5z" />
    <glyph glyph-name="oacute" unicode="&#xf3;" horiz-adv-x="1142" 
d="M700 1147h-231v10l221 256h293v-10zM575 -20q-233 0 -370 145t-137 385q0 238 137 383t370 145q231 0 365.5 -144.5t134.5 -383.5q0 -240 -134.5 -385t-365.5 -145zM575 176q157 0 222 79t65 255q0 174 -65 253t-222 79q-158 0 -224 -79t-66 -253q0 -175 66 -254.5
t224 -79.5z" />
    <glyph glyph-name="ocircumflex" unicode="&#xf4;" horiz-adv-x="1142" 
d="M442 1147h-211v10l211 256h256l213 -256v-10h-211l-120 147h-17zM575 -20q-233 0 -370 145t-137 385q0 238 137 383t370 145q231 0 365.5 -144.5t134.5 -383.5q0 -240 -134.5 -385t-365.5 -145zM575 176q157 0 222 79t65 255q0 174 -65 253t-222 79q-158 0 -224 -79
t-66 -253q0 -175 66 -254.5t224 -79.5z" />
    <glyph glyph-name="otilde" unicode="&#xf5;" horiz-adv-x="1142" 
d="M406 1165h-152v74q0 27 3.5 50.5t13.5 49t25.5 44t43 30.5t63.5 12q58 0 142 -49l76 -41q46 -26 77 -26q39 0 39 51v51h150v-82q0 -78 -35 -128t-111 -50q-40 0 -71.5 11.5t-79.5 39.5l-80 43q-45 25 -68 25q-36 0 -36 -49v-56zM575 -20q-233 0 -370 145t-137 385
q0 238 137 383t370 145q231 0 365.5 -144.5t134.5 -383.5q0 -240 -134.5 -385t-365.5 -145zM575 176q157 0 222 79t65 255q0 174 -65 253t-222 79q-158 0 -224 -79t-66 -253q0 -175 66 -254.5t224 -79.5z" />
    <glyph glyph-name="odieresis" unicode="&#xf6;" horiz-adv-x="1142" 
d="M868 1147h-221v254h221v-254zM494 1147h-220v254h220v-254zM575 -20q-233 0 -370 145t-137 385q0 238 137 383t370 145q231 0 365.5 -144.5t134.5 -383.5q0 -240 -134.5 -385t-365.5 -145zM575 176q157 0 222 79t65 255q0 174 -65 253t-222 79q-158 0 -224 -79t-66 -253
q0 -175 66 -254.5t224 -79.5z" />
    <glyph glyph-name="divide" unicode="&#xf7;" horiz-adv-x="999" 
d="M627 936h-254v293h254v-293zM942 594h-854v184h854v-184zM627 143h-254v293h254v-293z" />
    <glyph glyph-name="oslash" unicode="&#xf8;" horiz-adv-x="1142" 
d="M575 -20q-208 0 -339 116l-150 -145l-86 94l152 148q-84 131 -84 317q0 238 137 383t370 145q201 0 332 -112l148 143l88 -92l-152 -148q84 -131 84 -319q0 -240 -134.5 -385t-365.5 -145zM285 510q0 -104 20 -168l463 449q-66 51 -193 51q-158 0 -224 -79t-66 -253z
M575 176q157 0 222 79t65 255q0 109 -22 174l-465 -453q70 -55 200 -55z" />
    <glyph glyph-name="ugrave" unicode="&#xf9;" horiz-adv-x="1165" 
d="M715 1147h-230l-282 256v10h293l219 -256v-10zM487 -20q-191 0 -288 113t-97 296v629h222v-590q0 -137 57 -197.5t188 -60.5q133 0 200 64t67 210v574h221v-1018h-205v203h-8q-41 -98 -129.5 -160.5t-227.5 -62.5z" />
    <glyph glyph-name="uacute" unicode="&#xfa;" horiz-adv-x="1165" 
d="M707 1147h-232v10l221 256h293v-10zM487 -20q-191 0 -288 113t-97 296v629h222v-590q0 -137 57 -197.5t188 -60.5q133 0 200 64t67 210v574h221v-1018h-205v203h-8q-41 -98 -129.5 -160.5t-227.5 -62.5z" />
    <glyph glyph-name="ucircumflex" unicode="&#xfb;" horiz-adv-x="1165" 
d="M451 1147h-211v10l211 256h256l213 -256v-10h-211l-121 147h-17zM487 -20q-191 0 -288 113t-97 296v629h222v-590q0 -137 57 -197.5t188 -60.5q133 0 200 64t67 210v574h221v-1018h-205v203h-8q-41 -98 -129.5 -160.5t-227.5 -62.5z" />
    <glyph glyph-name="udieresis" unicode="&#xfc;" horiz-adv-x="1165" 
d="M877 1147h-222v254h222v-254zM502 1147h-219v254h219v-254zM487 -20q-191 0 -288 113t-97 296v629h222v-590q0 -137 57 -197.5t188 -60.5q133 0 200 64t67 210v574h221v-1018h-205v203h-8q-41 -98 -129.5 -160.5t-227.5 -62.5z" />
    <glyph glyph-name="yacute" unicode="&#xfd;" horiz-adv-x="1118" 
d="M688 1147h-231v10l221 256h293v-10zM283 -348q-91 0 -154 18v180h139q67 0 97.5 17.5t54.5 73.5l39 86l-432 991h243l205 -494l92 -221h17l84 221l186 494h244l-482 -1139q-55 -130 -131 -178.5t-202 -48.5z" />
    <glyph glyph-name="thorn" unicode="&#xfe;" horiz-adv-x="1187" 
d="M330 -354h-221v1726h221v-522h4q37 83 126.5 134.5t219.5 51.5q211 0 321.5 -140.5t110.5 -387.5q0 -246 -113 -387t-323 -141q-127 0 -216 51t-126 127h-4v-512zM330 418q0 -250 276 -250q154 0 220.5 77t66.5 263t-66.5 263t-220.5 77q-276 0 -276 -250v-180z" />
    <glyph glyph-name="ydieresis" unicode="&#xff;" horiz-adv-x="1118" 
d="M856 1147h-221v254h221v-254zM481 1147h-219v254h219v-254zM283 -348q-91 0 -154 18v180h139q67 0 97.5 17.5t54.5 73.5l39 86l-432 991h243l205 -494l92 -221h17l84 221l186 494h244l-482 -1139q-55 -130 -131 -178.5t-202 -48.5z" />
    <glyph glyph-name="Amacron" unicode="&#x100;" horiz-adv-x="1425" 
d="M995 1548h-567v160h567v-160zM250 0h-232l535 1372h317l535 -1372h-240l-139 356h-637zM610 918l-143 -363h481l-143 363l-88 253h-17z" />
    <glyph glyph-name="amacron" unicode="&#x101;" horiz-adv-x="1073" 
d="M813 1200h-567v160h567v-160zM387 -20q-142 0 -233 71.5t-91 200.5q0 238 340 287l357 53v55q0 111 -53 154t-177 43q-122 0 -173.5 -43t-51.5 -144v-30h-213v20q0 172 124.5 281.5t326.5 109.5q208 0 318 -114t110 -306v-618h-205v160h-10q-49 -80 -141.5 -130
t-227.5 -50zM279 268q0 -60 41.5 -86t138.5 -26q58 0 108 12.5t95.5 41t71.5 82t26 126.5v18l-324 -49q-89 -12 -123 -37.5t-34 -81.5z" />
    <glyph glyph-name="Abreve" unicode="&#x102;" horiz-adv-x="1425" 
d="M713 1475q-123 0 -199 67.5t-76 177.5v23h160v-21q0 -59 25 -83.5t90 -24.5q66 0 91 24t25 84v21h158v-23q0 -110 -75.5 -177.5t-198.5 -67.5zM250 0h-232l535 1372h317l535 -1372h-240l-139 356h-637zM610 918l-143 -363h481l-143 363l-88 253h-17z" />
    <glyph glyph-name="abreve" unicode="&#x103;" horiz-adv-x="1073" 
d="M530 1126q-123 0 -198.5 68t-75.5 178v35h160v-33q0 -60 24.5 -84t89.5 -24q66 0 91.5 24t25.5 84v33h158v-35q0 -110 -76 -178t-199 -68zM387 -20q-142 0 -233 71.5t-91 200.5q0 238 340 287l357 53v55q0 111 -53 154t-177 43q-122 0 -173.5 -43t-51.5 -144v-30h-213v20
q0 172 124.5 281.5t326.5 109.5q208 0 318 -114t110 -306v-618h-205v160h-10q-49 -80 -141.5 -130t-227.5 -50zM279 268q0 -60 41.5 -86t138.5 -26q58 0 108 12.5t95.5 41t71.5 82t26 126.5v18l-324 -49q-89 -12 -123 -37.5t-34 -81.5z" />
    <glyph glyph-name="Aogonek" unicode="&#x104;" horiz-adv-x="1425" 
d="M250 0h-232l535 1372h317l535 -1372h-2l-86 -113q-41 -46 -41 -80q0 -51 78 -51h104v-139h-153q-201 0 -201 139q0 32 16 68t32.5 57.5t43.5 52.5l59 66h-90l-139 356h-637zM610 918l-143 -363h481l-143 363l-88 253h-17z" />
    <glyph glyph-name="aogonek" unicode="&#x105;" horiz-adv-x="1073" 
d="M387 -20q-142 0 -233 71.5t-91 200.5q0 238 340 287l357 53v55q0 111 -53 154t-177 43q-122 0 -173.5 -43t-51.5 -144v-30h-213v20q0 172 124.5 281.5t326.5 109.5q208 0 318 -114t110 -306v-618l-88 -113q-41 -46 -41 -80q0 -51 78 -51h106v-139h-156q-200 0 -200 139
q0 75 94 178l57 66h-55v160h-10q-49 -80 -141.5 -130t-227.5 -50zM279 268q0 -60 41.5 -86t138.5 -26q58 0 108 12.5t95.5 41t71.5 82t26 126.5v18l-324 -49q-89 -12 -123 -37.5t-34 -81.5z" />
    <glyph glyph-name="Cacute" unicode="&#x106;" horiz-adv-x="1380" 
d="M840 1495h-234v10l217 250h293v-10zM715 -20q-297 0 -469 191.5t-172 514.5t172 515t469 192q276 0 434 -143.5t158 -391.5v-12h-236v12q0 170 -84.5 246t-277.5 76q-214 0 -307 -114t-93 -380t92.5 -379.5t307.5 -113.5q193 0 277.5 76t84.5 245v12h236v-12
q0 -248 -158 -391t-434 -143z" />
    <glyph glyph-name="cacute" unicode="&#x107;" horiz-adv-x="1093" 
d="M684 1147h-231v10l221 256h293v-10zM565 -23q-234 0 -365.5 145t-131.5 386t134.5 385.5t370.5 144.5q201 0 327 -113t126 -296v-19h-219v13q0 112 -60 164.5t-188 52.5q-145 0 -208.5 -81t-63.5 -251q0 -169 63.5 -249.5t208.5 -80.5q128 0 188 51.5t60 163.5v13h219
v-19q0 -182 -128 -296t-333 -114z" />
    <glyph glyph-name="Ccircumflex" unicode="&#x108;" horiz-adv-x="1380" 
d="M580 1495h-211v10l211 256h256l213 -256v-10h-211l-121 147h-17zM715 -20q-297 0 -469 191.5t-172 514.5t172 515t469 192q276 0 434 -143.5t158 -391.5v-12h-236v12q0 170 -84.5 246t-277.5 76q-214 0 -307 -114t-93 -380t92.5 -379.5t307.5 -113.5q193 0 277.5 76
t84.5 245v12h236v-12q0 -248 -158 -391t-434 -143z" />
    <glyph glyph-name="ccircumflex" unicode="&#x109;" horiz-adv-x="1093" 
d="M426 1147h-211v10l211 256h256l213 -256v-10h-211l-121 147h-16zM565 -23q-234 0 -365.5 145t-131.5 386t134.5 385.5t370.5 144.5q201 0 327 -113t126 -296v-19h-219v13q0 112 -60 164.5t-188 52.5q-145 0 -208.5 -81t-63.5 -251q0 -169 63.5 -249.5t208.5 -80.5
q128 0 188 51.5t60 163.5v13h219v-19q0 -182 -128 -296t-333 -114z" />
    <glyph glyph-name="Cdotaccent" unicode="&#x10a;" horiz-adv-x="1380" 
d="M819 1495h-221v254h221v-254zM715 -20q-297 0 -469 191.5t-172 514.5t172 515t469 192q276 0 434 -143.5t158 -391.5v-12h-236v12q0 170 -84.5 246t-277.5 76q-214 0 -307 -114t-93 -380t92.5 -379.5t307.5 -113.5q193 0 277.5 76t84.5 245v12h236v-12q0 -248 -158 -391
t-434 -143z" />
    <glyph glyph-name="cdotaccent" unicode="&#x10b;" horiz-adv-x="1093" 
d="M666 1147h-222v254h222v-254zM565 -23q-234 0 -365.5 145t-131.5 386t134.5 385.5t370.5 144.5q201 0 327 -113t126 -296v-19h-219v13q0 112 -60 164.5t-188 52.5q-145 0 -208.5 -81t-63.5 -251q0 -169 63.5 -249.5t208.5 -80.5q128 0 188 51.5t60 163.5v13h219v-19
q0 -182 -128 -296t-333 -114z" />
    <glyph glyph-name="Ccaron" unicode="&#x10c;" horiz-adv-x="1380" 
d="M836 1761h211v-10l-211 -256h-256l-213 256v10h211l120 -147h17zM715 -20q-297 0 -469 191.5t-172 514.5t172 515t469 192q276 0 434 -143.5t158 -391.5v-12h-236v12q0 170 -84.5 246t-277.5 76q-214 0 -307 -114t-93 -380t92.5 -379.5t307.5 -113.5q193 0 277.5 76
t84.5 245v12h236v-12q0 -248 -158 -391t-434 -143z" />
    <glyph glyph-name="ccaron" unicode="&#x10d;" horiz-adv-x="1093" 
d="M682 1147h-256l-211 256v10h211l121 -147h16l121 147h211v-10zM565 -23q-234 0 -365.5 145t-131.5 386t134.5 385.5t370.5 144.5q201 0 327 -113t126 -296v-19h-219v13q0 112 -60 164.5t-188 52.5q-145 0 -208.5 -81t-63.5 -251q0 -169 63.5 -249.5t208.5 -80.5
q128 0 188 51.5t60 163.5v13h219v-19q0 -182 -128 -296t-333 -114z" />
    <glyph glyph-name="Dcaron" unicode="&#x10e;" horiz-adv-x="1363" 
d="M801 1761h211v-10l-211 -256h-256l-213 256v10h211l121 -147h16zM602 0h-487v1372h487q319 0 506.5 -184.5t187.5 -501.5t-187.5 -501.5t-506.5 -184.5zM602 1174h-266v-975h266q247 0 353 112t106 375t-106 375.5t-353 112.5z" />
    <glyph glyph-name="dcaron" unicode="&#x10f;" horiz-adv-x="1386" 
d="M516 -20q-215 0 -331.5 141.5t-116.5 388.5q0 245 114 386.5t322 141.5q126 0 211.5 -51t122.5 -127h6v512h219v-1372h-203v168h-8q-38 -90 -123 -139t-213 -49zM1221 858h-66v131h62q26 0 35.5 9.5t9.5 39.5v41h-111v293h254v-330q0 -184 -184 -184zM289 510
q0 -187 63.5 -264.5t212.5 -77.5q279 0 279 250v182q0 250 -279 250q-148 0 -212 -77t-64 -263z" />
    <glyph glyph-name="Dcroat" unicode="&#x110;" horiz-adv-x="1488" 
d="M727 0h-487v586h-220v200h220v586h487q319 0 506.5 -184.5t187.5 -501.5t-187.5 -501.5t-506.5 -184.5zM850 586h-389v-387h266q247 0 353 112t106 375t-106 375.5t-353 112.5h-266v-388h389v-200z" />
    <glyph glyph-name="dcroat" unicode="&#x111;" horiz-adv-x="1247" 
d="M512 -20q-212 0 -328 125.5t-116 343.5q0 217 114 341.5t322 124.5q118 0 206.5 -51.5t127.5 -128.5h6v322h-428v170h428v145h219v-145h164v-170h-164v-1057h-203v168h-8q-40 -87 -129.5 -137.5t-210.5 -50.5zM289 449q0 -154 64.5 -217.5t213.5 -63.5q130 0 203.5 63
t73.5 187v59q0 124 -73.5 187t-201.5 63q-150 0 -215 -63t-65 -215z" />
    <glyph glyph-name="Emacron" unicode="&#x112;" horiz-adv-x="1177" 
d="M889 1548h-567v160h567v-160zM1096 0h-981v1372h981v-198h-760v-383h729v-201h-729v-391h760v-199z" />
    <glyph glyph-name="emacron" unicode="&#x113;" horiz-adv-x="1103" 
d="M834 1200h-568v160h568v-160zM561 -20q-245 0 -369 142t-124 388q0 238 133 383t358 145q209 0 338 -118t129 -324q0 -77 -12 -139h-740q6 -146 70.5 -213.5t218.5 -67.5q236 0 236 150v16h219v-18q0 -156 -125.5 -250t-331.5 -94zM555 852q-140 0 -205 -62t-74 -186h539
q6 128 -60 188t-200 60z" />
    <glyph glyph-name="Ebreve" unicode="&#x114;" horiz-adv-x="1177" 
d="M606 1475q-123 0 -198.5 67.5t-75.5 177.5v23h160v-21q0 -60 24.5 -84t89.5 -24q66 0 91.5 24t25.5 84v21h158v-23q0 -110 -76 -177.5t-199 -67.5zM1096 0h-981v1372h981v-198h-760v-383h729v-201h-729v-391h760v-199z" />
    <glyph glyph-name="ebreve" unicode="&#x115;" horiz-adv-x="1103" 
d="M551 1126q-123 0 -199 68t-76 178v35h160v-33q0 -59 25 -83.5t90 -24.5q66 0 91.5 24t25.5 84v33h157v-35q0 -110 -75.5 -178t-198.5 -68zM561 -20q-245 0 -369 142t-124 388q0 238 133 383t358 145q209 0 338 -118t129 -324q0 -77 -12 -139h-740q6 -146 70.5 -213.5
t218.5 -67.5q236 0 236 150v16h219v-18q0 -156 -125.5 -250t-331.5 -94zM555 852q-140 0 -205 -62t-74 -186h539q6 128 -60 188t-200 60z" />
    <glyph glyph-name="Edotaccent" unicode="&#x116;" horiz-adv-x="1177" 
d="M717 1495h-221v254h221v-254zM1096 0h-981v1372h981v-198h-760v-383h729v-201h-729v-391h760v-199z" />
    <glyph glyph-name="edotaccent" unicode="&#x117;" horiz-adv-x="1103" 
d="M662 1147h-222v254h222v-254zM561 -20q-245 0 -369 142t-124 388q0 238 133 383t358 145q209 0 338 -118t129 -324q0 -77 -12 -139h-740q6 -146 70.5 -213.5t218.5 -67.5q236 0 236 150v16h219v-18q0 -156 -125.5 -250t-331.5 -94zM555 852q-140 0 -205 -62t-74 -186h539
q6 128 -60 188t-200 60z" />
    <glyph glyph-name="Eogonek" unicode="&#x118;" horiz-adv-x="1177" 
d="M1096 0h-2l-86 -113q-41 -46 -41 -80q0 -51 77 -51h105v-139h-154q-200 0 -200 139q0 32 16 68t32.5 57.5t43.5 52.5l59 66h-831v1372h981v-198h-760v-383h729v-201h-729v-391h760v-199z" />
    <glyph glyph-name="eogonek" unicode="&#x119;" horiz-adv-x="1103" 
d="M748 -383h-154q-201 0 -201 139q0 32 16 68t32.5 57.5t43.5 52.5l41 46q-227 10 -342.5 151t-115.5 379t133 383t358 145q209 0 338 -118t129 -324q0 -77 -12 -139h-740q6 -146 70.5 -213.5t218.5 -67.5q236 0 236 150v16h219v-18q0 -131 -89.5 -219.5t-244.5 -114.5
l-78 -103q-41 -46 -41 -80q0 -51 78 -51h105v-139zM555 852q-140 0 -205 -62t-74 -186h539q6 128 -60 188t-200 60z" />
    <glyph glyph-name="Ecaron" unicode="&#x11a;" horiz-adv-x="1177" 
d="M733 1761h211v-10l-211 -256h-256l-213 256v10h211l121 -147h16zM1096 0h-981v1372h981v-198h-760v-383h729v-201h-729v-391h760v-199z" />
    <glyph glyph-name="ecaron" unicode="&#x11b;" horiz-adv-x="1103" 
d="M678 1147h-256l-211 256v10h211l121 -147h16l121 147h211v-10zM561 -20q-245 0 -369 142t-124 388q0 238 133 383t358 145q209 0 338 -118t129 -324q0 -77 -12 -139h-740q6 -146 70.5 -213.5t218.5 -67.5q236 0 236 150v16h219v-18q0 -156 -125.5 -250t-331.5 -94z
M555 852q-140 0 -205 -62t-74 -186h539q6 128 -60 188t-200 60z" />
    <glyph glyph-name="Gcircumflex" unicode="&#x11c;" horiz-adv-x="1425" 
d="M586 1495h-211v10l211 256h256l213 -256v-10h-211l-121 147h-16zM678 -20q-290 0 -450 188t-160 518q0 323 174.5 515t478.5 192q275 0 432.5 -137.5t157.5 -374.5v-15h-234v15q0 157 -85.5 228t-280.5 71q-218 0 -313 -114t-95 -380t99 -379.5t327 -113.5
q194 0 282.5 65t88.5 223v33h-428v191h641v-705h-203v215h-8q-41 -101 -151.5 -168t-272.5 -67z" />
    <glyph glyph-name="gcircumflex" unicode="&#x11d;" horiz-adv-x="1171" 
d="M434 1147h-211v10l211 256h256l213 -256v-10h-211l-121 147h-16zM504 96q-208 0 -322 126.5t-114 344.5t116 344.5t328 126.5q123 0 213 -49.5t127 -138.5h8v168h203v-944q0 -222 -123 -332.5t-350 -110.5q-219 0 -344 100t-125 283h219q0 -106 52.5 -146t203.5 -40
q147 0 197.5 51.5t50.5 194.5v202h-8q-37 -78 -125 -129t-207 -51zM289 567q0 -154 65.5 -218t212.5 -64q129 0 203 63.5t74 188.5v63q0 124 -75 187t-206 63q-145 0 -209.5 -64.5t-64.5 -218.5z" />
    <glyph glyph-name="Gbreve" unicode="&#x11e;" horiz-adv-x="1425" 
d="M715 1475q-123 0 -199 67.5t-76 177.5v23h160v-21q0 -59 25 -83.5t90 -24.5q66 0 91 24t25 84v21h158v-23q0 -110 -75.5 -177.5t-198.5 -67.5zM678 -20q-290 0 -450 188t-160 518q0 323 174.5 515t478.5 192q275 0 432.5 -137.5t157.5 -374.5v-15h-234v15
q0 157 -85.5 228t-280.5 71q-218 0 -313 -114t-95 -380t99 -379.5t327 -113.5q194 0 282.5 65t88.5 223v33h-428v191h641v-705h-203v215h-8q-41 -101 -151.5 -168t-272.5 -67z" />
    <glyph glyph-name="gbreve" unicode="&#x11f;" horiz-adv-x="1171" 
d="M563 1126q-123 0 -198.5 68t-75.5 178v35h160v-33q0 -60 24.5 -84t89.5 -24q66 0 91.5 24t25.5 84v33h158v-35q0 -110 -76 -178t-199 -68zM504 96q-208 0 -322 126.5t-114 344.5t116 344.5t328 126.5q123 0 213 -49.5t127 -138.5h8v168h203v-944q0 -222 -123 -332.5
t-350 -110.5q-219 0 -344 100t-125 283h219q0 -106 52.5 -146t203.5 -40q147 0 197.5 51.5t50.5 194.5v202h-8q-37 -78 -125 -129t-207 -51zM289 567q0 -154 65.5 -218t212.5 -64q129 0 203 63.5t74 188.5v63q0 124 -75 187t-206 63q-145 0 -209.5 -64.5t-64.5 -218.5z" />
    <glyph glyph-name="Gdotaccent" unicode="&#x120;" horiz-adv-x="1425" 
d="M825 1495h-221v254h221v-254zM678 -20q-290 0 -450 188t-160 518q0 323 174.5 515t478.5 192q275 0 432.5 -137.5t157.5 -374.5v-15h-234v15q0 157 -85.5 228t-280.5 71q-218 0 -313 -114t-95 -380t99 -379.5t327 -113.5q194 0 282.5 65t88.5 223v33h-428v191h641v-705
h-203v215h-8q-41 -101 -151.5 -168t-272.5 -67z" />
    <glyph glyph-name="gdotaccent" unicode="&#x121;" horiz-adv-x="1171" 
d="M674 1147h-221v254h221v-254zM504 96q-208 0 -322 126.5t-114 344.5t116 344.5t328 126.5q123 0 213 -49.5t127 -138.5h8v168h203v-944q0 -222 -123 -332.5t-350 -110.5q-219 0 -344 100t-125 283h219q0 -106 52.5 -146t203.5 -40q147 0 197.5 51.5t50.5 194.5v202h-8
q-37 -78 -125 -129t-207 -51zM289 567q0 -154 65.5 -218t212.5 -64q129 0 203 63.5t74 188.5v63q0 124 -75 187t-206 63q-145 0 -209.5 -64.5t-64.5 -218.5z" />
    <glyph glyph-name="Gcommaaccent" unicode="&#x122;" horiz-adv-x="1425" 
d="M678 -20q-290 0 -450 188t-160 518q0 323 174.5 515t478.5 192q275 0 432.5 -137.5t157.5 -374.5v-15h-234v15q0 157 -85.5 228t-280.5 71q-218 0 -313 -114t-95 -380t99 -379.5t327 -113.5q194 0 282.5 65t88.5 223v33h-428v191h641v-705h-203v215h-8
q-41 -101 -151.5 -168t-272.5 -67zM698 -410h-200v11l164 256h270v-11z" />
    <glyph glyph-name="gcommaaccent" unicode="&#x123;" horiz-adv-x="1171" 
d="M635 1413h201v-10l-164 -256h-271v10zM504 96q-208 0 -322 126.5t-114 344.5t116 344.5t328 126.5q123 0 213 -49.5t127 -138.5h8v168h203v-944q0 -222 -123 -332.5t-350 -110.5q-219 0 -344 100t-125 283h219q0 -106 52.5 -146t203.5 -40q147 0 197.5 51.5t50.5 194.5
v202h-8q-37 -78 -125 -129t-207 -51zM289 567q0 -154 65.5 -218t212.5 -64q129 0 203 63.5t74 188.5v63q0 124 -75 187t-206 63q-145 0 -209.5 -64.5t-64.5 -218.5z" />
    <glyph glyph-name="Hcircumflex" unicode="&#x124;" horiz-adv-x="1361" 
d="M553 1495h-211v10l211 256h256l213 -256v-10h-211l-121 147h-16zM336 0h-221v1372h221v-581h692v581h221v-1372h-221v592h-692v-592z" />
    <glyph glyph-name="hcircumflex" unicode="&#x125;" horiz-adv-x="1165" 
d="M90 1495h-211v10l211 256h256l213 -256v-10h-211l-121 147h-16zM330 0h-221v1372h221v-524h8q41 79 127 134.5t213 55.5q190 0 284.5 -109.5t94.5 -287.5v-641h-221v590q0 139 -53.5 198.5t-190.5 59.5q-138 0 -200 -60t-62 -202v-586z" />
    <glyph glyph-name="Hbar" unicode="&#x126;" horiz-adv-x="1478" 
d="M393 0h-221v1001h-176v199h176v172h221v-172h692v172h222v-172h176v-199h-176v-1001h-222v592h-692v-592zM393 791h692v210h-692v-210z" />
    <glyph glyph-name="hbar" unicode="&#x127;" horiz-adv-x="1236" 
d="M401 0h-219v1057h-162v170h162v145h219v-145h430v-170h-430v-332h11q41 80 126.5 135t213.5 55q190 0 283 -109.5t93 -287.5v-518h-219v467q0 139 -53.5 198.5t-189.5 59.5q-139 0 -202 -60t-63 -202v-463z" />
    <glyph glyph-name="Itilde" unicode="&#x128;" horiz-adv-x="450" 
d="M59 1513h-151v74q0 34 6 63.5t21 59t46.5 47t75.5 17.5q56 0 142 -50l75 -41q46 -26 78 -26q39 0 39 51v51h150v-82q0 -78 -35 -128t-111 -50q-40 0 -71.5 11.5t-79.5 39.5l-80 43q-45 25 -68 25q-37 0 -37 -49v-56zM336 0h-221v1372h221v-1372z" />
    <glyph glyph-name="itilde" unicode="&#x129;" horiz-adv-x="409" 
d="M39 1165h-152v74q0 34 6.5 63.5t21.5 59t46.5 46.5t75.5 17q57 0 141 -49l76 -41q46 -26 78 -26q39 0 39 51v51h149v-82q0 -78 -34.5 -128t-110.5 -50q-40 0 -72 11.5t-80 39.5l-80 43q-45 25 -67 25q-37 0 -37 -49v-56zM315 0h-221v1024h221v-1024z" />
    <glyph glyph-name="Imacron" unicode="&#x12a;" horiz-adv-x="450" 
d="M508 1548h-567v160h567v-160zM336 0h-221v1372h221v-1372z" />
    <glyph glyph-name="imacron" unicode="&#x12b;" horiz-adv-x="409" 
d="M487 1200h-567v160h567v-160zM315 0h-221v1024h221v-1024z" />
    <glyph glyph-name="Ibreve" unicode="&#x12c;" horiz-adv-x="450" 
d="M225 1475q-123 0 -198.5 67.5t-75.5 177.5v23h160v-21q0 -60 24.5 -84t89.5 -24q66 0 91.5 24t25.5 84v21h158v-23q0 -110 -76 -177.5t-199 -67.5zM336 0h-221v1372h221v-1372z" />
    <glyph glyph-name="ibreve" unicode="&#x12d;" horiz-adv-x="409" 
d="M205 1126q-123 0 -199 68t-76 178v35h160v-33q0 -59 25 -83.5t90 -24.5q66 0 91.5 24t25.5 84v33h157v-35q0 -110 -75.5 -178t-198.5 -68zM315 0h-221v1024h221v-1024z" />
    <glyph glyph-name="Iogonek" unicode="&#x12e;" horiz-adv-x="450" 
d="M336 0h-2l-86 -113q-41 -46 -41 -80q0 -51 78 -51h104v-139h-153q-201 0 -201 139q0 32 16 68t32.5 57.5t43.5 52.5l59 66h-71v1372h221v-1372z" />
    <glyph glyph-name="iogonek" unicode="&#x12f;" horiz-adv-x="411" 
d="M315 1147h-219l-2 225h221v-225zM317 0h-2l-86 -113q-41 -46 -41 -80q0 -51 78 -51h105v-139h-154q-201 0 -201 139q0 32 16.5 68t32.5 57t44 53l59 66h-72v1024h221v-1024z" />
    <glyph glyph-name="Idotaccent" unicode="&#x130;" horiz-adv-x="450" 
d="M336 1495h-221v254h221v-254zM336 0h-221v1372h221v-1372z" />
    <glyph glyph-name="dotlessi" unicode="&#x131;" horiz-adv-x="409" 
d="M315 0h-221v1024h221v-1024z" />
    <glyph glyph-name="IJ" unicode="&#x132;" horiz-adv-x="1570" 
d="M336 0h-221v1372h221v-1372zM963 -20q-137 0 -237.5 37.5t-161 107.5t-89.5 163t-29 212v57h234v-74q0 -83 10 -133t39.5 -88t84 -53.5t142.5 -15.5q87 0 141 15.5t84 53.5t40 88.5t10 132.5v889h235v-872q0 -243 -123 -381.5t-380 -138.5z" />
    <glyph glyph-name="ij" unicode="&#x133;" horiz-adv-x="890" 
d="M315 1147h-219l-2 225h221v-225zM782 1147h-221v225h221v-225zM317 0h-221v1024h221v-1024zM356 -348v201h80q78 0 101.5 18.5t23.5 81.5v1065h221v-1020q0 -99 -25 -167.5t-74 -107t-112.5 -55t-150.5 -16.5h-64z" />
    <glyph glyph-name="Jcircumflex" unicode="&#x134;" horiz-adv-x="1150" 
d="M799 1495h-211v10l211 256h256l213 -256v-10h-211l-121 147h-16zM543 -20q-137 0 -237.5 37.5t-161 107.5t-89 163t-28.5 212v57h233v-74q0 -82 10 -132.5t40 -88.5t84.5 -53.5t142.5 -15.5q87 0 141 15.5t83.5 53.5t39.5 88.5t10 132.5v889h236v-872
q0 -243 -123.5 -381.5t-380.5 -138.5z" />
    <glyph glyph-name="jcircumflex" unicode="&#x135;" horiz-adv-x="442" 
d="M92 1147h-211v10l211 256h256l213 -256v-10h-211l-121 147h-16zM-92 -348v201h80q78 0 101.5 18.5t23.5 81.5v1065h221v-1020q0 -99 -25 -167.5t-74.5 -107t-113 -55t-150.5 -16.5h-63z" />
    <glyph glyph-name="Kcommaaccent" unicode="&#x136;" horiz-adv-x="1290" 
d="M336 0h-221v1372h221v-586h317l361 586h252l-426 -680l424 -692h-254l-353 573h-321v-573zM567 -410h-200v11l163 256h271v-11z" />
    <glyph glyph-name="kcommaaccent" unicode="&#x137;" horiz-adv-x="1075" 
d="M330 0h-221v1372h221v-758h200l273 404h260l-354 -481l348 -537h-258l-267 416h-202v-416zM494 -410h-201v11l164 256h270v-11z" />
    <glyph glyph-name="Lacute" unicode="&#x139;" horiz-adv-x="1103" 
d="M346 1495h-233v10l217 250h293v-10zM1067 0h-952v1372h221v-1173h731v-199z" />
    <glyph glyph-name="lacute" unicode="&#x13a;" horiz-adv-x="438" 
d="M340 1501h-231v10l221 256h293v-10zM330 0h-221v1372h221v-1372z" />
    <glyph glyph-name="Lcommaaccent" unicode="&#x13b;" horiz-adv-x="1103" 
d="M1067 0h-952v1372h221v-1173h731v-199zM479 -410h-200v11l163 256h271v-11z" />
    <glyph glyph-name="lcommaaccent" unicode="&#x13c;" horiz-adv-x="438" 
d="M330 0h-221v1372h221v-1372zM109 -410h-201v11l164 256h270v-11z" />
    <glyph glyph-name="Lcaron" unicode="&#x13d;" horiz-adv-x="1103" 
d="M1067 0h-952v1372h221v-1173h731v-199zM758 858h-66v131h62q26 0 35.5 9.5t9.5 39.5v41h-111v293h254v-330q0 -184 -184 -184z" />
    <glyph glyph-name="lcaron" unicode="&#x13e;" horiz-adv-x="653" 
d="M330 0h-221v1372h221v-1372zM485 858h-65v131h61q26 0 35.5 9.5t9.5 39.5v41h-110v293h254v-330q0 -92 -48 -138t-137 -46z" />
    <glyph glyph-name="Ldot" unicode="&#x13f;" horiz-adv-x="1103" 
d="M1067 0h-952v1372h221v-1173h731v-199zM958 559h-219v254h219v-254z" />
    <glyph glyph-name="ldot" unicode="&#x140;" horiz-adv-x="616" 
d="M330 0h-221v1372h221v-1372zM637 559h-219v254h219v-254z" />
    <glyph glyph-name="Lslash" unicode="&#x141;" horiz-adv-x="1206" 
d="M1169 0h-952v584l-197 -80v209l197 80v579h221v-487l389 159v-208l-389 -160v-477h731v-199z" />
    <glyph glyph-name="lslash" unicode="&#x142;" horiz-adv-x="731" 
d="M477 0h-221v672l-174 -90l-68 133l242 125v532h221v-418l174 90l66 -131l-240 -125v-788z" />
    <glyph glyph-name="Nacute" unicode="&#x143;" horiz-adv-x="1368" 
d="M815 1495h-233v10l217 250h293v-10zM336 0h-221v1372h237l520 -786l146 -219h16v1005h221v-1372h-237l-518 774l-150 223h-14v-997z" />
    <glyph glyph-name="nacute" unicode="&#x144;" horiz-adv-x="1159" 
d="M711 1147h-232v10l221 256h293v-10zM330 0h-221v1018h202v-191h8q40 92 128 151.5t227 59.5q191 0 287 -108.5t96 -290.5v-639h-221v590q0 139 -53.5 198.5t-190.5 59.5t-199.5 -60t-62.5 -200v-588z" />
    <glyph glyph-name="Ncommaaccent" unicode="&#x145;" horiz-adv-x="1368" 
d="M336 0h-221v1372h237l520 -786l146 -219h16v1005h221v-1372h-237l-518 774l-150 223h-14v-997zM573 -410h-200v11l164 256h270v-11z" />
    <glyph glyph-name="ncommaaccent" unicode="&#x146;" horiz-adv-x="1159" 
d="M330 0h-221v1018h202v-191h8q40 92 128 151.5t227 59.5q191 0 287 -108.5t96 -290.5v-639h-221v590q0 139 -53.5 198.5t-190.5 59.5t-199.5 -60t-62.5 -200v-588zM471 -410h-201v11l164 256h271v-11z" />
    <glyph glyph-name="Ncaron" unicode="&#x147;" horiz-adv-x="1368" 
d="M811 1761h211v-10l-211 -256h-256l-213 256v10h211l121 -147h16zM336 0h-221v1372h237l520 -786l146 -219h16v1005h221v-1372h-237l-518 774l-150 223h-14v-997z" />
    <glyph glyph-name="ncaron" unicode="&#x148;" horiz-adv-x="1159" 
d="M711 1147h-256l-211 256v10h211l120 -147h17l121 147h211v-10zM330 0h-221v1018h202v-191h8q40 92 128 151.5t227 59.5q191 0 287 -108.5t96 -290.5v-639h-221v590q0 139 -53.5 198.5t-190.5 59.5t-199.5 -60t-62.5 -200v-588z" />
    <glyph glyph-name="Eng" unicode="&#x14a;" horiz-adv-x="1368" 
d="M893 -348h-64v201h78q78 0 102.5 18t24.5 76v49l-684 1001h-14v-997h-221v1372h237l666 -999h16v999h221v-1374q0 -99 -25 -167.5t-74.5 -107t-113 -55t-149.5 -16.5z" />
    <glyph glyph-name="eng" unicode="&#x14b;" horiz-adv-x="1159" 
d="M330 0h-221v1018h202v-191h8q40 92 128 151.5t227 59.5q191 0 287 -108.5t96 -290.5v-641q0 -99 -25 -167.5t-75 -107t-113.5 -55t-149.5 -16.5h-63v201h78q80 0 103.5 18.5t23.5 81.5v637q0 139 -53.5 198.5t-190.5 59.5t-199.5 -60t-62.5 -200v-588z" />
    <glyph glyph-name="Omacron" unicode="&#x14c;" horiz-adv-x="1427" 
d="M997 1548h-567v160h567v-160zM715 -20q-293 0 -467 192.5t-174 513.5q0 322 174 514.5t467 192.5q291 0 465 -193t174 -514t-174 -513.5t-465 -192.5zM715 193q215 0 309 113.5t94 379.5t-94 380t-309 114t-310.5 -114.5t-95.5 -379.5t95.5 -379t310.5 -114z" />
    <glyph glyph-name="omacron" unicode="&#x14d;" horiz-adv-x="1142" 
d="M854 1200h-567v160h567v-160zM575 -20q-233 0 -370 145t-137 385q0 238 137 383t370 145q231 0 365.5 -144.5t134.5 -383.5q0 -240 -134.5 -385t-365.5 -145zM575 176q157 0 222 79t65 255q0 174 -65 253t-222 79q-158 0 -224 -79t-66 -253q0 -175 66 -254.5t224 -79.5z
" />
    <glyph glyph-name="Obreve" unicode="&#x14e;" horiz-adv-x="1427" 
d="M715 1475q-123 0 -199 67.5t-76 177.5v23h160v-21q0 -59 25 -83.5t90 -24.5q66 0 91 24t25 84v21h158v-23q0 -110 -75.5 -177.5t-198.5 -67.5zM715 -20q-293 0 -467 192.5t-174 513.5q0 322 174 514.5t467 192.5q291 0 465 -193t174 -514t-174 -513.5t-465 -192.5z
M715 193q215 0 309 113.5t94 379.5t-94 380t-309 114t-310.5 -114.5t-95.5 -379.5t95.5 -379t310.5 -114z" />
    <glyph glyph-name="obreve" unicode="&#x14f;" horiz-adv-x="1142" 
d="M571 1126q-123 0 -198.5 68t-75.5 178v35h160v-33q0 -60 24.5 -84t89.5 -24q66 0 91.5 24t25.5 84v33h158v-35q0 -110 -76 -178t-199 -68zM575 -20q-233 0 -370 145t-137 385q0 238 137 383t370 145q231 0 365.5 -144.5t134.5 -383.5q0 -240 -134.5 -385t-365.5 -145z
M575 176q157 0 222 79t65 255q0 174 -65 253t-222 79q-158 0 -224 -79t-66 -253q0 -175 66 -254.5t224 -79.5z" />
    <glyph glyph-name="Ohungarumlaut" unicode="&#x150;" horiz-adv-x="1427" 
d="M963 1495h-189v10l148 250h252v-10zM610 1495h-188v10l147 250h252v-10zM715 -20q-293 0 -467 192.5t-174 513.5q0 322 174 514.5t467 192.5q291 0 465 -193t174 -514t-174 -513.5t-465 -192.5zM715 193q215 0 309 113.5t94 379.5t-94 380t-309 114t-310.5 -114.5
t-95.5 -379.5t95.5 -379t310.5 -114z" />
    <glyph glyph-name="ohungarumlaut" unicode="&#x151;" horiz-adv-x="1142" 
d="M461 1147h-189v10l152 256h252v-10zM813 1147h-186v10l149 256h252v-10zM575 -20q-233 0 -370 145t-137 385q0 238 137 383t370 145q231 0 365.5 -144.5t134.5 -383.5q0 -240 -134.5 -385t-365.5 -145zM575 176q157 0 222 79t65 255q0 174 -65 253t-222 79
q-158 0 -224 -79t-66 -253q0 -175 66 -254.5t224 -79.5z" />
    <glyph glyph-name="OE" unicode="&#x152;" horiz-adv-x="2064" 
d="M1982 0h-1206q-328 0 -517 184t-189 502t189 502t517 184h1206v-198h-759v-383h729v-201h-729v-391h759v-199zM776 199h225v975h-225q-248 0 -359.5 -113t-111.5 -375t111.5 -374.5t359.5 -112.5z" />
    <glyph glyph-name="oe" unicode="&#x153;" horiz-adv-x="1904" 
d="M575 -20q-233 0 -370 145t-137 385q0 238 137 383t370 145q259 0 396 -180q137 180 389 180q209 0 338 -118t129 -324q0 -77 -12 -139h-740q6 -146 70.5 -213.5t218.5 -67.5q235 0 235 150v16h220v-18q0 -156 -125.5 -250t-331.5 -94q-270 0 -395 174
q-135 -174 -392 -174zM1356 852q-140 0 -205 -62t-74 -186h539q6 128 -60 188t-200 60zM575 176q157 0 222 79t65 255q0 174 -65 253t-222 79q-158 0 -224 -79t-66 -253q0 -175 66 -254.5t224 -79.5z" />
    <glyph glyph-name="Racute" unicode="&#x154;" horiz-adv-x="1265" 
d="M735 1495h-233v10l217 250h293v-10zM336 0h-221v1372h590q229 0 361 -108t132 -301q0 -170 -100 -269t-281 -108v-17q73 -24 122 -69.5t89 -118.5l205 -381h-256l-195 354q-34 64 -66 99t-85 55t-133 20h-162v-528zM336 1174v-463h395q133 0 189.5 53t56.5 178
q0 123 -57 177.5t-189 54.5h-395z" />
    <glyph glyph-name="racute" unicode="&#x155;" horiz-adv-x="948" 
d="M635 1147h-232v10l222 256h293v-10zM330 0h-221v1024h202v-162h11q34 77 106 126.5t178 49.5q77 0 135.5 -27t92.5 -75t50.5 -109t16.5 -135v-67h-221v41q0 103 -36 143.5t-132 40.5q-100 0 -141 -42.5t-41 -143.5v-664z" />
    <glyph glyph-name="Rcommaaccent" unicode="&#x156;" horiz-adv-x="1265" 
d="M336 0h-221v1372h590q229 0 361 -108t132 -301q0 -170 -100 -269t-281 -108v-17q73 -24 122 -69.5t89 -118.5l205 -381h-256l-195 354q-34 64 -66 99t-85 55t-133 20h-162v-528zM336 1174v-463h395q133 0 189.5 53t56.5 178q0 123 -57 177.5t-189 54.5h-395zM496 -410
h-201v11l164 256h270v-11z" />
    <glyph glyph-name="rcommaaccent" unicode="&#x157;" horiz-adv-x="948" 
d="M330 0h-221v1024h202v-162h11q34 77 106 126.5t178 49.5q77 0 135.5 -27t92.5 -75t50.5 -109t16.5 -135v-67h-221v41q0 103 -36 143.5t-132 40.5q-100 0 -141 -42.5t-41 -143.5v-664zM113 -410h-201v11l164 256h270v-11z" />
    <glyph glyph-name="Rcaron" unicode="&#x158;" horiz-adv-x="1265" 
d="M731 1761h211v-10l-211 -256h-256l-213 256v10h211l121 -147h16zM336 0h-221v1372h590q229 0 361 -108t132 -301q0 -170 -100 -269t-281 -108v-17q73 -24 122 -69.5t89 -118.5l205 -381h-256l-195 354q-34 64 -66 99t-85 55t-133 20h-162v-528zM336 1174v-463h395
q133 0 189.5 53t56.5 178q0 123 -57 177.5t-189 54.5h-395z" />
    <glyph glyph-name="rcaron" unicode="&#x159;" horiz-adv-x="948" 
d="M633 1147h-256l-211 256v10h211l121 -147h16l121 147h211v-10zM330 0h-221v1024h202v-162h11q34 77 106 126.5t178 49.5q77 0 135.5 -27t92.5 -75t50.5 -109t16.5 -135v-67h-221v41q0 103 -36 143.5t-132 40.5q-100 0 -141 -42.5t-41 -143.5v-664z" />
    <glyph glyph-name="Sacute" unicode="&#x15a;" horiz-adv-x="1236" 
d="M750 1495h-234v10l217 250h293v-10zM670 -20q-286 0 -427 119.5t-141 326.5v35h217v-23q0 -67 16 -112.5t55.5 -79t110.5 -49t177 -15.5q150 0 213 43t63 140q0 66 -19.5 102.5t-72.5 62.5t-160 48l-233 47q-181 35 -272 126t-91 250q0 78 31 147t91.5 124.5t161 88
t228.5 32.5q138 0 242.5 -36.5t166 -101t92 -145t30.5 -174.5v-25h-217v23q0 132 -71 194t-249 62q-150 0 -217 -43t-67 -135t49 -130.5t194 -70.5l234 -49q191 -39 281 -135.5t90 -253.5q0 -82 -30.5 -152t-90.5 -124.5t-159 -85.5t-226 -31z" />
    <glyph glyph-name="sacute" unicode="&#x15b;" horiz-adv-x="1013" 
d="M635 1147h-232v10l222 256h293v-10zM537 -20q-453 0 -453 364v4h213v-37q0 -85 50.5 -118t193.5 -33q117 0 155.5 25.5t38.5 86.5q0 60 -41 86.5t-157 47.5l-158 26q-145 26 -221 96.5t-76 202.5q0 140 110.5 223.5t307.5 83.5q187 0 303.5 -91t116.5 -259v-18h-211v24
q0 39 -8.5 65.5t-30.5 50t-66 35t-110 11.5q-116 0 -158.5 -29t-42.5 -92q0 -58 35.5 -82.5t144.5 -46.5l172 -33q151 -30 225 -100t74 -194q0 -141 -107 -220t-300 -79z" />
    <glyph glyph-name="Scircumflex" unicode="&#x15c;" horiz-adv-x="1236" 
d="M489 1495h-210v10l210 256h256l213 -256v-10h-210l-121 147h-17zM670 -20q-286 0 -427 119.5t-141 326.5v35h217v-23q0 -67 16 -112.5t55.5 -79t110.5 -49t177 -15.5q150 0 213 43t63 140q0 66 -19.5 102.5t-72.5 62.5t-160 48l-233 47q-181 35 -272 126t-91 250
q0 78 31 147t91.5 124.5t161 88t228.5 32.5q138 0 242.5 -36.5t166 -101t92 -145t30.5 -174.5v-25h-217v23q0 132 -71 194t-249 62q-150 0 -217 -43t-67 -135t49 -130.5t194 -70.5l234 -49q191 -39 281 -135.5t90 -253.5q0 -82 -30.5 -152t-90.5 -124.5t-159 -85.5t-226 -31
z" />
    <glyph glyph-name="scircumflex" unicode="&#x15d;" horiz-adv-x="1013" 
d="M379 1147h-211v10l211 256h256l213 -256v-10h-211l-121 147h-16zM537 -20q-453 0 -453 364v4h213v-37q0 -85 50.5 -118t193.5 -33q117 0 155.5 25.5t38.5 86.5q0 60 -41 86.5t-157 47.5l-158 26q-145 26 -221 96.5t-76 202.5q0 140 110.5 223.5t307.5 83.5
q187 0 303.5 -91t116.5 -259v-18h-211v24q0 39 -8.5 65.5t-30.5 50t-66 35t-110 11.5q-116 0 -158.5 -29t-42.5 -92q0 -58 35.5 -82.5t144.5 -46.5l172 -33q151 -30 225 -100t74 -194q0 -141 -107 -220t-300 -79z" />
    <glyph glyph-name="Scedilla" unicode="&#x15e;" horiz-adv-x="1236" 
d="M684 -442h-170v125h164q36 0 54 10.5t18 38.5q0 30 -17.5 40.5t-54.5 10.5h-123v203q-228 24 -340.5 139.5t-112.5 300.5v35h217v-23q0 -67 16 -112.5t55.5 -79t110.5 -49t177 -15.5q150 0 213 43t63 140q0 66 -19.5 102.5t-72.5 62.5t-160 48l-233 47q-181 35 -272 126
t-91 250q0 78 31 147t91.5 124.5t161 88t228.5 32.5q138 0 242.5 -36.5t166 -101t92 -145t30.5 -174.5v-25h-217v23q0 132 -71 194t-249 62q-150 0 -217 -43t-67 -135t49 -130.5t194 -70.5l234 -49q191 -39 281 -135.5t90 -253.5q0 -82 -30.5 -152t-90 -124.5t-156 -85.5
t-221.5 -31v-84h12q93 0 145 -44.5t52 -121.5q0 -79 -54.5 -125.5t-148.5 -46.5z" />
    <glyph glyph-name="scedilla" unicode="&#x15f;" horiz-adv-x="1013" 
d="M571 -442h-170v125h164q36 0 54 10.5t18 38.5q0 30 -17.5 40.5t-54.5 10.5h-123v201q-358 38 -358 360v4h213v-37q0 -85 50.5 -118t193.5 -33q117 0 155.5 25.5t38.5 86.5q0 60 -41 86.5t-157 47.5l-158 26q-145 26 -221 96.5t-76 202.5q0 140 110.5 223.5t307.5 83.5
q187 0 303.5 -91t116.5 -259v-18h-211v24q0 39 -8.5 65.5t-30.5 50t-66 35t-110 11.5q-116 0 -158.5 -29t-42.5 -92q0 -58 35.5 -82.5t144.5 -46.5l172 -33q151 -30 225 -100t74 -194q0 -136 -99.5 -214.5t-279.5 -84.5v-84h13q93 0 144.5 -44.5t51.5 -121.5
q0 -79 -54.5 -125.5t-148.5 -46.5z" />
    <glyph glyph-name="Scaron" unicode="&#x160;" horiz-adv-x="1236" 
d="M745 1761h211v-10l-211 -256h-256l-213 256v10h211l121 -147h17zM670 -20q-286 0 -427 119.5t-141 326.5v35h217v-23q0 -67 16 -112.5t55.5 -79t110.5 -49t177 -15.5q150 0 213 43t63 140q0 66 -19.5 102.5t-72.5 62.5t-160 48l-233 47q-181 35 -272 126t-91 250
q0 78 31 147t91.5 124.5t161 88t228.5 32.5q138 0 242.5 -36.5t166 -101t92 -145t30.5 -174.5v-25h-217v23q0 132 -71 194t-249 62q-150 0 -217 -43t-67 -135t49 -130.5t194 -70.5l234 -49q191 -39 281 -135.5t90 -253.5q0 -82 -30.5 -152t-90.5 -124.5t-159 -85.5t-226 -31
z" />
    <glyph glyph-name="scaron" unicode="&#x161;" horiz-adv-x="1013" 
d="M635 1147h-256l-211 256v10h211l121 -147h16l121 147h211v-10zM537 -20q-453 0 -453 364v4h213v-37q0 -85 50.5 -118t193.5 -33q117 0 155.5 25.5t38.5 86.5q0 60 -41 86.5t-157 47.5l-158 26q-145 26 -221 96.5t-76 202.5q0 140 110.5 223.5t307.5 83.5q187 0 303.5 -91
t116.5 -259v-18h-211v24q0 39 -8.5 65.5t-30.5 50t-66 35t-110 11.5q-116 0 -158.5 -29t-42.5 -92q0 -58 35.5 -82.5t144.5 -46.5l172 -33q151 -30 225 -100t74 -194q0 -141 -107 -220t-300 -79z" />
    <glyph glyph-name="Tcedilla" unicode="&#x162;" horiz-adv-x="1177" 
d="M698 0h-51v-104h12q93 0 145 -44.5t52 -121.5q0 -79 -54.5 -125.5t-148.5 -46.5h-170v125h164q36 0 54 10.5t18 38.5q0 30 -17.5 40.5t-54.5 10.5h-123v217h-45v1174h-467v198h1153v-198h-467v-1174z" />
    <glyph glyph-name="tcedilla" unicode="&#x163;" horiz-adv-x="759" 
d="M535 0q-53 0 -97 6v-110h13q93 0 144.5 -44.5t51.5 -121.5q0 -79 -54.5 -125.5t-148.5 -46.5h-170v125h164q36 0 54 10.5t18 38.5q0 30 -17.5 40.5t-54.5 10.5h-123v223h123q-126 18 -188 91t-62 216v521h-170v184h175l47 252h170v-252h307v-184h-307v-510
q0 -77 37.5 -101t144.5 -24h125v-181q-77 -18 -182 -18z" />
    <glyph glyph-name="Tcaron" unicode="&#x164;" horiz-adv-x="1177" 
d="M717 1761h211v-10l-211 -256h-256l-213 256v10h211l121 -147h16zM698 0h-219v1174h-467v198h1153v-198h-467v-1174z" />
    <glyph glyph-name="tcaron" unicode="&#x165;" horiz-adv-x="759" 
d="M557 1092h-65v131h61q26 0 35.5 9.5t9.5 39.5v41h-111v293h254v-330q0 -184 -184 -184zM535 0q-176 0 -261.5 73t-85.5 240v521h-170v184h175l47 252h170v-252h307v-184h-307v-510q0 -77 37.5 -101t144.5 -24h125v-181q-77 -18 -182 -18z" />
    <glyph glyph-name="Tbar" unicode="&#x166;" horiz-adv-x="1177" 
d="M698 0h-219v616h-356v199h356v359h-467v198h1153v-198h-467v-359h357v-199h-357v-616z" />
    <glyph glyph-name="tbar" unicode="&#x167;" horiz-adv-x="759" 
d="M18 453v184h170v197h-170v184h175l47 252h170v-252h307v-184h-307v-197h307v-184h-307v-129q0 -77 37.5 -101t144.5 -24h125v-181q-77 -18 -180 -18q-177 0 -263 73t-86 240v140h-170z" />
    <glyph glyph-name="Utilde" unicode="&#x168;" horiz-adv-x="1388" 
d="M528 1513h-151v74q0 34 6 63.5t21 59t46.5 47t75.5 17.5q56 0 142 -50l75 -41q46 -26 78 -26q39 0 39 51v51h150v-82q0 -78 -35 -128t-111 -50q-40 0 -71.5 11.5t-79.5 39.5l-80 43q-45 25 -68 25q-37 0 -37 -49v-56zM694 -20q-279 0 -431 146.5t-152 410.5v835h219v-835
q0 -187 81.5 -265.5t282.5 -78.5q200 0 281.5 78.5t81.5 265.5v835h221v-835q0 -263 -153 -410t-431 -147z" />
    <glyph glyph-name="utilde" unicode="&#x169;" horiz-adv-x="1165" 
d="M414 1165h-152v74q0 34 6.5 63.5t21.5 59t46.5 46.5t75.5 17q57 0 141 -49l76 -41q46 -26 78 -26q20 0 29 11.5t9 39.5v51h150v-82q0 -78 -34.5 -128t-110.5 -50q-40 0 -72 11.5t-80 39.5l-80 43q-45 25 -67 25q-37 0 -37 -49v-56zM487 -20q-191 0 -288 113t-97 296v629
h222v-590q0 -137 57 -197.5t188 -60.5q133 0 200 64t67 210v574h221v-1018h-205v203h-8q-41 -98 -129.5 -160.5t-227.5 -62.5z" />
    <glyph glyph-name="Umacron" unicode="&#x16a;" horiz-adv-x="1388" 
d="M977 1548h-567v160h567v-160zM694 -20q-279 0 -431 146.5t-152 410.5v835h219v-835q0 -187 81.5 -265.5t282.5 -78.5q200 0 281.5 78.5t81.5 265.5v835h221v-835q0 -263 -153 -410t-431 -147z" />
    <glyph glyph-name="umacron" unicode="&#x16b;" horiz-adv-x="1165" 
d="M862 1200h-567v160h567v-160zM487 -20q-191 0 -288 113t-97 296v629h222v-590q0 -137 57 -197.5t188 -60.5q133 0 200 64t67 210v574h221v-1018h-205v203h-8q-41 -98 -129.5 -160.5t-227.5 -62.5z" />
    <glyph glyph-name="Ubreve" unicode="&#x16c;" horiz-adv-x="1388" 
d="M694 1475q-123 0 -198.5 67.5t-75.5 177.5v23h160v-21q0 -60 24.5 -84t89.5 -24q66 0 91.5 24t25.5 84v21h158v-23q0 -110 -76 -177.5t-199 -67.5zM694 -20q-279 0 -431 146.5t-152 410.5v835h219v-835q0 -187 81.5 -265.5t282.5 -78.5q200 0 281.5 78.5t81.5 265.5v835
h221v-835q0 -263 -153 -410t-431 -147z" />
    <glyph glyph-name="ubreve" unicode="&#x16d;" horiz-adv-x="1165" 
d="M580 1126q-123 0 -199 68t-76 178v35h160v-33q0 -59 25 -83.5t90 -24.5q66 0 91 24t25 84v33h158v-35q0 -110 -75.5 -178t-198.5 -68zM487 -20q-191 0 -288 113t-97 296v629h222v-590q0 -137 57 -197.5t188 -60.5q133 0 200 64t67 210v574h221v-1018h-205v203h-8
q-41 -98 -129.5 -160.5t-227.5 -62.5z" />
    <glyph glyph-name="Uring" unicode="&#x16e;" horiz-adv-x="1388" 
d="M694 1462q-89 0 -143.5 49t-54.5 131t54.5 131.5t143.5 49.5t144 -49.5t55 -131.5t-54.5 -131t-144.5 -49zM694 1561q52 0 73 18t21 63t-21 63.5t-73 18.5q-53 0 -74.5 -18.5t-21.5 -63.5t21 -63t75 -18zM694 -20q-279 0 -431 146.5t-152 410.5v835h219v-835
q0 -187 81.5 -265.5t282.5 -78.5q200 0 281.5 78.5t81.5 265.5v835h221v-835q0 -263 -153 -410t-431 -147z" />
    <glyph glyph-name="uring" unicode="&#x16f;" horiz-adv-x="1165" 
d="M580 1114q-90 0 -144.5 49t-54.5 131t55 131.5t144 49.5t143.5 -49.5t54.5 -131.5t-54.5 -131t-143.5 -49zM580 1212q52 0 73 18.5t21 63.5t-21 63.5t-73 18.5q-54 0 -75.5 -18.5t-21.5 -63.5t21.5 -63.5t75.5 -18.5zM487 -20q-191 0 -288 113t-97 296v629h222v-590
q0 -137 57 -197.5t188 -60.5q133 0 200 64t67 210v574h221v-1018h-205v203h-8q-41 -98 -129.5 -160.5t-227.5 -62.5z" />
    <glyph glyph-name="Uhungarumlaut" unicode="&#x170;" horiz-adv-x="1388" 
d="M942 1495h-188v10l147 250h252v-10zM590 1495h-189v10l148 250h252v-10zM694 -20q-279 0 -431 146.5t-152 410.5v835h219v-835q0 -187 81.5 -265.5t282.5 -78.5q200 0 281.5 78.5t81.5 265.5v835h221v-835q0 -263 -153 -410t-431 -147z" />
    <glyph glyph-name="uhungarumlaut" unicode="&#x171;" horiz-adv-x="1165" 
d="M467 1147h-188v10l151 256h252v-10zM819 1147h-186v10l149 256h252v-10zM487 -20q-191 0 -288 113t-97 296v629h222v-590q0 -137 57 -197.5t188 -60.5q133 0 200 64t67 210v574h221v-1018h-205v203h-8q-41 -98 -129.5 -160.5t-227.5 -62.5z" />
    <glyph glyph-name="Uogonek" unicode="&#x172;" horiz-adv-x="1388" 
d="M874 -383h-153q-201 0 -201 139q0 32 16 68t32.5 57.5t43.5 52.5l41 46q-259 10 -400.5 156.5t-141.5 400.5v835h219v-835q0 -187 81.5 -265.5t282.5 -78.5q200 0 281.5 78.5t81.5 265.5v835h221v-835q0 -233 -122.5 -376.5t-346.5 -172.5l-76 -101q-41 -46 -41 -80
q0 -51 78 -51h104v-139z" />
    <glyph glyph-name="uogonek" unicode="&#x173;" horiz-adv-x="1165" 
d="M487 -20q-191 0 -288 113t-97 296v629h222v-590q0 -137 57 -197.5t188 -60.5q133 0 200 64t67 210v574h221v-1018h-2l-86 -113q-41 -46 -41 -80q0 -51 78 -51h104v-139h-154q-200 0 -200 139q0 32 16 68t32.5 57.5t43.5 52.5l59 66h-55v203h-8q-41 -98 -129.5 -160.5
t-227.5 -62.5z" />
    <glyph glyph-name="Wcircumflex" unicode="&#x174;" horiz-adv-x="2031" 
d="M885 1495h-211v10l211 256h256l213 -256v-10h-211l-121 147h-16zM684 0h-322l-317 1372h254l170 -772l59 -379h17l88 379l227 772h309l228 -772l88 -379h16l60 379l172 772h249l-319 -1372h-322l-208 698l-111 426h-18l-111 -426z" />
    <glyph glyph-name="wcircumflex" unicode="&#x175;" horiz-adv-x="1640" 
d="M692 1147h-211v10l211 256h256l213 -256v-10h-211l-121 147h-16zM563 0h-289l-251 1018h239l117 -565l41 -269h16l68 269l178 565h287l180 -567l63 -267h17l41 267l119 567h229l-252 -1018h-287l-182 567l-68 256h-16l-65 -256z" />
    <glyph glyph-name="Ycircumflex" unicode="&#x176;" horiz-adv-x="1298" 
d="M520 1495h-211v10l211 256h256l213 -256v-10h-211l-121 147h-16zM758 0h-219v510l-533 862h252l260 -424l127 -215h14l125 215l258 424h250l-534 -866v-506z" />
    <glyph glyph-name="ycircumflex" unicode="&#x177;" horiz-adv-x="1118" 
d="M430 1147h-211v10l211 256h256l213 -256v-10h-211l-121 147h-16zM283 -348q-91 0 -154 18v180h139q67 0 97.5 17.5t54.5 73.5l39 86l-432 991h243l205 -494l92 -221h17l84 221l186 494h244l-482 -1139q-55 -130 -131 -178.5t-202 -48.5z" />
    <glyph glyph-name="Ydieresis" unicode="&#x178;" horiz-adv-x="1298" 
d="M946 1495h-221v254h221v-254zM573 1495h-221v254h221v-254zM758 0h-219v510l-533 862h252l260 -424l127 -215h14l125 215l258 424h250l-534 -866v-506z" />
    <glyph glyph-name="Zacute" unicode="&#x179;" horiz-adv-x="1208" 
d="M735 1495h-233v10l217 250h293v-10zM1167 0h-1120v184l793 973v17h-752v198h1049v-184l-795 -973v-16h825v-199z" />
    <glyph glyph-name="zacute" unicode="&#x17a;" horiz-adv-x="1085" 
d="M672 1147h-232v10l222 256h292v-10zM1024 0h-963v174l496 504l131 129v16h-596v195h901v-189l-510 -503l-118 -115v-16h659v-195z" />
    <glyph glyph-name="Zdotaccent" unicode="&#x17b;" horiz-adv-x="1208" 
d="M715 1495h-221v254h221v-254zM1167 0h-1120v184l793 973v17h-752v198h1049v-184l-795 -973v-16h825v-199z" />
    <glyph glyph-name="zdotaccent" unicode="&#x17c;" horiz-adv-x="1085" 
d="M653 1147h-221v254h221v-254zM1024 0h-963v174l496 504l131 129v16h-596v195h901v-189l-510 -503l-118 -115v-16h659v-195z" />
    <glyph glyph-name="Zcaron" unicode="&#x17d;" horiz-adv-x="1208" 
d="M731 1761h211v-10l-211 -256h-256l-213 256v10h211l121 -147h16zM1167 0h-1120v184l793 973v17h-752v198h1049v-184l-795 -973v-16h825v-199z" />
    <glyph glyph-name="zcaron" unicode="&#x17e;" horiz-adv-x="1085" 
d="M670 1147h-256l-211 256v10h211l121 -147h16l121 147h211v-10zM1024 0h-963v174l496 504l131 129v16h-596v195h901v-189l-510 -503l-118 -115v-16h659v-195z" />
    <glyph glyph-name="florin" unicode="&#x192;" horiz-adv-x="901" 
d="M8 -348h-106l35 198h83q119 0 168 38.5t68 142.5l98 555h-221l35 200h221l35 195q34 200 154.5 295.5t343.5 95.5h77l-32 -198h-86q-119 0 -168 -38.5t-68 -142.5l-37 -207h289l-35 -200h-289l-94 -543q-38 -210 -148.5 -300.5t-322.5 -90.5z" />
    <glyph glyph-name="AEacute" unicode="&#x1fc;" horiz-adv-x="2140" 
d="M1386 1495h-233v10l217 250h293v-10zM272 0h-272l950 1372h1108v-198h-760v-383h730v-201h-730v-391h760v-199h-981v356h-563zM1061 1167l-414 -612h430v612h-16z" />
    <glyph glyph-name="aeacute" unicode="&#x1fd;" horiz-adv-x="1798" 
d="M1022 1147h-231v10l221 256h293v-10zM412 -20q-159 0 -254 70t-95 204q0 122 88.5 194t251.5 91l359 45v51q0 122 -56 165.5t-176 43.5q-116 0 -169.5 -43.5t-53.5 -155.5v-18h-215v20q0 172 123 281.5t324 109.5q240 0 352 -151q135 151 369 151q206 0 333 -118.5
t127 -325.5q0 -84 -10 -139h-739q5 -145 71 -212t218 -67q235 0 235 150v16h217v-18q0 -156 -125 -250t-330 -94q-302 0 -423 219q-58 -107 -171 -163t-251 -56zM1249 852q-139 0 -203 -62.5t-73 -185.5h536q6 127 -60.5 187.5t-199.5 60.5zM279 272q0 -63 42.5 -90.5
t137.5 -27.5q61 0 112.5 13.5t97 43.5t71.5 86.5t26 134.5l-330 -41q-88 -10 -122.5 -36.5t-34.5 -82.5z" />
    <glyph glyph-name="Oslashacute" unicode="&#x1fe;" horiz-adv-x="1427" 
d="M815 1495h-233v10l217 250h293v-10zM715 -20q-254 0 -420 147l-178 -188l-119 112l190 201q-114 177 -114 434q0 322 174 514.5t467 192.5q249 0 418 -146l178 189l119 -113l-191 -201q115 -179 115 -436q0 -321 -174 -513.5t-465 -192.5zM309 686q0 -161 35 -268
l647 682q-92 80 -276 80q-215 0 -310.5 -114.5t-95.5 -379.5zM715 193q215 0 309 113.5t94 379.5q0 163 -35 270l-647 -682q90 -81 279 -81z" />
    <glyph glyph-name="oslashacute" unicode="&#x1ff;" horiz-adv-x="1142" 
d="M688 1147h-231v10l221 256h293v-10zM575 -20q-208 0 -339 116l-150 -145l-86 94l152 148q-84 131 -84 317q0 238 137 383t370 145q201 0 332 -112l148 143l88 -92l-152 -148q84 -131 84 -319q0 -240 -134.5 -385t-365.5 -145zM285 510q0 -104 20 -168l463 449
q-66 51 -193 51q-158 0 -224 -79t-66 -253zM575 176q157 0 222 79t65 255q0 109 -22 174l-465 -453q70 -55 200 -55z" />
    <glyph glyph-name="Scommaaccent" unicode="&#x218;" horiz-adv-x="1236" 
d="M670 -20q-286 0 -427 119.5t-141 326.5v35h217v-23q0 -67 16 -112.5t55.5 -79t110.5 -49t177 -15.5q150 0 213 43t63 140q0 66 -19.5 102.5t-72.5 62.5t-160 48l-233 47q-181 35 -272 126t-91 250q0 78 31 147t91.5 124.5t161 88t228.5 32.5q138 0 242.5 -36.5t166 -101
t92 -145t30.5 -174.5v-25h-217v23q0 132 -71 194t-249 62q-150 0 -217 -43t-67 -135t49 -130.5t194 -70.5l234 -49q191 -39 281 -135.5t90 -253.5q0 -82 -30.5 -152t-90.5 -124.5t-159 -85.5t-226 -31zM510 -410h-201v11l164 256h270v-11z" />
    <glyph glyph-name="scommaaccent" unicode="&#x219;" horiz-adv-x="1013" 
d="M537 -20q-453 0 -453 364v4h213v-37q0 -85 50.5 -118t193.5 -33q117 0 155.5 25.5t38.5 86.5q0 60 -41 86.5t-157 47.5l-158 26q-145 26 -221 96.5t-76 202.5q0 140 110.5 223.5t307.5 83.5q187 0 303.5 -91t116.5 -259v-18h-211v24q0 39 -8.5 65.5t-30.5 50t-66 35
t-110 11.5q-116 0 -158.5 -29t-42.5 -92q0 -58 35.5 -82.5t144.5 -46.5l172 -33q151 -30 225 -100t74 -194q0 -141 -107 -220t-300 -79zM397 -410h-200v11l163 256h271v-11z" />
    <glyph glyph-name="Tcommaaccent" unicode="&#x21a;" horiz-adv-x="1177" 
d="M698 0h-219v1174h-467v198h1153v-198h-467v-1174zM479 -410h-200v11l163 256h271v-11z" />
    <glyph glyph-name="tcommaaccent" unicode="&#x21b;" horiz-adv-x="759" 
d="M535 0q-176 0 -261.5 73t-85.5 240v521h-170v184h175l47 252h170v-252h307v-184h-307v-510q0 -77 37.5 -101t144.5 -24h125v-181q-77 -18 -182 -18zM270 -410h-200v11l163 256h271v-11z" />
    <glyph glyph-name="dotlessj" unicode="&#x237;" horiz-adv-x="442" 
d="M-92 -348v201h80q78 0 101.5 18.5t23.5 81.5v1065h221v-1020q0 -99 -25 -167.5t-74.5 -107t-113 -55t-150.5 -16.5h-63z" />
    <glyph glyph-name="circumflex" unicode="&#x2c6;" 
d="M485 1147h-211v10l211 256h256l213 -256v-10h-211l-120 147h-17z" />
    <glyph glyph-name="caron" unicode="&#x2c7;" 
d="M741 1147h-256l-211 256v10h211l121 -147h17l120 147h211v-10z" />
    <glyph glyph-name="breve" unicode="&#x2d8;" 
d="M614 1126q-123 0 -198.5 68t-75.5 178v35h160v-33q0 -60 24.5 -84t89.5 -24q66 0 91.5 24t25.5 84v33h158v-35q0 -110 -76 -178t-199 -68z" />
    <glyph glyph-name="dotaccent" unicode="&#x2d9;" 
d="M725 1147h-221v254h221v-254z" />
    <glyph glyph-name="ring" unicode="&#x2da;" 
d="M614 1114q-89 0 -143.5 49t-54.5 131t54.5 131.5t143.5 49.5t144 -49.5t55 -131.5t-54.5 -131t-144.5 -49zM614 1212q52 0 73.5 18.5t21.5 63.5t-21.5 63.5t-73.5 18.5q-53 0 -74.5 -18.5t-21.5 -63.5t21.5 -63.5t74.5 -18.5z" />
    <glyph glyph-name="ogonek" unicode="&#x2db;" 
d="M791 -383h-154q-201 0 -201 139q0 32 16 68t32.5 57.5t43.5 52.5l60 66h147l-86 -113q-41 -46 -41 -80q0 -51 78 -51h105v-139z" />
    <glyph glyph-name="tilde" unicode="&#x2dc;" 
d="M449 1165h-152v74q0 27 3.5 50.5t13.5 49t25.5 44t43 30.5t63.5 12q58 0 142 -49l76 -41q46 -26 77 -26q39 0 39 51v51h150v-82q0 -78 -35 -128t-111 -50q-40 0 -71.5 11.5t-79.5 39.5l-80 43q-45 25 -68 25q-36 0 -36 -49v-56z" />
    <glyph glyph-name="hungarumlaut" unicode="&#x2dd;" 
d="M424 1147h-188v10l151 256h252v-10zM776 1147h-186v10l149 256h252v-10z" />
    <glyph glyph-name="gravecomb" unicode="&#x300;" 
d="M870 1147h-229l-283 256v10h293l219 -256v-10z" />
    <glyph glyph-name="acutecomb" unicode="&#x301;" 
d="M588 1147h-232v10l222 256h292v-10z" />
    <glyph glyph-name="circumflexcomb" unicode="&#x302;" 
d="M485 1147h-211v10l211 256h256l213 -256v-10h-211l-120 147h-17z" />
    <glyph glyph-name="tildecomb" unicode="&#x303;" 
d="M449 1165h-152v74q0 27 3.5 50.5t13.5 49t25.5 44t43 30.5t63.5 12q58 0 142 -49l76 -41q46 -26 77 -26q39 0 39 51v51h150v-82q0 -78 -35 -128t-111 -50q-40 0 -71.5 11.5t-79.5 39.5l-80 43q-45 25 -68 25q-36 0 -36 -49v-56z" />
    <glyph glyph-name="macroncomb" unicode="&#x304;" 
d="M897 1200h-567v160h567v-160z" />
    <glyph glyph-name="brevecomb" unicode="&#x306;" 
d="M614 1126q-123 0 -198.5 68t-75.5 178v35h160v-33q0 -60 24.5 -84t89.5 -24q66 0 91.5 24t25.5 84v33h158v-35q0 -110 -76 -178t-199 -68z" />
    <glyph glyph-name="dotaccentcomb" unicode="&#x307;" 
d="M725 1147h-221v254h221v-254z" />
    <glyph glyph-name="dieresiscomb" unicode="&#x308;" 
d="M911 1147h-221v254h221v-254zM537 1147h-220v254h220v-254z" />
    <glyph glyph-name="ringcomb" unicode="&#x30a;" 
d="M614 1114q-89 0 -143.5 49t-54.5 131t54.5 131.5t143.5 49.5t144 -49.5t55 -131.5t-54.5 -131t-144.5 -49zM614 1212q52 0 73.5 18.5t21.5 63.5t-21.5 63.5t-73.5 18.5q-53 0 -74.5 -18.5t-21.5 -63.5t21.5 -63.5t74.5 -18.5z" />
    <glyph glyph-name="hungarumlautcomb" unicode="&#x30b;" 
d="M424 1147h-188v10l151 256h252v-10zM776 1147h-186v10l149 256h252v-10z" />
    <glyph glyph-name="caroncomb" unicode="&#x30c;" 
d="M741 1147h-256l-211 256v10h211l121 -147h17l120 147h211v-10z" />
    <glyph glyph-name="commaturnedabovecomb" unicode="&#x312;" 
d="M631 1413h200v-10l-163 -256h-271v10z" />
    <glyph glyph-name="commaaccentcomb" unicode="&#x326;" 
d="M598 -410h-201v11l164 256h270v-11z" />
    <glyph glyph-name="cedillacomb" unicode="&#x327;" 
d="M598 -442h-170v125h164q36 0 54 10.5t18 38.5q0 30 -17.5 40.5t-54.5 10.5h-123v223h123v-110h12q93 0 145 -44.5t52 -121.5q0 -79 -54.5 -125.5t-148.5 -46.5z" />
    <glyph glyph-name="ogonekcomb" unicode="&#x328;" 
d="M791 -383h-154q-201 0 -201 139q0 32 16 68t32.5 57.5t43.5 52.5l60 66h147l-86 -113q-41 -46 -41 -80q0 -51 78 -51h105v-139z" />
    <glyph glyph-name="strokeshortcomb" unicode="&#x335;" 
d="M1020 1057h-811v170h811v-170z" />
    <glyph glyph-name="strokelongcomb" unicode="&#x336;" 
d="M1358 1001h-1487v199h1487v-199z" />
    <glyph glyph-name="slashshortcomb" unicode="&#x337;" 
d="M965 913l-635 -331l-68 133l637 329z" />
    <glyph glyph-name="slashlongcomb" unicode="&#x338;" 
d="M1186 977l-1057 -1026l-86 94l1055 1024z" />
    <glyph glyph-name="Omega" unicode="&#x3a9;" horiz-adv-x="1519" 
d="M688 0h-577v199h219q-252 134 -252 477q0 136 48 254t135 204.5t216 135.5t283 49t283 -49t216 -135.5t135 -204.5t48 -254q0 -169 -63.5 -290t-186.5 -187h219v-199h-577v199h14q105 1 177.5 34.5t111.5 97.5t55 140.5t16 179.5q0 231 -111.5 343t-336.5 112
q-447 0 -447 -455q0 -81 9.5 -145.5t34.5 -122.5t64.5 -97t103 -62.5t147.5 -24.5h16v-199z" />
    <glyph glyph-name="pi" unicode="&#x3c0;" horiz-adv-x="1341" 
d="M244 0v834h-232v184h1280v-184h-266v-521q0 -77 37 -101t145 -24h84v-180q-74 -18 -141 -18q-175 0 -260.5 73t-85.5 240v531h-340v-834h-221z" />
    <glyph glyph-name="Wgrave" unicode="&#x1e80;" horiz-adv-x="2031" 
d="M1118 1495h-231l-277 250v10h293l215 -250v-10zM684 0h-322l-317 1372h254l170 -772l59 -379h17l88 379l227 772h309l228 -772l88 -379h16l60 379l172 772h249l-319 -1372h-322l-208 698l-111 426h-18l-111 -426z" />
    <glyph glyph-name="wgrave" unicode="&#x1e81;" horiz-adv-x="1640" 
d="M956 1147h-229l-283 256v10h293l219 -256v-10zM563 0h-289l-251 1018h239l117 -565l41 -269h16l68 269l178 565h287l180 -567l63 -267h17l41 267l119 567h229l-252 -1018h-287l-182 567l-68 256h-16l-65 -256z" />
    <glyph glyph-name="Wacute" unicode="&#x1e82;" horiz-adv-x="2031" 
d="M1145 1495h-234v10l217 250h293v-10zM684 0h-322l-317 1372h254l170 -772l59 -379h17l88 379l227 772h309l228 -772l88 -379h16l60 379l172 772h249l-319 -1372h-322l-208 698l-111 426h-18l-111 -426z" />
    <glyph glyph-name="wacute" unicode="&#x1e83;" horiz-adv-x="1640" 
d="M950 1147h-231v10l221 256h293v-10zM563 0h-289l-251 1018h239l117 -565l41 -269h16l68 269l178 565h287l180 -567l63 -267h17l41 267l119 567h229l-252 -1018h-287l-182 567l-68 256h-16l-65 -256z" />
    <glyph glyph-name="Wdieresis" unicode="&#x1e84;" horiz-adv-x="2031" 
d="M1311 1495h-221v254h221v-254zM938 1495h-221v254h221v-254zM684 0h-322l-317 1372h254l170 -772l59 -379h17l88 379l227 772h309l228 -772l88 -379h16l60 379l172 772h249l-319 -1372h-322l-208 698l-111 426h-18l-111 -426z" />
    <glyph glyph-name="wdieresis" unicode="&#x1e85;" horiz-adv-x="1640" 
d="M1118 1147h-221v254h221v-254zM743 1147h-219v254h219v-254zM563 0h-289l-251 1018h239l117 -565l41 -269h16l68 269l178 565h287l180 -567l63 -267h17l41 267l119 567h229l-252 -1018h-287l-182 567l-68 256h-16l-65 -256z" />
    <glyph glyph-name="Etilde" unicode="&#x1ebc;" horiz-adv-x="1177" 
d="M440 1513h-151v74q0 34 6 63.5t21 59t46.5 47t75.5 17.5q56 0 142 -50l75 -41q46 -26 78 -26q39 0 39 51v51h150v-82q0 -78 -35 -128t-111 -50q-40 0 -71.5 11.5t-79.5 39.5l-80 43q-45 25 -68 25q-37 0 -37 -49v-56zM1096 0h-981v1372h981v-198h-760v-383h729v-201h-729
v-391h760v-199z" />
    <glyph glyph-name="etilde" unicode="&#x1ebd;" horiz-adv-x="1103" 
d="M385 1165h-152v74q0 34 6.5 63.5t21.5 59t46.5 46.5t75.5 17q57 0 141 -49l76 -41q46 -26 78 -26q39 0 39 51v51h149v-82q0 -78 -34.5 -128t-110.5 -50q-40 0 -72 11.5t-80 39.5l-80 43q-45 25 -67 25q-37 0 -37 -49v-56zM561 -20q-245 0 -369 142t-124 388
q0 238 133 383t358 145q209 0 338 -118t129 -324q0 -77 -12 -139h-740q6 -146 70.5 -213.5t218.5 -67.5q236 0 236 150v16h219v-18q0 -156 -125.5 -250t-331.5 -94zM555 852q-140 0 -205 -62t-74 -186h539q6 128 -60 188t-200 60z" />
    <glyph glyph-name="Ygrave" unicode="&#x1ef2;" horiz-adv-x="1298" 
d="M754 1495h-232l-276 250v10h293l215 -250v-10zM758 0h-219v510l-533 862h252l260 -424l127 -215h14l125 215l258 424h250l-534 -866v-506z" />
    <glyph glyph-name="ygrave" unicode="&#x1ef3;" horiz-adv-x="1118" 
d="M694 1147h-229l-283 256v10h293l219 -256v-10zM283 -348q-91 0 -154 18v180h139q67 0 97.5 17.5t54.5 73.5l39 86l-432 991h243l205 -494l92 -221h17l84 221l186 494h244l-482 -1139q-55 -130 -131 -178.5t-202 -48.5z" />
    <glyph glyph-name="Ytilde" unicode="&#x1ef8;" horiz-adv-x="1298" 
d="M483 1513h-151v74q0 34 6 63.5t21 59t46.5 47t75.5 17.5q56 0 142 -50l75 -41q46 -26 78 -26q39 0 39 51v51h150v-82q0 -78 -35 -128t-111 -50q-40 0 -71.5 11.5t-79.5 39.5l-80 43q-45 25 -68 25q-37 0 -37 -49v-56zM758 0h-219v510l-533 862h252l260 -424l127 -215h14
l125 215l258 424h250l-534 -866v-506z" />
    <glyph glyph-name="ytilde" unicode="&#x1ef9;" horiz-adv-x="1118" 
d="M393 1165h-151v74q0 27 3.5 50.5t13.5 49t25.5 44t43 30.5t63.5 12q57 0 141 -49l76 -41q46 -26 78 -26q39 0 39 51v51h149v-82q0 -78 -34.5 -128t-110.5 -50q-40 0 -71.5 11.5t-79.5 39.5l-80 43q-45 25 -68 25q-37 0 -37 -49v-56zM283 -348q-91 0 -154 18v180h139
q67 0 97.5 17.5t54.5 73.5l39 86l-432 991h243l205 -494l92 -221h17l84 221l186 494h244l-482 -1139q-55 -130 -131 -178.5t-202 -48.5z" />
    <glyph glyph-name="endash" unicode="&#x2013;" horiz-adv-x="999" 
d="M967 508h-934v188h934v-188z" />
    <glyph glyph-name="emdash" unicode="&#x2014;" horiz-adv-x="1701" 
d="M1669 508h-1636v188h1636v-188z" />
    <glyph glyph-name="quoteleft" unicode="&#x2018;" horiz-adv-x="409" 
d="M256 1397h74v-146h-68q-28 0 -40.5 -10.5t-12.5 -42.5v-43h125v-317h-281v356q0 101 52.5 152t150.5 51z" />
    <glyph glyph-name="quoteright" unicode="&#x2019;" horiz-adv-x="409" 
d="M137 813h-74v145h68q28 0 40.5 11t12.5 43v43h-125v317h281v-356q0 -101 -52.5 -152t-150.5 -51z" />
    <glyph glyph-name="quotesinglbase" unicode="&#x201a;" horiz-adv-x="458" 
d="M141 -242h-73v146h67q28 0 40.5 10.5t12.5 42.5v43h-125v317h281v-356q0 -101 -52.5 -152t-150.5 -51z" />
    <glyph glyph-name="quotedblleft" unicode="&#x201c;" horiz-adv-x="804" 
d="M256 1397h74v-146h-68q-28 0 -40.5 -10.5t-12.5 -42.5v-43h125v-317h-281v356q0 101 52.5 152t150.5 51zM639 1397h74v-146h-68q-28 0 -40.5 -10.5t-12.5 -42.5v-43h125v-317h-281v356q0 101 52.5 152t150.5 51z" />
    <glyph glyph-name="quotedblright" unicode="&#x201d;" horiz-adv-x="804" 
d="M547 813h-74v145h68q28 0 40.5 11t12.5 43v43h-125v317h281v-356q0 -101 -52.5 -152t-150.5 -51zM166 813h-74v145h68q28 0 40.5 11t12.5 43v43h-125v317h281v-356q0 -101 -52.5 -152t-150.5 -51z" />
    <glyph glyph-name="quotedblbase" unicode="&#x201e;" horiz-adv-x="761" 
d="M141 -242h-73v146h67q28 0 40.5 10.5t12.5 42.5v43h-125v317h281v-356q0 -101 -52.5 -152t-150.5 -51zM524 -242h-73v146h67q28 0 40.5 10.5t12.5 42.5v43h-125v317h281v-356q0 -101 -52.5 -152t-150.5 -51z" />
    <glyph glyph-name="dagger" unicode="&#x2020;" horiz-adv-x="913" 
d="M565 0h-219v840h-313v184h313v348h219v-348h316v-184h-316v-840z" />
    <glyph glyph-name="daggerdbl" unicode="&#x2021;" horiz-adv-x="913" 
d="M565 0h-219v348h-313v184h313v308h-313v184h313v348h219v-348h316v-184h-316v-308h316v-184h-316v-348z" />
    <glyph glyph-name="bullet" unicode="&#x2022;" horiz-adv-x="684" 
d="M342 434q-106 0 -179 69t-73 183t73 183t179 69q107 0 179.5 -69t72.5 -183t-72.5 -183t-179.5 -69z" />
    <glyph glyph-name="ellipsis" unicode="&#x2026;" horiz-adv-x="1310" 
d="M365 0h-281v317h281v-317zM797 0h-281v317h281v-317zM1227 0h-281v317h281v-317z" />
    <glyph glyph-name="perthousand" unicode="&#x2030;" horiz-adv-x="2357" 
d="M383 713q-156 0 -246 95t-90 245t90 245t246 95q157 0 246.5 -95t89.5 -245t-89.5 -245t-246.5 -95zM377 0h-217l1050 1372h215zM383 868q90 0 128 42.5t38 142.5t-37.5 142t-128.5 42q-90 0 -127 -42t-37 -142t37 -142.5t127 -42.5zM1972 -20q-157 0 -246.5 94
t-89.5 245q0 150 90 245t246 95q158 0 248 -95t90 -245q0 -151 -90 -245t-248 -94zM1200 -20q-157 0 -246.5 94t-89.5 245q0 150 90 245t246 95q157 0 246.5 -95t89.5 -245q0 -151 -89 -245t-247 -94zM1972 135q91 0 128.5 42t37.5 142t-38 142.5t-128 42.5
q-89 0 -126.5 -42.5t-37.5 -142.5t37.5 -142t126.5 -42zM1200 135q91 0 128.5 42t37.5 142t-38 142.5t-128 42.5t-127 -42.5t-37 -142.5t37 -142t127 -42z" />
    <glyph glyph-name="guilsinglleft" unicode="&#x2039;" horiz-adv-x="520" 
d="M49 743l410 283v-225l-256 -168v-17l256 -167v-226l-410 283v237z" />
    <glyph glyph-name="guilsinglright" unicode="&#x203a;" horiz-adv-x="520" 
d="M471 506l-410 -283v226l256 167v17l-256 168v225l410 -283v-237z" />
    <glyph glyph-name="fraction" unicode="&#x2044;" horiz-adv-x="430" 
d="M-201 0h-217l1051 1372h215z" />
    <glyph glyph-name="zero.superior" unicode="&#x2070;" horiz-adv-x="790" 
d="M395 666q-160 0 -251 99t-91 263t91 264.5t251 100.5t251 -100.5t91 -264.5t-91 -263t-251 -99zM395 821q97 0 134.5 45t37.5 162q0 119 -37.5 164t-134.5 45t-134.5 -45t-37.5 -164q0 -117 37.5 -162t134.5 -45z" />
    <glyph glyph-name="four.superior" unicode="&#x2074;" horiz-adv-x="776" 
d="M616 686h-161v135h-402v125l383 426h180v-405h107v-146h-107v-135zM236 967h219v241h-9l-210 -231v-10z" />
    <glyph glyph-name="Euro" unicode="&#x20ac;" horiz-adv-x="1462" 
d="M803 -20q-245 0 -407.5 129.5t-215.5 357.5h-160v145h138q-2 25 -2 74t2 74h-138v145h160q53 229 215.5 358.5t407.5 129.5q272 0 429 -140t157 -370v-13h-236v13q0 151 -84.5 224t-271.5 73q-166 0 -259 -65t-126 -210h549v-145h-568q-2 -23 -2 -74t2 -74h568v-145h-549
q33 -145 126 -209.5t259 -64.5q187 0 271.5 72.5t84.5 223.5v13h236v-13q0 -230 -157 -369.5t-429 -139.5z" />
    <glyph glyph-name="indianrupee" unicode="&#x20b9;" horiz-adv-x="1173" 
d="M1020 0h-262l-273 377q-55 74 -117 107.5t-169 33.5h-125v184h354q116 0 170 35t66 119h-590v184h594v148h-594v184h1038v-184h-225v-148h225v-184h-231q-19 -134 -107 -206.5t-242 -71.5v-9q66 -27 120 -77.5t112 -129.5z" />
    <glyph glyph-name="trademark" unicode="&#x2122;" horiz-adv-x="1130" 
d="M666 961h-107v411h146l114 -280h6l113 280h145v-411h-106v172l2 69h-8l-92 -217h-119l-90 217h-6l2 -67v-174zM326 961h-117v303h-162v108h440v-108h-161v-303z" />
    <glyph glyph-name="Ohm" unicode="&#x2126;" horiz-adv-x="1519" 
d="M688 0h-577v199h219q-252 134 -252 477q0 136 48 254t135 204.5t216 135.5t283 49t283 -49t216 -135.5t135 -204.5t48 -254q0 -169 -63.5 -290t-186.5 -187h219v-199h-577v199h14q105 1 177.5 34.5t111.5 97.5t55 140.5t16 179.5q0 231 -111.5 343t-336.5 112
q-447 0 -447 -455q0 -81 9.5 -145.5t34.5 -122.5t64.5 -97t103 -62.5t147.5 -24.5h16v-199z" />
    <glyph glyph-name="estimated" unicode="&#x212e;" horiz-adv-x="1486" 
d="M760 -20q-336 0 -515 188t-179 518q0 326 179 516.5t507 190.5q174 0 304 -53.5t210 -152.5t118.5 -233t36.5 -303h-966v-389q113 -69 305 -69q185 0 292 80t107 235h236q2 -228 -173 -378t-462 -150zM455 1112v-262h577v262q-121 68 -280 68q-176 0 -297 -68z" />
    <glyph glyph-name="partialdiff" unicode="&#x2202;" horiz-adv-x="1314" 
d="M543 -20q-240 0 -361 97.5t-121 284.5q0 212 153 350t394 138q310 0 373 -209h10q33 149 33 250q0 289 -317 289h-301v213h311q261 0 394.5 -134.5t133.5 -375.5q0 -195 -44.5 -358.5t-130 -285.5t-220.5 -190.5t-307 -68.5zM575 193q167 0 260 71.5t93 202.5
q0 104 -66.5 150.5t-216.5 46.5q-180 0 -271 -66.5t-91 -218.5q0 -101 66 -143.5t226 -42.5z" />
    <glyph glyph-name="product" unicode="&#x220f;" horiz-adv-x="1290" 
d="M352 -236h-221v1608h1028v-1608h-221v1410h-586v-1410z" />
    <glyph glyph-name="summation" unicode="&#x2211;" horiz-adv-x="1085" 
d="M1042 -236h-942v187l365 391l199 217v16l-205 220l-359 389v188h942v-194h-645v-17l99 -108l372 -398v-174l-372 -397l-99 -109v-18h645v-193z" />
    <glyph glyph-name="minus" unicode="&#x2212;" horiz-adv-x="1024" 
d="M922 594h-854v184h854v-184z" />
    <glyph glyph-name="radical" unicode="&#x221a;" horiz-adv-x="1429" 
d="M1008 0h-279l-307 819l-313 -182l-109 180l346 201h246l272 -807h17l407 1161h240z" />
    <glyph glyph-name="infinity" unicode="&#x221e;" horiz-adv-x="1476" 
d="M426 307q-157 0 -256.5 104t-99.5 275t99.5 275t256.5 104q110 0 188.5 -47t102.5 -139q49 87 127.5 136.5t210.5 49.5q154 0 253 -104t99 -275t-99 -275t-255 -104q-113 0 -192 49t-103 144q-47 -89 -124.5 -141t-207.5 -52zM1030 874q-21 0 -40.5 -4.5t-34 -10.5
t-29.5 -19.5t-24.5 -22.5t-21.5 -30t-18 -32t-17 -37.5t-15 -37.5t-15 -41q27 -141 203 -141q174 0 174 188q0 95 -43 141.5t-119 46.5zM285 686q0 -95 44.5 -141.5t123.5 -46.5q36 0 65.5 14.5t46.5 29t37 54.5t27 58t25 73l1.5 4.5l1.5 4.5t2 5q-27 133 -198 133
q-176 0 -176 -188z" />
    <glyph glyph-name="integral" unicode="&#x222b;" horiz-adv-x="657" 
d="M-41 -348v176h76q74 0 108.5 29.5t34.5 93.5v1059q0 177 102 269.5t298 92.5h40v-176h-75q-74 0 -109 -29.5t-35 -93.5v-1059q0 -177 -101.5 -269.5t-297.5 -92.5h-41z" />
    <glyph glyph-name="approxequal" unicode="&#x2248;" horiz-adv-x="1062" 
d="M256 354h-188v138q0 136 88 188v4h-88v121q0 242 215 242q77 0 192 -64l119 -53q106 -56 156 -56q61 0 61 66v96h184v-139q0 -137 -86 -188v-4h86v-130q0 -47 -9.5 -86t-30.5 -73t-60 -53t-94 -19q-43 0 -87.5 12t-70.5 24t-74 36l-116 53q-88 47 -129 47
q-36 0 -52 -17.5t-16 -54.5v-90zM778 528q68 0 68 74v82q-17 -10 -35 -10q-86 0 -238 76l-129 59q-90 51 -141 51q-84 0 -84 -80v-73q23 10 47 10q80 0 201 -64l135 -63q45 -22 63.5 -30.5t53 -20t59.5 -11.5z" />
    <glyph glyph-name="notequal" unicode="&#x2260;" horiz-adv-x="1003" 
d="M936 362h-545l-129 -210l-141 77l82 133h-121v185h233l170 278h-403v185h516l133 217l141 -78l-86 -139h150v-185h-262l-170 -278h432v-185z" />
    <glyph glyph-name="lessequal" unicode="&#x2264;" horiz-adv-x="983" 
d="M915 98h-854v185h658v16l-658 258v258l854 326v-209l-653 -238v-16l653 -236v-344z" />
    <glyph glyph-name="greaterequal" unicode="&#x2265;" horiz-adv-x="983" 
d="M922 98h-854v344l651 236v16l-651 238v209l854 -326v-258l-660 -258v-16h660v-185z" />
    <glyph glyph-name="lozenge" unicode="&#x25ca;" horiz-adv-x="1120" 
d="M555 98h14l238 502l-238 502h-14l-236 -502zM698 -94h-278l-346 694l346 694h278l349 -694z" />
    <glyph glyph-name="t_t" horiz-adv-x="1366" 
d="M498 0q-158 0 -237 73t-79 240v521h-155v184h159l45 252h172v-252h398l47 252h170v-252h307v-184h-307v-510q0 -77 37.5 -101t144.5 -24h125v-181q-77 -18 -182 -18q-175 0 -260.5 73t-85.5 240v521h-394v-510q0 -77 37.5 -101t143.5 -24h104v-181q-74 -18 -190 -18z" />
    <glyph glyph-name="tcaron_t" horiz-adv-x="1366" 
d="M551 1092h-66v131h62q26 0 35.5 9.5t9.5 39.5v41h-111v293h254v-330q0 -184 -184 -184zM498 0q-158 0 -237 73t-79 240v521h-155v184h159l45 252h172v-252h398l47 252h170v-252h307v-184h-307v-510q0 -77 37.5 -101t144.5 -24h125v-181q-77 -18 -182 -18
q-175 0 -260.5 73t-85.5 240v521h-394v-510q0 -77 37.5 -101t143.5 -24h104v-181q-74 -18 -190 -18z" />
    <glyph glyph-name="IJacute" horiz-adv-x="1570" 
d="M356 1495h-233v10l217 250h293v-10zM1479 1495h-234v10l217 250h293v-10zM336 0h-221v1372h221v-1372zM963 -20q-137 0 -237.5 37.5t-161 107.5t-89.5 163t-29 212v57h234v-74q0 -83 10 -133t39.5 -88t84 -53.5t142.5 -15.5q87 0 141 15.5t84 53.5t40 88.5t10 132.5v889
h235v-872q0 -243 -123 -381.5t-380 -138.5z" />
    <glyph glyph-name="idotaccent" horiz-adv-x="411" 
d="M315 1147h-219l-2 225h221v-225zM317 0h-221v1024h221v-1024z" />
    <glyph glyph-name="ijacute" horiz-adv-x="888" 
d="M332 1147h-232v10l222 256h292v-10zM795 1147h-232v10l221 256h293v-10zM315 0h-221v1024h221v-1024zM354 -348v201h80q78 0 101.5 18.5t23.5 81.5v1065h221v-1020q0 -99 -25 -167.5t-74 -107t-112.5 -55t-150.5 -16.5h-64z" />
    <glyph glyph-name="acutecomb.case" 
d="M592 1495h-234v10l217 250h293v-10z" />
    <glyph glyph-name="brevecomb.case" 
d="M614 1475q-123 0 -198.5 67.5t-75.5 177.5v23h160v-21q0 -60 24.5 -84t89.5 -24q66 0 91.5 24t25.5 84v21h158v-23q0 -110 -76 -177.5t-199 -67.5z" />
    <glyph glyph-name="caroncomb.alt" 
d="M557 858h-65v131h61q26 0 35.5 9.5t9.5 39.5v41h-111v293h254v-330q0 -184 -184 -184z" />
    <glyph glyph-name="caroncomb.alt.case" 
d="M557 858h-65v131h61q26 0 35.5 9.5t9.5 39.5v41h-111v293h254v-330q0 -184 -184 -184z" />
    <glyph glyph-name="caroncomb.case" 
d="M741 1761h211v-10l-211 -256h-256l-213 256v10h211l121 -147h17z" />
    <glyph glyph-name="cedillacomb.case" 
d="M598 -442h-170v125h164q36 0 54 10.5t18 38.5q0 30 -17.5 40.5t-54.5 10.5h-123v223h123v-110h12q93 0 145 -44.5t52 -121.5q0 -79 -54.5 -125.5t-148.5 -46.5z" />
    <glyph glyph-name="circumflexcomb.case" 
d="M485 1495h-211v10l211 256h256l213 -256v-10h-211l-120 147h-17z" />
    <glyph glyph-name="commaaccentcomb.case" 
d="M598 -410h-201v11l164 256h270v-11z" />
    <glyph glyph-name="dieresiscomb.case" 
d="M911 1495h-221v254h221v-254zM539 1495h-222v254h222v-254z" />
    <glyph glyph-name="dotaccentcomb.case" 
d="M725 1495h-221v254h221v-254z" />
    <glyph glyph-name="gravecomb.case" 
d="M868 1495h-231l-277 250v10h293l215 -250v-10z" />
    <glyph glyph-name="hungarumlautcomb.case" 
d="M778 1495h-188v10l147 250h252v-10zM426 1495h-188v10l147 250h252v-10z" />
    <glyph glyph-name="macroncomb.case" 
d="M897 1548h-567v160h567v-160z" />
    <glyph glyph-name="ogonekcomb.case" 
d="M791 -383h-154q-201 0 -201 139q0 32 16 68t32.5 57.5t43.5 52.5l60 66h147l-86 -113q-41 -46 -41 -80q0 -51 78 -51h105v-139z" />
    <glyph glyph-name="ringcomb.case" 
d="M614 1462q-89 0 -143.5 49t-54.5 131t54.5 131.5t143.5 49.5t144 -49.5t55 -131.5t-54.5 -131t-144.5 -49zM614 1561q52 0 73.5 18.5t21.5 62.5q0 45 -21.5 63.5t-73.5 18.5q-53 0 -74.5 -18.5t-21.5 -63.5t21 -63t75 -18z" />
    <glyph glyph-name="slashlongcomb.case" 
d="M1329 1323l-1313 -1384l-118 112l1312 1385z" />
    <glyph glyph-name="slashshortcomb.case" 
d="M1018 836l-807 -332v209l807 331v-208z" />
    <glyph glyph-name="strokeshortcomb.case" 
d="M1079 616h-932v199h932v-199z" />
    <glyph glyph-name="tildecomb.case" 
d="M449 1513h-152v74q0 34 6 63.5t21 59t46.5 47t75.5 17.5q56 0 142 -50l76 -41q46 -26 77 -26q39 0 39 51v51h150v-82q0 -78 -35 -128t-111 -50q-40 0 -71.5 11.5t-79.5 39.5l-80 43q-45 25 -68 25q-36 0 -36 -49v-56z" />
    <glyph glyph-name="d.component" horiz-adv-x="1247" 
d="M512 -20q-212 0 -328 125.5t-116 343.5q0 217 114 341.5t322 124.5q118 0 206.5 -51.5t127.5 -128.5h6v637h219v-1372h-203v168h-8q-40 -87 -129.5 -137.5t-210.5 -50.5zM289 449q0 -154 64.5 -217.5t213.5 -63.5q130 0 203.5 63t73.5 187v59q0 124 -73.5 187t-201.5 63
q-150 0 -215 -63t-65 -215z" />
    <glyph glyph-name="h.component" horiz-adv-x="1236" 
d="M401 0h-219v1372h219v-647h11q41 80 126.5 135t213.5 55q190 0 283 -109.5t93 -287.5v-518h-219v467q0 139 -53.5 198.5t-189.5 59.5q-139 0 -202 -60t-63 -202v-463z" />
    <glyph glyph-name="ITF" horiz-adv-x="3561" 
d="M225 0v1434h443v-1434h-443zM760 1016v418h442v-418h-442zM1292 0v1434h445v-1434h-445zM1827 1016v418h442v-418h-442zM2359 0v1434h445v-1434h-445zM2894 1016v418h442v-418h-442zM2894 506v420h442v-420h-442z" />
    </font>
</defs>
</svg>
